<?xml version="1.0" encoding="UTF-8"?>
<!DOCTYPE svg PUBLIC "-//W3C//DTD SVG 1.1//EN" "http://www.w3.org/Graphics/SVG/1.1/DTD/svg11.dtd">
<!-- Creator: CorelDRAW -->
<svg xmlns="http://www.w3.org/2000/svg" xml:space="preserve" width="2.9958in" height="1.88363in" style="shape-rendering:geometricPrecision; text-rendering:geometricPrecision; image-rendering:optimizeQuality; fill-rule:evenodd; clip-rule:evenodd"
viewBox="0 0 2.9958 1.88363"
 xmlns:xlink="http://www.w3.org/1999/xlink">
 <defs>
  <style type="text/css">
   <![CDATA[
    .fil0 {fill:#373435}
   ]]>
  </style>
 </defs>
 <g id="Layer_x0020_1">
  <metadata id="CorelCorpID_0Corel-Layer"/>
  <g id="_294596752">
   <path id="_294596608" class="fil0" d="M-0 1.68214l0.870441 0 0.154858 -0.160205 0 -0.192248 0.0747638 0 0 0.21361 1.89574 0 0 -1.05201 -0.256323 0 -0.210933 -0.210929 0 -0.280362 -0.851752 0 -0.101465 0.747614 -0.736933 0.288374 0 0.368469 -0.101465 0 0 -0.469933 -0.731598 0.667516 -0.00533465 0.0801024zm1.77291 -1.08405l0.518 -0.208264 0 -0.170886 -0.485957 0 -0.0320433 0.37915z"/>
   <path id="_294596800" class="fil0" d="M1.58279 1.16913c0.197303,0 0.357252,0.159949 0.357252,0.357252 0,0.197303 -0.159949,0.357252 -0.357252,0.357252 -0.197303,0 -0.357252,-0.159949 -0.357252,-0.357252 0,-0.197303 0.159949,-0.357252 0.357252,-0.357252zm0.167126 0.374169c-0.0239606,0.069252 -0.0897323,0.118976 -0.167126,0.118976 -0.0773937,0 -0.143169,-0.0497244 -0.167126,-0.118976l0.334252 0z"/>
   <path id="_294596992" class="fil0" d="M2.44351 1.16913c0.197303,0 0.357252,0.159949 0.357252,0.357252 0,0.197303 -0.159949,0.357252 -0.357252,0.357252 -0.197303,0 -0.357252,-0.159949 -0.357252,-0.357252 0,-0.197303 0.159949,-0.357252 0.357252,-0.357252zm0.167126 0.374169c-0.0239567,0.069252 -0.0897323,0.118976 -0.167126,0.118976 -0.0773937,0 -0.143165,-0.0497244 -0.167126,-0.118976l0.334252 0z"/>
  </g>
 </g>
</svg>
