<?xml version="1.0" encoding="UTF-8"?>
<!DOCTYPE svg PUBLIC "-//W3C//DTD SVG 1.1//EN" "http://www.w3.org/Graphics/SVG/1.1/DTD/svg11.dtd">
<!-- Creator: CorelDRAW -->
<svg xmlns="http://www.w3.org/2000/svg" xml:space="preserve" width="3.39147in" height="2.62889in" style="shape-rendering:geometricPrecision; text-rendering:geometricPrecision; image-rendering:optimizeQuality; fill-rule:evenodd; clip-rule:evenodd"
viewBox="0 0 3.39147 2.6289"
 xmlns:xlink="http://www.w3.org/1999/xlink">
 <defs>
  <style type="text/css">
   <![CDATA[
    .fil0 {fill:#373435}
   ]]>
  </style>
 </defs>
 <g id="Layer_x0020_1">
  <metadata id="CorelCorpID_0Corel-Layer"/>
  <path class="fil0" d="M1.48234 0.00439371c-0.325835,0.063315 -0.249425,0.570493 0.0999647,0.500457 0.121614,-0.024378 0.223658,-0.146225 0.197205,-0.299678 -0.0208229,-0.120823 -0.154685,-0.228473 -0.29717,-0.20078zm-1.0731 0.567524l0.363339 0.0123583c0.000759843,0.058378 0.006563,0.0466103 -0.0438347,0.111933l-0.218733 0.287016 -0.124784 -0.0561969 0.0240118 -0.355111zm0.242311 1.75716c0.0155315,-0.124453 0.0664646,-0.291083 0.0633347,-0.408752 -0.00291339,-0.109858 -0.0494882,-0.309485 -0.0162914,-0.395918 0.121591,0.119079 0.198575,0.288933 0.30065,0.387445 0.0396221,0.0394804 0.0290237,0.0128465 0.042315,0.0743465 0.100776,-0.0504016 0.058378,-0.0374882 0.109721,-0.0806497 0.0511851,-0.0430237 0.0573426,-0.00683465 0.101599,-0.0563347l0.00343701 -0.00784253c-0.0490591,-0.0361418 -0.194158,-0.306922 -0.214922,-0.368567 -0.00281496,-0.00341733 -0.00666143,-0.00808662 -0.00835828,-0.010311 -0.00164173,-0.00215748 -0.00620079,-0.00728347 -0.00814568,-0.00993702l-0.0370867 -0.0612087 -0.0129291 -0.034315c-0.00193701,-0.0032126 -0.00248425,-0.00910631 -0.00287008,-0.0108858l-0.00476379 -0.0269725c-0.00245276,-0.0101339 0.0350315,0.0111496 -0.0114843,-0.0213189l-0.00834647 0.0388622c-0.00128347,0.0120197 -0.000838584,0.0400355 -0.00151969,0.0494134 -0.0031063,0.043004 0.000992127,0.0574135 -0.0244252,0.0913741l-0.0474095 -0.00897245c-0.0378268,-0.0181536 -0.022567,0.0123189 -0.0367914,-0.0323859 -0.00266536,-0.00837796 -0.00721654,-0.00968899 -0.0105394,-0.0147284l-0.114059 0.029441c-0.0310709,-0.00398426 -0.0876655,-0.00270079 -0.0289843,-0.0455788 0.0304567,-0.0222559 0.0695867,-0.00575198 0.075815,-0.0197992 0.00226378,-0.00511812 0.00922836,-0.00156693 0.0136457,-0.00305118l-0.0950749 -0.126063 0.186547 -0.0299685 -0.00154725 -0.0971615 0.0225748 0.0508701c0.0336575,0.0237756 0.0187599,0.0131339 0.0187638,0.0860395l0.0525394 -0.0126457c0.00674017,-0.0929371 0.073819,-0.128886 0.125701,-0.169008 0.0658032,-0.0508859 0.0796773,-0.0968702 0.16789,-0.123036l0.0304804 0.192847 0.0682796 -0.0191733c0.039563,0.149366 0.00311418,0.0402796 0.0350591,0.0926851 0.0214213,-0.0647087 0.0228937,-0.0589646 0.0558859,-0.0827836l0.0156575 -0.00829529c0.000539371,-0.000299213 0.0270276,-0.0348307 0.00430315,-0.000476379 0.0383504,0.0789647 0.0207362,0.107106 0.0363504,0.0774135 0.00148032,-0.00282677 0.0047756,0.0114449 0.00781497,0.0168347l0.00973229 -0.0721143c0.036,-0.425839 -0.121524,-0.745832 -0.495701,-0.811099 -0.126213,-0.0220158 -0.486005,-0.000803151 -0.629292,0.00831891l-0.222548 0.438004c-0.0569686,-0.026437 -0.0758308,-0.0577953 -0.135512,-0.0540946l-0.029437 0.00681891c-0.00850395,0.0690237 0.016437,0.0620946 0.0778977,0.0936064 0.109925,0.0563662 0.0501182,0.0177441 0.100169,0.104504 0.0419567,0.0727324 0.0497993,0.0543426 0.130402,0.0527914l0.146433 0.0496142c-0.03263,0.0694135 -0.0760631,0.0978466 -0.104917,0.181579 -0.0685513,0.198898 0.126162,0.567985 0.10476,0.788958 -0.0104252,0.107626 -0.0961773,0.463737 -0.0600119,0.544729 0.034563,0.0774056 0.15341,0.0813505 0.19902,0.00588977 0.0249095,-0.0412245 0.0387481,-0.183673 0.056189,-0.238937zm0.629465 -1.17477l0.0122126 0.0297796c0.0727206,0.0180788 0.0128701,0.0473859 0.0791773,0.0626339l0.0800395 -0.0647442 0.0236063 0.0629095c0.00240945,0.00254331 0.00753544,0.00548426 0.00998426,0.00759056l0.0227126 0.0137599 -0.0544764 0.0346024 0.0154646 0.103551c0.0528347,-0.0541733 0.00247638,0.0290748 0.024441,-0.0366496 0.00618898,-0.0185158 0.000145669,-0.0213386 0.00976379,-0.0564568l0.0318032 0.00529528 -0.000295276 -0.0340552 -0.0213504 -0.124126 -0.00973229 0.0721143c-0.00303937,-0.00538977 -0.00633465,-0.0196614 -0.00781497,-0.0168347 -0.0156142,0.0296929 0.002,0.00155118 -0.0363504,-0.0774135 0.0227244,-0.0343544 -0.00376378,0.000177166 -0.00430315,0.000476379l-0.0156575 0.00829529c-0.0329922,0.0238189 -0.0344646,0.0180748 -0.0558859,0.0827836 -0.0319449,-0.0524056 0.00450394,0.0566812 -0.0350591,-0.0926851l-0.0682796 0.0191733zm0.0369449 0.249166l0.0492481 0.0408071c0.0373189,-0.0492796 -0.000153543,0.00568111 -0.0205945,-0.0505867l0.00345276 -0.121354 0.120008 0.175122c0.100921,0.0125669 0.0114725,0.00757087 0.0330315,-0.0307205l-0.0333701 -0.0123504 -0.0154646 -0.103551 0.0544764 -0.0346024 -0.0227126 -0.0137599c-0.00244882,-0.0021063 -0.00757481,-0.00504725 -0.00998426,-0.00759056l-0.0236063 -0.0629095 -0.0800395 0.0647442c-0.0663072,-0.015248 -0.0064567,-0.0445552 -0.0791773,-0.0626339l0.0247323 0.219386zm0 0l-0.00852757 0.0334646 -0.00511418 0.0264961 0.114236 0.0142166c-0.00740158,-0.0624843 -0.00942127,-0.0128307 0.03213,-0.00222048 0.0634489,0.0162047 0.0664765,0.00909056 0.106201,-0.010189l-0.00708662 -0.0418662c-0.00803544,-0.070567 -0.000322835,-0.0309252 -0.019878,-0.045441 -0.0342244,0.0237008 -0.0118071,0.00547245 -0.026815,0.0388071 -0.0215591,0.0382914 0.0678898,0.0432875 -0.0330315,0.0307205l-0.120008 -0.175122 -0.00345276 0.121354c0.020441,0.0562678 0.0579135,0.00130709 0.0205945,0.0505867l-0.0492481 -0.0408071zm-0.231378 0.00183071c0.0612284,0.0453741 0.132882,0.0718269 0.191792,0.104591 0.111181,0.0618308 0.0427796,0.0849135 0.157496,0.111126 0.117665,0.0237796 0.755607,0.4018 0.873186,0.467949 -0.0822521,0.0610079 -0.0798426,0.0423386 -0.136701,0.137701 -0.0447914,0.07513 -0.0756261,0.100225 -0.173327,0.113732l-0.284091 0.28287 1.67653 -0.00211811c-0.0354528,-0.399953 -0.353678,-0.416544 -0.500304,-0.581343 -0.180788,-0.203193 -0.283118,-0.0799135 -0.426729,0.0378504 -0.0733505,-0.0262205 -0.77578,-0.421205 -0.913387,-0.495851l0.00584253 -0.116571c-0.0397245,0.0192795 -0.042752,0.0263937 -0.106201,0.010189 -0.0415512,-0.0106102 -0.0395315,-0.0602638 -0.03213,0.00222048l-0.114236 -0.0142166 0.00511418 -0.0264961 -0.0518859 -0.0358071c-0.00986222,-0.00367717 -0.031504,-0.0131929 -0.0403229,-0.0179488 -0.00246457,-0.00133071 -0.00851576,-0.00246457 -0.0103189,-0.00783072 -0.00174803,-0.00520079 -0.00622442,-0.00558662 -0.00935828,-0.00834647l-0.0796536 -0.0442048c-0.0234803,0.0131339 -0.0719647,-0.0439134 -0.0313111,0.082504zm0.383154 -0.000913387l0.0333701 0.0123504c0.0150079,-0.0333347 -0.00740946,-0.0151063 0.026815,-0.0388071l0.00582284 -0.0613544 -0.0318032 -0.00529528c-0.00961812,0.0351182 -0.00357481,0.037941 -0.00976379,0.0564568 -0.0219646,0.0657245 0.0283937,-0.0175236 -0.024441,0.0366496zm-0.757072 0.0464725l0.00307087 -0.0305433 0.0968938 -0.0207717c-0.013752,-0.0369331 0.0230512,-0.00964568 -0.113949,-0.0707914l0.128536 -0.0625198c-0.0661851,0.0403662 0.0200315,-0.026063 -0.0943348,0.0342835 0.0302914,0.0439174 0.157433,0.0474764 0.0938426,0.120902 0.00332284,0.00503938 0.00787402,0.0063504 0.0105394,0.0147284 0.0142244,0.0447048 -0.00103543,0.0142323 0.0367914,0.0323859l0.0474095 0.00897245c0.0254174,-0.0339607 0.0213189,-0.0483701 0.0244252,-0.0913741 0.000681103,-0.00937796 0.000236221,-0.0373937 0.00151969,-0.0494134l0.00834647 -0.0388622c0.0465158,0.0324685 0.00903151,0.0111851 0.0114843,0.0213189l0.00476379 0.0269725c0.000385827,0.00177953 0.000933072,0.00767324 0.00287008,0.0108858l0.0329646 -0.00455906 -0.0692284 -0.0817521c-0.0242953,0.0399134 -0.00533071,-0.0356339 -0.021752,0.0463701l-0.0125394 0.131327c-0.0246496,-0.0329252 -0.0148307,-0.0125118 -0.0169725,-0.113209 -0.00115748,-0.054193 -0.00469292,-0.100984 -0.00170473,-0.155103l-0.0225748 -0.0508701 0.00154725 0.0971615 -0.186547 0.0299685 0.0950749 0.126063c-0.00441733,0.00148425 -0.0113819,-0.00206693 -0.0136457,0.00305118 -0.00622835,0.0140473 -0.0453583,-0.0024567 -0.075815,0.0197992 -0.0586812,0.042878 -0.00208662,0.0415945 0.0289843,0.0455788zm0 0l0.114059 -0.029441c0.0635906,-0.0734253 -0.0635513,-0.0769843 -0.0938426,-0.120902 0.114366,-0.0603465 0.0281496,0.00608268 0.0943348,-0.0342835l-0.128536 0.0625198c0.137,0.0611457 0.100197,0.0338583 0.113949,0.0707914l-0.0968938 0.0207717 -0.00307087 0.0305433zm0.295174 -0.0983859l0.000220473 0.0114646 0.0383111 0.0120512 -0.0219528 -0.09013c-0.0210433,-0.0344252 -0.0256929,-0.0385473 -0.0674725,-0.0323583l-0.0525394 0.0126457c-3.93701e-006,-0.0729056 0.0148937,-0.0622639 -0.0187638,-0.0860395 -0.00298819,0.0541182 0.000547245,0.10091 0.00170473,0.155103 0.00214173,0.100697 -0.00767717,0.0802836 0.0169725,0.113209l0.0125394 -0.131327c0.0164213,-0.082004 -0.00254331,-0.0064567 0.021752,-0.0463701l0.0692284 0.0817521zm0.0385315 0.0235158l-0.0059567 0.0078819 0.0461693 0.0214292c-0.0406536,-0.126417 0.00783072,-0.0693702 0.0313111,-0.082504l0.00401969 -0.00834647 -0.0441536 -0.0107441 -0.0533426 -0.0178465 0.0219528 0.09013zm-0.047126 0.535863c0.0423229,0.143095 0.0169567,0.263733 0.00736615,0.417225 -0.0492796,0.417398 0.212118,0.323445 0.233016,0.168544 0.018374,-0.136185 0.0409371,-0.532056 0.013252,-0.648406 -0.044256,0.0495001 -0.0504134,0.013311 -0.101599,0.0563347 -0.0513426,0.0431615 -0.00894489,0.0302481 -0.109721,0.0806497 -0.0132914,-0.0615001 -0.00269292,-0.0348662 -0.042315,-0.0743465z"/>
 </g>
</svg>
