<?xml version="1.0" encoding="UTF-8"?>
<!DOCTYPE svg PUBLIC "-//W3C//DTD SVG 1.1//EN" "http://www.w3.org/Graphics/SVG/1.1/DTD/svg11.dtd">
<!-- Creator: CorelDRAW -->
<svg xmlns="http://www.w3.org/2000/svg" xml:space="preserve" width="4.19898in" height="3.30919in" style="shape-rendering:geometricPrecision; text-rendering:geometricPrecision; image-rendering:optimizeQuality; fill-rule:evenodd; clip-rule:evenodd"
viewBox="0 0 4.19551 3.30645"
 xmlns:xlink="http://www.w3.org/1999/xlink">
 <defs>
  <style type="text/css">
   <![CDATA[
    .str0 {stroke:#373435;stroke-width:0.00693914}
    .fil0 {fill:#373435}
    .fil1 {fill:#E6E7E8}
   ]]>
  </style>
 </defs>
 <g id="Layer_x0020_1">
  <metadata id="CorelCorpID_0Corel-Layer"/>
  <g id="_488747128">
   <rect id="_401165848" class="fil0" x="1.14179" y="0.717108" width="3.05373" height="0.103125"/>
   <rect id="_488747512" class="fil0" transform="matrix(1.00405E-014 -0.236592 0.379109 6.26602E-015 2.67148 3.21007)" width="8.055" height="0.272019"/>
   <rect id="_488752984" class="fil0" transform="matrix(1.00405E-014 -0.236592 0.379109 6.26602E-015 3.32423 3.21007)" width="8.055" height="0.272019"/>
   <rect id="_488756152" class="fil0" x="2.42016" y="3.20333" width="1.26165" height="0.103125"/>
   <rect id="_401164864" class="fil0" x="2.49146" y="1.21389" width="1.07055" height="0.103125"/>
   <rect id="_488758264" class="fil0" transform="matrix(3.51992E-015 -0.0744767 0.379109 5.62648E-015 3.45888 1.31702)" width="8.055" height="0.272019"/>
   <rect id="_488755552" class="fil0" transform="matrix(3.51992E-015 -0.0744767 0.379109 5.62648E-015 2.49146 1.31702)" width="8.055" height="0.272019"/>
   <rect id="_602506432" class="fil0" transform="matrix(3.51992E-015 -0.0814041 0.379109 6.14983E-015 2.97038 0.726375)" width="8.055" height="0.272019"/>
   <path id="_401165776" class="fil0" d="M1.63413 0.73097l1.32972 -0.711868c0,0 0.0591007,-0.0429802 0.137005,0l1.09467 0.719928 -0.243114 -0.0219228 -0.878899 -0.585181 -0.103123 0 -1.12672 0.604417 -0.209531 -0.00537351z"/>
   <rect id="_488752384" class="fil0" transform="matrix(3.51992E-015 -0.0744767 0.379109 5.62648E-015 1.36468 1.38461)" width="8.055" height="0.272019"/>
   <polygon id="_602506576" class="fil0" points="2.67177,1.90074 3.29666,1.26906 3.36965,1.34191 2.74476,1.97358 "/>
   <polygon id="_397979800" class="fil0" points="2.70915,1.96465 3.33405,2.59633 3.40704,2.52348 2.78214,1.89181 "/>
   <polygon id="_602507584" class="fil0" points="2.6936,3.19112 3.31849,2.55945 3.39148,2.6323 2.76659,3.26397 "/>
   <rect id="_488757088" class="fil0" x="1.04028" y="1.39095" width="0.718369" height="0.703455"/>
   <rect id="_401163664" class="fil1 str0" x="1.14689" y="1.49535" width="0.505141" height="0.494655"/>
   <rect id="_488752120" class="fil0 str0" x="0.00346957" y="2.17699" width="1.8399" height="1.12133"/>
   <rect id="_602507728" class="fil1 str0" x="0.079621" y="2.28794" width="0.497371" height="0.424678"/>
   <rect id="_488747176" class="fil1 str0" x="0.657337" y="2.28029" width="1.08656" height="0.43233"/>
   <rect id="_488753320" class="fil1 str0" x="0.0834477" y="2.78913" width="1.08656" height="0.424679"/>
   <rect id="_401165176" class="fil1 str0" x="1.23888" y="2.78913" width="0.527977" height="0.428505"/>
   <rect id="_488751904" class="fil0 str0" x="0.00346957" y="1.6469" width="0.684474" height="0.633389"/>
   <rect id="_488754520" class="fil1 str0" x="0.0834477" y="1.73529" width="0.489719" height="0.441691"/>
  </g>
 </g>
</svg>
