<?xml version="1.0" standalone="no"?>
<!DOCTYPE svg PUBLIC "-//W3C//DTD SVG 20010904//EN"
 "http://www.w3.org/TR/2001/REC-SVG-20010904/DTD/svg10.dtd">
<svg version="1.0" xmlns="http://www.w3.org/2000/svg"
 width="192.000000pt" height="131.000000pt" viewBox="0 0 192.000000 131.000000"
 preserveAspectRatio="xMidYMid meet">
<metadata>
Created by potrace 1.15, written by Peter Selinger 2001-2017
</metadata>
<g transform="translate(0.000000,131.000000) scale(0.100000,-0.100000)"
fill="#000000" stroke="none">
<path d="M1299 1269 c-61 -9 -98 -30 -140 -76 -67 -75 -75 -145 -21 -203 l27
-30 53 42 53 42 27 -28 27 -27 -30 -23 c-16 -13 -41 -33 -55 -44 l-24 -19 68
-77 c74 -82 94 -90 150 -61 16 9 31 14 32 12 2 -2 -7 -37 -21 -78 -34 -98 -34
-107 -1 -156 25 -38 28 -63 7 -63 -4 0 -22 21 -40 46 l-33 47 -120 -6 c-136
-7 -158 -17 -158 -72 0 -62 16 -67 233 -73 l193 -5 85 191 c46 105 90 194 97
196 31 13 19 -34 -52 -194 -42 -94 -76 -175 -76 -180 0 -6 66 -10 170 -10
l170 0 0 141 0 141 -39 82 c-47 99 -91 160 -134 186 -39 24 -124 27 -153 5
-28 -21 -34 -19 -34 13 0 15 -11 51 -25 79 l-24 53 21 14 21 15 -25 30 c-19
21 -28 27 -36 19 -8 -8 -22 0 -49 29 -42 46 -71 54 -144 42z"/>
<path d="M0 890 l0 -80 39 0 40 0 3 -267 c3 -239 5 -272 22 -303 26 -49 55
-79 101 -103 38 -21 56 -22 308 -25 l267 -3 0 -40 0 -39 80 0 80 0 0 249 c0
137 3 263 7 281 6 32 5 33 -22 26 -19 -5 -31 -3 -36 6 -7 10 -12 11 -29 0 -27
-16 -38 -15 -36 4 0 9 -5 19 -11 21 -16 6 -33 -37 -33 -83 l0 -34 -155 0 -156
0 3 153 3 152 43 3 c37 3 42 6 42 28 0 13 5 23 12 22 6 -2 14 5 16 15 2 10 -2
17 -12 17 -12 0 -16 10 -16 40 l0 40 -280 0 -280 0 0 -80z"/>
</g>
</svg>
