<?xml version="1.0" encoding="UTF-8"?>
<!DOCTYPE svg PUBLIC "-//W3C//DTD SVG 1.1//EN" "http://www.w3.org/Graphics/SVG/1.1/DTD/svg11.dtd">
<!-- Creator: CorelDRAW -->
<svg xmlns="http://www.w3.org/2000/svg" xml:space="preserve" width="3.15559in" height="3.15559in" style="shape-rendering:geometricPrecision; text-rendering:geometricPrecision; image-rendering:optimizeQuality; fill-rule:evenodd; clip-rule:evenodd"
viewBox="0 0 3.16865 3.16865"
 xmlns:xlink="http://www.w3.org/1999/xlink">
 <defs>
  <style type="text/css">
   <![CDATA[
    .str3 {stroke:#373435;stroke-width:0.0209209}
    .str1 {stroke:#373435;stroke-width:0.0278945}
    .str2 {stroke:#373435;stroke-width:0.0418378}
    .str0 {stroke:#373435;stroke-width:0.0557851}
    .fil0 {fill:none}
    .fil1 {fill:#373435}
    .fil2 {fill:#FEFEFE}
   ]]>
  </style>
   <clipPath id="id0">
    <path d="M1.58433 0.0278945c0.859591,0 1.55643,0.696841 1.55643,1.55643 0,0.859591 -0.696841,1.55643 -1.55643,1.55643 -0.859591,0 -1.55643,-0.696841 -1.55643,-1.55643 0,-0.859591 0.696841,-1.55643 1.55643,-1.55643z"/>
   </clipPath>
 </defs>
 <g id="Layer_x0020_1">
  <metadata id="CorelCorpID_0Corel-Layer"/>
  <g>
  </g>
  <g style="clip-path:url(#id0)">
   <g>
    <rect class="fil0 str0" x="-0.370345" y="1.04886" width="1.78489" height="1.29731"/>
    <rect class="fil0 str0" x="1.74105" y="1.04886" width="1.78489" height="1.29731"/>
   </g>
  </g>
  <path class="fil0 str0" d="M1.58433 0.0278945c0.859591,0 1.55643,0.696841 1.55643,1.55643 0,0.859591 -0.696841,1.55643 -1.55643,1.55643 -0.859591,0 -1.55643,-0.696841 -1.55643,-1.55643 0,-0.859591 0.696841,-1.55643 1.55643,-1.55643z"/>
  <rect class="fil1 str1" x="1.41455" y="2.21762" width="0.326499" height="0.0251865"/>
  <path class="fil1 str1" d="M0.947496 1.5109l-0.0263883 0.0446565c0,0 0.188766,0.138026 0.481054,0.17253l0.338885 0c0,0 0.302523,-0.0263923 0.515645,-0.174562l-0.0243563 -0.0365325c0,0 -0.225477,0.15629 -0.491289,0.166438l-0.326499 0c0,0 -0.262045,-0.0284163 -0.467051,-0.17253z"/>
  <path class="fil1 str1" d="M1.04961 1.28993l-0.0219171 0.0370899c0,0 0.156788,0.114642 0.399556,0.143299l0.281471 0c0,0 0.251268,-0.0219211 0.428285,-0.144987l-0.0202291 -0.0303416c0,0 -0.18728,0.129811 -0.408056,0.138239l-0.271185 0c0,0 -0.217649,-0.0236012 -0.387926,-0.143299z"/>
  <path class="fil1 str1" d="M1.12864 1.10629l-0.0185963 0.0314683c0,0 0.133021,0.0972671 0.338992,0.12158l0.238811 0c0,0 0.213182,-0.0185963 0.363368,-0.123011l-0.0171652 -0.0257439c0,0 -0.158891,0.110135 -0.346203,0.117287l-0.230082 0c0,0 -0.184659,-0.0200235 -0.329124,-0.12158z"/>
  <path class="fil1 str1" d="M1.19145 0.94346l-0.0160148 0.0297051c0,0 0.114539,0.0918115 0.291888,0.114764l0.205623 0c0,0 0.18356,-0.0175566 0.312876,-0.116116l-0.0147814 -0.024301c0,0 -0.136808,0.103964 -0.298095,0.110712l-0.198108 0c0,0 -0.159002,-0.0189007 -0.283389,-0.114764z"/>
  <path class="fil1 str1" d="M1.25981 0.799445l-0.0131289 0.031919c0,0 0.0939107,0.0986587 0.239317,0.123319l0.168589 0c0,0 0.150498,-0.0188612 0.256526,-0.124774l-0.0121169 -0.0261116c0,0 -0.112171,0.111712 -0.244409,0.118967l-0.162425 0c0,0 -0.130364,-0.0203121 -0.232351,-0.123319z"/>
  <path class="fil1 str1" d="M1.32149 0.687602l-0.0105909 0.0257479c0,0 0.0757572,0.0795879 0.193056,0.0994849l0.136002 0c0,0 0.12141,-0.0152163 0.20694,-0.100655l-0.00977652 -0.0210672c0,0 -0.0904872,0.0901195 -0.197163,0.0959744l-0.131028 0c0,0 -0.105166,-0.0163864 -0.187438,-0.0994849z"/>
  <path class="fil1 str1" d="M1.37888 0.544734l-0.00823078 0.028701c0,0 0.0588647,0.0887082 0.150016,0.110882l0.10568 0c0,0 0.0943377,-0.0169597 0.160801,-0.112191l-0.0075943 -0.0234787c0,0 -0.0703135,0.10045 -0.153206,0.106969l-0.101817 0c0,0 -0.0817187,-0.0182603 -0.145648,-0.110882z"/>
  <path class="fil0 str2" d="M1.73208 0.387534c0.000241152,0.00338007 0.000367657,0.00679178 0.000367657,0.0102312 0,0.0786866 -0.0637866,0.142473 -0.142473,0.142473 -0.0786866,0 -0.142473,-0.0637866 -0.142473,-0.142473 0,-0.00343937 0.000126506,-0.00685108 0.000367657,-0.0102312l0.284211 0z"/>
  <path class="fil2 str2" d="M0.98493 0.536254l0 -0.158974c0,0 0.635683,-0.162769 1.20041,0.00649133l0 0.139508c0,0 -0.609939,-0.171953 -1.20041,0.0129747z"/>
  <g>
   <rect class="fil1" x="1.26171" y="0.0590584" width="0.0317134" height="0.194008"/>
   <path class="fil0 str3" d="M1.28144 0.245105c0.0381612,0 0.0687954,0.0420552 0.0687954,0.0626243 0,0.020569 -0.000189759,0.0059181 -0.000553463,0.00880005l-0.13274 0.0167936c-0.00315869,-0.00791847 -0.00489814,-0.00199247 -0.00489814,-0.0255937 0,-0.0236012 0.0312351,-0.0626243 0.0693963,-0.0626243z"/>
   <path class="fil0 str3" d="M1.28362 0.275296c0.0306935,0 0.0544449,0.0191419 0.0544449,0.0356825 0,0.0165446 -0.000150226,0.00475978 -0.00044277,0.00708037l-0.106759 0.0135045c-0.00254197,-0.00636877 -0.00394144,-0.00160109 -0.00394144,-0.0205849 0,-0.0189798 0.0260088,-0.0356825 0.0566983,-0.0356825z"/>
  </g>
  <rect class="fil1" transform="matrix(3.39314 0.0398874 -0.0123697 0.950183 1.87422 0.050481)" width="0.00934561" height="0.194008"/>
  <path class="fil0 str3" d="M1.89704 0.2347c0.0375445,0.00683922 0.0601495,0.0537017 0.056465,0.0739347 -0.00368448,0.020237 -0.00124529,0.00579159 -0.00211897,0.0085589l-0.133602 -0.00725431c-0.00168806,-0.00835728 -0.00446328,-0.00283847 -0.000233245,-0.0260562 0.00422608,-0.0232217 0.0419485,-0.0560183 0.0794891,-0.0491831z"/>
  <path class="fil0 str3" d="M1.89378 0.264796c0.0301953,0.00549509 0.0501358,0.0285824 0.0471708,0.0448581 -0.00296102,0.0162758 -0.00100019,0.00465304 -0.00170387,0.0068827l-0.107451 -0.00583508c-0.00135994,-0.00672062 -0.0035896,-0.00228106 -0.000189759,-0.0209565 0.00339984,-0.0186754 0.0319783,-0.0304483 0.0621736,-0.0249493z"/>
  <line class="fil0 str2" x1="1.578" y1="2.12677" x2="1.578" y2= "2.21762" />
  <line class="fil0 str2" x1="1.58516" y1="1.95874" x2="1.58516" y2= "2.0697" />
  <line class="fil0 str2" x1="1.58429" y1="1.78488" x2="1.58429" y2= "1.89583" />
  <line class="fil0 str2" x1="1.58429" y1="1.5883" x2="1.58429" y2= "1.69925" />
  <line class="fil0 str2" x1="1.58429" y1="1.43983" x2="1.58429" y2= "1.55079" />
  <line class="fil0 str2" x1="1.58433" y1="1.25215" x2="1.58433" y2= "1.38013" />
  <line class="fil0 str2" x1="1.5829" y1="1.08793" x2="1.5829" y2= "1.20247" />
 </g>
</svg>
