<?xml version="1.0" encoding="UTF-8"?>
<!DOCTYPE svg PUBLIC "-//W3C//DTD SVG 1.1//EN" "http://www.w3.org/Graphics/SVG/1.1/DTD/svg11.dtd">
<!-- Creator: CorelDRAW -->
<svg xmlns="http://www.w3.org/2000/svg" xml:space="preserve" width="0.985693in" height="3.32119in" style="shape-rendering:geometricPrecision; text-rendering:geometricPrecision; image-rendering:optimizeQuality; fill-rule:evenodd; clip-rule:evenodd"
viewBox="0 0 0.985693 3.32119"
 xmlns:xlink="http://www.w3.org/1999/xlink">
 <defs>
  <style type="text/css">
   <![CDATA[
    .str0 {stroke:#373435;stroke-width:0.00694488}
    .fil0 {fill:#373435}
    .fil1 {fill:#D2D3D5}
    .fil2 {fill:#FEFEFE}
   ]]>
  </style>
 </defs>
 <g id="Layer_x0020_1">
  <metadata id="CorelCorpID_0Corel-Layer"/>
  <g id="_294281048">
   <path id="_294273080" class="fil0" d="M0.00621654 3.28899l0.115736 -3.11434c0,0 0.0294567,-0.166236 0.202004,-0.174654l0.342988 0c0,0 0.180961,0.0063189 0.20411,0.197799l0.108425 3.078 -0.0715433 0 -0.0979055 -3.07589c0,0 -0.0168346,-0.113626 -0.138878,-0.143087l-0.330362 0c0,0 -0.138878,0.0105197 -0.155713,0.145189l-0.107315 3.0886 -0.0715472 -0.00161811z"/>
   <rect id="_294267152" class="fil1" y="3.28296" width="0.0828046" height="0.0382267"/>
   <rect id="_294283640" class="fil1" x="0.899379" y="3.27744" width="0.0863119" height="0.0382267"/>
   <rect id="_294283592" class="fil0 str0" x="0.135189" y="1.63796" width="0.721373" height="0.0238159"/>
   <rect id="_294283664" class="fil0" x="0.19632" y="0.748987" width="0.59306" height="0.551288" rx="0.121205" ry="0.121205"/>
   <rect id="_294283424" class="fil2" x="0.241371" y="0.831911" width="0.502955" height="0.050137" rx="0.242406" ry="0.242406"/>
   <rect id="_294283496" class="fil2" x="0.241371" y="0.944726" width="0.502955" height="0.050137" rx="0.242406" ry="0.242406"/>
   <g>
    <rect id="_294283736" class="fil2" x="0.241371" y="1.0544" width="0.502955" height="0.050137" rx="0.242406" ry="0.242406"/>
    <rect id="_294283616" class="fil2" x="0.241371" y="1.16721" width="0.502955" height="0.050137" rx="0.242406" ry="0.242406"/>
   </g>
   <rect id="_294283160" class="fil0 str0" x="0.107757" y="2.05235" width="0.776229" height="0.0238159"/>
   <rect id="_294283064" class="fil0 str0" x="0.0828769" y="2.44346" width="0.825989" height="0.0238159"/>
   <rect id="_294282992" class="fil0 str0" x="0.0623537" y="2.84532" width="0.867026" height="0.0238159"/>
   <rect id="_294283136" class="fil1" x="0.346784" width="0.0528904" height="0.0568175"/>
   <rect id="_294283088" class="fil1" x="0.619777" width="0.0528904" height="0.0568175"/>
   <polygon id="_294282920" class="fil1" points="0.855307,1.62146 0.921201,1.62146 0.923201,1.67828 0.857091,1.67828 "/>
   <polygon id="_294281888" class="fil1" points="0.868457,2.03544 0.935787,2.03544 0.937795,2.09226 0.870264,2.09226 "/>
   <polygon id="_294281840" class="fil1" points="0.135189,1.62146 0.0692953,1.62146 0.0672953,1.67828 0.133406,1.67828 "/>
   <polygon id="_294281816" class="fil1" points="0.880913,2.42696 0.949575,2.42696 0.951583,2.48378 0.882724,2.48378 "/>
   <polygon id="_294282248" class="fil1" points="0.893713,2.82874 0.963732,2.82883 0.965728,2.88565 0.895524,2.88556 "/>
   <polygon id="_294281336" class="fil1" points="0.0937874,2.82961 0.0232835,2.8297 0.0211811,2.88651 0.0918071,2.88643 "/>
   <polygon id="_294281288" class="fil1" points="0.10778,2.42693 0.0382598,2.42693 0.0361496,2.48374 0.105807,2.48374 "/>
   <polygon id="_294280976" class="fil1" points="0.121366,2.03584 0.0527913,2.03584 0.0506811,2.09266 0.119394,2.09266 "/>
  </g>
 </g>
</svg>
