<?xml version="1.0" encoding="UTF-8"?>
<!DOCTYPE svg PUBLIC "-//W3C//DTD SVG 1.1//EN" "http://www.w3.org/Graphics/SVG/1.1/DTD/svg11.dtd">
<!-- Creator: CorelDRAW -->
<svg xmlns="http://www.w3.org/2000/svg" xml:space="preserve" width="5.08389in" height="4.5074in" style="shape-rendering:geometricPrecision; text-rendering:geometricPrecision; image-rendering:optimizeQuality; fill-rule:evenodd; clip-rule:evenodd"
viewBox="0 0 4.97072 4.40706"
 xmlns:xlink="http://www.w3.org/1999/xlink">
 <defs>
  <style type="text/css">
   <![CDATA[
    .fil0 {fill:#040404}
   ]]>
  </style>
 </defs>
 <g id="Layer_x0020_1">
  <metadata id="CorelCorpID_0Corel-Layer"/>
  <path class="fil0" d="M3.54423 1.94854c-0.0140463,-0.0196972 -0.196475,-0.580915 -0.218024,-0.646158 -0.0294707,-0.0892475 -0.0996292,-0.244673 -0.068665,-0.323604 0.00991596,-0.0252788 0.118965,-0.279702 0.130624,-0.279702l0.145872 0.0484481c0.0126875,0.030818 0.0275114,0.10779 0.0382242,0.149274l0.192495 0.742673c0.0152858,0.0569513 0.0289049,0.0880234 0.0324886,0.146045 -0.186725,0.0738 -0.163248,0.0457189 -0.215938,0.12209 -0.033628,0.0487368 -0.014258,0.0115211 -0.0370771,0.0409341zm-0.200248 -1.41242c-0.126567,-0.0340977 -0.12589,0.00084686 -0.200252,-0.091611 0.0673023,-0.0120485 0.0680491,-0.00552384 0.124138,0.0118522 0.0683493,0.0211754 0.0571361,0.0164868 0.0761135,0.0797588zm-1.728 -0.420901l0.0271611 0.00337589 -0.00675563 0.0192776c0.0849824,0.0144005 0.0191814,0.00399564 0.0486252,-0.00370309 0.0653776,-0.0170989 -0.00954257,-0.0472856 0.150945,0.0465311 0.114946,0.0671907 0.0832887,0.0316341 0.0720255,0.0974082 -0.143189,0.0762444 -0.0763675,0.0674293 -0.133546,0.113433 0.0212254,0.0218644 0.0145198,0.0198319 0.018015,0.0314378 -0.0952718,0.0195625 -0.0623712,0.010963 -0.0874576,-0.00176301 -0.0382704,-0.01942 -0.00157824,-0.013134 -0.048271,-0.0253981 -0.0158748,0.00380702 -0.00552769,-0.0204709 -0.0279541,0.016279 -0.0370463,0.0607122 0.0216835,-0.00680183 -0.0162174,0.0791468 -0.0211022,0.0478476 -0.011371,-0.0171104 -0.0203516,0.0449452l0.105261 0.0351101 0.0461462 0.0168872c0.0260332,-0.0272266 -0.0108052,-0.00526208 0.0149971,-0.0723334 0.056066,0.0544685 0.0406762,0.0718599 0.0407378,0.0271611l0.0541798 0 -0.0338436 -0.0883044 0.0389825 -0.013646c0.0125451,-0.0383012 0.00945789,-0.0318727 0.0367306,-0.0601771 0.0869071,-0.0901983 0.072753,-0.0317688 0.184435,0.018758 0.0224572,0.0101623 -0.00124719,0.00228267 0.0290704,0.0126952 0.0703895,0.0241779 0.123461,-0.0161365 0.175939,0.0559505l-0.0984359 0.149378c0.153917,0.218486 0.0889973,0.123187 0.222971,0.279221l0.167574 0.200744c0.0619478,0.0632066 0.0169141,0.0597421 0.0103432,0.063222 0.00194778,0.00340284 0.00506576,0.00747162 0.0066594,0.00970425l0.0129069 0.0182614c0.109568,0.148127 0.0985591,0.125116 0.109742,0.283417 0.00603195,0.0854212 0.0405454,0.0853404 0.0433169,0.179904 0.00283698,0.096927 -0.00683262,0.0355219 -0.0158478,0.0865991 -0.0103317,0.0585565 0.0106858,-0.0180189 0.00653237,0.0649311l0.00333355 -0.0801399 0.0706474 -0.000889203 0.0814102 0.0493642c-0.00510426,0.0322962 -0.009404,0.044183 -0.0254558,0.0563239l-0.00170527 -0.00207096c0.00455765,0.0436017 0.00169372,0.00807982 0.0152281,0.0442484 0.00114711,0.00306794 0.00267916,0.00672099 0.00386091,0.00990056l0.0287509 0.0807828c0.0300866,0.0729339 0.0294669,0.0310528 0.122956,0.0864413 0.100511,0.0595497 0.256075,0.0137692 0.372391,0.0149548 -0.00308719,-0.218748 -0.34294,-0.995657 -0.319998,-1.07722 0.00381087,-0.0135575 0.00685957,-0.0192815 0.0109206,-0.0298942 0.128261,-0.335018 0.0588953,-0.307175 0.213878,-0.281308l-0.0263373 0.0697351c-0.178753,0.417745 -0.108922,0.230446 -0.0221877,0.579429 0.0313069,0.12597 0.0692347,0.217339 0.108005,0.341335l0.0523667 0.166985c0.0173991,0.0503612 0.0391326,0.109391 0.0513852,0.171073 0.0981357,-0.0213678 0.0692616,-0.0113171 0.143015,-0.04063l0.169253 -0.0680067 6.54392e-005 0.0408764c0.0300019,-0.0153397 0.0356836,-0.0151511 0.0707013,-0.0408264l-0.00280234 -0.108621c0.0250055,-0.0647425 -0.00117406,-0.176443 -0.00930391,-0.235196 -0.0084994,-0.0613935 -0.00617438,-0.0526708 -0.0212023,-0.101015l-0.0753513 -0.318085c-0.0314224,-0.140675 -0.0809406,-0.275838 -0.119742,-0.410388 -0.06736,-0.233564 -0.0204324,-0.176262 -0.213005,-0.233264 -0.0042189,-0.00124719 -0.0157939,-0.00539681 -0.0197934,-0.0069712l-0.211677 -0.102766c-0.0455187,-0.0216796 -0.160549,-0.077122 -0.187452,-0.101689 -0.0205287,-0.0187426 -0.00317573,-0.00908065 -0.0290011,-0.0339976 -0.0508309,-0.0490409 -0.226627,-0.0676911 -0.293991,-0.0726644 -0.100907,-0.00744852 -0.322226,-0.0671714 -0.435667,-0.0948714l-0.315455 -0.0647771c-0.0483981,-0.00650158 -0.196949,-0.0179611 -0.237629,-0.000904601 -0.0792045,0.0332046 -0.0501264,0.0366652 -0.0850286,0.0654815 -0.0132803,0.00771798 -0.0162982,-0.0420081 -0.0112016,0.0148316 0.00245974,0.0274229 0.00204786,0.0115442 0.0112016,0.0259755zm0.746884 1.69746c-0.010963,0.0163713 -0.0140001,0.0165908 -0.0235158,0.0308026l-0.0579599 0.104995 -0.0362418 -0.126148c-0.0115866,-0.040657 -0.0412036,-0.026422 0.00127414,-0.0445102 0.0549612,-0.0234041 0.014974,0.0264143 0.116443,0.0348598zm0.20827 -0.104068c0.00155899,0.00399564 0.00563162,0.00500417 0.00670174,0.0109861 0.00919998,0.0514006 0.00851479,-0.0167755 0.022692,0.036261 0.00124334,0.00464618 -0.00137422,0.00990441 -0.00276769,0.011602l-0.0266261 0.0180574 0.0271573 0.0769064c-0.0124565,0.0169141 -0.0493873,0.0117098 -0.0135806,0.0634645 -0.0793431,0.00770643 -0.0743312,0.0372118 -0.120597,0.0970348l-0.0197703 0.0206788c-0.0176994,-0.0263412 -0.0111901,-0.0132264 -0.00736383,-0.0292898 0.00548149,-0.0229961 0.00391095,-0.00987362 0.00929621,-0.0248938 0.0914147,-0.255024 0.0732803,-0.165334 0.192753,-0.398586l-0.0436402 0.091126c-0.00873036,0.0132495 0.00848785,0.00555463 -0.0242548,0.026653zm-1.00272 -1.02305c-0.022615,0.0587028 -0.0262912,0.0543838 -0.0204016,0.108571 -0.0416001,0.0785463 -0.0583333,0.155372 -0.0838353,0.25815 -0.0115558,0.0465773 -0.0178264,0.0725721 -0.0331969,0.126513 -0.0141002,0.0494913 -0.0298865,0.0741388 -0.0367807,0.144944 0.000488869,0.0500648 -0.0585912,0.0577443 -0.0272266,0.152342l0.0113941 -0.00611279 0.0972657 -0.00036184c-0.0572747,0.0942786 -0.0129724,0.0566511 -0.0273767,0.0932739 -0.0012087,0.00306794 -0.00762559,0.0130801 -0.00913454,0.0166216 -0.00893052,0.0209521 -0.00700199,0.016202 -0.0132572,0.043059l-0.0271611 -0.0407378 -0.00811061 0.0407378c0.0026984,0.028493 0.0331161,0.0954026 0.0445063,0.135798l0.026372 0.0343556c0.0542991,0.0762752 0.0107051,0.0292359 0.0593149,0.07375 0.0820992,0.0751858 0.00381087,0.0455264 0.121236,0.165442 0.0507269,0.0518047 -0.00548534,0.0788658 -0.0414269,0.117051 -0.0341477,0.0362841 0.00312183,0.00813371 -0.0118445,0.0168602 -0.00874191,0.109218 0.139247,0.106624 0.228279,0.063757 0.00629756,-0.0030333 0.0247476,-0.0137191 0.0351562,-0.0168063 0.0684032,-0.0202669 0.131306,0.00841856 0.199097,-0.0191891 0.108771,-0.0443023 0.020571,-0.0493719 0.148016,-0.0418849 0.091076,0.00535062 0.122194,-0.000153975 0.171986,-0.0454225 0.0554924,-0.0504536 -0.0191429,-0.0188426 0.0706666,-0.0379701 0.0883583,-0.0188118 0.136756,-0.0624213 0.210256,-0.115654 0.0489485,-0.0354488 0.0980433,-0.0616668 0.0977123,-0.12639l0.000673639 -0.0225881c0.00415346,-0.0829499 -0.0168641,-0.00637455 -0.00653237,-0.0649311 0.00901521,-0.0510772 0.0186848,0.0103278 0.0158478,-0.0865991 -0.00277154,-0.0945635 -0.0372849,-0.0944826 -0.0433169,-0.179904 -0.0111824,-0.158301 -0.000173221,-0.13529 -0.109742,-0.283417l-0.0129069 -0.0182614c-0.00159364,-0.00223263 -0.00471162,-0.00630141 -0.0066594,-0.00970425l-0.000388786 -0.0103625c-0.0420582,-0.0113248 -0.0473549,-0.0121948 -0.0828961,-0.0362803l-0.113941 -0.0620287c-0.0027292,-0.00140502 -0.00621287,-0.00323732 -0.00888433,-0.00470007 -0.0469622,-0.0256714 -0.0578713,-0.0358453 -0.0932855,-0.0707629 -0.080113,-0.0789928 -0.0143658,0.0209367 -0.096288,-0.0489447 -0.00072368,-0.000615898 -0.000157824,-0.00429204 -0.0170142,-0.0144428 -0.157747,-0.0949792 -0.034625,-0.0146776 -0.114345,-0.115389 -0.0142426,-0.0179919 -0.141145,-0.118072 -0.172598,-0.130532l0.0339129 -0.0248399c-0.0136421,-0.0213601 -0.013877,-0.0326696 -0.0505268,-0.0276769 -0.0596767,0.00553154 -0.0750395,-0.031253 -0.127426,-0.0267107l-0.0461462 -0.0168872c0.0116674,0.0526054 -0.00455765,0.0130032 0.024378,0.0493565l0.0355065 0.0322384c0.0175493,0.0129608 0.0078989,0.00550459 0.0250671,0.0158863 0.101881,0.0616091 0.0224148,0.0413229 0.0455572,0.136953l0.0317611 0.0786425c0.00752166,0.0292513 0.011602,-0.00620517 0.000685187,0.0184654 -0.0175416,0.000558158 -0.0414538,0.00254828 -0.0576673,-0.00654777 -0.0208559,-0.0116982 -0.0326542,-0.0459999 -0.0333393,-0.0512389 -0.000677488,-0.00516585 -0.0021056,-0.00704819 -0.00404953,-0.0101123 -0.00882659,0.137403 -0.00622442,0.0643806 -0.0271611,0.122217l-0.025044 -0.0428511c-0.0243973,-0.0229538 -0.0741811,-0.0304369 -0.101681,-0.061278 -0.044618,-0.050034 -0.00558158,-0.0937282 -0.0430551,-0.167467zm2.65487 2.44435c0.547099,0 0.754279,0.380213 0.533225,0.506091l-0.315952 0.104995c-0.264671,0.042828 -0.75369,-0.170781 -0.623585,-0.433754 0.0139501,-0.0282004 0.0701123,-0.0738308 0.0978624,-0.0923963 0.0550498,-0.0368269 0.220622,-0.0849362 0.30845,-0.0849362zm-1.85367 0.224098c-0.12119,-0.121394 0.265425,-0.265575 0.416178,-0.168895l0.120323 0.107755c-0.0286277,0.0497453 -0.0160249,0.104148 -0.158297,0.146268 -0.0849093,0.0251363 -0.194974,0.0212292 -0.274317,-0.0158016 -0.0547418,-0.0255482 -0.0308296,-0.0523321 -0.0916842,-0.0691538 -0.0276615,-0.00764484 -0.00269455,0.0374004 -0.0122025,-0.000173221zm0.922138 -0.232205c0.0358491,-0.0117213 0.0766062,-0.0317034 0.131032,-0.0270418 0.0543992,0.00466158 0.0785578,0.0197203 0.106508,0.0623097 -0.0554732,0.0696889 -0.132349,0.0757439 -0.195613,0.0362379 -0.0358453,-0.0223879 -0.0355989,-0.0222763 -0.0419273,-0.0715058zm-0.548661 1.03116c0.0298403,0.0168217 0.186186,0.113522 0.203697,0.115392l0.0678989 -0.0384859c-0.00556233,0.0262527 -0.0287971,0.0407378 0.0814756,0.0407378l0 -0.0271573c-0.0107551,-0.00934626 -0.00581639,-0.00683647 -0.024124,-0.0166139l-0.0925849 -0.043213c-0.602041,-0.353298 0.240304,-0.84738 0.79024,-0.423634 0.0200244,0.0154283 0.0269802,0.0210599 0.0430782,0.0387977l0.0305524 0.0390287c0.0577482,0.0911722 0.0469507,0.193511 -0.0237275,0.273547 -0.0325348,0.0368384 -0.0768102,0.061382 -0.098767,0.0913493l0.0407378 0.0407378 0.203697 -0.117644c0.0472009,-0.0281658 0.070401,-0.181355 0.0271573,-0.289745l-0.0543184 -0.0837314 0.0617823 0.0207827c0.0168833,0.0106627 0.0175146,0.0144582 0.0264528,0.022207 0.0264028,0.00277924 0.162616,0.0484943 0.321229,0.066186 0.0809213,0.00902676 0.285215,-0.0232117 0.343891,-0.0461346 0.523937,-0.204667 0.23883,-0.697986 -0.264906,-0.766512 -0.131475,-0.0178841 -0.527209,-0.0212716 -0.637894,0.121798 -0.0236351,0.05806 -0.0148701,0.0434978 -0.0707128,0.0789158 -0.0675332,0.042828 -0.0170604,0.0380048 -0.0717714,0.062352l0.0393213 0.0351986 0.0543184 0.249908c-0.0988517,-0.0174761 -0.188453,-0.0717483 -0.324532,-0.0874191l-0.387019 0.0168179 0.0651967 -0.268824c0.031865,0.0187695 0.0310336,0.0213717 0.0570206,0.0316649 0.0127991,-0.0207673 -0.0280927,-0.0051389 -0.0401219,-0.0721717 -0.00869571,-0.0484596 0.015436,-0.0685572 0.0401219,-0.100765 -0.00811446,0.0383166 0.0149201,0.0983359 0.0881427,0.120539 0.103864,0.0314916 0.309216,0.0618439 0.38439,-0.0421775 0.0560121,-0.0775108 0.00688651,-0.116613 -0.0334086,-0.15083l0.0497453 -0.0361686c-0.114014,-0.0991019 -0.479731,-0.114272 -0.560144,0.0637416l-0.0373619 0.0856368c-0.0455264,-0.0130647 -0.0738539,-0.0439751 -0.113013,-0.0636608 -0.0392366,-0.0197203 -0.0944365,-0.0371541 -0.141495,-0.0484827 -0.418584,-0.100761 -0.848716,0.213363 -0.555513,0.475296 0.0136075,0.0121563 0.0377546,0.0289164 0.0547033,0.0390018 0.110396,0.0657202 0.26581,0.0931893 0.389964,0.08581 0.0579445,-0.00344518 0.0959762,-0.0153744 0.0627061,0.0342978 -0.00205171,0.00306024 -0.0102624,0.0122602 -0.0128838,0.0153359 -0.0454494,0.0533098 -0.0878425,0.0881928 -0.0927658,0.195759 -0.00366844,0.0801207 0.0336896,0.24435 0.109545,0.26253zm-2.7431 -3.498l0 0.777487c0.288979,0 0.515595,-0.00733304 0.801203,0.0135806 0.00855329,0.0102432 0.011013,0.0330506 0.0135806,0.0406724 0.0907218,-0.00187464 0.0949446,-0.0394406 0.176466,-0.0203362l0.0291589 0.00337589 0.0117059 -0.036057 -0.0543761 -0.00123565 0.0271611 -0.19462 0.190112 0.0362379c0.00810291,0.0247168 0.0143697,0.0136691 -0.00686342,0.0285392l-0.00671329 -0.00138192c0.015051,0.00337589 0.0637994,-0.00391095 0.0769064,0.085914 -0.0390903,0.00834542 -0.0479169,-0.0125528 -0.0723373,-0.0407378l-0.0363034 0.0543184c0.0366806,-0.00411882 0.0312915,0.00885739 0.0577597,0.0320883 0.00195933,0.00172067 0.00477706,0.00497338 0.00669404,0.00659396l0.0463848 0.0254558c0.0704819,0.0437134 -0.0280041,-0.00359146 0.0351216,0.016814 0.0219645,0.00709823 0.0100545,-0.0384667 0.0207866,0.0195355 0.00751781,0.0406108 0.00179765,0.0245551 -0.0173683,0.046635 0.0133688,0.0386053 -0.00941939,0.00575095 0.0367999,0.0168795l0.031099 -0.0886355c-0.0313646,-0.0945981 0.0277154,-0.102278 0.0272266,-0.152342l-0.160064 -0.0445949c-0.0699814,-0.0179842 -0.134508,-0.0479323 -0.215595,-0.0640419 0.0464657,-0.205275 0.0654238,-0.311032 0.128064,-0.50598l0.00773337 -0.0234927 0.0189851 -0.103636c-0.00030025,0.025887 -0.00894207,0.0273959 -0.0210406,0.0576558l-0.02862 0.0696273 -0.115323 0.0271573 -0.0170257 -0.0543184c-0.133523,-0.0155899 -0.105192,-0.00791814 -0.105192,-0.0543184l-0.0340515 0.0204709 0.0271573 0.0610086 -0.142484 0 0.0202669 -0.0543184c-0.0570514,0.0254366 -0.0402605,0.0244319 -0.12189,0.00709823 -0.0368346,-0.00781806 -0.0287278,-0.0105858 -0.041065,-0.0206788 0.00961571,0.0228922 0.00960801,0.0130878 0,0.0407378 -0.154348,-0.0170681 -0.112178,-0.0425008 -0.134427,0.00419966l-0.0115019 0.0229615c-0.0358607,-0.0309181 -0.0377738,-0.021006 -0.0584333,-0.0313531 -0.0262219,-0.013134 -0.039533,0.0129493 -0.0264913,-0.0365459l-0.0271611 0.0543184 -0.0271573 -0.0543184 -0.0237159 0.0543184 -0.02494 -0.0472009c-0.00858408,-0.0208366 0.000184769,-0.0135998 -0.0123526,-0.0342786l-0.0170257 0.0543222c-0.0556695,-0.0322654 -0.0324501,-0.0221762 -0.045461,-0.0191852 -0.0232733,0.00535062 0.00137807,0.0481401 -0.118095,-0.0148739 -0.0335742,-0.0177109 -0.0129146,-0.00977738 -0.0401373,-0.0202631l-0.0271611 0.0407417zm0 0l0.0271611 -0.0407417c0.0272227,0.0104857 0.00656317,0.00255213 0.0401373,0.0202631 0.119473,0.0630141 0.0948214,0.0202246 0.118095,0.0148739 0.0130109,-0.00299096 -0.0102085,-0.0130801 0.045461,0.0191852l0.0170257 -0.0543222c0.0125374,0.0206788 0.00376853,0.013442 0.0123526,0.0342786l0.02494 0.0472009 0.0237159 -0.0543184 0.0271573 0.0543184 0.0271611 -0.0543184c-0.0130416,0.0494951 0.000269455,0.0234118 0.0264913,0.0365459 0.0206595,0.0103471 0.0225727,0.000434978 0.0584333,0.0313531l0.0115019 -0.0229615c0.0222493,-0.0467005 -0.0199205,-0.0212677 0.134427,-0.00419966 0.00960801,-0.02765 0.00961571,-0.0178457 0,-0.0407378 0.0123372,0.010093 0.00423045,0.0128607 0.041065,0.0206788 0.0816296,0.0173337 0.0648387,0.0183384 0.12189,-0.00709823l-0.0202669 0.0543184 0.142484 0 -0.0271573 -0.0610086 0.0340515 -0.0204709c0,0.0464002 -0.0283313,0.0387285 0.105192,0.0543184l0.0170257 0.0543184 0.115323 -0.0271573 0.02862 -0.0696273c0.0120986,-0.0302599 0.0207404,-0.0317688 0.0210406,-0.0576558 0.00322192,-0.00319112 0.00749471,-0.0129146 0.00863412,-0.0105126 0.00597036,0.0125643 0.0107513,-0.032581 0.0402105,-0.103194l-0.0135806 -0.0271573 -0.430278 -0.0729955c-0.00289857,-0.000731379 -0.006363,-0.0027292 -0.00898442,-0.00349522l-0.0148508 -0.00620902c-0.00178995,-0.000434978 -0.00530057,-0.00144351 -0.00712517,-0.00174761 -0.142011,-0.0237544 -0.397555,-0.072268 -0.525831,-0.123499l-0.221523 -0.0636492 0 0.485424zm0.814783 0.83174c-0.0201514,-0.00185154 -0.00403798,-0.00744467 -0.0590993,0.00788735 -0.186621,0.0519626 -0.293129,0.111851 -0.470512,0.195875 0,0.104911 0.0204979,0.132822 0.0455149,0.2125 0.0144197,0.0459383 0.0138577,0.0497299 0.0312761,0.0909412 0.0169372,0.040068 0.0187887,0.0608046 0.0361417,0.0996562 0.0218182,0.0488407 0.12763,0.260436 0.163948,0.298268 0.0250324,0.0260794 0.0105588,0.017811 0.0354526,0.0184269l0.0271611 -0.0136498c-0.0983205,-0.15255 -0.0739617,-0.0795086 -0.162027,-0.298876 -0.0259832,-0.0647194 -0.0303599,-0.0411343 -0.0679413,-0.163644l-0.0687188 -0.202815c0.036288,0.0178341 0.0510618,0.0263874 0.0719716,0.0546302 0.0178957,0.024174 0.0175262,0.0322423 0.0321922,0.0604543 0.100669,0.193638 0.0986477,0.220476 0.174118,0.434859l0.0349291 -0.0180959c0.0701855,-0.0255444 -0.0135613,0.0237891 0.106254,-0.0218182l0.0162751 -0.0036261c0.000996985,-4.2343e-005 0.00496183,0.000461924 0.00588568,0.000504267l0.0131918 0.00222878 0.0951255 -0.108637c0.00776032,0.0821185 0.00976199,0.122887 0.0447258,0.149375 -0.0250016,-0.38613 -0.0894939,-0.422025 0.315171,-0.456234 0.00438828,-0.00255213 0.0110515,-0.0101084 0.0138808,-0.00625522l0.0675987 -0.0296863c-0.0429743,0.00129339 -0.0152704,0.0090537 0.0202669,-0.0237814 -0.166724,-0.0110169 -0.0599731,-0.0548419 -0.195833,-0.0678643 -0.0508001,-0.00486945 -0.160861,0.0042266 -0.209879,-0.00762174 -0.0456265,-0.0110284 -0.00904986,-0.0069558 -0.0504729,-0.0152358 -0.0220684,-0.00441137 -0.0291743,-0.0033374 -0.0504036,-0.00583949 -0.0425778,-0.00501957 -0.060281,-0.0131533 -0.111231,-0.00974659 -0.0626753,0.00419581 -0.0150818,0.0124219 -0.0729878,-0.00135113 -0.047274,-0.0112478 -0.0491063,-0.010682 -0.0899904,-0.000981588 0.0152589,-0.0249054 -0.008765,-0.035187 -0.0204055,-0.0408071 0.0491987,-0.0133226 0.135528,-0.0289395 0.161623,-0.0618362 0.0250594,-0.0315956 0.00172836,-0.0125181 0.00133573,-0.0128838 0.0494027,0.0164406 0.034933,0.0106088 0.0582447,0.0003041 0.149386,-0.0660281 0.163567,-0.0269302 0.233683,-0.0749587 -0.0815218,-0.0191044 -0.0857446,0.0184616 -0.176466,0.0203362zm2.84491 1.06604l0.0883044 0.0475627c-0.000373388,0.000107782 0.000381087,0.0172567 -0.0505422,-0.00560082 -0.0432515,-0.0194123 -0.0344287,-0.0106242 -0.0377623,-0.0419619zm0.278417 -0.0746546c0.00373388,-0.00587413 0.00897287,-0.0496837 0.0960493,-0.00975429 0.00143966,0.000658241 0.00451915,0.00321422 0.00564317,0.00387246l0.0103933 0.00932701c-0.0405607,0.0174107 -0.0735036,0.0258215 -0.112086,-0.00344518zm0.354199 0.0678989c-0.104964,0.0528441 -0.0420043,0.123549 -0.268147,0.0769064 0.0285469,-0.028262 0.0369346,-0.0281042 0.0814756,-0.0407417 -0.0898249,0 -0.103021,0.00990826 -0.151626,-0.0497453 0.042905,-0.0381895 0.0982319,-0.0226651 0.215022,-0.0503112 0.110827,-0.00980433 0.0824688,-0.022642 0.159475,-0.0594265l0.0246706 -0.0135151 -0.0216373 0.141634 -0.0392327 -0.00480016zm-0.642251 -0.220407c0.0478707,0.0315686 0.047147,0.0492026 0.10476,0.0710285l-0.00448066 0.0508693c-0.0630603,-0.0230615 -0.101746,-0.0529134 -0.120993,-0.0796549l0.0207134 -0.0422429zm0.202072 -0.250155c0.0260371,0.000442677 0.199128,-0.0376006 0.276165,0.0427664l0.0599461 -0.0246937c0.00127799,-0.00328351 0.0051389,-0.00223648 0.0078835,-0.00246359l0.031688 0.0693232c0.00916919,0.0702201 -0.168487,0.121906 -0.323454,0.0891936 -0.139031,-0.0293437 -0.255186,0.0703356 -0.278513,-0.020852l-0.331303 0.229807c-0.0445718,0.0257484 -0.116763,0.0305832 -0.121467,0.0331623 0.0670521,0.0585219 0.251864,-0.0941131 0.384806,-0.176536 0.00176301,0.00416116 0.00598191,0.0188234 0.00571631,0.0210945l-0.00565087 0.0196433c0.00434978,0.106858 0.0139616,0.100861 0.0814102,0.190116 -0.0289703,-0.0130878 -0.0350754,-0.0193969 -0.0500456,-0.0426086l-0.0450106 -0.0659627c-0.000816065,0.0510734 -0.0112324,0.0679682 -0.0119215,0.0870033 -0.00343363,0.0952872 -0.00580099,0.0416078 0.0254327,0.0623058l0 -0.0543877c-0.00369924,0.00854944 -0.0234927,-0.00112016 0.0295246,0.0509117 0.0196087,0.019243 0.0416116,0.0421967 0.0650042,0.0592302 0.0838468,0.0610586 0.0322115,-0.0187041 0.122814,0.11396 -0.057625,-0.00664015 -0.0910375,-0.0199513 -0.125093,-0.0581177l-0.0668866 -0.068561c-0.00256753,-0.00241355 -0.00508501,-0.00540451 -0.00777187,-0.00773722 -0.00291397,-0.00252518 -0.0063707,-0.00523129 -0.00920768,-0.00749856 -0.0030487,-0.00243665 -0.00792584,-0.00522359 -0.010555,-0.00717906 -0.0027446,-0.00204401 -0.00730224,-0.0051312 -0.0113402,-0.0069712 0,0.0832463 0.0293553,0.12895 0.0788196,0.165546 0.036977,0.0273613 0.110812,0.0638186 0.165615,0.0607353 0.0626253,0.0100083 0.0200975,0.0110092 0.0905524,0.00450376 -0.0130994,-0.0147431 -0.144886,-0.0398371 -0.167459,-0.0453109 0.0502534,-0.0382203 0.134481,-0.013211 0.185612,0.0131302l0.0100661 -0.0492988c0.011371,-5.38911e-005 0.0622558,-0.00166293 0.0716444,0.000357991 0.0821647,0.0177186 0.00731764,0.0444833 0.0676641,0.0354295 0.123249,-0.0134189 0.18505,-0.0178649 0.260282,-0.0997486l0.0248245 -0.0265221 0.0271573 -0.0181536 0 -0.061074c-0.00314108,0.00219414 -0.00751011,0.00218259 -0.00894592,0.00722141l-0.0623289 0.0810137c-0.103336,-0.0145237 -0.0593572,0.0347559 -0.159383,0.0390018 -0.0404876,0.00171682 -0.0491833,-0.00831463 -0.0782268,-0.0254212 0.0316726,-0.0220145 0.0337012,-0.0224803 0.0764522,-0.0328851 0.0289126,-0.00704049 0.0443716,-0.00971964 0.0788504,-0.017122 0.0936473,-0.0201091 0.068869,-0.0140232 0.117806,-0.0580446 0.00192083,-0.00172452 0.00552384,-0.00518124 0.00861873,-0.00734459 0.0607969,-0.0809637 0.0301906,-0.065674 0.0327119,-0.158105 0.00143196,-0.0526362 0.0114403,-0.0125489 0.027546,-0.0761905 0.00692501,-0.0273651 0.00834542,-0.0766139 -0.0195856,-0.0441214l-0.0234157 0.0283814c-0.0020979,0.0027446 -0.0048348,0.00541606 -0.00682492,0.00827228 -0.0195548,0.0280657 -0.0162289,0.0294053 -0.0240123,0.0629102l-0.0452416 -0.0270918c-0.0941785,0.0459075 -0.138254,0.0695311 -0.213316,0.0791583 -0.0664631,0.00852634 -0.0770027,-0.0129223 -0.0899404,-0.0248399l0.0403683 -0.0337936c0.003041,-0.0014897 0.00680953,-0.00353757 0.00988517,-0.0045692 0.0599615,-0.0201091 0.0373427,-0.00066594 0.0448027,0.00656317 -0.0874383,0.000246359 -0.170985,0.0129724 -0.236998,-0.0200706l-0.0345942 -0.0206018c0.0777187,-0.0294707 0.0494412,-0.00974659 0.104064,-0.0135113l0.0271611 -0.0588914 0.117525 0.0104087c-0.0583487,0.102293 -0.0501033,0.0501842 -0.054199,0.0484827 0.15275,-0.00331815 0.145156,0.00642074 0.286604,-0.0230808 0.0368038,-0.00767948 0.023458,-0.00208636 0.0539989,-0.0218682l0.0170411 -0.0139424c0.100903,-0.0881466 0.060027,-0.172455 -0.0407417,-0.239931 -0.0426009,-0.00206711 -0.0524745,0.00642844 -0.108637,0.00457304l-0.0084455 0.0207288c-0.000508116,0.000569706 -0.0027138,0.00326426 -0.00332585,0.0036415 -0.0373311,0.0229615 -0.229799,-0.131132 -0.332223,0.0165253zm-0.277293 -0.39854c0.0334125,-0.0173568 0.0339783,-0.0608854 0.0865453,-0.0407378l-0.0288471 0.0543184 0.0328158 0.011602c0.00184385,0.00105088 0.00734844,0.0100738 0.00873036,0.00718291 0.0015359,-0.00320267 0.00655547,0.00523514 0.00939245,0.00830693l-0.0848554 0.0357413 -0.0237814 -0.0764137zm-0.00836082 -0.132118c-0.0173991,-0.04145 -0.016456,-0.0474088 0.0287624,-0.0851556 0.0510926,0.0734728 0.0286162,0.0475781 0.030768,0.0838661 0.0036569,0.0616591 0.0239353,0.0552307 -0.0273882,0.0824688l-0.0321422 -0.0811792zm-0.117236 -0.383909l0.0475627 -0.0339167c-0.033628,0.00235581 -0.0448104,0.00976584 -0.0614897,-0.0230538 -0.0121871,-0.0239815 -0.0131802,-0.0479053 -0.0093732,-0.0623174 0.00898057,-0.0340168 0.0186309,-0.0284006 0.0301251,-0.0368461 -0.055273,0.00928467 -0.0243318,0.013596 -0.0543184,-0.0135806 0.0863451,-0.0360031 0.0672176,-0.0249978 0.0645192,-0.0510079l-0.07472 0.0306063c0.0141233,-0.0406801 0.0624213,-0.0890319 0.0933009,-0.0814795 -0.00524668,0.248607 -0.0260256,0.0683878 0.0130416,0.170908l0.0599846 0.209032c-0.00585103,0.0582948 0.0123565,0.0240701 -0.040734,0.0460961 -0.048833,-0.0809752 -0.0539758,-0.0786348 -0.00675563,-0.106878l-0.0509386 0.0152011 0.0155476 -0.0308142c0.00408033,-0.0186502 -0.00306794,-0.0170604 -0.00913839,-0.0236389 -0.000881504,-0.000954642 -0.00704434,-0.000650543 -0.00781421,-0.0042574 -0.000835312,-0.0039302 -0.00617823,-0.00216719 -0.00879965,-0.00405338zm0.0949908 0.787688c0.022819,-0.029413 0.00344903,0.00780266 0.0370771,-0.0409341 0.0526901,-0.0763714 0.0292128,-0.0482903 0.215938,-0.12209 -0.00358376,-0.0580215 -0.0172028,-0.0890935 -0.0324886,-0.146045l-0.192495 -0.742673c-0.0107128,-0.0414846 -0.0255367,-0.118456 -0.0382242,-0.149274l-0.145872 -0.0484481c-0.0116597,0 -0.120708,0.254424 -0.130624,0.279702 -0.0309643,0.0789312 0.0391942,0.234357 0.068665,0.323604 0.0215487,0.0652429 0.203978,0.626461 0.218024,0.646158zm-0.733235 -0.142688c0.00443832,0.0421659 0.0148316,0.0552884 0.0291628,0.0860525 0.0496222,0.106523 0.238203,0.551772 0.332916,0.599758 0.00470392,-0.00257907 0.0768949,-0.00741388 0.121467,-0.0331623l0.331303 -0.229807c0.0709553,-0.0144197 0.176489,-0.10406 0.226285,-0.153274 0.102424,-0.147658 0.294892,0.00643614 0.332223,-0.0165253 0.000612049,-0.000377238 0.00281773,-0.00307179 0.00332585,-0.0036415l0.0084455 -0.0207288c0.0561622,0.00185539 0.0660358,-0.00664015 0.108637,-0.00457304 -0.0432168,-0.0589877 -0.28821,-0.141156 -0.40739,-0.0951255 0,-0.0168217 0.00310644,-0.0686149 0.00196318,-0.0828999 -0.00771028,-0.0964805 0.00748316,-0.0421967 -0.029055,-0.0664092l0.00280234 0.108621c-0.0350177,0.0256753 -0.0406993,0.0254866 -0.0707013,0.0408264 -0.0505614,0.0336011 -0.340072,0.161431 -0.380367,0.127622 -0.116316,-0.0011856 -0.271881,0.0445949 -0.372391,-0.0149548 -0.0934895,-0.0553885 -0.0928698,-0.0135074 -0.122956,-0.0864413l-0.0287509 -0.0807828c-0.00118175,-0.00317957 -0.0027138,-0.00683262 -0.00386091,-0.00990056 -0.0135344,-0.0361686 -0.0106704,-0.000646693 -0.0152281,-0.0442484l0.00170527 0.00207096c0.0160518,-0.0121409 0.0203516,-0.0240277 0.0254558,-0.0563239l-0.0814102 -0.0493642c0.0210406,0.0272343 -0.0238545,0.0149355 0.0339129,0.0289626 -0.0247553,0.0410958 -0.018219,0.0313261 -0.0474935,0.0542491zm-1.89035 0.475289c0.00249824,0.035187 0.00649003,0.0250209 -0.00543145,0.0609739 -0.0156361,0.0471509 -0.0121832,0.0240008 -0.0370424,0.0544877l0.0859832 0c0.0182575,-0.0683801 -0.000550459,-0.0155206 0.0920114,-0.0573632 0.12619,-0.0570476 0.104245,-0.0338475 0.200864,-0.0707282 0.103063,-0.0393405 0.0441522,-0.00381857 0.15409,-0.0631912 0.0782614,-0.0422622 0.148447,-0.0378008 0.177633,-0.0395022 -0.0137576,-0.0552653 -0.00201707,-0.00434593 -0.0567781,-0.0426317 -0.0595574,-0.0416424 0.00262142,-0.0959223 -0.0655932,-0.102181 -0.0543107,-0.00498108 -0.00138192,-0.00267146 -0.02678,0.00681722 -0.00315648,0.00117791 0.00172452,0.0484981 -0.0182075,0.0100815 -0.00147046,-0.00283698 -0.00575095,0.00441522 -0.0091076,0.00562777 -0.0069866,-0.0749972 0.00306024,-0.0483596 -0.0203169,-0.0663784 -0.0266645,-0.0205556 -0.0322577,2.69455e-005 -0.0403875,-0.039148 -0.00986592,-0.0475435 0.00315263,-0.027088 -0.035214,-0.0417425 -0.0463463,-0.0176994 -0.0366382,0.0201514 -0.05346,-0.0428473l-0.0270918 -0.0285084c-0.404664,0.0342093 -0.340172,0.0701046 -0.315171,0.456234zm0.233695 -1.59551l-0.00773337 0.0234927c-0.0626407,0.194947 -0.0815988,0.300705 -0.128064,0.50598 0.0810869,0.0161096 0.145614,0.0460576 0.215595,0.0640419l0.160064 0.0445949c0.00689421,-0.0708052 0.0226805,-0.0954527 0.0367807,-0.144944 0.0153705,-0.0539411 0.0216411,-0.0799359 0.0331969,-0.126513 0.025502,-0.102778 0.0422352,-0.179604 0.0838353,-0.25815l-0.0678296 0c0.00318342,-0.0248284 0.000869956,-0.0206441 -0.0054661,-0.0151511l-0.021695 0.0287317 -0.0300905 -0.0374466c-0.00338744,-0.0030025 0.0114981,-0.0045153 -0.0227728,-0.012676 -0.0217913,-0.00518509 -0.0226266,-0.000396485 -0.0472009,0.0109707 -0.0024251,0.00112016 -0.00896132,0.00898827 -0.0107821,0.00580484 -0.00192468,-0.00336819 -0.00738693,0.00452685 -0.011371,0.00618593l-0.0212523 -0.0398871c-0.0320729,-0.0436017 0.0503689,0.00861873 -0.0149663,-0.0057394 -0.0267261,-0.00587028 -0.0188619,0.0561045 -0.0317457,-0.0222724l0.00525438 0.00892668c-0.0144159,0.0439174 0.00890358,0.00754475 -0.0323462,0.031815 -0.0291743,-0.0997871 -0.0132187,-0.0412806 -0.0135806,-0.09506l-0.013646 0.0678989 -0.0541836 -0.0406031zm0.162955 1.10334c0.0471855,-0.00202092 0.0986631,0.00790274 0.117806,-0.0306063 -0.0113903,-0.0403952 -0.0418079,-0.107305 -0.0445063,-0.135798 -0.0273728,-0.0274922 -0.00103933,0.0324501 -0.0266414,-0.0368153 -0.0117868,-0.0318958 -0.00446141,-0.0710516 0.0313762,-0.0887779l-0.0169603 -0.0269994 -0.0113941 0.00611279 -0.031099 0.0886355c-0.0462193,-0.0111285 -0.0234311,0.0217258 -0.0367999,-0.0168795l-0.278671 -0.0780997 -0.0291589 -0.00337589c-0.0701162,0.0480285 -0.0842972,0.00893052 -0.233683,0.0749587 -0.0233117,0.0103047 -0.00884199,0.0161365 -0.0582447,-0.0003041 0.000392635,0.00036569 0.0237236,-0.0187118 -0.00133573,0.0128838 -0.0260948,0.0328967 -0.112425,0.0485135 -0.161623,0.0618362 0.0116405,0.00562007 0.0356644,0.0159017 0.0204055,0.0408071 0.0408841,-0.0097004 0.0427164,-0.0102663 0.0899904,0.000981588 0.057906,0.013773 0.0103124,0.00554693 0.0729878,0.00135113 0.0509502,-0.00340669 0.0686534,0.00472702 0.111231,0.00974659 0.0212292,0.00250209 0.0283352,0.00142811 0.0504036,0.00583949 0.041423,0.00827998 0.00484635,0.00420735 0.0504729,0.0152358 0.0490178,0.0118483 0.159079,0.0027523 0.209879,0.00762174 0.135859,0.0130224 0.0291089,0.0568474 0.195833,0.0678643 -0.0355373,0.0328351 -0.0632412,0.0250748 -0.0202669,0.0237814zm2.32888 1.52295c-0.0779689,0.0817489 -0.200798,0.0568975 -0.322534,0.0488446l0.0673292 -0.00707128c0.217254,-0.0119061 0.189635,-0.00693655 0.255136,-0.0743389 -0.149513,0.0347867 -0.217893,0.0625522 -0.373408,0.0372965l-0.0406685 0.0372926 -0.0815488 -0.064677c-0.0259871,-0.0102932 -0.0251556,-0.0128954 -0.0570206,-0.0316649l-0.0651967 0.268824 0.387019 -0.0168179c0.136079,0.0156708 0.225681,0.0699429 0.324532,0.0874191l-0.0543184 -0.249908 -0.0393213 -0.0351986zm-0.224168 -1.24933c0.0402951,0.033809 0.329806,-0.0940207 0.380367,-0.127622l-6.54392e-005 -0.0408764 -0.169253 0.0680067c-0.0737538,0.0293129 -0.0448797,0.0192622 -0.143015,0.04063 -0.0122525,-0.0616822 -0.033986,-0.120712 -0.0513852,-0.171073l-0.0523667 -0.166985c-0.0387708,-0.123996 -0.0766986,-0.215364 -0.108005,-0.341335 -0.0867339,-0.348983 -0.156565,-0.161685 0.0221877,-0.579429l0.0263373 -0.0697351c-0.154983,-0.0258677 -0.0856176,-0.0537102 -0.213878,0.281308 -0.00406108,0.0106127 -0.00710978,0.0163367 -0.0109206,0.0298942 -0.0229422,0.0815603 0.31691,0.85847 0.319998,1.07722zm-1.56335 -1.62153c0.0362533,-0.00254828 0.0304793,0.0179188 0.0545724,0.0258985l0.0536332 0.00662091c0.00115866,-0.00287932 0.0060358,0.000700584 0.00894592,0.00153205 0.0305601,0.0623982 0.0184423,0.0484519 0.0363726,0.103844 0.0124873,0.0385822 0.0253981,0.0574941 0.045103,0.0862027l-0.0264066 0.00875345c0.00322577,0.041142 0.00577405,0.00729839 -0.00750626,0.0229769l-0.0516161 -0.0249054c0.00773722,0.00922308 0.00569706,0.00717906 0.019243,0.0194662 0.00270995,0.00245589 0.0114904,0.00988902 0.0145313,0.0123719 0.00872266,0.00713287 0.0279541,0.0208366 0.0389979,0.0283583l0.15762 0.113117c0.0259447,0.0206249 0.051235,0.0397947 0.0784308,0.055554 0.0787041,0.0455919 0.212462,0.0768949 0.306317,0.249639l0.000388786 0.0103625c0.00657086,-0.00347983 0.0516046,-1.53975e-005 -0.0103432,-0.063222l-0.167574 -0.200744c-0.133973,-0.156034 -0.0690537,-0.0607353 -0.222971,-0.279221l0.0984359 -0.149378c-0.0524784,-0.072087 -0.10555,-0.0317727 -0.175939,-0.0559505 -0.0303176,-0.0104125 -0.00661321,-0.00253288 -0.0290704,-0.0126952 -0.111682,-0.0505268 -0.0975275,-0.108956 -0.184435,-0.018758 -0.0272727,0.0283044 -0.0241856,0.0218759 -0.0367306,0.0601771zm1.86218 3.76164c-0.0667595,0.0155514 -0.130794,0.0558466 -0.205587,0.066005 -0.111839,0.0151857 -0.161966,0.018885 -0.269636,0.00189004 0.015205,0.0745121 -0.0201168,0.0678989 -0.0951255,0.0678989 0.0302214,-0.064677 0.0219375,-0.0365805 0.0135806,-0.0543184l0.0271611 -0.0045692c-0.0239546,-0.0252826 6.54392e-005,-0.00986592 -0.03782,-0.0250748 -0.0195933,-0.00786425 -0.0261179,-0.00850325 -0.05724,-0.0110939l0 0.0271573c-0.110273,0 -0.087038,-0.0144852 -0.0814756,-0.0407378l-0.0678989 0.0384859c-0.0175108,-0.00187079 -0.173857,-0.0985707 -0.203697,-0.115392 0.0778303,0.1662 0.45404,0.258196 0.637874,0.253958 0.201718,-0.00464618 0.55034,-0.112451 0.584299,-0.281115l-0.203697 0.117644 -0.0407378 -0.0407378zm-3.12333 -1.79245c0.0323885,0.0962303 0.138962,0.0434285 0.246702,0.00241355 0.0251902,-0.00958877 0.0250632,-0.00890743 0.0339668,-0.0160634 0.0248592,-0.030487 0.0214063,-0.00733689 0.0370424,-0.0544877 0.0119215,-0.0359531 0.00792969,-0.0257869 0.00543145,-0.0609739 -0.0349638,-0.0264875 -0.0369654,-0.0672561 -0.0447258,-0.149375l-0.0951255 0.108637 -0.0131918 -0.00222878c-0.000923847,-4.2343e-005 -0.00488869,-0.00054661 -0.00588568,-0.000504267l-0.0162751 0.0036261c-0.119815,0.0456073 -0.0360685,-0.00372618 -0.106254,0.0218182l-0.0349291 0.0180959c-0.0754706,-0.214383 -0.0734497,-0.24122 -0.174118,-0.434859 -0.0146661,-0.028212 -0.0142965,-0.0362803 -0.0321922,-0.0604543 -0.0209097,-0.0282428 -0.0356836,-0.0367961 -0.0719716,-0.0546302l0.0687188 0.202815c0.0375813,0.12251 0.0419581,0.0989248 0.0679413,0.163644 0.0880658,0.219368 0.063707,0.146326 0.162027,0.298876l-0.0271611 0.0136498zm0.575823 -1.82826l-0.0189851 0.103636 0.0541836 0.0406031 0.013646 -0.0678989c0.00036184,0.0537795 -0.0155938,-0.00472702 0.0135806,0.09506 0.0412498,-0.0242702 0.0179303,0.0121024 0.0323462,-0.031815l-0.00525438 -0.00892668c0.0128838,0.0783769 0.00501957,0.0164021 0.0317457,0.0222724 0.0653353,0.0143581 -0.0171066,-0.0378623 0.0149663,0.0057394l0.0212523 0.0398871c0.00398409,-0.00165908 0.00944634,-0.00955412 0.011371,-0.00618593 0.00182075,0.00318342 0.00835697,-0.00468468 0.0107821,-0.00580484 0.0245743,-0.0113672 0.0254097,-0.0161558 0.0472009,-0.0109707 0.0342709,0.00816065 0.0193854,0.00967345 0.0227728,0.012676l0.0300905 0.0374466 0.021695 -0.0287317c0.00633605,-0.00549304 0.00864952,-0.0096773 0.0054661,0.0151511l0.0678296 0c-0.00588953,-0.0541875 -0.00221338,-0.0498685 0.0204016,-0.108571 0.0123218,-0.0514775 0.0239161,-0.0996292 0.00682492,-0.149375 -0.0475781,0 -0.144317,-0.0155784 -0.179908,-0.0237891 -0.0696542,-0.0160672 -0.0921037,-0.0441099 -0.173164,-0.0441099 -0.0294592,0.0706127 -0.0342401,0.115758 -0.0402105,0.103194 -0.00113941,-0.002402 -0.00541221,0.00732149 -0.00863412,0.0105126zm2.6788 1.49343c-0.0497954,0.0492141 -0.15533,0.138854 -0.226285,0.153274 0.0233271,0.0911876 0.139482,-0.0084917 0.278513,0.020852 0.154968,0.0327119 0.332624,-0.0189735 0.323454,-0.0891936l-0.031688 -0.0693232c-0.0027446,0.000227112 -0.00660551,-0.000819915 -0.0078835,0.00246359l-0.0599461 0.0246937c-0.0770373,-0.080367 -0.250128,-0.0423238 -0.276165,-0.0427664zm-0.701643 1.21384l0.0815488 0.064677 0.0406685 -0.0372926c0.155514,0.0252557 0.223894,-0.00250979 0.373408,-0.0372965 -0.0655008,0.0674024 -0.0378816,0.0624328 -0.255136,0.0743389l-0.0673292 0.00707128c0.121736,0.00805287 0.244566,0.0329044 0.322534,-0.0488446 0.054711,-0.0243472 0.00423815,-0.019524 0.0717714,-0.062352 0.0558427,-0.035418 0.0470777,-0.0208559 0.0707128,-0.0789158 -0.0622365,0 -0.0349022,-0.0338783 -0.0712979,-0.0917226 -0.0243203,-0.0386592 -0.0436672,-0.0482364 -0.0780112,-0.0712363l-0.0497453 0.0361686c0.0402951,0.034217 0.0894207,0.0733188 0.0334086,0.15083 -0.0751742,0.104021 -0.280526,0.0736691 -0.38439,0.0421775 -0.0732226,-0.0222031 -0.0962572,-0.0822224 -0.0881427,-0.120539 -0.024686,0.0322076 -0.0488176,0.0523052 -0.0401219,0.100765 0.0120293,0.0670328 0.0529211,0.0514044 0.0401219,0.0721717zm-1.58207 -2.6037c0.0374736,0.0737384 -0.00156284,0.117433 0.0430551,0.167467 0.0274999,0.0308411 0.0772837,0.0383243 0.101681,0.061278l0.025044 0.0428511c0.0209367,-0.0578367 0.0183345,0.0151857 0.0271611,-0.122217 0.00194393,0.00306409 0.00337204,0.00494643 0.00404953,0.0101123 0.000685187,0.00523898 0.0124835,0.0395407 0.0333393,0.0512389 0.0162135,0.00909605 0.0401258,0.00710593 0.0576673,0.00654777 0.0109168,-0.0246706 0.00683647,0.0107859 -0.000685187,-0.0184654l-0.0317611 -0.0786425c-0.0231424,-0.0956298 0.0563239,-0.0753436 -0.0455572,-0.136953 -0.0171682,-0.0103817 -0.00751781,-0.00292552 -0.0250671,-0.0158863l-0.0355065 -0.0322384c-0.0289357,-0.0363534 -0.0127106,0.00324886 -0.024378,-0.0493565l-0.105261 -0.0351101 -0.0169564 0c0.0170912,0.0497453 0.00549689,0.097897 -0.00682492,0.149375zm-0.251121 1.1034l-0.0675987 0.0296863c-0.00282928,-0.00385321 -0.00949253,0.00370309 -0.0138808,0.00625522l0.0270918 0.0285084c0.0168217,0.0629987 0.00711362,0.0251479 0.05346,0.0428473 0.0383666,0.0146545 0.0253481,-0.00580099 0.035214,0.0417425 0.00812986,0.039175 0.013723,0.0185924 0.0403875,0.039148 0.0233772,0.0180189 0.0133303,-0.00861873 0.0203169,0.0663784 0.00335665,-0.00121255 0.00763714,-0.00846475 0.0091076,-0.00562777 0.019932,0.0384167 0.015051,-0.00890358 0.0182075,-0.0100815 0.0253981,-0.00948868 -0.0275307,-0.0117983 0.02678,-0.00681722 0.0682146,0.00625907 0.0060358,0.0605389 0.0655932,0.102181 0.0547611,0.0382858 0.0430205,-0.0126336 0.0567781,0.0426317 0.0149663,-0.00872651 -0.0223032,0.0194239 0.0118445,-0.0168602 0.0359415,-0.0381857 0.0921538,-0.0652467 0.0414269,-0.117051 -0.117425,-0.119915 -0.0391365,-0.090256 -0.121236,-0.165442 -0.0486098,-0.044514 -0.00501572,0.00252518 -0.0593149,-0.07375l-0.026372 -0.0343556c-0.0191429,0.038509 -0.0706204,0.0285854 -0.117806,0.0306063zm-0.29689 -0.319228l0.278671 0.0780997c0.019166,-0.02208 0.0248861,-0.00602425 0.0173683,-0.046635 -0.010732,-0.0580022 0.00117791,-0.0124373 -0.0207866,-0.0195355 -0.0631257,-0.0204055 0.0353603,0.0268994 -0.0351216,-0.016814l-0.0463848 -0.0254558c-0.00191698,-0.00162058 -0.00473472,-0.00487329 -0.00669404,-0.00659396 -0.0264682,-0.0232309 -0.0210791,-0.0362071 -0.0577597,-0.0320883l0.0363034 -0.0543184c0.0244204,0.028185 0.033247,0.0490832 0.0723373,0.0407378 -0.0131071,-0.0898249 -0.0618554,-0.0825381 -0.0769064,-0.085914l0.00671329 0.00138192c0.0212331,-0.0148701 0.0149663,-0.00382242 0.00686342,-0.0285392l-0.190112 -0.0362379 -0.0271611 0.19462 0.0543761 0.00123565 -0.0117059 0.036057zm1.7308 1.92783c-0.116801,0.0169872 -0.115812,0.0200321 -0.233491,0.00096619 -0.0636146,-0.00603965 -0.0880465,-0.0296594 -0.0835043,-0.0838392 0.004242,-0.050596 0.025887,-0.069558 0.0698352,-0.0903061 0.100361,-0.047378 0.0721525,0.00595882 0.116836,-0.0537448l0.132838 0.0127298c0.0319536,0.0090845 0.0184539,0.0072445 0.030052,0.0144967l-0.0235081 0.0276769c-0.0231616,0.00844935 -0.0159595,-0.00225573 -0.0172336,-0.0140964 0.0320691,0.0356259 0.181436,0.165065 0.00817605,0.186117zm-0.381584 -0.0435671c0.00950793,0.0375736 -0.015459,-0.00747162 0.0122025,0.000173221 0.0608546,0.0168217 0.0369423,0.0436056 0.0916842,0.0691538 0.0793431,0.0370309 0.189408,0.040938 0.274317,0.0158016 0.142272,-0.0421197 0.12967,-0.0965228 0.158297,-0.146268l-0.120323 -0.107755c-0.150753,-0.0966806 -0.537367,0.0475012 -0.416178,0.168895zm0.217277 -2.20351c-0.0938552,-0.172744 -0.227613,-0.204047 -0.306317,-0.249639 -0.0271958,-0.0157593 -0.0524861,-0.0349291 -0.0784308,-0.055554l-0.15762 -0.113117c-0.0110438,-0.00752166 -0.0302752,-0.0212254 -0.0389979,-0.0283583 -0.003041,-0.00248284 -0.0118214,-0.00991596 -0.0145313,-0.0123719 -0.0135459,-0.0122872 -0.0115057,-0.0102432 -0.019243,-0.0194662 -0.0102701,-0.00981588 -0.00371849,-0.00644384 -0.0257445,-0.0201476 -0.0124296,-0.00773337 0.010478,0.00279079 -0.024455,-0.00926542l-0.0339129 0.0248399c0.0314532,0.0124604 0.158355,0.11254 0.172598,0.130532 0.0797203,0.100711 -0.0434016,0.0204093 0.114345,0.115389 0.0168564,0.0101508 0.0162905,0.0138269 0.0170142,0.0144428 0.0819222,0.0698814 0.016175,-0.0300481 0.096288,0.0489447 0.0354142,0.0349176 0.0463232,0.0450915 0.0932855,0.0707629 0.00267146,0.00146276 0.00615513,0.00329506 0.00888433,0.00470007l0.113941 0.0620287c0.0355412,0.0240855 0.0408379,0.0249554 0.0828961,0.0362803zm1.7857 1.13748c-0.0327388,0 -0.0270918,0.00964266 -0.0270918,-0.0180843l-0.0170411 0.0139424c-0.0305409,0.0197819 -0.0171951,0.0141888 -0.0539989,0.0218682 -0.141449,0.0295015 -0.133854,0.0197626 -0.286604,0.0230808 0.00409572,0.00170142 -0.00414961,0.0538103 0.054199,-0.0484827l-0.117525 -0.0104087 -0.0271611 0.0588914c-0.0546225,0.00376468 -0.026345,-0.0159595 -0.104064,0.0135113l0.0345942 0.0206018c0.0660127,0.0330429 0.149559,0.0203169 0.236998,0.0200706 -0.00746007,-0.00722911 0.0151588,-0.0266722 -0.0448027,-0.00656317 -0.00307564,0.00103163 -0.00684417,0.00307949 -0.00988517,0.0045692l-0.0403683 0.0337936c0.0129377,0.0119176 0.0234773,0.0333663 0.0899404,0.0248399 0.0750626,-0.00962726 0.119138,-0.0332508 0.213316,-0.0791583l0.0452416 0.0270918c0.00778341,-0.0335049 0.00445756,-0.0348444 0.0240123,-0.0629102 0.00199012,-0.00285623 0.00472702,-0.00552769 0.00682492,-0.00827228l0.0234157 -0.0283814zm-2.73621 -2.1501l-0.00682492 0.00900751c0,0.0620248 -0.00294861,0.0793469 0.0217181,0.123126l0.0733419 0.0869456 0.0498146 0.0345904c0.0571785,-0.0460038 -0.00964266,-0.0371887 0.133546,-0.113433 0.0112632,-0.0657741 0.0429204,-0.0302175 -0.0720255,-0.0974082 -0.160488,-0.0938167 -0.0855675,-0.06363 -0.150945,-0.0465311 -0.0294438,0.00769873 0.0363572,0.0181036 -0.0486252,0.00370309zm2.41043 2.64759l-0.149375 0.0135113c-0.0511311,-0.0263412 -0.135359,-0.0513505 -0.185612,-0.0131302 0.0225727,0.0054738 0.15436,0.0305678 0.167459,0.0453109 -0.0704549,0.00650543 -0.0279271,0.00550459 -0.0905524,-0.00450376l0 0.0316649c0.0775685,0 0.0949831,0.014412 0.17654,0.014516 0.0983359,0.00012318 0.239946,-0.0300943 0.308938,-0.085837 0.0580022,-0.046866 0.0688266,-0.058187 0.0577097,-0.127803l-0.0248245 0.0265221c-0.075232,0.0818837 -0.137034,0.0863297 -0.260282,0.0997486zm-1.5291 0.613077c0.117679,0.0190659 0.11669,0.0160211 0.233491,-0.00096619 0.0377546,-0.0729647 0.0629371,-0.119469 -0.0655547,-0.145533 -0.095649,-0.0194046 -0.154968,0.0120601 -0.208674,0.0462963 0.00429589,0.09598 0.00414192,0.0375852 0.0407378,0.100203zm0 0c-0.0365959,-0.0626176 -0.0364419,-0.00422275 -0.0407378,-0.100203 0.0537063,-0.0342362 0.113025,-0.0657009 0.208674,-0.0462963 0.128492,0.026064 0.103309,0.0725682 0.0655547,0.145533 0.17326,-0.0210522 0.023893,-0.150491 -0.00817605,-0.186117 0.00127414,0.0118406 -0.00592802,0.0225457 0.0172336,0.0140964l0.0235081 -0.0276769c-0.0115981,-0.0072522 0.00190159,-0.00541221 -0.030052,-0.0144967l-0.132838 -0.0127298c-0.0446834,0.0597036 -0.0164753,0.00636685 -0.116836,0.0537448 -0.0439482,0.0207481 -0.0655932,0.03971 -0.0698352,0.0903061 -0.00454225,0.0541798 0.0198897,0.0777995 0.0835043,0.0838392zm0.873833 -2.4278l0.07472 -0.0306063c0.0026984,0.0260102 0.0218259,0.0150048 -0.0645192,0.0510079 0.0299865,0.0271765 -0.000954642,0.0228652 0.0543184,0.0135806 -0.0114942,0.0084455 -0.0211446,0.00282928 -0.0301251,0.0368461 -0.00380702,0.014412 -0.00281389,0.0383358 0.0093732,0.0623174 0.0166793,0.0328197 0.0278617,0.0254097 0.0614897,0.0230538l-0.0475627 0.0339167c0.00262142,0.00188619 0.00796433,0.00012318 0.00879965,0.00405338 0.000769873,0.00360685 0.0069327,0.00330275 0.00781421,0.0042574 0.00607045,0.00657856 0.0132187,0.00498878 0.00913839,0.0236389l-0.0155476 0.0308142 0.0509386 -0.0152011c-0.0472201,0.0282428 -0.0420774,0.0259024 0.00675563,0.106878 0.0530904,-0.0220261 0.0348829,0.0121986 0.040734,-0.0460961l-0.0599846 -0.209032c-0.0390672,-0.10252 -0.0182883,0.0776994 -0.0130416,-0.170908 -0.0308796,-0.00755245 -0.0791776,0.0407994 -0.0933009,0.0814795zm0.900763 1.57524l-0.089209 0.0177417c-0.132487,0.0180189 -0.0359223,0.013519 -0.0748047,-0.031253 0.0815757,-0.0360801 0.055581,-0.0244935 0.0678989,-0.0137153l-0.0271611 -0.0366652c-0.11679,0.0276461 -0.172117,0.0121216 -0.215022,0.0503112 0.0486059,0.0596536 0.0618015,0.0497453 0.151626,0.0497453 -0.044541,0.0126375 -0.0529288,0.0124796 -0.0814756,0.0407417 0.226142,0.0466427 0.163182,-0.0240624 0.268147,-0.0769064zm-2.5487 -1.9578c0.052386,-0.00454225 0.0677488,0.0322423 0.127426,0.0267107 0.010043,-0.0275037 0.00834542,-0.0232386 0.0078604,-0.065062 0.00551229,-0.0147854 -0.00257907,-0.0190467 0.0222647,-0.0611395l0.0730224 0.0857715c0.00146276,0.00274075 0.00319497,0.0063707 0.00461154,0.0090691 0.00188619,0.00359531 0.00811446,0.0136383 0.009685,0.0170257 0.00600501,0.0129416 0.0150857,-0.0265837 0.00767178,0.0388593 0.00964651,0.0336126 0.00522359,0.0183769 0.0347328,0.0344942l0.0264066 -0.00875345c-0.0197049,-0.0287086 -0.0326157,-0.0476205 -0.045103,-0.0862027 -0.0179303,-0.0553923 -0.00581254,-0.0414461 -0.0363726,-0.103844 -0.00291012,-0.000831463 -0.00778726,-0.00441137 -0.00894592,-0.00153205l-0.0536332 -0.00662091c-0.0240932,-0.00797973 -0.0183191,-0.0284468 -0.0545724,-0.0258985l-0.0389825 0.013646 0.0338436 0.0883044 -0.0541798 0c-6.15898e-005,0.0446988 0.0153282,0.0273074 -0.0407378,-0.0271611 -0.0258023,0.0670713 0.0110361,0.0451068 -0.0149971,0.0723334zm1.78569 2.56888c-0.0279502,-0.0425894 -0.0521088,-0.0576481 -0.106508,-0.0623097 -0.0544262,-0.00466158 -0.0951832,0.0153205 -0.131032,0.0270418 0.00632835,0.0492295 0.006082,0.0491179 0.0419273,0.0715058 0.0632643,0.039506 0.14014,0.033451 0.195613,-0.0362379zm-0.958164 -1.44846c0.0327427,-0.0210984 0.0155245,-0.0134035 0.0242548,-0.026653l0.0436402 -0.091126c-0.119473,0.233252 -0.101338,0.143562 -0.192753,0.398586 -0.00538526,0.0150202 -0.00381472,0.00189774 -0.00929621,0.0248938 -0.00382627,0.0160634 -0.0103355,0.00294861 0.00736383,0.0292898l0.0197703 -0.0206788c0.0462655,-0.059823 0.0412536,-0.0893283 0.120597,-0.0970348 -0.0358068,-0.0517547 0.00112401,-0.0465504 0.0135806,-0.0634645l-0.0271573 -0.0769064 0.0266261 -0.0180574c0.00139347,-0.00169757 0.00401104,-0.0069558 0.00276769,-0.011602 -0.0141772,-0.0530365 -0.013492,0.0151395 -0.022692,-0.036261 -0.00107012,-0.00598191 -0.00514275,-0.00699045 -0.00670174,-0.0109861zm1.5979 0.77348l0.0271611 0.0366652c-0.012318,-0.0107782 0.0136768,-0.0223648 -0.0678989,0.0137153 0.0388824,0.044772 -0.0576827,0.0492719 0.0748047,0.031253l0.089209 -0.0177417 0.0392327 0.00480016 0.0216373 -0.141634 -0.0246706 0.0135151c-0.0770065,0.0367845 -0.0486483,0.0496222 -0.159475,0.0594265zm0.190047 0.0978739l-0.0271573 -0.0135806c-0.00309489,0.00216334 -0.00669789,0.00562007 -0.00861873,0.00734459 -0.048937,0.0440213 -0.0241586,0.0379355 -0.117806,0.0580446 -0.0344788,0.00740233 -0.0499378,0.0100815 -0.0788504,0.017122 -0.042751,0.0104048 -0.0447797,0.0108706 -0.0764522,0.0328851 0.0290435,0.0171066 0.0377392,0.027138 0.0782268,0.0254212 0.100026,-0.00424585 0.0560467,-0.0535254 0.159383,-0.0390018l0.0623289 -0.0810137c0.00143581,-0.00503882 0.00580484,-0.00502727 0.00894592,-0.00722141zm-0.801268 0.00675563l-0.0135113 0.0136498c0.00403798,0.00184 0.00859563,0.00492719 0.0113402,0.0069712 0.00262912,0.00195548 0.00750626,0.00474242 0.010555,0.00717906 0.00283698,0.00226728 0.00629371,0.00497338 0.00920768,0.00749856 0.00268686,0.00233271 0.00520434,0.00532367 0.00777187,0.00773722l0.0668866 0.068561c0.0340553,0.0381664 0.0674678,0.0514775 0.125093,0.0581177 -0.0906025,-0.132664 -0.0389671,-0.0529018 -0.122814,-0.11396 -0.0233926,-0.0170334 -0.0453956,-0.0399872 -0.0650042,-0.0592302 -0.0530173,-0.0520319 -0.0332239,-0.0423623 -0.0295246,-0.0509117l0 0.0543877zm-2.16722 -0.964158l0.00811061 -0.0407378 0.0271611 0.0407378c0.00625522,-0.026857 0.00432669,-0.0221069 0.0132572,-0.043059 0.00150895,-0.00354142 0.00792584,-0.0135536 0.00913454,-0.0166216 0.0144043,-0.0366229 -0.029898,0.00100468 0.0273767,-0.0932739l-0.0972657 0.00036184 0.0169603 0.0269994c-0.0358376,0.0177263 -0.0431629,0.0568821 -0.0313762,0.0887779 0.0256021,0.0692655 -0.000731379,0.00932316 0.0266414,0.0368153zm0.948753 0.220919c0.00951563,-0.0142119 0.0125528,-0.0144313 0.0235158,-0.0308026 -0.101469,-0.0084455 -0.061482,-0.058264 -0.116443,-0.0348598 -0.0424777,0.0180882 -0.0128607,0.00385321 -0.00127414,0.0445102l0.0362418 0.126148 0.0579599 -0.104995zm1.00463 -1.30736c-0.0189774,-0.063272 -0.00776417,-0.0585835 -0.0761135,-0.0797588 -0.0560891,-0.017376 -0.0568359,-0.0239007 -0.124138,-0.0118522 0.074362,0.0924579 0.0736845,0.0575133 0.200252,0.091611zm0.254635 1.08982c0.0513236,-0.0272381 0.0310451,-0.0208097 0.0273882,-0.0824688 -0.00215179,-0.036288 0.0203246,-0.0103933 -0.030768,-0.0838661 -0.0452185,0.0377469 -0.0461616,0.0437057 -0.0287624,0.0851556l0.0321422 0.0811792zm-1.72759 -1.01105c0.0366498,-0.00499263 0.0368846,0.00631681 0.0505268,0.0276769 0.034933,0.0120562 0.0120254,0.00153205 0.024455,0.00926542 0.0220261,0.0137037 0.0154744,0.0103317 0.0257445,0.0201476l0.0516161 0.0249054c0.0132803,-0.0156785 0.010732,0.0181651 0.00750626,-0.0229769 -0.0295092,-0.0161173 -0.0250863,-0.000881504 -0.0347328,-0.0344942 -0.0576288,-0.0343402 -0.05632,-0.08116 -0.117255,-0.0895863 0.00048502,0.0418233 0.00218259,0.0375582 -0.0078604,0.065062zm0.879564 1.18878l-0.000673639 0.0225881c0.0103317,-0.00523514 0.025579,-0.0139886 0.030741,-0.0155707 0.0159056,-0.00488099 -0.00787195,-0.00398024 0.030333,-0.0048348 0.0292744,-0.022923 0.0227382,-0.0131533 0.0474935,-0.0542491 -0.0577674,-0.0140271 -0.0128723,-0.00172836 -0.0339129,-0.0289626l-0.0706474 0.000889203 -0.00333355 0.0801399zm0.824241 -0.12679l0.0237814 0.0764137 0.0848554 -0.0357413c-0.00283698,-0.00307179 -0.00785655,-0.0115096 -0.00939245,-0.00830693 -0.00138192,0.00289087 -0.00688651,-0.00613204 -0.00873036,-0.00718291l-0.0328158 -0.011602 0.0288471 -0.0543184c-0.0525669,-0.0201476 -0.0531328,0.023381 -0.0865453,0.0407378zm0.054507 0.690938c0.0192468,0.0267415 0.0579329,0.0565934 0.120993,0.0796549l0.00448066 -0.0508693c-0.0576134,-0.0218259 -0.0568898,-0.0394598 -0.10476,-0.0710285l-0.0207134 0.0422429zm-1.97262 -1.972c0.0466928,0.0122641 0.0100006,0.00597806 0.048271,0.0253981 0.0250863,0.012726 -0.00781421,0.0213255 0.0874576,0.00176301 -0.00349522,-0.0116058 0.00321037,-0.00957337 -0.018015,-0.0314378l-0.0498146 -0.0345904c-0.0211754,0.0153782 0.00916149,0.0102316 -0.022896,0.00983128 -0.00307949,-3.84936e-005 -0.0273074,-0.00617053 -0.0314224,-0.00712902 -0.00744467,0.00891128 -0.00908065,0.0245782 -0.0135806,0.0361648zm0.22217 0.154017c0.0609354,0.00842626 0.0596267,0.0552461 0.117255,0.0895863 0.00741388,-0.065443 -0.00166677,-0.0259178 -0.00767178,-0.0388593 -0.00157054,-0.00338744 -0.00779881,-0.0134304 -0.009685,-0.0170257 -0.00141657,-0.0026984 -0.00314878,-0.00632835 -0.00461154,-0.0090691l-0.0730224 -0.0857715c-0.0248438,0.0420928 -0.0167524,0.046354 -0.0222647,0.0611395zm1.36672 3.72077l-0.0543838 0.00901136 -0.0271611 0.0045692c0.00835697,0.0177379 0.0166408,-0.0103586 -0.0135806,0.0543184 0.0750087,0 0.11033,0.00661321 0.0951255,-0.0678989zm0.651828 -1.47163l0.149375 -0.0135113c-0.0603465,0.0090537 0.0145006,-0.0177109 -0.0676641,-0.0354295 -0.0093886,-0.00202092 -0.0602733,-0.000411882 -0.0716444,-0.000357991l-0.0100661 0.0492988zm0.136718 -0.330645c-0.0870765,-0.0399295 -0.0923155,0.00388016 -0.0960493,0.00975429 0.0385822,0.0292667 0.071525,0.0208559 0.112086,0.00344518l-0.0103933 -0.00932701c-0.00112401,-0.000658241 -0.00420351,-0.00321422 -0.00564317,-0.00387246zm-0.489859 -0.0309181l0.0450106 0.0659627c0.0149702,0.0232117 0.0210753,0.0295208 0.0500456,0.0426086 -0.0674486,-0.0892552 -0.0770604,-0.0832579 -0.0814102,-0.190116 -0.0333778,0 0.00149355,-0.0045461 -0.013646,0.0135806l0 0.0679644zm0.448128 1.39864l0 -0.0407417 0.0339167 0c-0.00893822,-0.00774877 -0.00956952,-0.0115442 -0.0264528,-0.022207l-0.0617823 -0.0207827 0.0543184 0.0837314zm-0.244431 -1.23575l-0.0883044 -0.0475627c0.00333355,0.0313377 -0.00548919,0.0225496 0.0377623,0.0419619 0.0509232,0.0228575 0.0501688,0.00570861 0.0505422,0.00560082zm-2.11844 -2.45342l0.00682492 -0.00900751 0.00675563 -0.0192776 -0.0271611 -0.00337589 0.0135806 0.031661zm1.96906 0.348571l0.00405338 -0.00404953c-0.000269455,0.000265606 -0.00540451,0.0026984 -0.00405338,0.00404953zm-2.02338 -0.380232l0.00405338 -0.00404953c-0.000269455,0.000265606 -0.00540451,0.0026984 -0.00405338,0.00404953z"/>
 </g>
</svg>
