<?xml version="1.0" encoding="UTF-8"?>
<!DOCTYPE svg PUBLIC "-//W3C//DTD SVG 1.1//EN" "http://www.w3.org/Graphics/SVG/1.1/DTD/svg11.dtd">
<!-- Creator: CorelDRAW -->
<svg xmlns="http://www.w3.org/2000/svg" xml:space="preserve" width="2.78436in" height="3.00076in" style="shape-rendering:geometricPrecision; text-rendering:geometricPrecision; image-rendering:optimizeQuality; fill-rule:evenodd; clip-rule:evenodd"
viewBox="0 0 2.78436 3.00076"
 xmlns:xlink="http://www.w3.org/1999/xlink">
 <defs>
  <style type="text/css">
   <![CDATA[
    .fil0 {fill:#373435}
   ]]>
  </style>
 </defs>
 <g id="Layer_x0020_1">
  <metadata id="CorelCorpID_0Corel-Layer"/>
  <path class="fil0" d="M0.375559 2.70675c0.00324016,0.0104016 -0.00379528,-0.00105118 0.00740551,0.0134606 0.00351181,0.00454724 0.00716535,0.00766535 0.0117559,0.0122165 0.00946063,0.00938189 0.0136772,0.0112441 0.0195551,0.0223268 0.00926378,-0.0282874 0.027122,-0.0381457 0.0454921,-0.0564843l1.51507 -1.51507c0.0355787,-0.0356102 0.0312087,-0.0423504 0.0594843,-0.0438465 -0.00482283,-0.0160945 -0.0279094,-0.0502402 -0.0373583,-0.0646772 -0.00700394,0.0281299 -0.0181614,0.0305 -0.0471654,0.0594803l-1.47607 1.47607c-0.0297008,0.0296969 -0.0677717,0.0727717 -0.0981693,0.0965236zm0.0626575 0.0600039c0.000413386,0.0167441 -0.00706299,-0.00439764 0.00332283,0.00991339 0.00972835,0.0134016 -0.000822835,0.000633858 0.0118701,0.0108228 0.0123898,0.00994488 0.0136575,0.00766929 0.0208661,0.0212638l0.795531 -0.800516c0.0160984,-0.0161024 0.763949,-0.776417 0.80052,-0.793543 -0.00569291,-0.0166772 -0.0132559,-0.0373307 -0.024,-0.050685 -0.016315,0.000129921 -0.0824685,0.0760906 -0.0995276,0.0931496l-1.11006 1.11006c-0.082378,0.082378 -0.342012,0.333799 -0.398528,0.399539zm-0.125976 -0.122689c0.00783465,0.00750787 0.0113189,0.0107087 0.018689,0.0199803 0.00775591,0.00975984 0.00264961,0.00610236 0.0104803,0.0133189 0.00888189,0.00818504 0.00363386,0.00520079 0.0128307,0.00740551 0.0364409,-0.0428031 0.353984,-0.354965 0.402539,-0.40352l1.02005 -1.02005c0.0257559,-0.0257559 0.180657,-0.189551 0.209492,-0.201846 -0.00998031,-0.00956299 -0.0273504,-0.0335157 -0.0360039,-0.0506575 -0.036063,0.0503425 -1.14244,1.14737 -1.22458,1.22951 -0.023874,0.023874 -0.380701,0.39187 -0.4135,0.405858zm1.33206 -1.45542c-0.00103937,0.000551181 -0.0594803,0.0589921 -0.0600315,0.0600315 -0.00497244,0.0262323 0.000125984,0.0142795 -0.0161732,0.0321339l-0.0633307 0.0623425c-0.395441,0.395437 -0.807425,0.799823 -1.19703,1.19707 -0.0389055,0.0396654 -0.0225197,0.029378 -0.0495,0.0344921 0.0157087,0.0121535 0.0230787,0.0380276 0.042,0.048063 0.0210276,-0.0367992 1.37805,-1.38288 1.5756,-1.58059 0.0166339,-0.0166417 0.028689,-0.0409843 0.0564843,-0.0435315 -0.0106457,-0.019315 -0.0248701,-0.0362598 -0.042,-0.0526457l-0.177531 0.185142c-0.0213543,0.0213583 -0.0361693,0.0469134 -0.0684843,0.0574961zm-1.14609 1.63211c0.0047874,0.00902756 0.0106535,0.0115394 0.0184291,0.0175039 0.00435827,0.00333858 0.0091378,0.00741732 0.0141378,0.00961811 0.0141929,0.00624803 0.00412598,0.0036063 0.0154685,0.00290945 0.00161811,-0.00305512 0.41689,-0.429181 0.496,-0.499646 0.0174882,-0.0155787 0.00392913,-0.00738583 0.0260236,-0.0163819 0.0071063,-0.00352756 -0.00152362,0.00859055 0.0140551,-0.0215315 0.0744173,-0.143854 0.151354,-0.130122 0.165984,-0.146508l0.00157874 -0.0209843c0.00485827,-0.010311 0.597378,-0.598941 0.629953,-0.631516 0.0261063,-0.0261063 0.185642,-0.197327 0.22048,-0.211512 -0.00327165,-0.0228661 -0.0135039,-0.0375 -0.018,-0.0660039 -0.0257677,0.0359685 -0.157685,0.162618 -0.198531,0.203461l-0.594028 0.594031c-0.0529173,0.0529173 -0.725217,0.734366 -0.791551,0.786559zm-0.19798 -0.19798c0.00547244,0.0168071 -0.00355906,0.0059252 0.0120039,0.0212874 0.0327992,-0.0139882 0.389626,-0.381984 0.4135,-0.405858 0.0821417,-0.0821417 1.18852,-1.17917 1.22458,-1.22951 -0.01,-0.00529921 -0.00800787,-0.00549606 -0.018,-0.0100394 -0.0277953,0.00254724 -0.0398504,0.0268898 -0.0564843,0.0435315 -0.197551,0.197713 -1.55457,1.54379 -1.5756,1.58059zm0.0240039 -0.708067c0.0195866,-0.00456299 0.029563,-0.0124882 0.0495,-0.0164449 0.0265866,-0.00528346 0.0327756,-0.00358661 0.0585039,-0.0135276 0.0350866,-0.0301614 0.0711102,-0.0700945 0.105524,-0.104512l0.528028 -0.528028c0.0282283,-0.0282283 0.185004,-0.196535 0.218492,-0.2075 0.00520079,-0.0363425 0.0306339,-0.0815354 0.0525669,-0.103472 0.0190551,-0.0190551 0.0693071,-0.0513071 0.103469,-0.0525669 0.0112323,-0.0342913 0.0406535,-0.0516417 0.0634921,-0.0744803 0.0216457,-0.0216457 0.0426654,-0.0449291 0.0645039,-0.0635236 -0.0056811,-0.00700787 0.00487402,0.00135433 -0.00828346,-0.00652362 -0.00539764,-0.00323622 -0.00767323,-0.00438189 -0.0153701,-0.00755118 -0.0140906,-0.00579921 -0.0223543,-0.00859449 -0.0383701,-0.00992913 -0.00203543,0.0255984 -0.0117244,0.027252 -0.0284803,0.0435039 -0.27802,0.269669 -0.576008,0.575929 -0.852091,0.852012l-0.257996 0.258051c-0.029689,0.0301693 -0.0214803,0.0219961 -0.0434882,0.0344921zm0.294016 0.181335c-0.00946063,0.10311 -0.0857008,0.186772 -0.192043,0.190685 -0.00595276,0.0314213 -0.0145354,0.0295197 -0.0495,0.0644724l-0.102008 0.102004c-0.0103898,0.0104016 -0.0159882,0.016689 -0.0262244,0.0270906 -0.00387402,0.00393701 -0.00959843,0.00953543 -0.0133937,0.0118661 -0.0143504,0.00882677 0.00117717,0.00294488 -0.0248228,0.0105472l0.00594094 -0.0059685c-0.000700787,0.0113661 -0.00319291,0.00119685 0.00278346,0.0155394 3.93701e-006,7.87402e-006 0.00875591,0.0142953 0.0089685,0.0146102 0.00822441,0.0121929 0.011689,0.015185 0.0183071,0.0298504 0.0139764,-0.0343268 0.131748,-0.140717 0.157508,-0.166476l0.957047 -0.957047c0.0367795,-0.0367795 0.12774,-0.139374 0.169449,-0.160539 -0.0298346,0 -0.0334646,0.00537402 -0.0542126,0.00537402 -0.0211772,0 -0.0189567,-0.00537402 -0.0470984,-0.00537402 0.00590157,0.00941339 0.00894094,0.0145433 -0.00950394,0.0327087l-0.180689 0.179783c-0.0694685,0.0694685 -0.134539,0.134539 -0.204008,0.204008 -0.0312362,0.0312362 -0.384815,0.397335 -0.4165,0.406866zm-0.264016 0.588724c0.0107598,0.0229803 -0.0013622,0.0107992 0.0213189,0.0219803 0.0303976,-0.023752 0.0684685,-0.0668268 0.0981693,-0.0965236l1.47607 -1.47607c0.0290039,-0.0289803 0.0401614,-0.0313504 0.0471654,-0.0594803l-0.0106417 -0.0153189c-0.0288346,0.0122953 -0.183736,0.176091 -0.209492,0.201846l-1.02005 1.02005c-0.0485551,0.0485551 -0.366098,0.360717 -0.402539,0.40352zm0.120035 0.123984c0.0172205,0.0130394 0.00766142,0.00670472 0.0239409,0.0120039 0.0663346,-0.0521929 0.738634,-0.733642 0.791551,-0.786559l0.594028 -0.594031c0.0408465,-0.0408425 0.172764,-0.167492 0.198531,-0.203461 -0.00880315,-0.0078622 -0.0042126,-0.00590945 -0.012,-0.0220118 -0.0365709,0.017126 -0.784421,0.777441 -0.80052,0.793543l-0.795531 0.800516zm-0.06 -0.054c0.0172165,0.0130354 0.00765748,0.00670079 0.0239409,0.012 0.0565157,-0.0657402 0.31615,-0.317161 0.398528,-0.399539l1.11006 -1.11006c0.0170591,-0.0170591 0.0832126,-0.0930197 0.0995276,-0.0931496 -0.00383071,-0.0155669 -0.00331496,-0.013063 -0.0120039,-0.0246614 -0.0282756,0.00149606 -0.0239055,0.00823622 -0.0594843,0.0438465l-1.51507 1.51507c-0.0183701,0.0183386 -0.0362283,0.0281969 -0.0454921,0.0564843zm0.197976 -1.16406c-0.00478346,0.00550394 -0.00523622,0.00594094 -0.010685,0.013315 -0.0339409,0.0459567 -0.0319724,0.052748 -0.0912874,0.082689l-0.456055 0.456055c0.0016811,0.00550394 0.00131496,0.0112323 0.00583071,0.0181378 0.0112362,0.0171772 -0.00870079,-0.00361024 0.0121417,0.0118346 0.0242323,-0.0128504 0.136461,-0.135772 0.168039,-0.16602 0.0124843,-0.0178228 0.0210394,-0.0356181 0.0350945,-0.0509016 0.00773228,-0.00840551 0.0135315,-0.011378 0.0230236,-0.0189764 0.0101654,-0.00812992 0.0173228,-0.0146732 0.0258858,-0.0221181 0.0220079,-0.0124961 0.0137992,-0.00432283 0.0434882,-0.0344921l0.257996 -0.258051c0.276083,-0.276083 0.574071,-0.582343 0.852091,-0.852012 0.0167559,-0.016252 0.0264449,-0.0179055 0.0284803,-0.0435039 -0.00118898,-0.000783465 -0.00267717,-0.00367717 -0.00351969,-0.00242913 -0.000964567,0.00142126 -0.00311417,-0.00174409 -0.0044685,-0.00197244 -0.0112992,-0.00189764 -0.00809843,-0.00159843 -0.0219803,-0.00159843 -0.0152717,0.00809843 -0.729319,0.723571 -0.841744,0.838382 -0.0186299,0.0190197 -0.0134213,0.0159764 -0.0223307,0.0316614zm0.918016 -0.318016c-0.0417087,0.0211654 -0.132669,0.12376 -0.169449,0.160539l-0.957047 0.957047c-0.0257598,0.0257598 -0.143531,0.13215 -0.157508,0.166476l0.0119724 0.0179724c0.0269803,-0.00511417 0.0105945,0.00517323 0.0495,-0.0344921 0.389606,-0.397244 0.801591,-0.80163 1.19703,-1.19707l0.0633307 -0.0623425c0.0162992,-0.0178543 0.0112008,-0.00590157 0.0161732,-0.0321339 -0.0129882,0.0043189 -0.0466496,0.0157638 -0.0540039,0.024zm-1.0647 0.624031c0.0246693,0.00781496 0.0415197,0.0194213 0.0653386,0.0240039 0.00125197,-0.0251929 0.0560984,-0.0697126 0.084874,-0.0984882 0.0334646,-0.0334685 0.0625354,-0.0625354 0.0960039,-0.0960039l0.551555 -0.552543c0.0187598,-0.0186535 0.00777559,-0.0159685 0.0329528,-0.0143425 -0.00340157,-0.0153819 -0.00798819,-0.0256772 -0.0102795,-0.0386535 -0.00394882,-0.0223819 0.00342126,-0.0216614 -0.00772047,-0.0360315l-0.812724 0.812059zm0.128689 0.101976c0.00524803,0.0117913 0.00794882,0.0143268 0.0126575,0.0292598 0.0019685,0.00625197 0.0031378,0.0130906 0.0050315,0.0188701 0.00505906,0.0154213 0.000940945,0.00901969 0.00631496,0.0139213l0.79472 -0.794059c-0.010811,-0.00760236 -0.0137559,-0.0057126 -0.0262992,-0.0123307 -0.0072874,-0.00385039 -0.0205512,-0.0125354 -0.0270709,-0.0176693 -0.0136614,0.0320394 -0.345358,0.353 -0.378854,0.3865 -0.0644685,0.0644685 -0.124539,0.124539 -0.189008,0.189008 -0.0267638,0.0267598 -0.164772,0.175783 -0.197492,0.1865zm-0.0440236 -0.0659764c0.00282677,0.0117835 -0.00311811,-0.00151181 0.00467717,0.0101496 0.00420866,0.00629921 0.00589764,0.00724016 0.0104961,0.0125984 0.00950787,0.0110827 0.0113976,0.0157677 0.0195354,0.0252559 0.0227047,-0.053248 0.732815,-0.716925 0.74937,-0.762039 -0.00234646,-0.00979921 -0.019122,-0.0343228 -0.0320197,-0.0380197l-0.752059 0.752055zm0.734028 0.228012c0.0289409,0 0.0529449,0.00372047 0.0780354,-0.0059685 0.0721614,-0.0620354 0.461114,-0.460106 0.561547,-0.560539 0.0233346,-0.0233346 0.164354,-0.173398 0.194492,-0.187508 0,-0.0222795 -0.00535433,-0.0591063 -0.0120039,-0.0740551 -0.00475197,0.0241693 -0.0303268,0.039311 -0.0465315,0.0555039l-0.156008 0.156008c-0.0646496,0.0646496 -0.600752,0.606602 -0.619531,0.616559zm-0.474024 -1.45207c-0.0144606,0.0355197 -0.164102,0.173075 -0.190508,0.19948 -0.0654685,0.0654685 -0.126539,0.126539 -0.192012,0.192012l-0.336012 0.336016c-0.0338701,0.0340512 -0.0244134,0.0346142 -0.0554764,0.0405 -0.00978346,0.00873622 -0.010437,0.0359291 -0.0135709,0.0524567 -0.0023622,0.0124528 -0.00879921,0.0434567 -0.0104291,0.0575984 0.00975197,-0.0233189 0.39298,-0.397941 0.445551,-0.450512 0.0764724,-0.0764685 0.148543,-0.148543 0.225012,-0.225012 0.0334803,-0.0334764 0.20102,-0.20861 0.223508,-0.220539 -0.0300906,0 -0.068126,0.0140039 -0.096063,0.018zm0.096063 -0.018c-0.0224882,0.0119291 -0.190028,0.187063 -0.223508,0.220539 -0.0764685,0.0764685 -0.148539,0.148543 -0.225012,0.225012 -0.0525709,0.0525709 -0.435799,0.427193 -0.445551,0.450512l-0.006 0.0459528c0.0345197,-0.0140551 0.149571,-0.140598 0.175476,-0.166508l0.342016 -0.342016c0.0294685,-0.0294685 0.0545394,-0.0545394 0.0840079,-0.0840079l0.0825315 -0.0914724c0.0167559,-0.0122756 0.0252362,-0.0340827 0.0405709,-0.049437 0.00852756,-0.00853937 0.016622,-0.0132756 0.0274331,-0.0209094 0.0241693,-0.0170669 0.0194094,-0.0114606 0.0220315,-0.0196575 0.0355354,-0.0180315 0.0967126,-0.0879921 0.133449,-0.124531 0.0264724,-0.0263346 0.0294449,-0.022315 0.0405,-0.0494764 -0.0214173,0 -0.0329409,0.00141732 -0.0479449,0.006zm0.15598 0.364661c0,0.0290512 -0.00644882,0.0470984 -0.0160236,0.0693346 -0.00734252,0.0170433 -0.0274331,0.0447717 -0.0392953,0.0567126 -0.0240472,0.024189 -0.0800748,0.0553189 -0.126709,0.0553189 -0.00950787,0.0202992 -0.0154685,0.0228425 -0.0314882,0.0385315l-0.219661 0.21637c-0.000834646,-0.00131102 -0.00316929,0.00215748 -0.00484252,0.00307874 0.0122047,0.0109016 0.00398819,0.0271024 0.00120472,0.0428071 -0.0046811,0.0264016 -0.00817323,0.0316299 -0.0132087,0.0532283 0.00890945,-0.015685 0.00370079,-0.0126417 0.0223307,-0.0316614 0.112425,-0.114811 0.826472,-0.830283 0.841744,-0.838382 -0.00649213,-0.0130591 0.0116575,0.00394488 -0.00679528,-0.00647638 -0.00647244,-0.00365748 -0.00605906,-0.00384252 -0.0163504,-0.00640945 -0.0160787,-0.00401181 -0.0192244,-0.00572441 -0.0368898,0.000854331 -0.050626,0.0435276 -0.321614,0.330161 -0.354016,0.346693zm0.331343 1.11141c0.0190512,0 0.0639016,0.00630709 0.0767087,0.0120039 0.00580709,-0.0306378 -0.00505512,-0.00627165 0.013185,-0.0290197 0.00350787,-0.00437402 0.0156969,-0.0149803 0.0213071,-0.0204803l0.567028 -0.567004c0.00754724,-0.00762992 0.0129291,-0.0145512 0.0203504,-0.0213268 0.0178543,-0.0162992 0.00589764,-0.0112008 0.0321299,-0.0161732l0 -0.0847283c-0.149138,0.135154 -0.631705,0.648622 -0.730709,0.726728zm-0.145303 0c0.0263465,0 0.0152913,0.0022126 0.0359409,-0.006 0.0187795,-0.00995669 0.554882,-0.551909 0.619531,-0.616559l0.156008 -0.156008c0.0162047,-0.0161929 0.0417795,-0.0313346 0.0465315,-0.0555039l-0.006 -0.0299409c-0.0348386,0.014185 -0.194374,0.185406 -0.22048,0.211512 -0.0325748,0.0325748 -0.625094,0.621205 -0.629953,0.631516l-0.00157874 0.0209843zm-0.624091 -1.39807c-0.00520866,0.0274843 -0.00987402,0.0257992 -0.0284567,0.0436024l-0.231055 0.230882c-0.0454685,0.0454685 -0.0865394,0.0865394 -0.132008,0.132004 -0.0270315,0.0270354 -0.10576,0.120547 -0.142476,0.127508 -0.0104528,0.0234921 -0.0394055,0.097185 -0.0420039,0.124047 0.205256,-0.196638 0.456642,-0.456268 0.667559,-0.668516 0.0142205,-0.014315 0.0249528,-0.0332913 0.0465079,-0.0375315l-0.106799 0.0314567c-0.0228504,0.00738976 -0.027937,0.00612992 -0.0312677,0.0165472zm-0.618 0.864012c0,0.0380827 -0.006,0.0501378 -0.006,0.090063 0.00477953,-0.0243031 0.164591,-0.172291 0.196394,-0.205693 0.0141142,-0.0148268 0.0133189,-0.0204134 0.0376181,-0.0223465 0.014126,-0.169791 0.177445,-0.180988 0.182028,-0.186008 0.00950394,-0.0202992 0.0154646,-0.0228425 0.0314882,-0.0385354l0.15602 -0.155957c0.0429016,-0.0429016 0.0415866,-0.0522047 0.0684843,-0.0515236 0,-0.0233031 -0.00156299,-0.0414252 0.00323228,-0.0627677 0.00609449,-0.027122 0.0126654,-0.0259528 0.0147677,-0.0512362l-0.0825315 0.0914724c-0.0294685,0.0294685 -0.0545394,0.0545394 -0.0840079,0.0840079l-0.342016 0.342016c-0.0259055,0.0259094 -0.140957,0.152453 -0.175476,0.166508zm1.50004 0.546059c0.00904331,0.010126 0.0144291,0.00513386 0.0340748,0.00795669 0.0096378,0.00138583 0.0211772,0.00404331 0.0379882,0.00404331 0.00696063,-0.0367165 0.100472,-0.115445 0.127508,-0.142476 0.114685,-0.114689 0.252661,-0.248012 0.362886,-0.363063 0.0178031,-0.0185866 0.0161181,-0.023248 0.0436024,-0.0284606 0.00394094,-0.0275394 0.012,-0.071874 0.012,-0.102063 -0.00504724,0.0256772 -0.0542756,0.063248 -0.0735315,0.0825039 -0.0653583,0.0653583 -0.527122,0.532327 -0.544528,0.541559zm-0.743976 -1.45807c-0.0215551,0.00424016 -0.0322874,0.0232165 -0.0465079,0.0375315 -0.210917,0.212248 -0.462303,0.471878 -0.667559,0.668516 -0.00709055,0.0175945 -0.0105866,0.025874 -0.012,0.0499606 0.031063,-0.00588583 0.0216063,-0.00644882 0.0554764,-0.0405l0.336012 -0.336016c0.0654724,-0.0654724 0.126543,-0.126543 0.192012,-0.192012 0.0264055,-0.0264055 0.176047,-0.163961 0.190508,-0.19948l-0.0479409 0.012zm-0.330047 1.16409c0.00783858,0.0187205 0.000149606,0.0119724 0.0333189,0.0119724l0.812724 -0.812059c0.00902362,-0.0202047 0.006,-0.0140945 0.006,-0.0399528 -0.0334882,0.0109646 -0.190264,0.179272 -0.218492,0.2075l-0.528028 0.528028c-0.0344134,0.0344173 -0.070437,0.0743504 -0.105524,0.104512zm0.186012 0.176l0 0.0353071c0.031685,-0.0095315 0.385264,-0.37563 0.4165,-0.406866 0.0694685,-0.0694685 0.134539,-0.134539 0.204008,-0.204008l0.180689 -0.179783c0.0184449,-0.0181654 0.0154055,-0.0232953 0.00950394,-0.0327087 -0.00556693,-0.00776378 0.00877559,-0.006 -0.0159803,-0.006l-0.79472 0.794059zm1.68008 -1.28807c0.000807087,0.0410433 0.0151102,0.0422795 0.0186929,0.0739961 0.0117795,-0.0213386 0.0340906,-0.0397441 0.0538268,-0.0594843 0.0766024,-0.0765984 0.349028,-0.342445 0.395531,-0.396539 0.0122913,-0.0318189 -2.75591e-005,-0.0412323 -2.75591e-005,-0.074689l-0.348539 0.350185c-0.0224331,0.0224331 -0.0926535,0.104075 -0.119484,0.106531zm-1.7134 1.20805l0.00931496 0.0179724c0.0327205,-0.0107165 0.170728,-0.15974 0.197492,-0.1865 0.0644685,-0.0644685 0.124539,-0.124539 0.189008,-0.189008 0.0334961,-0.0335 0.365193,-0.354461 0.378854,-0.3865 -0.0161732,-0.0157362 -0.00629134,-0.00910236 -0.0252992,-0.0180039 -0.0165551,0.0451142 -0.726665,0.708791 -0.74937,0.762039zm0.88539 0.198012l0.0359409 0c0.0174055,-0.00923228 0.479169,-0.476201 0.544528,-0.541559 0.0192559,-0.0192559 0.0684843,-0.0568268 0.0735315,-0.0825039l0 -0.0299409c-0.0262323,0.00497244 -0.0142756,-0.000125984 -0.0321299,0.0161732 -0.00742126,0.00677559 -0.0128031,0.0136969 -0.0203504,0.0213268l-0.567028 0.567004c-0.00561024,0.0055 -0.0177992,0.0161063 -0.0213071,0.0204803 -0.0182402,0.022748 -0.00737795,-0.00161811 -0.013185,0.0290197zm-0.939425 -0.258012c0.00562205,0.0141378 -0.00188976,0.00816535 0.0193268,0.0119961l0.752059 -0.752055c0,-0.0253858 9.44882e-005,-0.0154134 -0.006,-0.0213189 -0.0251772,-0.00162598 -0.0141929,-0.00431102 -0.0329528,0.0143425l-0.551555 0.552543c-0.0334685,0.0334685 -0.0625394,0.0625354 -0.0960039,0.0960039 -0.0287756,0.0287756 -0.083622,0.0732953 -0.084874,0.0984882zm0.83139 0.234039c0.00757087,0.0180827 -0.00162992,0.0119685 0.0313268,0.0119685 0.0990039,-0.0781063 0.581571,-0.591575 0.730709,-0.726728 0,-0.0254803 0.00242913,-0.0148858 -0.00599606,-0.0332874 -0.0301378,0.0141102 -0.171157,0.164173 -0.194492,0.187508 -0.100433,0.100433 -0.489386,0.498504 -0.561547,0.560539zm0.25198 0.0419724l0.0887087 0c-0.0124252,-0.0174961 -0.0111929,-0.0102205 0.00698031,-0.0297008 0.0085315,-0.00914173 0.0158583,-0.0148228 0.0248661,-0.0237835l0.294016 -0.294016c0.0191063,-0.0191142 0.0301772,-0.0388937 0.0594843,-0.0484921 0.00505118,-0.0353071 0.018,-0.0621142 0.018,-0.108004 -0.020063,0.0395394 -0.0893976,0.0983071 -0.121535,0.130449 -0.0434685,0.0434646 -0.0825394,0.0825354 -0.126004,0.126004 -0.0306614,0.0306575 -0.237831,0.232744 -0.244516,0.247543zm-1.05002 0.678004c0.0159606,0.00235039 0.0403268,0.023811 0.0560197,0.0300315 0.00866929,-0.0185079 0.00747638,-0.0149882 0.0224134,-0.0297992 0.0552087,-0.0547283 0.36863,-0.378768 0.401591,-0.394205 0,-0.0138425 -0.000787402,-0.0301378 0.000314961,-0.0436929 0.00152756,-0.018874 0.00568504,-0.0216417 0.00568504,-0.0423583 -0.0102717,0.0193622 -0.301469,0.304437 -0.358547,0.361516 -0.0214646,0.0214646 -0.0385394,0.0385394 -0.0600039,0.0600039 -0.0256024,0.0256024 -0.0417441,0.0480276 -0.0674724,0.0585039zm-0.152028 -1.17003c-0.00866929,0.0185079 -0.00747638,0.0149921 -0.0224134,0.0298031l-0.326953 0.327673c-0.0204961,0.0165709 -0.00630709,0.018248 -0.0266339,0.00320866 0.000724409,0.0310157 0.0139803,0.0492638 0.018,0.0773701l0.456055 -0.456055c-0.027689,0.012315 -0.0575236,0.018 -0.0980551,0.018zm1.89211 -1.05608c-0.00622047,0.00361417 -0.00286614,-0.00269685 -0.00788583,0.0159252 -0.0025,0.00928346 -0.00294094,0.0120197 -0.00392126,0.0262205 -0.00123622,0.0179528 -0.00019685,0.0395551 -0.00019685,0.0578976 0.0240394,-0.0429488 0.340661,-0.343177 0.427303,-0.434638 0.017937,-0.0189331 0.0138504,-0.0211378 0.0407244,-0.023374 -0.00746063,-0.0218504 -0.0103543,-0.0476339 -0.0180039,-0.0700433 -0.00839764,0.0200866 -0.268106,0.273067 -0.319547,0.324504 -0.0275276,0.0275315 -0.0799528,0.0962047 -0.118472,0.103508zm-0.108008 1.06805c0,0.0237874 -0.00640551,0.081063 -0.012,0.0987205l0.321535 -0.323181c0.0183386,-0.0183661 0.0281969,-0.0362283 0.0564843,-0.0454921 0.0102835,-0.00918504 0.0135512,-0.0422717 0.0167953,-0.0552244 0.0060748,-0.024252 0.012689,-0.0402874 0.0132047,-0.0674646l-0.013437 0.0199764c-0.00408661,0.00535039 -0.00568898,0.00695276 -0.0109488,0.012378 -0.00917717,0.0094685 -0.0147874,0.0144528 -0.0241339,0.0237835 -0.0174764,0.0174449 -0.0305394,0.0305394 -0.0480039,0.048l-0.243012 0.243012c-0.0183386,0.0183701 -0.0281929,0.0362283 -0.0564843,0.0454921zm0.0180039 -0.133996c-0.0110748,0.00190157 -0.0031811,-0.000818898 -0.00551181,0.0146969 -0.00125197,0.00833465 -0.000649606,0.0185079 -0.00158661,0.0278622 -0.00204331,0.0203661 -0.00490551,0.0264803 -0.00490551,0.055437 0.0314882,-0.0439528 0.295642,-0.298602 0.366209,-0.371661 0.0166417,-0.0172323 0.0116496,-0.0175236 0.035815,-0.0216457 0.00879528,-0.0277677 0.0121535,-0.0619055 -0.006,-0.0827087l-0.0214921 0.0224134c-0.089622,0.0947598 -0.216031,0.215909 -0.312047,0.312102 -0.00920079,0.00922047 -0.0146181,0.0154016 -0.0235866,0.024122 -0.0150591,0.0146339 -0.00827165,0.0106614 -0.0268937,0.0193819zm0.114004 -0.720035c0.00566535,0.00649213 0.0125591,0.0172874 0.0186299,0.0255079 0.0063622,0.00860236 0.00374409,0.0075315 0.0104921,0.0130906 0.011378,0.00937402 0.000732283,0.00515354 0.0128819,0.00545276 0.0112953,-0.0212992 0.168598,-0.171567 0.199539,-0.202508 0.0242717,-0.0242756 0.18074,-0.191776 0.21448,-0.205512 0,-0.0390236 -0.006,-0.0502638 -0.006,-0.0860236 -0.0225276,0.0501063 -0.281201,0.29415 -0.330539,0.343488 -0.0242913,0.0242913 -0.0862598,0.0995315 -0.119484,0.106504zm-1.78209 1.98815c0.00872047,0.0209528 -0.00336614,0.00837008 0.018,0.0239409 0.0257283,-0.0104764 0.0418701,-0.0329016 0.0674724,-0.0585039 0.0214646,-0.0214646 0.0385394,-0.0385394 0.0600039,-0.0600039 0.0570787,-0.0570787 0.348276,-0.342154 0.358547,-0.361516 0.00997638,-0.0237559 0.0141299,-0.0354134 0.018,-0.0599449 -0.0220945,0.00899606 -0.00853543,0.00080315 -0.0260236,0.0163819 -0.0791102,0.0704646 -0.494382,0.496591 -0.496,0.499646zm0.0239685 -2.05813c-0.038937,0.0197598 -0.360185,0.349453 -0.427665,0.418358 -0.00634252,0.00648031 -0.00816929,0.00803937 -0.0134488,0.0158268l-0.00672835 0.0116575c-0.000366142,-0.000940945 -0.00137795,0.0028189 -0.00214961,0.0041811 -0.00537008,0.00617717 -0.000185039,-0.00141339 -0.00765748,0.0102835 -0.00264961,0.00415354 -0.00660236,0.0112913 -0.00850394,0.0151142 -0.00796063,0.0160197 -0.00832677,0.0180039 -0.0138386,0.0345748 0.0367165,-0.00696063 0.115445,-0.100472 0.142476,-0.127508 0.0454685,-0.0454646 0.0865394,-0.0865354 0.132008,-0.132004l0.231055 -0.230882c0.0185827,-0.0178031 0.023248,-0.0161181 0.0284567,-0.0436024 -0.0207913,0.00122047 -0.0196732,0.000901575 -0.0352756,0.00757087 -0.00177559,0.000755906 -0.00868898,0.00471654 -0.0107362,0.00632677 -0.0128583,0.010122 -0.00489764,0.000429134 -0.00799213,0.0101024zm1.00811 1.39807l0.0359409 0.006c0.00668504,-0.0147992 0.213854,-0.216886 0.244516,-0.247543 0.0434646,-0.0434685 0.0825354,-0.0825394 0.126004,-0.126004 0.0321378,-0.0321417 0.101472,-0.0909094 0.121535,-0.130449 0.0103228,-0.0060748 0.006,-0.0187717 0.006,-0.0360039 -0.0274843,0.0052126 -0.0257992,0.00987402 -0.0436024,0.0284606 -0.110224,0.115051 -0.248201,0.248374 -0.362886,0.363063 -0.0270354,0.0270315 -0.120547,0.10576 -0.127508,0.142476zm0.606 -0.353354c-0.000720472,0.0309331 -0.011378,0.0776811 -0.012,0.109331 0.0938071,-0.0923386 0.228248,-0.236024 0.318303,-0.320386 0.0220709,-0.0206732 0.0116181,-0.0176299 0.0297126,-0.00628346 0.013248,-0.0258504 0.025563,-0.103118 0.0360039,-0.137311 -0.0292992,0.0408976 -0.263169,0.267472 -0.321531,0.326472 -0.047378,0.0478937 -0.0318898,0.041937 -0.0504882,0.0281772zm-1.53876 1.07939c0.0114882,0.00904724 0.0419409,0.0234291 0.0567165,0.03 0.00715354,-0.0377323 0.0529685,-0.067937 0.0795039,-0.0944724 0.0304646,-0.0304685 0.0565354,-0.0565394 0.0870039,-0.0870039l0.129008 -0.129012c0.0162756,-0.0163622 0.0241339,-0.0352717 0.0524724,-0.0375276 0,-0.0299331 -0.006,-0.0421063 -0.006,-0.0786969l-0.398705 0.396713zm1.7428 -1.9861c0.022122,0.00900394 -1.1811e-005,-0.00023622 0.0154331,0.00735433 0.00494094,0.0024252 0.0116969,0.00617323 0.0171811,0.00848425 0.015122,0.00637008 0.0199055,0.00772441 0.0386969,0.00816142 0.000318898,-0.0232047 -0.0121929,-0.00503543 0.0311693,-0.0475039 0.0420433,-0.0411772 0.250744,-0.264441 0.287512,-0.27648 0,-0.0353307 0.006,-0.0560157 0.006,-0.0980551 -0.00391339,0.0252283 -0.0274055,0.0383937 -0.0435315,0.0544921 -0.0577913,0.057689 -0.311965,0.323 -0.352461,0.343547zm-0.222039 1.06202c0,0.0349488 -0.006,0.0496142 -0.006,0.0900039 0.0203819,-0.0284528 0.237283,-0.246945 0.293984,-0.299748 0.0163937,-0.0152717 0.00620866,-0.0109488 0.0300315,-0.0168819l0.03 -0.126701 -0.00813386 0.0155236c-0.0120827,0.0193465 -0.256807,0.259677 -0.292402,0.295307 -0.00827953,0.00829134 -0.0125866,0.0130512 -0.0204764,0.0210118l-0.0270039 0.0214843zm-2.14811 -0.0139921c0.000712598,0.0235512 0.0101969,0.0513071 0.012,0.0760157 0.0483465,-0.0648346 0.237449,-0.243878 0.306531,-0.313496 0.0346457,-0.0349134 0.0322165,-0.0305984 0.0428071,-0.0369134l0.00998425 -0.00559843c-0.0150591,-0.00479528 -0.0254449,-0.00666142 -0.0405394,-0.0134173 -0.00893701,-0.00400394 -0.00752362,-0.00477953 -0.0154213,-0.00767323 -0.0146417,-0.00537008 -0.00345276,-0.00367323 -0.0153465,-0.00294094 -0.0101496,0.0140591 0.0115827,-0.0225512 -0.00108268,0.00750787 -0.00438189,0.0104016 -0.00135827,0.00402362 -0.00522835,0.00929921l-0.269815 0.270835c-0.0153465,0.0140197 -0.00508661,0.0075748 -0.0238898,0.0163819zm2.20811 -0.536681c0,0.0320551 -0.011252,0.0746142 -0.012,0.105354 0.0456142,-0.0578189 0.122469,-0.126106 0.177528,-0.181161 0.0314646,-0.0314685 0.0585354,-0.0585394 0.0900039,-0.0900079 0.0223976,-0.0223976 0.0712677,-0.0806614 0.0984843,-0.0888504 -0.0130157,-0.015122 -0.0458307,-0.0203937 -0.0706772,-0.0226732 -0.00917323,0.0304843 -0.108713,0.118346 -0.13685,0.146488l-0.104906 0.105083c-0.0313819,0.032815 -0.0224449,0.0247559 -0.0415827,0.0257677zm0.066 -0.69335c0.0017126,0.0229094 -0.0030315,0.00936614 0.00600394,0.024 0.0268307,-0.00245669 0.0970512,-0.0840984 0.119484,-0.106531l0.348539 -0.350185 -0.006 -0.0252953c-0.026874,0.00223622 -0.0227874,0.00444094 -0.0407244,0.023374 -0.0866417,0.0914606 -0.403264,0.391689 -0.427303,0.434638zm0.189331 0.212c0.0430906,0.00467323 0.0764055,0.00596063 0.119524,-0.0157205 0.0368701,-0.0185394 0.0573031,-0.0381299 0.080374,-0.0690748 0.0519331,-0.0696457 0.0661693,-0.113366 0.0907953,-0.207894 -0.038315,0.0485709 -0.0985079,0.102146 -0.144524,0.148161 -0.0497205,0.0497205 -0.0970787,0.0962638 -0.146169,0.144528zm-0.111323 -0.0539724c0.00102756,0.00163386 0.0028189,0.00198031 0.00339764,0.00468898 0.00394488,0.0184528 0.000216535,0.000547244 0.00619291,0.00845276 0.0104724,0.0138543 0.00173228,-0.00181496 0.00843701,0.0108307 0.0404961,-0.0205472 0.294669,-0.285858 0.352461,-0.343547 0.016126,-0.0160984 0.0396181,-0.0292638 0.0435315,-0.0544921l0 -0.0339528c-0.0337402,0.0137362 -0.190209,0.181236 -0.21448,0.205512 -0.0309409,0.0309409 -0.188244,0.181209 -0.199539,0.202508zm-0.216012 1.206c0,0.0329606 -0.0112087,0.0750748 -0.012,0.106043 0.00912598,-0.0264409 0.214339,-0.220134 0.25348,-0.260512 0.0359764,-0.0371102 0.0211969,-0.0266772 0.0465354,-0.0314803 0.0117087,-0.0104528 0.00301969,-0.00212992 0.00761811,-0.0219803 0.00196063,-0.00847244 0.00481102,-0.0219843 0.00795669,-0.0344646 0.00601181,-0.0238858 0.0127402,-0.0422677 0.0144252,-0.0662441 -0.00102756,0.00138976 -0.0021378,0.00335039 -0.00281102,0.0043622 -0.00065748,0.000992126 -0.00198819,0.00304331 -0.00279134,0.00423228l-0.267886 0.272587c-0.0161024,0.0165472 -0.0236024,0.0324016 -0.0445276,0.0274567zm-2.0341 -0.870012c0.000771654,-0.0013622 0.00178346,-0.00512205 0.00214961,-0.0041811l0.00672835 -0.0116575c0.00527953,-0.0077874 0.0071063,-0.00934646 0.0134488,-0.0158268 0.0674803,-0.0689055 0.388728,-0.398598 0.427665,-0.418358 -0.041811,0.00659843 -0.116902,0.0562559 -0.148343,0.0796378 -0.0199843,0.0148661 -0.042378,0.0313543 -0.060126,0.0478819 -0.0661142,0.061563 -0.106118,0.0980787 -0.159972,0.176043 -0.0226024,0.0327244 -0.072622,0.108134 -0.0815512,0.146461zm2.20211 -0.646012c-0.0128268,0.0218543 -0.0162913,0.0227835 -0.018,0.0519528 0.0385197,-0.00730315 0.0909449,-0.0759764 0.118472,-0.103508 0.0514409,-0.051437 0.31115,-0.304417 0.319547,-0.324504 0,-0.0229331 0.00177953,-0.0133858 -0.006,-0.0226457 -0.0282244,0.000389764 -0.0223898,0.00605512 -0.0594803,0.043185l-0.255016 0.255016c-0.0325748,0.0325748 -0.0712756,0.0673228 -0.0995236,0.100504zm-1.27806 0.35465c0.00637402,0.0215669 0.0171496,0.0362244 0.018,0.0660315 0.0532205,-0.0541339 0.104807,-0.106449 0.159528,-0.161169 0.0507953,-0.0507913 0.108457,-0.115213 0.160508,-0.159528 -0.00711024,-0.00779134 0.0079685,0.00130709 -0.0096063,-0.00524016 -0.0038189,-0.0014252 -0.0171969,-0.00481102 -0.0182047,-0.0049685 -0.0211299,-0.00334646 -0.0207756,-0.00281496 -0.0402126,0.00218898 -0.0370827,0.0435591 -0.0899291,0.0909094 -0.132524,0.133504 -0.0234685,0.0234685 -0.0425394,0.0425394 -0.0660039,0.0660039 -0.0223661,0.0223661 -0.0413307,0.0515827 -0.0714843,0.0631772zm-0.312047 2.00144c0.00472441,0.0147598 -0.0102756,-0.00412992 0.00576772,0.00750787 0.00652756,0.00473228 0.0038937,0.0036811 0.0152323,0.00752756 0.0227402,0.0077126 0.0173819,0.00680315 0.0330354,0.00299606 0.0466339,-0.0400906 0.15239,-0.151382 0.207528,-0.20652 0.0267835,-0.0267835 0.0532598,-0.0605787 0.0804843,-0.0694921 -0.00317717,-0.0222283 -0.0148189,-0.0498386 -0.018,-0.072063 -0.0108622,0.016878 -0.00143701,0.0074252 -0.0135748,0.0222835 -0.0364646,0.0446378 -0.308173,0.306543 -0.310472,0.30776zm1.84212 -2.70017l-0.0515157 0.0925236c-0.071626,0.110059 -0.17552,0.178382 -0.200496,0.251547 0.028248,-0.0331811 0.0669488,-0.0679291 0.0995236,-0.100504l0.255016 -0.255016c0.0370906,-0.0371299 0.0312559,-0.0427953 0.0594803,-0.043185 -0.0018937,-0.0217126 -0.0121929,-0.0550354 -0.018,-0.074685 -0.0205748,0.0252283 -0.0453268,0.0476299 -0.0695236,0.0718307 -0.0134449,0.0134409 -0.0227362,0.0225512 -0.0358386,0.0361575 -0.0153543,0.0159449 -0.0184843,0.0260945 -0.0386457,0.0213307zm-0.257319 0.594063l0.0113071 0.0159803c0.0332244,-0.00697244 0.0951929,-0.0822126 0.119484,-0.106504 0.0493386,-0.0493386 0.308012,-0.293382 0.330539,-0.343488 0,-0.0396969 0.00256299,-0.0109409 -0.0119724,-0.0220118 -0.0465039,0.0540945 -0.318929,0.319941 -0.395531,0.396539 -0.0197362,0.0197402 -0.0420472,0.0381457 -0.0538268,0.0594843zm-0.591406 1.35007c0.0326181,0 0.087815,-0.013815 0.110717,-0.024 0.00507087,-0.0267402 0.00182283,-0.0175039 0.0192441,-0.0350472l0.11126 -0.110433c0.0372756,-0.0375 0.0251299,-0.0359843 0.0554764,-0.0385118 0.0161929,-0.0131339 0.0517756,-0.116906 0.0540039,-0.148681 -0.00102756,0.0013937 -0.0021378,0.00335039 -0.00281102,0.00436614 -0.0238543,0.0359016 -0.315209,0.325118 -0.34789,0.352307zm0.416705 0.0539724c-0.0105,6.29921e-005 -0.0059252,0.0359331 -0.00703543,0.0469331 -0.00193701,0.0191929 -0.0049685,0.0248858 -0.0049685,0.0524488 0.0351969,-0.0431614 0.0880236,-0.0903268 0.129528,-0.131835 0.0234646,-0.0234646 0.0425394,-0.0425354 0.0660039,-0.066 0.0228425,-0.0228425 0.0401929,-0.0522677 0.0744843,-0.0634961 0.00935039,-0.00543307 0.00232283,0.00443307 0.00874016,-0.0208583 0.00329134,-0.0129803 0.00591339,-0.025878 0.00804331,-0.0343898 0.00456299,-0.0182323 0.0125748,-0.041374 0.0132165,-0.0588189 -0.0095,0.0179173 -0.200488,0.201713 -0.244409,0.247559 -0.0178031,0.0185827 -0.0161181,0.023248 -0.0436024,0.0284567zm-2.13611 -0.380008c0,0.0356654 0.006,0.0497756 0.006,0.0773701 0.0380945,-0.0467205 0.0965669,-0.098878 0.141528,-0.143835 0.0288543,-0.0288543 0.121602,-0.133563 0.152484,-0.142854 -0.00474409,-0.00607087 -0.0377008,-0.043378 -0.042,-0.0467047 -0.0349094,0.0443661 -0.0831811,0.0881693 -0.123528,0.128516 -0.0232756,0.0232756 -0.106776,0.114531 -0.134484,0.127508zm0.614047 1.03407l0.0252992 0.012 0.398705 -0.396713 0 -0.0392913c-0.0329606,0.015437 -0.346382,0.339476 -0.401591,0.394205 -0.014937,0.014811 -0.0137441,0.0112913 -0.0224134,0.0297992zm1.50406 -0.516055c0,0.0247205 -0.00639764,0.0804252 -0.012,0.0993819 0.0330118,-0.0404882 0.0816102,-0.0839173 0.120528,-0.122835 0.0214646,-0.0214646 0.0385394,-0.0385394 0.0600039,-0.0600039 0.0220984,-0.0220984 0.0381811,-0.0495866 0.0714803,-0.0604921 0.00395276,-0.0276142 0.0214213,-0.089626 0.0300039,-0.116717 -0.0356063,0.0427992 -0.0880118,0.0896535 -0.129528,0.131165 -0.0234646,0.0234685 -0.0425394,0.0425394 -0.0660039,0.0660039 -0.0228425,0.0228425 -0.0401929,0.0522638 -0.0744843,0.0634961zm-1.42204 0.558055l0.0299409 0.006c0.00229921,-0.00121654 0.274008,-0.263122 0.310472,-0.30776 0.0121378,-0.0148583 0.0027126,-0.00540551 0.0135748,-0.0222835 0,-0.0245354 0.00237402,-0.014937 -0.006,-0.0239724 -0.0283386,0.00225591 -0.0361969,0.0211654 -0.0524724,0.0375276l-0.129008 0.129012c-0.0304685,0.0304646 -0.0565394,0.0565354 -0.0870039,0.0870039 -0.0265354,0.0265354 -0.0723504,0.0567402 -0.0795039,0.0944724zm1.50004 -1.26609c-0.0065,0.0112205 -0.006,0.0171772 -0.006,0.036 0.0282913,-0.00926378 0.0381457,-0.027122 0.0564843,-0.0454921l0.243012 -0.243012c0.0174646,-0.0174606 0.0305276,-0.0305551 0.0480039,-0.048 0.00934646,-0.00933071 0.0149567,-0.014315 0.0241339,-0.0237835 0.00525984,-0.0054252 0.0068622,-0.00702756 0.0109488,-0.012378l0.013437 -0.0199764c0.00511417,-0.00579528 0.00232283,0.000901575 0.00716929,-0.0144882 0.00301181,-0.00954724 0.00223228,-0.00805906 0.00483465,-0.0221772 -0.0241654,0.00412205 -0.0191732,0.00441339 -0.035815,0.0216457 -0.0705669,0.0730591 -0.33472,0.327709 -0.366209,0.371661zm-1.39207 1.3074c0.0355512,0.0026063 0.0552835,0.0126929 0.0900039,0.0126929 -0.0138819,-0.0181811 -0.0139449,-0.00922047 0.0335197,-0.0564882l0.13178 -0.132681c0.0181693,-0.0184449 0.0232992,-0.0154055 0.0327126,-0.00950394 -0.000629921,-0.0269331 -0.0122717,-0.0587362 -0.0180039,-0.0833425l-0.0159606 0.0205157c-0.0308819,0.0359567 -0.169697,0.169343 -0.21552,0.215969l-0.0338543 0.0299409c-0.000787402,-0.00128346 -0.00307087,0.00201181 -0.00467717,0.00289764zm1.30206 -0.470012c-0.00361811,0.0333701 -0.012,0.0726299 -0.012,0.109331l0.0055 -0.00964173c0.0178465,-0.0286654 -0.00969291,0.0133819 0.00527165,-0.00855118l0.148756 -0.150941c0.0214331,-0.0214331 0.0401142,-0.0450276 0.0624843,-0.0555 0.00848819,-0.0109528 0.0258976,-0.0916063 0.03,-0.11202l-0.201331 0.202591c-0.016374,0.017122 -0.0141693,0.0205472 -0.0386811,0.0247323zm0.102008 -0.970693l0 0.0353071c0.018622,-0.00872047 0.0118346,-0.00474803 0.0268937,-0.0193819 0.0089685,-0.00872047 0.0143858,-0.0149016 0.0235866,-0.024122 0.0960157,-0.0961929 0.222425,-0.217343 0.312047,-0.312102l0.0214921 -0.0224134c-0.00838976,-0.0174488 0.00187795,-0.0103858 -0.0180039,-0.0173071 -0.0272165,0.00818898 -0.0760866,0.0664528 -0.0984843,0.0888504 -0.0314685,0.0314685 -0.0585394,0.0585394 -0.0900039,0.0900079 -0.0550591,0.0550551 -0.131913,0.123343 -0.177528,0.181161zm-0.511354 0.649358l0.0226457 0c0.0326811,-0.027189 0.324035,-0.316406 0.34789,-0.352307 0.000673228,-0.00101575 0.00178346,-0.00297244 0.00281102,-0.00436614 0.0076811,-0.00675984 0.0011063,0.0103504 0.00815354,-0.0136378 0.00465354,-0.0158189 0.00256693,-0.00425197 0.00384646,-0.0256811 -0.0293071,0.00959843 -0.040378,0.029378 -0.0594843,0.0484921l-0.294016 0.294016c-0.00900787,0.00896063 -0.0163346,0.0146417 -0.0248661,0.0237835 -0.0181732,0.0194803 -0.0194055,0.0122047 -0.00698031,0.0297008zm-1.67276 -0.142016l0.006 0.0106732c0.0203268,0.0150394 0.0061378,0.0133622 0.0266339,-0.00320866l0.326953 -0.327673c0.014937,-0.014811 0.0137441,-0.0112953 0.0224134,-0.0298031l-0.0226772 -0.00599606 -0.00998425 0.00559843c-0.0105906,0.00631496 -0.00816142,0.002 -0.0428071,0.0369134 -0.0690827,0.0696181 -0.258185,0.248661 -0.306531,0.313496zm2.15411 -0.239319l0 0.0219803c0.0185984,0.0137598 0.00311024,0.0197165 0.0504882,-0.0281772 0.0583622,-0.059 0.292232,-0.285575 0.321531,-0.326472 0,-0.0174921 0.006,-0.0055748 0.006,-0.0360039 -0.0282874,0.00926378 -0.0381457,0.027126 -0.0564843,0.0454921l-0.321535 0.323181zm-2.18411 -0.0627205l0 0.0873819c0.0337362,-0.041378 0.0837441,-0.0860512 0.123524,-0.125831l0.0930472 -0.093126c0.0177047,-0.0175236 0.0222835,-0.0166535 0.0294685,-0.0304016 0.00472835,-0.0194291 0.00381496,-0.00701969 -0.00311811,-0.032815 -0.00360236,-0.0134016 -0.00738189,-0.0225236 -0.00890945,-0.0332165 -0.00479134,0.0243425 -0.139748,0.148717 -0.166539,0.175508 -0.0360276,0.0360315 -0.0358701,0.0465118 -0.0674724,0.0525zm2.17211 0.194031l-0.006 0.0459843 0.0270039 -0.0214843c0.00788976,-0.00796063 0.0121969,-0.0127205 0.0204764,-0.0210118 0.0355945,-0.0356299 0.280319,-0.275961 0.292402,-0.295307l0.00813386 -0.0155236c0.00533465,-0.00635039 0.006,0.0058622 0.006,-0.0193268 -0.0180945,-0.0113465 -0.00764173,-0.0143898 -0.0297126,0.00628346 -0.0900551,0.0843622 -0.224496,0.228047 -0.318303,0.320386zm-0.03 0.272031l0 0.0319646c0.0274843,-0.00520866 0.0257992,-0.00987402 0.0436024,-0.0284567 0.0439213,-0.0458465 0.234909,-0.229642 0.244409,-0.247559 0.00944488,-0.0224882 0.0105,-0.0223701 0.0120039,-0.0479409 -0.0253386,0.00480315 -0.0105591,-0.00562992 -0.0465354,0.0314803 -0.0391417,0.040378 -0.244354,0.234071 -0.25348,0.260512zm-1.15206 -1.3301c0.0184646,0.00979134 0.0331811,0.0284291 0.0420315,0.0480315 0.0109094,-0.0333031 0.0383937,-0.0493819 0.0604961,-0.0714843 0.0224646,-0.0224646 0.0405354,-0.0405394 0.063,-0.0630039 0.0352953,-0.0352913 0.0904803,-0.0975551 0.127161,-0.123524 -0.0271614,-0.000665354 -0.0512047,-0.006 -0.0887087,-0.006l-0.00157874 0.0209843c-0.000181102,0.000385827 -0.011,0.0134449 -0.011378,0.0138307 -0.0329331,0.0337992 -0.15752,0.167524 -0.191024,0.181165zm0.0720039 0.128717l0 0.0379646c0.0324016,-0.0165315 0.30339,-0.303165 0.354016,-0.346693 -0.00788976,-0.0188425 -0.000740157,-0.0119685 -0.0339803,-0.0119685 -0.0520512,0.044315 -0.109713,0.108736 -0.160508,0.159528 -0.0547205,0.0547205 -0.106307,0.107035 -0.159528,0.161169zm1.03205 1.64273c0,0.0376496 -0.006,0.0517244 -0.006,0.092685 0.0177795,-0.0234567 0.12335,-0.127091 0.159059,-0.162717 0.016189,-0.0161535 0.00874409,-0.0139173 0.0329528,-0.0199449 0.00854331,-0.0098937 0.0293976,-0.097437 0.03,-0.117382 -0.0298543,0.0350669 -0.0711299,0.0721063 -0.105528,0.106504 -0.0238386,0.0238425 -0.0824252,0.0924094 -0.110484,0.100854zm0.144008 -1.34208c0,0.0362874 -0.006,0.0488976 -0.006,0.0887087 0.0338701,-0.0397874 0.0815748,-0.0825551 0.120524,-0.121504 0.0381575,-0.0381575 0.0865433,-0.0943504 0.131461,-0.126528 -0.026811,-0.0015748 -0.0510472,-0.00944094 -0.0746575,-0.012 -0.0139921,0.0328031 -0.0559764,0.0636181 -0.0818425,0.0894843 -0.0225512,0.0225472 -0.0609488,0.0705433 -0.0894843,0.0818386zm-1.78411 -0.00931496c0.00764567,0.00837402 -0.00911024,-0.0013189 0.0101339,0.00473228 0.00158268,0.0005 0.0178189,0.00437795 0.0187283,0.0045748 0.0269567,0.00588583 0.0128346,0.00766929 0.0331614,0.00272441 0.0293543,-0.0252362 0.0586339,-0.057626 0.0875236,-0.0865157 0.0164646,-0.0164646 0.0285591,-0.0285236 0.0450039,-0.0450039 0.0160472,-0.0160787 0.0264843,-0.0380591 0.0534803,-0.0405315 -0.00791339,-0.0179055 -0.0232244,-0.0409646 -0.024,-0.0620236l-0.224031 0.222043zm0.140028 0.0899724c0.00664961,0.0127165 0.0077874,0.00835039 0.0154646,0.0261496 0.0067126,0.0155551 0.00891339,0.0279173 0.0145394,0.041874l0.00542913 -0.0136969c0.0108622,-0.0215079 0.202697,-0.207874 0.212598,-0.216303 -0.0131496,-0.00151969 -0.0158898,-0.0034252 -0.0304764,-0.00769291 -0.0233031,-0.00681496 -0.00966929,-0.00966142 -0.0315433,-0.00433858 -0.0293543,0.0252362 -0.0586378,0.057626 -0.0875276,0.0865157 -0.0164606,0.0164567 -0.0285709,0.0285118 -0.045,0.045 -0.0175512,0.017622 -0.0262323,0.0335709 -0.0534843,0.0424921zm1.86543 -0.443992c0.00874409,0.00734646 -0.000692913,0.006 0.0219843,0.006 0.0490906,-0.0482638 0.0964488,-0.0948071 0.146169,-0.144528 0.0460157,-0.0460157 0.106209,-0.0995906 0.144524,-0.148161l0.00600394 -0.0372953c-0.0367677,0.0120394 -0.245469,0.235303 -0.287512,0.27648 -0.0433622,0.0424685 -0.0308504,0.0242992 -0.0311693,0.0475039zm-0.29935 1.12803c0,0.014748 0.00200787,-0.00065748 -0.006,0.0060315l0 0.0239685c0.0209252,0.00494488 0.0284252,-0.0109094 0.0445276,-0.0274567l0.267886 -0.272587c0.00080315,-0.00118898 0.00213386,-0.00324016 0.00279134,-0.00423228 0.000673228,-0.00101181 0.00178346,-0.00297244 0.00281102,-0.0043622 0.00825197,-0.0128307 0.00890157,-0.0197717 0.012,-0.0379921 -0.0238228,0.00593307 -0.0136378,0.00161024 -0.0300315,0.0168819 -0.0567008,0.0528031 -0.273602,0.271295 -0.293984,0.299748zm-2.14811 -0.13463l0.006 0.0306339c0.0188031,-0.00880709 0.00854331,-0.0023622 0.0238898,-0.0163819l0.269815 -0.270835c0.00387008,-0.00527559 0.000846457,0.00110236 0.00522835,-0.00929921 0.0126654,-0.0300591 -0.00906693,0.00655118 0.00108268,-0.00750787 -0.00481102,-0.0158228 0.00911811,-0.0103937 -0.0120039,-0.0132992 -0.0308819,0.00929134 -0.12363,0.114 -0.152484,0.142854 -0.0449606,0.0449567 -0.103433,0.0971142 -0.141528,0.143835zm1.66805 -0.903394c-0.0055,0.0142441 -0.011685,0.0777087 -0.0119724,0.0926575 0.0010315,-0.00138976 0.00233071,-0.00537795 0.00281102,-0.0043622l0.0186929 -0.0250354 0.178528 -0.177264c-0.00691339,-0.00812205 -0.0126654,-0.0143504 -0.0214685,-0.0225906 -0.0104213,-0.00975197 -0.0164094,-0.0120709 -0.0239094,-0.0194134 -0.00593307,0.0238268 -0.00161024,0.0136378 -0.0168819,0.0300315 -0.00627559,0.00674016 -0.0113937,0.0106969 -0.0182756,0.0174724l-0.107524 0.108504zm-1.13605 0.294016c0.00279921,0.0116732 -0.0041378,-0.00108661 0.00491732,0.00993307 0.00965354,0.011752 0.000677165,0.00174016 0.0122795,0.0108937 0.00985433,0.00777165 0.0129803,0.0105157 0.0208268,0.0171929l0.170028 -0.170024c-0.0035748,-0.0149173 -0.0331929,-0.0344882 -0.0380197,-0.0360354l-0.170031 0.168039zm-0.544004 0.384047l0 0.0299409c0.0316024,-0.00598819 0.0314449,-0.0164685 0.0674724,-0.0525 0.0267913,-0.0267913 0.161748,-0.151165 0.166539,-0.175508l0 -0.0299724c-0.0242992,0.00193307 -0.0235039,0.00751969 -0.0376181,0.0223465 -0.0318031,0.0334016 -0.191614,0.18139 -0.196394,0.205693zm2.23211 -0.316024c-0.00851969,0.0190787 -0.006,0.0109528 -0.006,0.0353071 0.0191378,-0.00101181 0.0102008,0.00704724 0.0415827,-0.0257677l0.104906 -0.105083c0.0281378,-0.0281417 0.127677,-0.116004 0.13685,-0.146488l-0.0253543 -0.006c-0.0449173,0.0321772 -0.0933031,0.0883701 -0.131461,0.126528 -0.0389488,0.0389488 -0.0866535,0.0817165 -0.120524,0.121504zm-0.102008 0.943374c-0.00328346,0.0170906 -0.00479134,0.0180787 -0.006,0.038626 0.0342913,-0.0112323 0.0516417,-0.0406535 0.0744843,-0.0634961 0.0234646,-0.0234646 0.0425394,-0.0425354 0.0660039,-0.0660039 0.0415157,-0.0415118 0.0939213,-0.0883661 0.129528,-0.131165 0.00465748,-0.0127913 0.00569291,-0.0200236 0.006,-0.0392913 -0.0342913,0.0112283 -0.0516417,0.0406535 -0.0744843,0.0634961 -0.0234646,0.0234646 -0.0425394,0.0425354 -0.0660039,0.066 -0.0415039,0.0415079 -0.0943307,0.0886732 -0.129528,0.131835zm-1.21209 -1.50342c0.00437795,0.00881102 -0.00662992,-0.000275591 0.0102205,0.00811811 0.00950787,0.00473228 0.00714961,0.00248031 0.017252,0.00644094 0.0124606,0.00488583 0.0203268,0.00734646 0.0265866,0.0154409 0.00598425,-0.0315591 0.00864961,-0.0237008 0.0435039,-0.0584724 0.0266811,-0.0266181 0.134024,-0.137854 0.148508,-0.145535l-0.0880433 0c0.00116535,0.0255433 0.00448425,0.0136654 -0.011937,0.0321299l-0.146091 0.141878zm-0.131976 2.12413c0.0144606,0.0189843 -0.0156063,0.00337795 0.024,0.0172795 0.0016063,-0.000885827 0.00388976,-0.0041811 0.00467717,-0.00289764l0.0338543 -0.0299409c0.0458228,-0.046626 0.184638,-0.180012 0.21552,-0.215969l0.0159606 -0.0205157c-0.00181496,-0.00981496 -0.00283858,-0.0142559 -0.006,-0.0239685 -0.0272244,0.00891339 -0.0537008,0.0427087 -0.0804843,0.0694921 -0.0551378,0.0551378 -0.160894,0.166429 -0.207528,0.20652zm0.246039 -2.03413l0.0119724 0.0146535c0.0301535,-0.0115945 0.0491181,-0.040811 0.0714843,-0.0631772 0.0234646,-0.0234646 0.0425354,-0.0425354 0.0660039,-0.0660039 0.0425945,-0.0425945 0.0954409,-0.0899449 0.132524,-0.133504 -0.00810236,-0.0161378 -0.00238976,-0.00998031 -0.0313268,-0.00998031 -0.0366811,0.0259685 -0.0918661,0.0882323 -0.127161,0.123524 -0.0224646,0.0224646 -0.0405354,0.0405394 -0.063,0.0630039 -0.0221024,0.0221024 -0.0495866,0.0381811 -0.0604961,0.0714843zm-1.03208 0.90339c0,0.0244213 -0.00199606,0.0131772 0.006,0.0306378 0.0277087,-0.0129764 0.111209,-0.104232 0.134484,-0.127508 0.0403465,-0.0403465 0.0886181,-0.0841496 0.123528,-0.128516 -0.0105945,-0.0339843 -0.00222047,-0.0144764 -0.0179724,-0.0239724 -0.00718504,0.013748 -0.0117638,0.012878 -0.0294685,0.0304016l-0.0930472 0.093126c-0.0397795,0.0397795 -0.0897874,0.0844528 -0.123524,0.125831zm0.168008 0.590654c0.00730315,0.00565354 0.0281654,0.0413622 0.0300315,0.0540315 0.00869685,-0.0213661 0.00558661,-0.015252 0.0224134,-0.0319016 0.00944882,-0.00935039 0.0146772,-0.0141693 0.0240866,-0.0235709 0.0265827,-0.0265512 0.130992,-0.134835 0.145508,-0.142535 -0.0073937,-0.0127244 0.0139449,0.00340945 -0.00827953,-0.00496063 -0.00154724,-0.00057874 -0.0156969,-0.00434252 -0.017748,-0.00494488 -0.0151181,-0.00443307 -0.0205551,-0.0044252 -0.0280354,-0.0140945 -0.011878,0.029185 -0.114732,0.127354 -0.141953,0.151598 -0.0174882,0.0155787 -0.00392913,0.00738583 -0.0260236,0.016378zm0.786008 -1.74606c-0.0110551,0.0271614 -0.0140276,0.0231417 -0.0405,0.0494764 -0.0367362,0.0365394 -0.0979134,0.1065 -0.133449,0.124531 0.0285906,-0.00167717 0.0297598,-0.00709843 0.0498465,-0.0105669 0.0149252,-0.0025748 0.0308346,-0.00143307 0.0461575,-0.00143307 0.0110591,-0.0271614 0.0140276,-0.0231417 0.0405039,-0.0494764 0.0367323,-0.0365433 0.0979094,-0.1065 0.133445,-0.124531 -0.0214606,0 -0.0820512,0.00579134 -0.0960039,0.012zm0.0180591 0.192008l0.0179724 0.0119724c0.0335039,-0.0136417 0.158091,-0.147366 0.191024,-0.181165 0.000377953,-0.000385827 0.0111969,-0.0134449 0.011378,-0.0138307l0.00157874 -0.0209843 -0.0299409 0c-0.0144843,0.0076811 -0.121827,0.118917 -0.148508,0.145535 -0.0348543,0.0347717 -0.0375197,0.0269134 -0.0435039,0.0584724zm1.14003 1.61143l0 0.0299724c0.0245118,-0.00418504 0.0223071,-0.00761024 0.0386811,-0.0247323l0.201331 -0.202591c0.00529528,-0.0191142 0.00837795,-0.0230118 0.012,-0.0459803 -0.0332992,0.0109055 -0.0493819,0.0383937 -0.0714803,0.0604921 -0.0214646,0.0214646 -0.0385394,0.0385394 -0.0600039,0.0600039 -0.0389173,0.0389173 -0.0875157,0.0823465 -0.120528,0.122835zm-1.91406 -0.00335039c0.0097874,0.015811 0.00161024,0.00703937 0.0179409,0.0120039l-0.00594094 0.0059685c0.026,-0.00760236 0.0104724,-0.00172047 0.0248228,-0.0105472 0.00379528,-0.00233071 0.00951969,-0.00792913 0.0133937,-0.0118661 0.0102362,-0.0104016 0.0158346,-0.016689 0.0262244,-0.0270906l0.102008 -0.102004c0.0349646,-0.0349528 0.0435472,-0.0330512 0.0495,-0.0644724l-0.0359409 0c-0.0145157,0.00770079 -0.118925,0.115984 -0.145508,0.142535 -0.00940945,0.00940157 -0.0146378,0.0142205 -0.0240866,0.0235709 -0.0168268,0.0166496 -0.0137165,0.0105354 -0.0224134,0.0319016zm0.723323 0.516028c0.0484567,0 0.0772638,-0.00311811 0.110717,-0.018 -0.00496063,-0.0210039 0.00813386,-0.0254331 0.0244921,-0.0414961 0.00739764,-0.00726378 0.0102717,-0.0109134 0.0175866,-0.0181063 0.0153307,-0.0150748 0.00696063,-0.0108622 0.0298976,-0.018374 0.00101969,-0.0277362 0.00566535,-0.00850394 0.00481496,-0.0351417 -0.000507874,-0.0157717 -0.00481496,-0.022689 -0.00481496,-0.0482283l-0.182693 0.179346zm-0.505323 -1.69208l0.0379606 0 0.224031 -0.222043c-0.00316142,-0.0097126 -0.00418504,-0.0141535 -0.006,-0.0239724 -0.0268976,-0.000681102 -0.0255827,0.00862205 -0.0684843,0.0515236l-0.15602 0.155957c-0.0160236,0.0156929 -0.0219843,0.0182362 -0.0314882,0.0385354zm0.207992 0.157996l0 0.0279803c0.00167323,-0.00092126 0.00400787,-0.00438976 0.00484252,-0.00307874l0.219661 -0.21637c0.0160197,-0.015689 0.0219803,-0.0182323 0.0314882,-0.0385315l-0.0379646 0c-0.00990157,0.00842913 -0.201736,0.194795 -0.212598,0.216303l-0.00542913 0.0136969zm-0.552059 0.706047c-0.0078622,0.0234528 0.00490157,0.0392244 0.0120315,0.0633465l0.0133346 -0.0147323c0.00648031,-0.00729921 0.00969291,-0.0107126 0.0170748,-0.0181024l0.0660906 -0.066c0.0204803,-0.0207677 0.0188465,-0.0238858 0.0415039,-0.0344961 0,-0.0440236 0.00885039,-0.0629843 0.0180039,-0.0960354 -0.0315787,0.030248 -0.143807,0.153169 -0.168039,0.16602zm2.03211 0.606028c-0.00181496,0.0188583 -0.00361811,0.0130945 0.0136063,0.0244646 0.0055,0.0036378 0.0211102,0.0102008 0.0304449,0.0115394 0.00830315,-0.0203976 -0.000444882,-0.00315354 0.00770079,-0.0153307l0.0328031 -0.0341417c0.0338228,-0.0338189 0.0243307,-0.0346024 0.0554724,-0.0405039l0.03 -0.124709c-0.0159173,0.0271457 -0.017185,0.0270276 -0.0395118,0.0491614 -0.0165236,0.0163819 -0.0285512,0.0285394 -0.0450118,0.0449961 -0.0280197,0.0280197 -0.0570433,0.0602992 -0.0855039,0.0845236zm0.224063 -1.68608c-0.0262283,-0.000133858 0.000318898,0.0041063 -0.0107047,-0.0166575l0.100709 -0.0973465c-0.00745669,-0.0128346 -0.104051,-0.0215945 -0.120035,-0.0240039l-0.018 0.132008c0.0292008,0 0.0260039,0.00518898 0.0480315,0.006zm-0.228043 1.53472c-0.00246063,0.0199488 -0.00412205,0.00801181 -0.006,0.032685 0.0280591,-0.00844488 0.0866457,-0.0770118 0.110484,-0.100854 0.0343976,-0.0343976 0.0756732,-0.071437 0.105528,-0.106504 0.0103661,-0.0214331 0.0115236,-0.0229252 0.012,-0.0499606 -0.0223701,0.0104724 -0.0410512,0.0340669 -0.0624843,0.0555l-0.148756 0.150941c-0.0149646,0.0219331 0.0125748,-0.0201142 -0.00527165,0.00855118l-0.0055 0.00964173zm-1.99813 -0.364661c-0.00501969,0.0206457 -0.00368898,0.00870079 0.00458661,0.0307087 0.00557087,0.014815 0.00807874,0.0191378 0.0134449,0.0332717 0.00102756,-0.00151575 0.00230315,-0.00575591 0.00281102,-0.00472835l0.010626 -0.0165551 0.0800354 -0.0812874c0.0149173,-0.0155 0.0160945,-0.0236457 0.0385354,-0.0247598 -0.00457874,-0.0238189 -0.016185,-0.0406732 -0.024,-0.0653425l-0.126039 0.128693zm0.0360039 0.0840039c-0.00507874,0.0208701 -0.0046378,0.0085 0.00565354,0.0302795 0.00550787,0.0116575 0.0100709,0.0138543 0.0124055,0.0297244 0.00899606,-0.0220984 0.00080315,-0.00853937 0.016378,-0.0260276l0.0931142 -0.0924528c0.0251575,-0.0254134 0.019815,-0.0266417 0.0464882,-0.0375 -0.0113307,-0.00511417 -0.0123307,-0.00566929 -0.0220394,-0.0137795 -0.00640551,-0.00534646 -0.00714173,-0.00737402 -0.0126142,-0.0113543 -0.0094685,-0.00688583 -0.0046378,-0.00482677 -0.0133504,-0.00691732l-0.126035 0.128028zm1.4941 -1.3861c0.0111496,0.00862598 0.0274921,0.0365236 0.0300039,0.0540591l0.140024 -0.138035c-0.0157677,-0.0185197 -0.0282323,-0.0222717 -0.0473661,-0.036 -0.0108228,0.0281417 -0.0363583,0.0446575 -0.0571772,0.0654803 -0.011437,0.011437 -0.0184921,0.0184094 -0.0297638,0.0300591 -0.0157323,0.0162559 -0.0118189,0.0166102 -0.0357205,0.024437zm0.036 0.176689c-0.0109449,0.0152598 -0.0174055,0.0314961 -0.024,0.0513228 0.032315,-0.0105827 0.0471299,-0.0361378 0.0684843,-0.0574961l0.177531 -0.185142c-0.0132638,-0.014122 -0.00384252,-0.00685039 -0.0219843,-0.0153465l-0.178528 0.177264 -0.0186929 0.0250354c-0.000480315,-0.00101575 -0.00177953,0.00297244 -0.00281102,0.0043622zm-0.792008 -0.290665l0.0419449 0 0.146091 -0.141878c0.0164213,-0.0184646 0.0131024,-0.00658661 0.011937,-0.0321299l-0.0260236 0c-0.0355354,0.0180315 -0.0967126,0.0879882 -0.133445,0.124531 -0.0264764,0.0263346 -0.0294449,0.022315 -0.0405039,0.0494764zm0.0239724 2.15411l0.0213189 0 0.182693 -0.179346c-0.00214173,-0.0122874 -0.00139764,-0.0105709 -0.006,-0.0193268 -0.00941339,-0.00590157 -0.0145433,-0.00894094 -0.0327126,0.00950394l-0.13178 0.132681c-0.0474646,0.0472677 -0.0474016,0.0383071 -0.0335197,0.0564882zm-0.744008 -0.594028c0.0129567,0.0172244 0.00667323,0.00769291 0.0119724,0.0239685 0.0220945,-0.00899213 0.00853543,-0.000799213 0.0260236,-0.016378 0.0272205,-0.0242441 0.130075,-0.122413 0.141953,-0.151598 -0.0162756,-0.00529921 -0.00674409,0.000984252 -0.0239685,-0.0119724 -0.0266732,0.0108583 -0.0213307,0.0120866 -0.0464882,0.0375l-0.0931142 0.0924528c-0.0155748,0.0174882 -0.00738189,0.00392913 -0.016378,0.0260276zm1.32537 -1.52408c0.0225157,0.000480315 0.0185709,0.00232283 0.0324213,0.00473622 0.0256969,0.00447244 0.016811,0.00553543 0.0342441,0.00129528 0.0262992,-0.0226063 0.0821417,-0.0894724 0.108035,-0.102035 -0.0122244,-0.0158031 -0.0410787,-0.017689 -0.0567165,-0.03 -0.0160157,0.0375551 -0.0864016,0.0887244 -0.117984,0.126004zm0.606693 1.8701c0.00302362,0.0150354 -0.00509055,0.00160236 0.00451575,0.0156496 0.00895276,0.0130866 -0.00266535,-0.000122047 0.0114646,0.0103425 0.0284606,-0.0242244 0.0574843,-0.0565039 0.0855039,-0.0845236 0.0164606,-0.0164567 0.0284882,-0.0286142 0.0450118,-0.0449961 0.0223268,-0.0221339 0.0235945,-0.0220157 0.0395118,-0.0491614 0.00527165,-0.0120276 0.00483858,-0.0117402 0.00600394,-0.0299724 -0.0242087,0.00602756 -0.0167638,0.00379134 -0.0329528,0.0199449 -0.0357087,0.035626 -0.14128,0.13926 -0.159059,0.162717zm-0.520008 -1.8461c0.014122,0.00661024 0.0165,0.00804331 0.0291772,0.0175433 0.0103465,0.00775591 4.33071e-005,0.00176378 0.0095315,0.00752756 0.0124528,0.00756299 0.000940945,0.00465354 0.0132756,0.00496063 0.0188189,-0.0161811 0.0357795,-0.0347638 0.0545236,-0.0535118 0.0104173,-0.0104213 0.0167323,-0.0165079 0.026874,-0.0270591 0.0163701,-0.0170315 0.0138622,-0.0202559 0.0386063,-0.0254449 -0.0123819,-0.00480315 -0.0155433,-0.00871654 -0.027874,-0.0161457 -0.0162126,-0.00976378 -0.0158346,-0.0128622 -0.032126,-0.0118976 -0.015374,0.0180591 -0.0335276,0.0345039 -0.0515236,0.0525039 -0.0103937,0.0103976 -0.0162638,0.0168465 -0.0267835,0.0271614 -0.0184567,0.0181024 -0.0195591,0.0148189 -0.0336811,0.0243622zm-1.05207 0.414051c0.00622835,0.0148661 -0.0100236,0.0119685 0.012,0.0119685 0.0088937,0.0106457 -0.00345669,0.0022126 0.0159803,0.006l0.170031 -0.168039c-0.0065315,-0.0156811 0.00163386,-0.00673622 -0.0120039,-0.0219803 -0.0269961,0.00247244 -0.0374331,0.0244528 -0.0534803,0.0405315 -0.0164449,0.0164803 -0.0285394,0.0285394 -0.0450039,0.0450039 -0.0288898,0.0288898 -0.0581693,0.0612795 -0.0875236,0.0865157zm0.0660039 0.0559882c0.00506299,0.0133307 0.00104331,0.00747638 0.012,0.0219528 0.027252,-0.00892126 0.0359331,-0.0248701 0.0534843,-0.0424921 0.0164291,-0.0164882 0.0285394,-0.0285433 0.045,-0.045 0.0288898,-0.0288898 0.0581732,-0.0612795 0.0875276,-0.0865157 -0.00622835,-0.0148701 0.0100197,-0.0119724 -0.0120039,-0.0119724 -0.0088937,-0.0106457 0.00345669,-0.0022126 -0.0159803,-0.00599606l-0.170028 0.170024zm1.66208 -0.0960315c0.000996063,-0.00133858 0.00229528,-0.00518504 0.00275591,-0.0041811 0.000448819,0.000984252 0.00212205,-0.0031811 0.00274409,-0.00406299l0.0249094 -0.0293031 0.10428 -0.102449c-0.0466181,-0.00133071 -0.0768701,-0.0209646 -0.109433,0.0192559 -0.0120197,0.0148465 -0.0169252,0.0302874 -0.0189567,0.0530394 -0.00251181,0.0281417 -0.00629921,0.0419055 -0.00629921,0.0677008zm-0.407992 0.892055c0.070185,-0.0233504 0.111134,-0.068685 0.152598,-0.123386 0.0149646,-0.019748 0.0280827,-0.0342756 0.0333819,-0.0606063 -0.0303465,0.00252756 -0.0182008,0.00101181 -0.0554764,0.0385118l-0.11126 0.110433c-0.0174213,0.0175433 -0.0141732,0.00830709 -0.0192441,0.0350472zm0.515969 -1.08006c0.00711417,0.0122441 -0.0142953,-0.00245669 0.00846457,0.00477559 0.00176378,0.000562992 0.0167953,0.00352362 0.0188071,0.00388583 0.0169409,0.00303937 0.0250984,0.000724409 0.0327913,0.00933858 0.00809449,-0.0198858 -0.00203937,-0.00242913 0.0104961,-0.019378l0.0420079 -0.0420945c0.0150433,-0.0150433 0.0392795,-0.0439331 0.0555,-0.0525315 -0.00717717,-0.0123543 0.0137559,0.00297244 -0.00807874,-0.00516142 -0.00183465,-0.000681102 -0.0180118,-0.0043937 -0.0182559,-0.00443701 -0.0196693,-0.00351969 -0.0246339,0.00177953 -0.0337283,-0.00840157 -0.0104646,0.0257047 -0.0295039,0.0384764 -0.0555,0.0644724 -0.0144882,0.0144882 -0.0367992,0.0412008 -0.0525039,0.0495315zm0.102004 0.018c0.00717717,0.0123543 -0.0137598,-0.00297244 0.00807874,0.00516142 0.00183071,0.000681102 0.0180118,0.0043937 0.0182559,0.00443701 0.0196732,0.00351969 0.0246339,-0.00178346 0.0337283,0.00840157 0.00809449,-0.0198858 -0.00203937,-0.00242913 0.0104961,-0.019378 0.00359055,-0.00485433 0.0100945,-0.0105551 0.0149685,-0.0152717 0.0201772,-0.0195118 0.0674094,-0.0713307 0.0825433,-0.0793543 -0.00711811,-0.0122441 0.0142913,0.00245669 -0.00846457,-0.00477559 -0.00176772,-0.000562992 -0.0167992,-0.00352362 -0.018811,-0.00388583 -0.0169409,-0.00304331 -0.0250984,-0.000724409 -0.0327913,-0.00933858 -0.0104646,0.0257047 -0.0295039,0.0384764 -0.0555,0.0644724 -0.0144882,0.0144882 -0.0367992,0.0412047 -0.0525039,0.0495315zm-0.20998 0.17c-0.00209843,0.0216772 -0.00427953,0.0118346 -0.006,0.0373268 0.0285354,-0.0112953 0.0669331,-0.0592913 0.0894843,-0.0818386 0.0258661,-0.0258661 0.0678504,-0.0566811 0.0818425,-0.0894843l-0.0306378 -0.006 -0.10428 0.102449 -0.0249094 0.0293031c-0.000622047,0.00088189 -0.00229528,0.00504724 -0.00274409,0.00406299 -0.00046063,-0.00100394 -0.00175984,0.00284252 -0.00275591,0.0041811zm0.38402 -1.20208c-0.00651575,0.0146457 -0.0104528,0.0424567 -0.0155079,0.0625197 -0.00688189,0.0273189 -0.0128465,0.0447835 -0.0204961,0.0688228 0.0355433,-0.0471732 0.0733346,-0.0729488 0.108035,-0.113315 0.00901969,-0.0242047 -0.00394488,-0.0467126 -0.0120276,-0.0699803l-0.00857087 0.0139409c-0.000799213,0.00124409 -0.00157874,0.00282677 -0.0023937,0.00403543l-0.0161693 0.0187717c-0.0142913,0.0141732 -0.0137953,0.0202756 -0.0328701,0.0152047zm-0.966047 0.936102c0.00167717,0.00550787 0.00131102,0.0112323 0.00583071,0.0181417 0.0112323,0.0171772 -0.00870079,-0.00361024 0.0121378,0.0118307l0.107524 -0.108504c0.00688189,-0.00677559 0.012,-0.0107323 0.0182756,-0.0174724 0.0152717,-0.0163937 0.0109488,-0.00620472 0.0168819,-0.0300315 -0.0139016,-0.0120433 -0.00764961,-0.0070748 -0.020626,-0.012l-0.140024 0.138035zm-1.57808 1.22138c0.00148031,0.00387402 0.00376378,0.0122598 0.00583071,0.0151142 0.0113701,0.015689 -0.00812205,-0.00347244 0.0121378,0.0115433l0.126039 -0.128693c0,-0.0246417 0.00211024,-0.0135827 -0.00600394,-0.0312953 -0.0226575,0.0106102 -0.0210236,0.0137283 -0.0415039,0.0344961l-0.0660906 0.066c-0.00738189,0.00738976 -0.0105945,0.0108031 -0.0170748,0.0181024l-0.0133346 0.0147323zm1.35609 -1.34741c0.013752,-0.00419685 0.0221457,-0.006 0.041311,-0.006 0.0315827,-0.0372795 0.101969,-0.0884488 0.117984,-0.126004l-0.0312992 -0.006c-0.0218386,0.0185945 -0.0428583,0.041878 -0.0645039,0.0635236 -0.0228386,0.0228386 -0.0522598,0.040189 -0.0634921,0.0744803zm0.972051 0.222012l0.0419409 0c0.0157047,-0.00832677 0.0380157,-0.0350433 0.0525039,-0.0495315 0.0259961,-0.0259961 0.0450354,-0.0387677 0.0555,-0.0644724l-0.0419409 0c-0.0162205,0.00859843 -0.0404567,0.0374882 -0.0555,0.0525315l-0.0420079 0.0420945c-0.0125354,0.0169488 -0.00240157,-0.000507874 -0.0104961,0.019378zm-2.29215 1.21604c0.00972441,0.0284882 0.00451181,0.011563 0.0179724,0.0200236l0.126035 -0.128028c-0.00383071,-0.0212205 0.00214173,-0.0137087 -0.012,-0.0193268 -0.0224409,0.00111417 -0.0236181,0.00925984 -0.0385354,0.0247598l-0.0800354 0.0812874 -0.010626 0.0165551c-0.000507874,-0.00102756 -0.00178346,0.0032126 -0.00281102,0.00472835zm2.47212 -2.11678c-0.00688583,0.0170433 -0.0112323,0.0223228 -0.018,0.0426614 0.0201614,0.00476378 0.0232913,-0.00538583 0.0386457,-0.0213307 0.0131024,-0.0136063 0.0223937,-0.0227165 0.0358386,-0.0361575 0.0241969,-0.0242008 0.0489488,-0.0466024 0.0695236,-0.0718307 -0.00148425,-0.00387402 -0.00376378,-0.0122598 -0.00583071,-0.0151142 -0.0113701,-0.015689 0.00811811,0.00347244 -0.0121417,-0.0115433 -0.0347008,0.0403661 -0.0724921,0.0661417 -0.108035,0.113315zm-0.0779724 0.918736c0.0202795,0.000326772 0.0273858,0.00155906 0.0419409,0.00600394 0.00575984,-0.012752 0.0315157,-0.0345591 0.0435,-0.0465354 0.0196063,-0.0195866 0.0322598,-0.0273031 0.0465354,-0.0554409 0.00896063,-0.00739764 0.00417323,0.00338583 0.006,-0.0180315l-0.0299685 0c-0.0151339,0.00802362 -0.0623661,0.0598425 -0.0825433,0.0793543 -0.00487402,0.00471654 -0.011378,0.0104173 -0.0149685,0.0152717 -0.0125354,0.0169488 -0.00240157,-0.000507874 -0.0104961,0.019378zm-0.186008 -0.036l0.0239409 0c0.0157047,-0.00833071 0.0380157,-0.0350433 0.0525039,-0.0495315 0.0259961,-0.0259961 0.0450354,-0.0387677 0.0555,-0.0644724l-0.0419409 0 -0.100709 0.0973465c0.0110236,0.0207638 -0.0155236,0.0165236 0.0107047,0.0166575zm-0.708067 -0.155976c0.00529921,0.0162795 -0.00103543,0.00672047 0.012,0.0239409 0.0239016,-0.00782677 0.0199882,-0.0081811 0.0357205,-0.024437 0.0112717,-0.0116496 0.0183268,-0.018622 0.0297638,-0.0300591 0.0208189,-0.0208228 0.0463543,-0.0373386 0.0571772,-0.0654803l-0.0146575 -0.00998031c-0.0247441,0.00518898 -0.0222362,0.00841339 -0.0386063,0.0254449 -0.0101417,0.0105512 -0.0164567,0.0166378 -0.026874,0.0270591 -0.0187441,0.018748 -0.0357047,0.0373307 -0.0545236,0.0535118zm-0.0720039 -0.0480039c0.00846063,0.0134606 -0.0084685,0.00824803 0.0200197,0.0179724 0.014122,-0.00954331 0.0152244,-0.00625984 0.0336811,-0.0243622 0.0105197,-0.010315 0.0163898,-0.0167638 0.0267835,-0.0271614 0.0179961,-0.018 0.0361496,-0.0344449 0.0515236,-0.0525039 -0.00105118,-0.00147638 -0.00224016,-0.00568898 -0.00309843,-0.00447244 -0.000866142,0.00122835 -0.00250787,-0.0032874 -0.00371654,-0.00402756 -0.0124331,-0.00758661 0.00205118,-0.00149213 -0.0171575,-0.00748031 -0.0258937,0.012563 -0.0817362,0.0794291 -0.108035,0.102035zm1.00802 0.245984c0.0202992,0 0.0240512,0.00309055 0.0423425,0.00652756 0.0206575,0.00387795 0.0281181,0.00942913 0.0342441,-0.00756693 0.00288189,-0.00798819 0.0134488,-0.0890551 0.0134488,-0.100937 -0.0142756,0.0281378 -0.0269291,0.0358543 -0.0465354,0.0554409 -0.0119843,0.0119764 -0.0377402,0.0337835 -0.0435,0.0465354zm-0.407961 1.68008c0.0274134,0.0102874 0.0485039,-0.00369685 0.0648543,-0.019122 0.0272402,-0.0256929 0.019878,-0.0340354 0.031122,-0.0708543 -0.0311417,0.00590157 -0.0216496,0.00668504 -0.0554724,0.0405039l-0.0328031 0.0341417c-0.00814567,0.0121772 0.000602362,-0.00506693 -0.00770079,0.0153307zm0.485996 -2.77015l-0.006 0.0100118 0 0.0239724c0.0190748,0.00507087 0.0185787,-0.0010315 0.0328701,-0.0152047l0.0161693 -0.0187717c0.000814961,-0.00120866 0.00159449,-0.00279134 0.0023937,-0.00403543l0.00857087 -0.0139409c-0.00188583,-0.00633071 -0.00390551,-0.0135551 -0.00600394,-0.0199921 -0.0280433,0.0105945 -0.0276535,0.017937 -0.048,0.0379606zm-1.60205 2.93816c0.0175,-0.00582283 0.0337598,-0.0131142 0.0463386,-0.0256417 0.0150866,-0.0150315 0.0189961,-0.0305866 0.0256378,-0.0523346 -0.022937,0.00751181 -0.0145669,0.00329921 -0.0298976,0.018374 -0.00731496,0.00719291 -0.010189,0.0108425 -0.0175866,0.0181063 -0.0163583,0.016063 -0.0294528,0.0204921 -0.0244921,0.0414961zm1.60205 -2.93816c0.0203465,-0.0200236 0.0199567,-0.0273661 0.048,-0.0379606 0,-0.014748 0.00201181,0.00065748 -0.006,-0.0060315 -0.0245551,0.000547244 -0.0260984,0.00358661 -0.042,0.012l0 0.0319921z"/>
 </g>
</svg>
