<?xml version="1.0" encoding="UTF-8"?>
<!DOCTYPE svg PUBLIC "-//W3C//DTD SVG 1.1//EN" "http://www.w3.org/Graphics/SVG/1.1/DTD/svg11.dtd">
<!-- Creator: CorelDRAW -->
<svg xmlns="http://www.w3.org/2000/svg" xml:space="preserve" width="3.36111in" height="2.88888in" style="shape-rendering:geometricPrecision; text-rendering:geometricPrecision; image-rendering:optimizeQuality; fill-rule:evenodd; clip-rule:evenodd"
viewBox="0 0 3.36111 2.88888"
 xmlns:xlink="http://www.w3.org/1999/xlink">
 <defs>
  <style type="text/css">
   <![CDATA[
    .fil0 {fill:#373435}
   ]]>
  </style>
 </defs>
 <g id="Layer_x0020_1">
  <metadata id="CorelCorpID_0Corel-Layer"/>
  <g id="_364726784">
   <path id="_495294152" class="fil0" d="M3.36111 2.54578l0 -0.0776811c-0.0350315,-0.0663819 -0.00715748,-0.0723583 -0.0802913,-0.123528 -0.0868858,-0.0607953 -0.317323,-0.186563 -0.358681,-0.247354 0.218303,-0.219228 0.304118,-0.241437 0.24489,-0.457933 -0.0507598,-0.185551 -0.112724,-0.366189 -0.169606,-0.553012 -0.0558307,-0.183358 -0.0745945,-0.459752 -0.32602,-0.38902 -0.274287,0.0771614 -0.101193,0.104811 -0.60174,0.121972 -0.130307,-0.281453 -0.168445,-0.489429 -0.342453,-0.370071 -0.0645945,0.0443071 -0.0611693,0.077311 -0.0850157,0.165264 -0.10226,-0.125154 -0.0802717,-0.139587 -0.153283,-0.284079 -0.0260039,-0.0514606 -0.0423346,-0.0960866 -0.0653661,-0.143169 -0.0147047,-0.030063 -0.0227244,-0.0498858 -0.0344291,-0.0751378 -0.0246457,-0.0531732 -0.0277441,-0.0478858 -0.0473661,-0.0598898 -0.0199764,0.377799 -0.0513346,0.279638 0.108575,0.608945 0.0526772,0.108476 0.0540984,0.0223898 0.0962126,0.111949 0.0509134,0.108276 0.0940354,0.288008 0.187657,0.327969 0.0193819,0.00827165 0.0141457,0.00923228 0.0407165,0.00574016 0.0410591,-0.00538976 0.00509055,0.00703937 0.029563,-0.013752 -0.0392756,-0.126449 -0.0527953,-0.183764 -0.106555,-0.305157 -0.0346299,-0.0782047 -0.0210551,-0.0549843 -0.0202008,-0.090563 0.00011811,-0.00503937 0.00132283,-0.0069252 0.00283858,-0.010063 0.0712244,0.0871496 0.0418976,0.0436496 0.0879961,0.14139 0.0249291,0.0528504 0.0422795,0.091937 0.0668346,0.142524 0.0709646,0.146169 0.0411693,0.185346 0.249681,0.169335l-0.291606 0.152886c-0.13611,0.0126063 -0.255177,0.0173701 -0.371917,0.0628898l-0.064878 -0.0956535 0.114878 -0.0939134 -0.0687677 -0.132657c-0.0808386,0.0515394 -0.369224,0.21613 -0.403346,0.285193 -0.0458976,0.0928898 -0.0738937,0.0876969 -0.172276,0.175142 -0.0647008,0.0575079 -0.114713,0.0997126 -0.171882,0.15778l-0.269039 0.205787c0.163311,-0.0330039 0.336382,-0.0358583 0.400287,-0.195799 0.0212559,0.041685 0.0185354,0.0273425 0.0190354,0.0667205 0.0437323,-0.0727638 0.0376417,-0.0952559 0.0617087,-0.167252 0.0203189,-0.0607913 0.0619921,-0.0718543 0.118358,-0.105091 0.103114,-0.0608031 0.0560354,0.0300236 0.153268,-0.0394449 0.0457835,-0.0327126 0.0833228,-0.0726535 0.138886,-0.0824409l0.076622 0.0615276c0.123374,0.109413 -0.0527323,0.230142 0.167528,0.23472 0.0729409,0.121157 0.10302,0.143339 0.0987913,0.31337 -0.00546063,0.219543 -0.153823,0.449236 -0.0530039,0.696587 0.0284685,0.0698504 0.14711,0.182764 0.223953,0.170594l-0.111744 -0.0885827c-0.122472,-0.124079 -0.111169,-0.313083 -0.0789331,-0.469752 0.0218504,-0.106197 0.0550551,-0.206417 0.063815,-0.322591 0.00483858,-0.0641732 0.00380709,-0.124539 -0.0050748,-0.188327 -0.00438976,-0.0315315 -0.00987402,-0.0520039 -0.0164252,-0.0824055 -0.013311,-0.0617677 -0.0078937,-0.0508701 0.000192913,-0.0613858l0.452406 -0.0444803c0.0168071,-0.00548031 0.178291,-0.182642 0.245791,-0.228909l0.0814606 0.287945c-0.772913,0.000685039 -0.801839,-0.0369488 -0.461898,0.842205 0.0320512,0.0828976 0.0844331,0.249756 0.133165,0.2975 0.0860157,0.0842717 0.236031,0.028563 0.292106,-0.0604764 0.121902,-0.193579 -0.0875945,-0.440823 -0.140972,-0.622701l0.128524 0.000645669c0.186906,0.384469 0.0837992,0.269469 0.436783,0.494016 0.0781969,0.0497402 0.20902,0.150488 0.297016,0.175252 0.188362,0.0530157 0.194197,-0.0842717 0.253232,-0.193575z"/>
   <path id="_506670856" class="fil0" d="M-0 2.0607l0 0.735689c0.00240551,0.00329528 0.00543307,0.00755512 0.00700787,0.0100315 0.0295512,0.0465394 0.0140118,0.0350827 0.0503976,0.0687047l0.0179213 0.0137559 1.13024 0c0.0757402,-0.0618465 0.0655394,-0.107335 0.0650118,-0.236102 -0.000401575,-0.0972008 -8.26772e-005,-0.194465 -8.26772e-005,-0.291673 0,-0.320665 0.041311,-0.377012 -0.200894,-0.375177l-0.861413 1.1811e-005c-0.123087,-0.000866142 -0.14626,-0.00487008 -0.208193,0.0747598z"/>
   <path id="_506669848" class="fil0" d="M2.49415 0l-0.127181 0c-0.108543,0.0657087 -0.28163,0.119461 -0.264543,0.387055 0.0114252,0.178921 0.143516,0.327811 0.328122,0.327874 0.185429,6.69291e-005 0.316744,-0.14915 0.328118,-0.327854 0.0169252,-0.265965 -0.155878,-0.321717 -0.264516,-0.387075z"/>
   <path id="_506669992" class="fil0" d="M-0 2.88888l0.0753268 0 -0.0179213 -0.0137559c-0.0363858,-0.033622 -0.0208465,-0.0221654 -0.0503976,-0.0687047 -0.0015748,-0.00247638 -0.00460236,-0.00673622 -0.00700787,-0.0100315l0 0.0924921z"/>
  </g>
 </g>
</svg>
