<?xml version="1.0" encoding="UTF-8"?>
<!DOCTYPE svg PUBLIC "-//W3C//DTD SVG 1.1//EN" "http://www.w3.org/Graphics/SVG/1.1/DTD/svg11.dtd">
<!-- Creator: CorelDRAW -->
<svg xmlns="http://www.w3.org/2000/svg" xml:space="preserve" width="3.33325in" height="1.97548in" style="shape-rendering:geometricPrecision; text-rendering:geometricPrecision; image-rendering:optimizeQuality; fill-rule:evenodd; clip-rule:evenodd"
viewBox="0 0 3.33325 1.97548"
 xmlns:xlink="http://www.w3.org/1999/xlink">
 <defs>
  <style type="text/css">
   <![CDATA[
    .fil0 {fill:#373435}
   ]]>
  </style>
 </defs>
 <g id="Layer_x0020_1">
  <metadata id="CorelCorpID_0Corel-Layer"/>
  <g id="_401169688">
   <path id="_495292952" class="fil0" d="M1.95953 0.270445c0.0100236,-0.0248346 -0.00875197,-0.0544055 0.0817677,0 -0.0180472,0.0675945 -0.0550945,0.0578701 -0.0774843,0.0336102 -0.0116299,-0.0125984 -0.00148819,-0.028815 -0.00428346,-0.0336102zm-0.523323 0.457909l0.278012 -0.196248 0.098126 0.130831c-0.0210748,0.0287638 -0.202752,0.163028 -0.245311,0.196244l0.257327 0.282354 0.118815 0.077437 0.212598 -0.0817717 -0.116268 0.376524c-0.0167559,0.0636772 -0.0146535,0.0673858 0.0164764,0.114602 0.021622,0.0328031 0.15287,0.176244 0.0663268,0.191063 -0.0429567,0.00735827 -0.0287402,-0.00333465 -0.0483346,-0.0251339l-0.0980906 -0.166441c-0.143913,0 -0.371618,-0.0136929 -0.505508,0.00146063 -0.151882,0.0171969 -0.234701,0.161614 -0.136075,0.28024 0.0748819,0.0900748 0.288791,0.0617323 0.445339,0.0617323l0.523319 0c0.0121535,-0.0521575 0.253567,-0.580563 0.294094,-0.670787 0.0230787,-0.051378 0.0688898,-0.202138 0.119339,-0.208185 0.0604331,-0.00725197 0.0413583,0.0466732 0.0303819,0.076126 -0.0575039,0.154276 -0.247858,0.55489 -0.345689,0.802846l0.932169 0c0,-0.50911 -0.295406,-1.70387 -0.948524,-1.24289 -0.00242126,-0.108555 -0.0722756,-0.255189 -0.114476,-0.359787l0.0817677 -0.0654134 -0.098122 -0.147185 -0.098126 0.0490591c-0.0761457,-0.326846 -0.628622,-0.23963 -0.802209,0.097252 -0.0898228,0.174315 0.00188976,0.254484 0.0826417,0.426075z"/>
   <path id="_364727024" class="fil0" d="M0.171913 0.277091c0.0237953,0.00211024 0.0413622,0.0231142 0.039248,0.0469055 -0.00211811,0.0237874 -0.0231181,0.0413583 -0.0469016,0.0392441 -0.0237874,-0.00211417 -0.0413661,-0.0231142 -0.0392402,-0.0469055 0.00211024,-0.0237874 0.0231063,-0.0413543 0.0468937,-0.0392441zm0.0977677 0.113169c0.0237953,0.00211024 0.0413661,0.0231063 0.039252,0.0469055 -0.00211811,0.0237835 -0.0231181,0.0413543 -0.0469016,0.0392402 -0.0237835,-0.00211417 -0.0413622,-0.0231142 -0.0392402,-0.0469055 0.0021063,-0.0237835 0.0231063,-0.0413504 0.0468898,-0.0392402zm0.0977677 0.113169c0.0237953,0.0021063 0.0413622,0.0231063 0.0392559,0.0469016 -0.00211811,0.0237874 -0.023122,0.0413583 -0.0469055,0.0392402 -0.0237874,-0.00211417 -0.0413622,-0.0231102 -0.0392441,-0.0469016 0.00211024,-0.0237835 0.0231063,-0.0413504 0.0468937,-0.0392402zm0.0977795 0.113161c0.0237874,0.00211417 0.0413543,0.0231142 0.0392441,0.0469055 -0.00212205,0.0237874 -0.023126,0.0413583 -0.0469094,0.0392441 -0.0237835,-0.00211417 -0.0413543,-0.0231142 -0.0392402,-0.0469016 0.00211417,-0.0237913 0.0231102,-0.0413583 0.0469055,-0.039248zm0.0977677 0.113169c0.0237874,0.00211024 0.0413543,0.0231102 0.0392441,0.0469055 -0.00211417,0.0237835 -0.0231181,0.0413543 -0.0469055,0.0392402 -0.0237835,-0.00211417 -0.0413543,-0.0231142 -0.0392402,-0.0469055 0.0021063,-0.0237835 0.0231063,-0.0413504 0.0469016,-0.0392402zm0.0977638 0.113169c0.0237953,0.0021063 0.0413622,0.0231063 0.039248,0.0469016 -0.00211417,0.0237874 -0.0231181,0.0413583 -0.0469055,0.0392441 -0.0237874,-0.00211811 -0.0413583,-0.0231181 -0.0392441,-0.0469055 0.00211024,-0.0237835 0.0231181,-0.0413504 0.0469016,-0.0392402zm0.0977717 0.113165c0.0237874,0.00211024 0.0413543,0.0231102 0.039248,0.0469016 -0.00211417,0.0237835 -0.0231181,0.0413583 -0.0469134,0.0392441 -0.0237835,-0.00211417 -0.0413543,-0.0231142 -0.0392362,-0.0469016 0.00211024,-0.0237913 0.0231181,-0.0413583 0.0469016,-0.0392441zm0.0977677 0.113165c0.0237874,0.00211024 0.0413543,0.0231102 0.0392441,0.0469055 -0.00211417,0.0237835 -0.0231102,0.0413543 -0.0469055,0.0392402 -0.0237835,-0.00211417 -0.0413543,-0.0231102 -0.0392402,-0.0469055 0.00211024,-0.0237835 0.0231142,-0.0413504 0.0469016,-0.0392402zm0.0977677 0.113169c0.0237913,0.0021063 0.0413583,0.0231063 0.0392441,0.0469055 -0.00211417,0.0237835 -0.0231142,0.0413543 -0.0468976,0.0392402 -0.0237913,-0.00211417 -0.0413661,-0.0231181 -0.039252,-0.0469055 0.00212205,-0.0237874 0.0231181,-0.0413504 0.0469055,-0.0392402zm0.0977677 0.113165c0.0237874,0.00211024 0.0413622,0.0231102 0.039248,0.0469016 -0.00211417,0.0237835 -0.0231142,0.0413622 -0.0468976,0.0392441 -0.0237953,-0.00211417 -0.0413661,-0.0231142 -0.039252,-0.0469016 0.00211811,-0.0237835 0.0231181,-0.0413583 0.0469016,-0.0392441zm0.0977677 0.113165c0.0237913,0.00211024 0.0413622,0.0231102 0.0392441,0.0469055 -0.00211417,0.0237835 -0.0231102,0.0413543 -0.0468937,0.0392402 -0.0237913,-0.00211417 -0.0413661,-0.0231102 -0.039248,-0.0469055 0.00211417,-0.0237874 0.0231102,-0.0413543 0.0468976,-0.0392402zm0.0977677 0.113169c0.0237953,0.0021063 0.0413661,0.0231063 0.039252,0.0469055 -0.00212205,0.0237835 -0.023122,0.0413543 -0.0469055,0.0392402 -0.0237874,-0.00211417 -0.0413583,-0.023122 -0.0392402,-0.0469094 0.00211417,-0.0237835 0.0231102,-0.0413504 0.0468937,-0.0392362zm-1.03663 0.289587c0.0238819,0 0.0432441,0.0193622 0.0432441,0.0432441 0,0.0238819 -0.0193622,0.0432441 -0.0432441,0.0432441 -0.0238819,0 -0.0432441,-0.0193622 -0.0432441,-0.0432441 0,-0.0238819 0.0193622,-0.0432441 0.0432441,-0.0432441zm0.149685 0.00221654c0.0238819,0 0.0432402,0.0193622 0.0432402,0.0432441 0,0.0238819 -0.0193583,0.0432441 -0.0432402,0.0432441 -0.0238819,0 -0.0432441,-0.0193622 -0.0432441,-0.0432441 0,-0.0238819 0.0193622,-0.0432441 0.0432441,-0.0432441zm0.149681 0.00221654c0.0238819,0 0.0432441,0.0193622 0.0432441,0.0432441 0,0.0238819 -0.0193622,0.0432441 -0.0432441,0.0432441 -0.0238819,0 -0.0432402,-0.0193622 -0.0432402,-0.0432441 0,-0.0238819 0.0193583,-0.0432441 0.0432402,-0.0432441zm0.149685 0.00221654c0.0238819,0 0.0432441,0.0193622 0.0432441,0.0432441 0,0.0238819 -0.0193622,0.0432441 -0.0432441,0.0432441 -0.0238819,0 -0.0432441,-0.0193622 -0.0432441,-0.0432441 0,-0.0238819 0.0193622,-0.0432441 0.0432441,-0.0432441zm0.149685 0.00221654c0.0238819,0 0.0432402,0.0193622 0.0432402,0.0432441 0,0.0238819 -0.0193583,0.0432402 -0.0432402,0.0432402 -0.0238819,0 -0.0432441,-0.0193583 -0.0432441,-0.0432402 0,-0.0238819 0.0193622,-0.0432441 0.0432441,-0.0432441zm0.149681 0.00221654c0.0238819,0 0.0432441,0.0193622 0.0432441,0.0432441 0,0.0238819 -0.0193622,0.0432402 -0.0432441,0.0432402 -0.0238819,0 -0.0432402,-0.0193583 -0.0432402,-0.0432402 0,-0.0238819 0.0193583,-0.0432441 0.0432402,-0.0432441zm0.149685 0.00221654c0.0238819,0 0.0432441,0.0193622 0.0432441,0.0432441 0,0.0238819 -0.0193622,0.0432402 -0.0432441,0.0432402 -0.0238819,0 -0.0432441,-0.0193583 -0.0432441,-0.0432402 0,-0.0238819 0.0193622,-0.0432441 0.0432441,-0.0432441zm-0.84948 -0.353575c0.0233386,0.00506299 0.0381496,0.0280906 0.0330866,0.0514291 -0.00506693,0.0233386 -0.0280945,0.0381535 -0.0514331,0.0330866 -0.0233346,-0.00507087 -0.0381535,-0.0280984 -0.0330866,-0.0514331 0.00506299,-0.0233386 0.0280906,-0.0381535 0.0514331,-0.0330827zm0.145807 0.0339134c0.0233386,0.00506693 0.0381535,0.0280945 0.0330827,0.051437 -0.00506693,0.0233346 -0.0280945,0.0381496 -0.0514291,0.0330827 -0.0233386,-0.00506299 -0.0381535,-0.0280906 -0.0330866,-0.051437 0.00506299,-0.0233346 0.0280945,-0.0381496 0.0514331,-0.0330827zm0.145807 0.0339173c0.0233386,0.00507087 0.0381535,0.0280984 0.0330866,0.0514331 -0.00506693,0.0233425 -0.0280984,0.0381535 -0.0514331,0.0330906 -0.0233386,-0.00507087 -0.0381496,-0.0280984 -0.0330827,-0.0514331 0.00506693,-0.0233386 0.0280906,-0.0381535 0.0514291,-0.0330906zm0.145807 0.0339213c0.0233346,0.00506693 0.0381535,0.0280945 0.0330866,0.051437 -0.00506693,0.0233346 -0.0280984,0.0381496 -0.051437,0.0330827 -0.0233346,-0.00506693 -0.0381496,-0.0280945 -0.0330827,-0.0514331 0.00506693,-0.0233346 0.0280945,-0.0381535 0.0514331,-0.0330866zm0.145803 0.0339173c0.0233425,0.00507087 0.0381535,0.0280984 0.0330866,0.0514331 -0.00506693,0.0233386 -0.0280906,0.0381535 -0.0514331,0.0330906 -0.0233386,-0.00507087 -0.0381496,-0.0280984 -0.0330827,-0.0514331 0.00506693,-0.0233425 0.0280945,-0.0381496 0.0514291,-0.0330906zm0.145811 0.0339213c0.0233386,0.00506299 0.0381496,0.0280906 0.0330827,0.051437 -0.00506299,0.0233346 -0.0280906,0.0381496 -0.0514291,0.0330827 -0.0233386,-0.00506693 -0.0381535,-0.0280945 -0.0330866,-0.0514331 0.00506693,-0.0233346 0.0280984,-0.0381535 0.0514331,-0.0330866zm0.145807 0.0339213c0.0233346,0.00506693 0.0381496,0.0280945 0.0330827,0.0514291 -0.00506299,0.0233386 -0.0280906,0.0381535 -0.0514291,0.0330866 -0.0233386,-0.00506299 -0.0381535,-0.0280945 -0.0330906,-0.0514331 0.00506693,-0.0233386 0.0280984,-0.0381535 0.051437,-0.0330827zm-1.01569 -0.236807c0.0233386,0.00506299 0.0381496,0.0280906 0.0330866,0.0514291 -0.00506693,0.0233425 -0.0280945,0.0381535 -0.0514331,0.0330866 -0.0233346,-0.00506693 -0.0381535,-0.0280945 -0.0330866,-0.0514291 0.00506299,-0.0233425 0.0280906,-0.0381535 0.0514331,-0.0330866zm-0.068378 -0.515862c0.0235787,0.00380315 0.0396063,0.026 0.0358071,0.0495827 -0.00380709,0.0235748 -0.0260079,0.0396063 -0.0495827,0.0357992 -0.0235748,-0.00380315 -0.0396063,-0.0260039 -0.0358031,-0.0495787 0.00380315,-0.0235748 0.0260039,-0.0396024 0.0495787,-0.0358031zm0.12274 0.0730787c0.0235787,0.00379921 0.0396063,0.026 0.0358031,0.0495748 -0.00380315,0.0235787 -0.0260039,0.0396102 -0.0495827,0.0358031 -0.0235748,-0.00380709 -0.0396063,-0.0260039 -0.0357992,-0.0495787 0.00379921,-0.0235787 0.026,-0.0396063 0.0495787,-0.0357992zm0.12274 0.0730748c0.0235748,0.00379921 0.0396063,0.026 0.0358071,0.0495748 -0.00380709,0.0235787 -0.0260079,0.0396063 -0.0495866,0.0358031 -0.0235709,-0.00380709 -0.0396102,-0.0260079 -0.0358031,-0.0495827 0.00380315,-0.0235748 0.026,-0.0396024 0.0495827,-0.0357953zm0.126634 0.0712598c0.0235827,0.00379921 0.0396102,0.026 0.0358071,0.0495748 -0.00380709,0.0235827 -0.0260039,0.0396102 -0.0495787,0.0358031 -0.0235787,-0.00380709 -0.0396102,-0.0260079 -0.0358031,-0.0495787 0.00380315,-0.0235787 0.026,-0.0396063 0.0495748,-0.0357992zm0.118839 0.0748858c0.0235827,0.00379921 0.0396102,0.026 0.0358071,0.0495748 -0.00380709,0.0235827 -0.0260039,0.0396102 -0.0495787,0.0358031 -0.0235787,-0.00380709 -0.0396102,-0.0260039 -0.0358031,-0.0495787 0.00380315,-0.0235787 0.026,-0.0396063 0.0495748,-0.0357992zm0.122744 0.0730709c0.0235748,0.00380315 0.0396024,0.0260039 0.0358031,0.0495787 -0.00380315,0.0235787 -0.0260079,0.0396063 -0.0495827,0.0357992 -0.0235748,-0.00380315 -0.0396063,-0.0260039 -0.0358031,-0.0495748 0.00380315,-0.0235787 0.026,-0.0396063 0.0495827,-0.0358031zm0.122736 0.0730748c0.0235748,0.00380315 0.0396102,0.026 0.0358071,0.0495748 -0.00380709,0.0235827 -0.0260039,0.0396102 -0.0495866,0.0358031 -0.0235709,-0.00380709 -0.0396063,-0.0260039 -0.0357992,-0.0495748 0.00379921,-0.0235827 0.026,-0.0396102 0.0495787,-0.0358031zm0.12274 0.0730748c0.0235787,0.00379921 0.0396063,0.026 0.0358031,0.0495787 -0.00380315,0.0235748 -0.0260039,0.0396024 -0.0495827,0.0357992 -0.0235709,-0.00380709 -0.0396063,-0.0260079 -0.0357992,-0.0495787 0.00380315,-0.0235748 0.026,-0.0396063 0.0495787,-0.0357992zm0.122736 0.0730709c0.0235787,0.00380315 0.0396063,0.026 0.0358071,0.0495827 -0.00380709,0.0235748 -0.0260079,0.0396024 -0.0495827,0.0357953 -0.0235748,-0.00379921 -0.0396063,-0.0260039 -0.0357992,-0.0495748 0.00379921,-0.0235748 0.026,-0.0396102 0.0495748,-0.0358031zm-0.191272 -1.23656c0.0220787,0.00910236 0.0325866,0.0343819 0.0234882,0.0564646 -0.00911024,0.0220709 -0.0343976,0.0325906 -0.0564724,0.0234843 -0.0220709,-0.0091063 -0.0325906,-0.0343819 -0.0234882,-0.0564606 0.0091063,-0.0220787 0.0343898,-0.0325945 0.0564724,-0.0234882zm0.0596024 0.137154c0.0220906,0.00910236 0.0325945,0.0343819 0.0235,0.0564646 -0.0091063,0.0220827 -0.0343937,0.0325945 -0.0564724,0.0234921 -0.0220709,-0.0091063 -0.0325945,-0.0343937 -0.0234803,-0.0564724 0.00909843,-0.0220709 0.0343701,-0.0325866 0.0564528,-0.0234843zm0.0596142 0.137154c0.0220827,0.0091063 0.0325984,0.0343858 0.0234882,0.0564685 -0.00909843,0.0220748 -0.0343858,0.0325945 -0.0564646,0.0234843 -0.0220709,-0.00911024 -0.0325906,-0.0343819 -0.0234843,-0.0564606 0.00910236,-0.0220787 0.0343858,-0.0325866 0.0564606,-0.0234921zm0.0596142 0.137161c0.0220787,0.00910236 0.0325945,0.034378 0.0234921,0.0564606 -0.00910236,0.0220748 -0.0343858,0.0325945 -0.0564685,0.0234882 -0.0220748,-0.0091063 -0.0325945,-0.0343858 -0.0234843,-0.0564606 0.00910236,-0.0220827 0.0343898,-0.0325945 0.0564606,-0.0234882zm0.0596142 0.13715c0.0220787,0.00910236 0.0325945,0.0343858 0.0234882,0.0564685 -0.0091063,0.0220748 -0.0343819,0.0325945 -0.0564646,0.0234882 -0.0220787,-0.0091063 -0.0325945,-0.0343819 -0.0234882,-0.0564724 0.00910236,-0.0220709 0.0343858,-0.0325827 0.0564646,-0.0234843zm0.0596142 0.137161c0.0220787,0.00910236 0.0325906,0.034378 0.0234843,0.0564646 -0.00910236,0.0220748 -0.0343819,0.0325945 -0.0564567,0.0234882 -0.0220827,-0.0091063 -0.0325984,-0.0343898 -0.0234961,-0.0564685 0.00911417,-0.0220748 0.0343898,-0.0325866 0.0564685,-0.0234843zm0.0596102 0.137154c0.0220827,0.00910236 0.0325984,0.0343858 0.0234921,0.0564685 -0.0091063,0.0220709 -0.0343858,0.0325984 -0.0564606,0.0234843 -0.0220827,-0.00911024 -0.0326024,-0.0343858 -0.0234921,-0.0564685 0.00911024,-0.0220709 0.0343858,-0.0325827 0.0564606,-0.0234843zm0.0596102 0.137154c0.0220827,0.00910236 0.0326024,0.0343858 0.0234921,0.0564646 -0.00910236,0.0220748 -0.0343858,0.0325945 -0.0564567,0.0234882 -0.0220787,-0.00910236 -0.0326024,-0.0343819 -0.0234921,-0.0564646 0.00911024,-0.0220787 0.0343819,-0.0325945 0.0564567,-0.0234882zm0.0596142 0.137157c0.0220866,0.0091063 0.0326063,0.0343858 0.0234961,0.0564724 -0.00911024,0.0220709 -0.0343937,0.0325906 -0.0564646,0.0234843 -0.0220787,-0.0091063 -0.0325945,-0.0343976 -0.0234843,-0.0564764 0.00910236,-0.0220709 0.034378,-0.0325827 0.0564528,-0.0234803zm0.108138 0.11335c0.0220866,0.0091063 0.0326063,0.0343898 0.0234961,0.0564764 -0.00911024,0.0220709 -0.0343937,0.0325906 -0.0564646,0.0234843 -0.0220787,-0.0091063 -0.0325945,-0.0343976 -0.0234843,-0.0564764 0.00910236,-0.0220748 0.034378,-0.0325827 0.0564528,-0.0234843zm0.0285709 -0.148059c0.0220906,0.0091063 0.0326102,0.0343858 0.0235,0.0564764 -0.00911024,0.0220669 -0.0343937,0.0325866 -0.0564685,0.0234803 -0.0220787,-0.0091063 -0.0325906,-0.0343976 -0.0234803,-0.0564724 0.00909843,-0.0220748 0.034378,-0.0325866 0.0564488,-0.0234843zm0.0406654 -0.139252c0.0220906,0.0091063 0.0326102,0.0343858 0.0235,0.0564764 -0.00911024,0.0220669 -0.0343937,0.0325866 -0.0564685,0.0234803 -0.0220787,-0.0091063 -0.0325906,-0.0343976 -0.0234803,-0.0564724 0.00909843,-0.0220748 0.034378,-0.0325866 0.0564488,-0.0234843z"/>
  </g>
 </g>
</svg>
