<?xml version="1.0" encoding="UTF-8"?>
<!DOCTYPE svg PUBLIC "-//W3C//DTD SVG 1.1//EN" "http://www.w3.org/Graphics/SVG/1.1/DTD/svg11.dtd">
<!-- Creator: CorelDRAW -->
<svg xmlns="http://www.w3.org/2000/svg" xml:space="preserve" width="4.16818in" height="3.75in" style="shape-rendering:geometricPrecision; text-rendering:geometricPrecision; image-rendering:optimizeQuality; fill-rule:evenodd; clip-rule:evenodd"
viewBox="0 0 3.50173 3.15041"
 xmlns:xlink="http://www.w3.org/1999/xlink">
 <defs>
  <style type="text/css">
   <![CDATA[
    .str0 {stroke:#373435;stroke-width:0.00583447}
    .fil1 {fill:none}
    .fil0 {fill:#373435}
    .fil2 {fill:#FEFEFE}
   ]]>
  </style>
 </defs>
 <g id="Layer_x0020_1">
  <metadata id="CorelCorpID_0Corel-Layer"/>
  <g id="_458880392">
   <path id="_248997168" class="fil0" d="M2.1846 0.0962654c0.370915,0 0.671599,0.320872 0.671599,0.716683 0,0.0438941 -0.00371435,0.0868621 -0.0107957,0.128577l-1.32161 0c-0.0070814,-0.0417144 -0.0107957,-0.0846825 -0.0107957,-0.128577 0,-0.395811 0.300687,-0.716683 0.671602,-0.716683z"/>
   <path id="_458878760" class="fil0" d="M2.19524 0.682566c0.479729,0 0.868621,0.0717104 0.868621,0.160167 0,0.0372758 -0.0690643,0.0715781 -0.18488,0.0987923l-1.36748 0c-0.115813,-0.0272143 -0.184884,-0.0615166 -0.184884,-0.0987923 0,-0.0884563 0.388898,-0.160167 0.868621,-0.160167z"/>
   <rect id="_458868056" class="fil0" x="2.0487" width="0.236828" height="0.186882"/>
   <rect id="_458876552" class="fil0" x="1.91953" y="0.0989676" width="0.493389" height="0.122001"/>
   <path id="_458878328" class="fil0" d="M2.19524 0.271409c0.364287,0 0.659602,0.366959 0.659602,0.819623 0,0.452664 -0.295315,0.819623 -0.659602,0.819623 -0.364287,0 -0.659602,-0.366959 -0.659602,-0.819623 0,-0.452664 0.295315,-0.819623 0.659602,-0.819623zm0 0.137596c0.29561,0 0.535249,0.313457 0.535249,0.700123 0,0.386666 -0.23964,0.700123 -0.535249,0.700123 -0.29561,0 -0.535249,-0.313457 -0.535249,-0.700123 0,-0.386666 0.23964,-0.700123 0.535249,-0.700123z"/>
   <ellipse id="_458876840" class="fil1 str0" cx="2.19524" cy="1.10913" rx="0.535249" ry="0.700123"/>
   <polygon id="_458867624" class="fil0" points="1.67742,0.874274 1.72072,1.15101 1.65999,1.10913 "/>
   <polygon id="_458878904" class="fil0" points="2.71626,0.874274 2.67296,1.15101 2.73369,1.10913 "/>
   <path id="_249197048" class="fil0" d="M1.67308 1.82165c0,0 0.318703,0.685689 0.405621,0.68086l0 -0.357331c0,0 -0.0531155,-0.0531155 -0.0917473,-0.149692 0,0 0.178666,0.0772604 0.357331,0 0,0 -0.0241416,0.0965763 -0.0869183,0.178666l0 0.371818c0,0 0.420108,-0.492539 0.468395,-0.72915 0,0 0.52151,0.0289739 0.719492,0.574629 0,0 0.246268,0.560142 -0.289729,0.724321l-0.183495 0.00965465 -1.68043 0c0,0 -0.0482898,0.0249883 -0.202811,0.0249883l-0.917473 0c0,0 -0.17132,-0.00084011 -0.17132,-0.136048l0 -1.57902c0,0 0.0361148,-0.101409 0.185807,-0.0869216l0 0.149692 0.970592 0 0 -0.154521c0,0 0.20764,-0.0289706 0.173837,0.12555l0 0.453908c0,0 0.144863,-0.111063 0.342844,-0.101405zm1.0847 0.745641l0.175662 0c0.101008,0 0.183647,0.0826384 0.183647,0.183647l0 0c0,0.101008 -0.0826384,0.183647 -0.183647,0.183647l-0.175662 0c-0.101008,0 -0.183647,-0.0826384 -0.183647,-0.183647l0 0c0,-0.101008 0.0826384,-0.183647 0.183647,-0.183647z"/>
   <rect id="_248854960" class="fil0" x="0.229267" y="1.23253" width="0.878841" height="0.20764"/>
   <path id="_249116920" class="fil0" d="M0.675578 1.09364c0.0626511,0 0.113438,0.050787 0.113438,0.113438 0,0.0626511 -0.050787,0.113438 -0.113438,0.113438 -0.0626511,0 -0.113438,-0.050787 -0.113438,-0.113438 0,-0.0626511 0.050787,-0.113438 0.113438,-0.113438zm0 0.0514253c0.0342494,0 0.0620127,0.0277633 0.0620127,0.0620127 0,0.0342494 -0.0277633,0.0620127 -0.0620127,0.0620127 -0.0342494,0 -0.0620127,-0.0277633 -0.0620127,-0.0620127 0,-0.0342494 0.0277633,-0.0620127 0.0620127,-0.0620127z"/>
   <g>
    <rect id="_458879456" class="fil0" x="2.87744" y="2.69523" width="0.186309" height="0.0230501"/>
    <rect id="_249196808" class="fil0" x="2.87936" y="2.79991" width="0.182469" height="0.0240093"/>
   </g>
   <rect id="_458876384" class="fil2 str0" x="0.0784742" y="1.56245" width="1.17534" height="1.4901"/>
   <polygon id="_249019144" class="fil0" points="0.228477,1.81842 0.298881,1.76669 0.349168,1.82848 0.514405,1.65893 0.574751,1.72071 0.337675,1.9463 "/>
   <polygon id="_458877152" class="fil0" points="0.224491,2.1013 0.294895,2.04957 0.345183,2.11136 0.51042,1.94181 0.570766,2.0036 0.333689,2.22918 "/>
   <polygon id="_249081160" class="fil0" points="0.224491,2.39613 0.294895,2.3444 0.345183,2.40619 0.51042,2.23664 0.570766,2.29843 0.333689,2.52401 "/>
   <polygon id="_459999176" class="fil0" points="0.220509,2.69893 0.290913,2.64721 0.341201,2.70899 0.506438,2.53944 0.566783,2.60123 0.329707,2.82681 "/>
   <g>
    <path id="_249170880" class="fil0" d="M2.73083 2.61321c0.0307599,0 0.0556953,0.026609 0.0556953,0.0594328 0,0.00364158 -0.000307599,0.00720378 -0.000893031,0.0106634l-0.109601 0c-0.000588739,-0.00345967 -0.000896338,-0.00702187 -0.000896338,-0.0106634 0,-0.0328238 0.0249354,-0.0594328 0.0556953,-0.0594328z"/>
    <path id="_249170496" class="fil0" d="M2.73172 2.66183c0.0397829,0 0.0720345,0.00594692 0.0720345,0.013283 0,0.00309253 -0.00572863,0.005937 -0.0153304,0.00819273l-0.113405 0c-0.00960504,-0.00225573 -0.0153337,-0.0051002 -0.0153337,-0.00819273 0,-0.00733608 0.0322516,-0.013283 0.0720345,-0.013283z"/>
    <rect id="_249170352" class="fil0" x="2.71957" y="2.60523" width="0.0196401" height="0.015498"/>
    <rect id="_249170544" class="fil0" x="2.70885" y="2.61344" width="0.0409166" height="0.0101175"/>
    <path id="_249172128" class="fil0" d="M2.73172 2.62774c0.0302109,0 0.0546998,0.0304325 0.0546998,0.0679729 0,0.0375371 -0.0244889,0.0679695 -0.0546998,0.0679695 -0.0302109,0 -0.0546998,-0.0304325 -0.0546998,-0.0679695 0,-0.0375404 0.0244889,-0.0679729 0.0546998,-0.0679729zm0 0.0114109c0.0245153,0 0.0443869,0.0259938 0.0443869,0.0580602 0,0.0320664 -0.0198716,0.0580602 -0.0443869,0.0580602 -0.0245153,0 -0.0443869,-0.0259938 -0.0443869,-0.0580602 0,-0.0320664 0.0198716,-0.0580602 0.0443869,-0.0580602z"/>
    <ellipse id="_249172032" class="fil1 str0" cx="2.73172" cy="2.69721" rx="0.0443881" ry="0.058061"/>
    <polygon id="_249172008" class="fil0" points="2.68878,2.67773 2.69236,2.70068 2.68733,2.69721 "/>
    <polygon id="_248570512" class="fil0" points="2.77493,2.67773 2.77134,2.70068 2.77637,2.69721 "/>
    <path id="_248570224" class="fil0" d="M2.68842 2.7563c0,0 0.0264304,0.0568662 0.0336375,0.056466l0 -0.0296354c0,0 -0.00440562,-0.00440562 -0.0076073,-0.0124131 0,0 0.0148144,0.00640667 0.0296321,0 0,0 -0.00200105,0.00800751 -0.00720709,0.0148177l0 0.0308327c0,0 0.0348381,-0.0408446 0.0388435,-0.0604681 0,0 0.0432491,0.00240457 0.0596677,0.0476548 0,0 0.0204206,0.0464508 -0.0240291,0.0600679l-0.0152146 0.00080042c-0.0464541,0 -0.0929049,0 -0.139359,0 -0.0263179,-0.0296321 -0.0435667,-0.0604615 0.00320499,-0.0997118 0,0 0.0120129,-0.00921144 0.0284314,-0.00841102z"/>
    <g>
     <rect id="_248569240" class="fil0" x="2.78829" y="2.82874" width="0.0154506" height="0.00191154"/>
     <rect id="_248569336" class="fil0" x="2.78845" y="2.83742" width="0.0151321" height="0.00199108"/>
    </g>
   </g>
  </g>
 </g>
</svg>
