<?xml version="1.0" encoding="UTF-8"?>
<!DOCTYPE svg PUBLIC "-//W3C//DTD SVG 1.1//EN" "http://www.w3.org/Graphics/SVG/1.1/DTD/svg11.dtd">
<!-- Creator: CorelDRAW -->
<svg xmlns="http://www.w3.org/2000/svg" xml:space="preserve" width="2.82859in" height="2.70026in" style="shape-rendering:geometricPrecision; text-rendering:geometricPrecision; image-rendering:optimizeQuality; fill-rule:evenodd; clip-rule:evenodd"
viewBox="0 0 2.8286 2.70026"
 xmlns:xlink="http://www.w3.org/1999/xlink">
 <defs>
  <style type="text/css">
   <![CDATA[
    .fil1 {fill:#96989A}
    .fil0 {fill:#252525}
    .fil2 {fill:#FEFEFE}
   ]]>
  </style>
 </defs>
 <g id="Layer_x0020_1">
  <metadata id="CorelCorpID_0Corel-Layer"/>
  <g id="_401165344">
   <path id="_401165008" class="fil0" d="M0.915667 1.41941c-0.198296,0.0627639 -0.486544,0.356063 -0.635599,0.0884096 -0.0781103,-0.14026 -0.189516,-0.326252 -0.0271181,-0.436835 0.0519961,-0.0354095 0.419162,-0.213733 0.516465,-0.26263 0.0212402,-0.0106693 0.0838387,-0.0397993 0.101122,-0.0535867 -0.0219331,-0.0240079 -0.0244961,-0.029437 -0.0487953,-0.0484016 -0.00544095,-0.00424804 -0.0064882,-0.00499607 -0.0117441,-0.00933466l-0.00801182 -0.00722048c-0.0349528,-0.00170866 -0.0205709,-0.0177047 -0.130236,-0.0174685 -0.104429,0.00022441 -0.377249,-0.0100669 -0.442394,0.0140984 -0.0646064,0.0239646 -0.121461,0.0931261 -0.127303,0.175866 -0.00670473,0.0949056 -0.000657481,0.21326 -0.000657481,0.310713l0 1.22312 -0.101394 0.304122 1.01394 0 -0.101433 -0.304122 0.00316142 -0.97673z"/>
   <path id="_488755360" class="fil1" d="M0.481843 1.18341c0.125028,-0.036563 0.180264,0.158941 0.0528544,0.194764 -0.12578,0.0353662 -0.187229,-0.155477 -0.0528544,-0.194764zm0.345508 0.0472245c0.0115512,-0.0531497 0.0372048,-0.11748 0.0548111,-0.170331 0.0430867,-0.129299 0.011878,-0.0864647 0.241926,-0.201827 0.0442599,-0.0221969 0.10602,-0.0581654 0.150729,-0.0734962l-0.0550788 0.169221c-0.0311378,0.0935828 -0.0105945,0.0876143 -0.0931419,0.128941 -0.0518032,0.025937 -0.263181,0.135807 -0.299245,0.147492zm0.634395 -0.317308c0.0121299,-0.0533505 0.0370591,-0.116106 0.054756,-0.169272 0.0359922,-0.108126 0.0152402,-0.0900789 0.0929529,-0.128858 0.052441,-0.0261654 0.262737,-0.135807 0.299693,-0.147575l-0.0551064 0.170315c-0.0305552,0.0917718 -0.00970474,0.0875316 -0.0926458,0.128925l-0.29965 0.146465zm0.634643 -0.317327c0.0117323,-0.0524292 0.0370197,-0.115744 0.0544489,-0.168177 0.0364489,-0.109662 0.0160827,-0.0920041 0.0917482,-0.129921 0.0729371,-0.0365552 0.231465,-0.12715 0.300894,-0.147551l-0.0550946 0.17137c-0.0311615,0.0935907 -0.00969293,0.0856655 -0.0937954,0.127803 -0.0713741,0.0357599 -0.23417,0.128071 -0.298201,0.146477zm-0.871859 0.0933978c-0.00770474,0.00854332 0.00123229,0.00190158 -0.015311,0.0131221 -0.00252363,0.0017126 -0.0143544,0.00776379 -0.0167559,0.00895671l-0.219571 0.109752c-0.0854686,0.0427914 -0.16787,0.0842048 -0.25326,0.126941 -0.0854214,0.042752 -0.167898,0.0842009 -0.253268,0.126937 -0.233516,0.116894 -0.235548,0.105272 -0.133292,0.309579 0.0206181,0.0412008 0.0378701,0.0934175 0.0732993,0.117012 0.0673977,0.044882 0.166465,-0.0279607 0.26791,-0.0787403l2.01498 -1.00815c0.106398,-0.0532087 0.18337,-0.074008 0.111047,-0.217307 -0.068945,-0.136603 -0.0746891,-0.20037 -0.183051,-0.197402 -0.111059,0.0443465 -0.23491,0.114583 -0.344418,0.169488 -0.118079,0.0592048 -0.232382,0.116473 -0.350304,0.175583 -0.0862954,0.043256 -0.660792,0.342623 -0.698009,0.344225z"/>
   <path id="_488752240" class="fil2" d="M0.481843 1.18341c-0.134374,0.0392875 -0.0729253,0.23013 0.0528544,0.194764 0.12741,-0.0358229 0.0721733,-0.231327 -0.0528544,-0.194764z"/>
  </g>
 </g>
</svg>
