<?xml version="1.0" standalone="no"?>
<!DOCTYPE svg PUBLIC "-//W3C//DTD SVG 20010904//EN"
 "http://www.w3.org/TR/2001/REC-SVG-20010904/DTD/svg10.dtd">
<svg version="1.0" xmlns="http://www.w3.org/2000/svg"
 width="171.000000pt" height="129.000000pt" viewBox="0 0 171.000000 129.000000"
 preserveAspectRatio="xMidYMid meet">
<metadata>
Created by potrace 1.15, written by Peter Selinger 2001-2017
</metadata>
<g transform="translate(0.000000,129.000000) scale(0.100000,-0.100000)"
fill="#000000" stroke="none">
<path d="M5 1277 c-3 -6 -4 -188 -3 -402 l3 -390 85 -5 85 -5 3 -33 3 -32 -78
0 c-48 0 -84 -5 -91 -12 -9 -9 -12 -68 -12 -205 l0 -193 30 0 30 0 2 167 3
168 58 3 57 3 0 -69 c0 -52 4 -71 15 -75 11 -5 15 -29 17 -99 l3 -93 78 -3 77
-3 0 93 c0 82 2 95 20 106 17 10 20 23 20 77 l0 65 50 0 c47 0 50 -2 50 -25 0
-21 5 -25 30 -25 30 0 30 0 30 56 0 47 3 57 19 61 37 9 37 57 0 68 -16 5 -19
16 -19 66 0 59 0 59 -30 59 -25 0 -30 -4 -30 -25 0 -23 -3 -25 -50 -25 l-50 0
0 65 c0 54 -3 66 -20 75 -18 10 -20 21 -20 125 l0 115 124 0 c123 0 124 0 155
29 l32 30 -3 148 -3 148 -75 0 -75 0 -5 -95 -5 -95 -115 -2 c-63 -2 -125 -5
-137 -8 -44 -10 -53 -50 -53 -225 0 -134 -3 -162 -15 -166 -11 -5 -15 -23 -15
-74 l0 -68 -32 -3 c-18 -2 -45 -3 -60 -1 l-28 3 0 370 0 369 -25 0 c-14 0 -28
-6 -30 -13z"/>
<path d="M1305 1275 c-46 -16 -101 -74 -110 -117 -4 -18 -16 -33 -31 -38 -41
-16 -29 -38 24 -45 26 -3 76 -11 112 -18 l65 -12 -82 -3 -83 -3 0 -40 c0 -52
20 -97 59 -134 29 -27 39 -30 100 -30 59 0 72 4 105 29 39 29 62 71 73 129 3
18 12 37 20 43 12 10 12 23 3 76 -17 97 -56 145 -135 167 -51 14 -71 13 -120
-4z"/>
<path d="M1488 825 c-3 -3 -43 -15 -89 -26 -131 -33 -156 -53 -267 -217 l-76
-113 -118 7 c-86 5 -118 4 -118 -5 0 -16 -25 -13 -41 5 -7 9 -23 20 -36 25
-20 7 -22 16 -25 91 -3 81 -4 83 -28 83 -25 0 -25 -2 -28 -87 -3 -83 -2 -87
20 -91 14 -3 8 -5 -16 -6 l-38 -1 5 -75 c3 -42 10 -82 17 -90 9 -11 34 -15 95
-15 59 0 84 -4 88 -13 7 -19 275 -41 314 -26 15 6 60 42 99 80 79 76 104 90
55 32 -90 -108 -83 -89 -85 -241 l-1 -137 239 -3 239 -2 -6 87 c-3 49 -11 180
-17 293 -15 260 -23 292 -95 358 -33 30 -55 59 -55 71 0 19 -19 29 -32 16z"/>
</g>
</svg>
