<?xml version="1.0" encoding="UTF-8"?>
<!DOCTYPE svg PUBLIC "-//W3C//DTD SVG 1.1//EN" "http://www.w3.org/Graphics/SVG/1.1/DTD/svg11.dtd">
<!-- Creator: CorelDRAW -->
<svg xmlns="http://www.w3.org/2000/svg" xml:space="preserve" width="3.23895in" height="2.52727in" style="shape-rendering:geometricPrecision; text-rendering:geometricPrecision; image-rendering:optimizeQuality; fill-rule:evenodd; clip-rule:evenodd"
viewBox="0 0 3.23895 2.52727"
 xmlns:xlink="http://www.w3.org/1999/xlink">
 <defs>
  <style type="text/css">
   <![CDATA[
    .fil0 {fill:#373435}
   ]]>
  </style>
 </defs>
 <g id="Layer_x0020_1">
  <metadata id="CorelCorpID_0Corel-Layer"/>
  <g id="_488760520">
   <rect id="_488753488" class="fil0" y="0.370482" width="3.23895" height="0.181432"/>
   <rect id="_488746336" class="fil0" y="1.98244" width="3.23895" height="0.181432"/>
   <path id="_397980712" class="fil0" d="M0.119158 2.52727l0 -2.43656c0,-0.0498938 0.040815,-0.0907127 0.0907166,-0.0907127l7.87403e-006 0c0.0498898,0 0.0907048,0.0408189 0.0907048,0.0907127l0 2.43656 -0.181429 0z"/>
   <path id="_488760064" class="fil0" d="M0.511524 2.52727l0 -2.43656c0,-0.0498938 0.0408189,-0.0907127 0.0907166,-0.0907127l7.87403e-006 0c0.0498898,0 0.0907088,0.0408189 0.0907088,0.0907127l0 2.43656 -0.181433 0z"/>
   <path id="_488760184" class="fil0" d="M0.909344 2.52727l0 -2.43656c0,-0.0498938 0.0408189,-0.0907127 0.0907166,-0.0907127l7.87403e-006 0c0.0498898,0 0.0907088,0.0408189 0.0907088,0.0907127l0 2.43656 -0.181433 0z"/>
   <path id="_401166208" class="fil0" d="M1.32351 2.52727l0 -2.43656c0,-0.0498938 0.040815,-0.0907127 0.0907127,-0.0907127l7.87403e-006 0c0.0498898,0 0.0907088,0.0408189 0.0907088,0.0907127l0 2.43656 -0.181429 0z"/>
   <g>
    <path id="_488761720" class="fil0" d="M1.71586 2.52727l0 -2.43656c0,-0.0498938 0.0408189,-0.0907127 0.0907166,-0.0907127l7.87403e-006 0c0.0498898,0 0.0907088,0.0408189 0.0907088,0.0907127l0 2.43656 -0.181433 0z"/>
    <path id="_488761672" class="fil0" d="M2.10823 2.52727l0 -2.43656c0,-0.0498938 0.040815,-0.0907127 0.0907127,-0.0907127l7.87403e-006 0c0.0498938,0 0.0907088,0.0408189 0.0907088,0.0907127l0 2.43656 -0.181429 0z"/>
    <path id="_488753344" class="fil0" d="M2.50605 2.52727l0 -2.43656c0,-0.0498938 0.0408189,-0.0907127 0.0907166,-0.0907127l7.87403e-006 0c0.0498898,0 0.0907088,0.0408189 0.0907088,0.0907127l0 2.43656 -0.181433 0z"/>
    <path id="_488747056" class="fil0" d="M2.92022 2.52727l0 -2.43656c0,-0.0498938 0.0408189,-0.0907127 0.0907166,-0.0907127l7.87403e-006 0c0.0498898,0 0.0907088,0.0408189 0.0907088,0.0907127l0 2.43656 -0.181433 0z"/>
   </g>
  </g>
 </g>
</svg>
