<?xml version="1.0" standalone="no"?>
<!DOCTYPE svg PUBLIC "-//W3C//DTD SVG 20010904//EN"
 "http://www.w3.org/TR/2001/REC-SVG-20010904/DTD/svg10.dtd">
<svg version="1.0" xmlns="http://www.w3.org/2000/svg"
 width="192.000000pt" height="188.000000pt" viewBox="0 0 192.000000 188.000000"
 preserveAspectRatio="xMidYMid meet">
<metadata>
Created by potrace 1.15, written by Peter Selinger 2001-2017
</metadata>
<g transform="translate(0.000000,188.000000) scale(0.100000,-0.100000)"
fill="#000000" stroke="none">
<path d="M0 1780 l0 -80 39 0 40 0 3 -267 c3 -239 5 -272 22 -303 26 -49 55
-79 101 -103 38 -21 56 -22 308 -25 l267 -3 0 -40 0 -39 80 0 80 0 0 275 0
275 -80 0 -80 0 0 -40 0 -40 -155 0 -156 0 3 153 3 152 43 3 42 3 0 80 0 79
-280 0 -280 0 0 -80z"/>
<path d="M1743 1804 c-54 -27 -110 -82 -184 -182 -40 -53 -73 -98 -74 -100 -1
-1 -23 9 -48 23 -25 14 -68 28 -97 32 -49 6 -53 5 -91 -33 -22 -21 -37 -44
-35 -51 3 -7 -27 -39 -67 -72 -40 -32 -85 -73 -102 -90 l-29 -32 152 -152 152
-151 33 34 c46 48 164 150 173 150 5 0 27 18 50 41 40 39 41 41 33 88 -4 27
-17 67 -28 88 l-20 40 72 50 c189 131 269 250 212 313 -22 24 -58 25 -102 4z
m-369 -473 l138 -138 -58 -49 c-32 -27 -75 -66 -97 -86 -21 -21 -43 -35 -48
-32 -20 12 -6 36 50 81 56 45 71 63 54 63 -5 0 -36 -25 -71 -56 -47 -43 -66
-54 -75 -45 -8 8 0 22 33 56 55 56 41 60 -15 5 -35 -34 -44 -39 -54 -27 -9 12
0 25 50 71 34 32 59 59 56 62 -6 6 -117 -85 -117 -97 0 -15 -20 -10 -27 7 -3
8 4 25 17 40 29 30 15 32 -17 2 -19 -18 -26 -19 -36 -9 -10 10 1 25 53 72 35
32 59 59 53 59 -7 0 -39 -25 -71 -55 -48 -44 -62 -52 -71 -41 -8 10 -2 22 31
54 54 54 43 66 -12 13 -24 -22 -47 -38 -51 -35 -20 12 -5 36 50 81 56 45 71
63 54 63 -5 0 -36 -25 -71 -56 -49 -44 -66 -54 -75 -45 -9 9 -2 22 34 54 66
60 143 126 149 126 3 1 67 -61 144 -138z"/>
<path d="M1250 980 c-99 -10 -225 -34 -248 -49 -10 -6 -13 -93 -13 -427 l0
-418 23 -12 c123 -63 620 -72 807 -15 54 16 89 49 64 58 -17 6 -19 773 -3 773
21 0 8 30 -19 45 -76 39 -413 63 -611 45z m438 -50 c112 -25 37 -48 -178 -57
-150 -5 -324 7 -358 26 -25 14 19 31 106 41 96 11 360 5 430 -10z m-253 -275
c61 0 156 3 213 8 l102 7 0 -174 0 -174 -67 -9 c-86 -10 -420 -10 -495 0 l-58
8 0 174 0 174 98 -7 c53 -4 147 -7 207 -7z"/>
</g>
</svg>
