<?xml version="1.0" encoding="UTF-8"?>
<!DOCTYPE svg PUBLIC "-//W3C//DTD SVG 1.1//EN" "http://www.w3.org/Graphics/SVG/1.1/DTD/svg11.dtd">
<!-- Creator: CorelDRAW -->
<svg xmlns="http://www.w3.org/2000/svg" xml:space="preserve" width="2.91083in" height="2.91083in" style="shape-rendering:geometricPrecision; text-rendering:geometricPrecision; image-rendering:optimizeQuality; fill-rule:evenodd; clip-rule:evenodd"
viewBox="0 0 2.91083 2.91083"
 xmlns:xlink="http://www.w3.org/1999/xlink">
 <defs>
  <style type="text/css">
   <![CDATA[
    .str0 {stroke:#373435;stroke-width:0.00694489}
    .str1 {stroke:#373435;stroke-width:0.0138898}
    .fil2 {fill:none}
    .fil0 {fill:#373435}
    .fil1 {fill:#FEFEFE}
   ]]>
  </style>
 </defs>
 <g id="Layer_x0020_1">
  <metadata id="CorelCorpID_0Corel-Layer"/>
  <g id="_488755600">
   <circle id="_488755576" class="fil0" cx="1.45542" cy="1.45542" r="1.45542"/>
   <path id="_488754352" class="fil1" d="M1.55921 0.676737c0,0 -0.441312,0.00596851 -0.387638,0.190839 0,0 0.0715592,0.143126 0.36378,0.149091 0,0 0.435351,0.029815 0.32204,0.244508 0,0 -0.0477048,0.18487 -0.68582,0.512875l-0.864733 0.411493c0,0 0.33993,0.733536 1.34182,0.638115 0,0 1.06153,-0.137162 1.20466,-1.25833 0,0 -0.238544,-0.506914 -0.960147,-0.602332 0,0 -0.477099,-0.0715592 -0.560587,-0.119272 0,0 -0.202764,-0.0536733 0.226622,-0.166984z"/>
   <path id="_488755288" class="fil0" d="M1.5471 2.4973l0.0683269 0.0941812c0,0 -0.225221,0.194583 -0.245567,0.237634l-0.138181 -0.0146496c0,0 0.162154,-0.176819 0.315422,-0.317166z"/>
   <polygon id="_488752072" class="fil0" points="1.71318,2.39448 1.96164,2.189 2.02744,2.25481 1.78973,2.45895 "/>
   <polygon id="_401162728" class="fil0" points="2.1927,1.89476 2.25326,1.93962 2.14336,2.1168 2.07832,2.06522 "/>
   <polygon id="_488753272" class="fil0" points="2.3026,1.62338 2.37213,1.64133 2.31606,1.80954 2.24653,1.78711 "/>
   <path id="_488753968" class="fil0" d="M2.32727 1.47536l0.0583111 -0.0201851c0,0 -0.0583111,-0.14578 -0.0807403,-0.163725l-0.0470985 0.0246693 0.0695277 0.15924z"/>
   <polygon id="_488743408" class="fil0" points="2.00655,1.11427 2.03571,1.06268 2.18373,1.15688 2.15009,1.20174 "/>
   <polygon id="_488753632" class="fil0" points="1.86525,1.00437 1.85404,1.05147 1.68807,1.0111 1.69929,0.964001 "/>
   <polygon id="_488752000" class="fil0" points="1.53108,0.939328 1.52435,0.968486 1.3539,0.934844 1.35838,0.898958 "/>
   <polygon id="_401198704" class="fil0" points="1.244,0.831674 1.30904,0.889989 1.28885,0.910174 1.22605,0.849615 "/>
   <path id="_401164144" class="fil0" d="M1.23895 0.816025l-0.0197914 0.00104331c0,0 -0.0041693,-0.04063 0.0520827,-0.0697954l0.0114567 0.0166693c0,0 -0.0416654,0.0145827 -0.0437481,0.0520827z"/>
   <rect id="_488746120" class="fil1" x="0.626194" y="1.2514" width="0.0354961" height="0.827796"/>
   <g>
    <polygon id="_401163616" class="fil2 str0" points="0.655017,0.72993 0.785005,0.858399 0.915001,0.986864 0.785005,1.11533 0.655017,1.2438 0.525016,1.11533 0.395024,0.986864 0.525016,0.858399 "/>
    <polygon id="_488752264" class="fil1" points="0.643946,0.679025 0.799694,0.832946 0.955438,0.986864 0.799694,1.14079 0.643946,1.2947 0.488194,1.14079 0.332445,0.986864 0.488194,0.832946 "/>
    <polygon id="_401166160" class="fil1 str1" points="0.643946,0.723997 0.776938,0.855434 0.90993,0.986864 0.776938,1.1183 0.643946,1.24973 0.51095,1.1183 0.377953,0.986864 0.51095,0.855434 "/>
    <path id="_488753032" class="fil0" d="M0.647284 1.15718l-0.0391772 0c0,0 0.000980316,-0.0421182 0.0411379,-0.0734607 0,0 0.0225237,-0.0235118 -0.00294095,-0.0323229l-0.0528898 -0.0332993c0,0 -0.0411339,-0.0675828 0.0254685,-0.106764 0,0 0.0244843,-0.0156732 -0.0303662,-0.011752l0.0587678 -0.100886 0.0597481 0.100886 -0.0401575 0.000980316c0,0 0.00489371,0.0264449 -0.0313426,0.0391772 0,0 -0.0313426,0.0323189 0.00196063,0.0528898 0,0 0.0842324,0.0430945 0.0538702,0.0969686 0,0 -0.0352599,0.0293819 -0.0440788,0.0675828z"/>
   </g>
  </g>
 </g>
</svg>
