<?xml version="1.0" encoding="UTF-8"?>
<!DOCTYPE svg PUBLIC "-//W3C//DTD SVG 1.1//EN" "http://www.w3.org/Graphics/SVG/1.1/DTD/svg11.dtd">
<!-- Creator: CorelDRAW -->
<svg xmlns="http://www.w3.org/2000/svg" xml:space="preserve" width="2.95833in" height="3.89402in" style="shape-rendering:geometricPrecision; text-rendering:geometricPrecision; image-rendering:optimizeQuality; fill-rule:evenodd; clip-rule:evenodd"
viewBox="0 0 2.95833 3.89402"
 xmlns:xlink="http://www.w3.org/1999/xlink">
 <defs>
  <style type="text/css">
   <![CDATA[
    .fil0 {fill:#373435}
   ]]>
  </style>
 </defs>
 <g id="Layer_x0020_1">
  <metadata id="CorelCorpID_0Corel-Layer"/>
  <path class="fil0" d="M0.531748 0.227421c-0.0355433,0.0369843 -0.0752362,0.103437 -0.10915,0.131201l-0.0890394 0.150154 -0.0239528 0.078378c-0.0270591,0.200831 -0.046811,0.251701 -0.0307008,0.470055l0.0261496 -0.0495394c0.0299724,0.0515906 0.0315591,0.00388976 0.0394528,0.0710866 0.118035,-0.0311457 0.0565276,-0.0341654 0.109236,0.00794488l0.035689 0.0152598 0.0256181 -0.0826063c-0.0375748,-0.182165 0.0394724,-0.428571 0.128622,-0.52328l0.0049252 -0.125846 0.0567992 -0.0300236c0.0458898,-0.0229961 0.0159094,-0.0132244 0.0663819,-0.0222323 -0.0205866,-0.0636417 -0.0117087,-0.116614 -0.128197,-0.0642992l-0.0507677 -0.0769606 0.00212205 -0.000570866c-0.0159173,0.0185512 0.00391339,0.0027126 -0.0254961,0.027752 -0.0204882,0.0174409 -0.0108701,0.00765354 -0.0376929,0.0235276zm0.877902 1.46474c0.150913,-0.0342087 0.0374213,-0.0320827 0.178177,-0.060878 -0.0715394,0.10689 -0.0415866,0.0654606 -0.0801693,0.0797992l0.0573386 0.00145276c0.108402,0.0144567 0.121146,0.0697717 0.094189,0.150197l-0.263913 -0.0533661 0.014378 -0.117205zm0.178177 -0.0743543c-0.107386,-0.0154134 -0.161724,-0.044685 -0.201961,-0.00906299 -0.00216142,0.00191732 -0.00682283,0.00814961 -0.00861024,0.00996063l-0.0454843 -0.0386457c-0.0205709,-0.0120315 -0.0221181,0.0112047 -0.0315591,-0.0735039 -0.0344764,0 -0.0205984,-0.00698819 -0.0308937,0.0341496 0.00392913,0.0965866 0.094252,0.355067 0.12428,0.454303l0.0972283 0.0107087c-0.0134331,-0.0611929 -0.00158268,0.00626378 -0.0150866,-0.0499567l-0.0048937 -0.0374488c-0.000220472,-0.00593701 0.000515748,-0.00829134 0.000980315,-0.0124094 0.161465,-0.0066063 0.11622,0.0180984 0.13148,0.0340394l0.0446575 0.00483465 0.632528 1.94924 0.0227638 0 -0.0916339 -0.290902 -0.482862 -1.50867c0.0249055,-0.0289646 -0.00377559,-0.0160039 0.0145945,0.00235827 0.0182874,-0.0292402 0.0083937,0.00790551 0.013622,-0.0363386l-0.00791732 -0.0970787 0.142256 0.0140472 0.0209843 -0.0387244 0.00868898 -0.0556969 0.00554724 -0.0602205 0.00430315 -0.0138898 -0.0476614 -0.0022874c-0.0153976,0.0764567 0.00791339,0.018937 -0.0551575,0.0494606l-0.0245984 -0.0772402c-0.0283622,0.0617795 -0.0182323,0.00746063 -0.0383622,0.0813622 -0.0115827,0.0425197 -0.00216142,0.0477323 -0.0260787,0.0945945l-0.0602953 -0.217654 -0.00092126 -0.0133976 -0.0496535 -0.217193c-0.0496732,0.0201063 -0.0237953,-0.032122 -0.0287047,0.0532087 -0.000133858,0.00242126 0.0160787,0.0678386 0.0162402,0.0685591l-0.0278189 -0.0105079zm-0.209961 -1.40467l0.0477165 0.010378 0.00133071 -0.0340197c0.0414252,9.05512e-005 -0.00585433,-0.0296378 0.0418976,0.00414961 0.0342087,0.0117244 0.0380512,-0.0488386 0.0473071,0.0491142 0.0096063,0.101665 -0.0115276,0.0422874 -0.0362402,0.0503661l0.0176535 0.0312047 -0.0618858 0.0427717c0.0732992,0.000681102 0.0823031,0.0104016 0.134453,-0.0197756l0.000980315 0.0176142c-0.0305709,0.081 -0.0528425,-0.0433346 -0.0260787,0.0191102l0.0338858 0.0380984c0.0873425,0.0117559 0.0912047,0.00715354 0.159606,-0.0237756 0.00637795,-0.00530315 0.0155157,-0.0075 0.017378,-0.0178071 0.00229528,-0.0127047 0.0177323,-0.0125669 0.0279528,-0.0125669 0.000102362,0.0442835 -0.00507874,0.0256457 0.0167874,0.0316457 0.0641929,-0.000720472 0.101689,0.136173 0.10178,0.136303 0.0516575,0.0707677 0.0658504,0.0346024 0.0507835,0.0980236 -0.0095748,0.0402992 -0.0394488,0.0672047 -0.0890787,0.0354055l-0.0346496 -0.055811 -0.00495276 0.0199291c0.0742008,0.266201 0.0705079,0.219732 0.0645079,0.516177l0.0952441 0.0123937 -0.0305433 0.093311c0.0333583,-0.0277638 0.0310906,-0.0328386 0.0618346,-0.079689 0.00981102,0.0200472 0.00857874,0.00164961 0.00895276,0.0384685 0.0929685,-0.0874843 0.0418976,-0.309083 0.0467835,-0.438626 -0.0525787,0.0700906 -0.024874,0.176496 -0.0416811,0.310961l-0.0140394 0.0502756 -0.0952953 0.00623228 0.00709449 -0.112748c0.00057874,-0.0557362 -0.000744094,-0.110165 -0.000996063,-0.165724 -9.84252e-005,-0.0228189 -0.000783465,-0.0668661 0.00326378,-0.0882795 0.0146575,-0.077622 -0.00439764,-0.0190472 0.0237283,-0.0558346l0.071689 0.0104961 0.0102638 -0.045563c-0.0215512,-0.0816181 -0.0761417,-0.178024 -0.122102,-0.240425 -0.0189291,-0.0215039 -0.0132165,-0.0147283 -0.0142244,-0.0424449 -0.0305984,-0.0238898 0.00207087,0.00500394 -0.0327165,-0.0279567 -0.116803,-0.110701 -0.238213,-0.23828 -0.460925,-0.239224 -0.00026378,0.0011378 -0.00073622,0.00314173 -0.000897638,0.00338583 -0.000188976,0.000287402 -0.00154724,0.00334252 -0.0018189,0.0037126 -0.000393701,0.000527559 -0.00333071,0.00390157 -0.00379528,0.00448425l-0.0209528 0.0662598zm0.365488 1.88367c-0.0183701,-0.0183622 0.010311,-0.0313228 -0.0145945,-0.00235827l0.482862 1.50867c0.0653031,-0.0349449 0.0745394,0.0800276 -0.0172441,-0.193807 -0.0491339,-0.146583 -0.0544094,-0.155516 -0.0291772,-0.212736 -0.0175079,-0.119169 -0.0846299,-0.277535 -0.120717,-0.397343 -0.0307441,-0.102059 -0.110264,-0.293846 -0.111673,-0.383209 -0.0429764,-0.0600118 -0.0940276,-0.202469 -0.0828425,-0.283181 -0.0220591,-0.090685 -0.0166102,-0.0138701 -0.0340157,-0.107874l-0.0596732 0.122843 -0.0129252 -0.0510079zm-0.871528 -2.05858c-0.0133346,0.0225354 -0.0475354,0.0486772 -0.0509921,0.0506575 -0.0337165,0.0193543 0.00693701,-0.00243701 -0.0668386,0.0109449 -0.0855,0.0155079 -0.0731299,0.0465906 -0.161181,0.0768858l0.0507677 0.0769606c0.116488,-0.052315 0.10761,0.00065748 0.128197,0.0642992l-0.00750787 0.0264449 0.0350512 0.00106693c0.0477362,-0.0115394 0.0179685,-0.00462598 0.0665354,-0.0263031 0.107346,-0.0479094 0.0407835,-0.0210472 0.0703071,0.00346457l0.0636811 -0.0388701c-0.0311417,0.0418031 -0.0142126,0.00802362 0.0136299,0.0288307 -0.0089252,-0.0530079 -0.0217835,-0.0470433 0.0278543,-0.0298858l0.0124291 -0.129559 0.0108898 -0.0139606 0.0259213 -0.136713 -0.0905433 0.00723622 -0.128201 0.0285zm-0.416811 1.6866c0.00229528,0.0164094 -0.00487795,0.00754331 0.00952362,0.0352598l0.0240866 0.0103504c0.0231614,-0.0170827 -0.0254803,-0.0267283 0.0312008,-0.0120118 0.0311496,0.0499055 0.138768,0.0832835 0.105295,0.151579l-0.0090315 0.00635827 0.0811693 0.0571142c0.0120472,-0.0363386 0.0309252,-0.0478189 0.0347717,-0.0884055 0.00348425,-0.0368465 0.00201969,-0.122539 0.000732283,-0.165945l-0.00504724 -0.0238071 0.0654213 0.00415354 -0.0302677 -0.0150827c-0.0807677,-0.0258661 -0.0305669,-0.0158268 -0.0482008,0.00369685l0.0257953 -0.111413 0.043815 0.0207244c0.103047,-0.00846063 0.0206969,-0.00110236 0.0374803,-0.0238858l-0.10111 -0.0614567c-0.0252402,-0.0215906 -0.00277559,-0.0028189 -0.0382087,-0.0233071l-0.0316575 0.142142 -0.0321063 -0.00835039c-0.0465669,-0.0212835 -0.0380315,-0.0334173 -0.0646929,-0.0732756 -0.014252,-0.0174803 -0.0067874,-0.0114961 -0.0297717,-0.0280433 -0.00428346,-0.00308268 -0.0179016,-0.0120276 -0.0226654,-0.0145276 -0.0286575,-0.0150394 -0.0143504,-0.0113268 -0.0561142,-0.0180394 -0.00651181,0.106697 -0.0374016,-0.0733346 0.00482677,0.0295236 0.0236969,0.0577244 0.0318661,0.0391417 0.0490276,0.0595669l-0.0338346 0.0876063c-0.00505512,0.0213307 0.00426378,0.0151181 -0.010437,0.0594764zm1.24087 -0.592787c-0.0604094,-0.00344094 -0.133028,-0.00427165 -0.177165,-0.0353701l0.0108661 -0.0857953 -0.0345709 0.00320866 -0.0136811 0.0830906 -0.125142 -0.00203937c-0.0225551,0.0482402 0.0125315,0.0164213 -0.0297717,0.0549882 0.0284646,0.0507362 -0.0103425,-0.0244252 0.0287362,0.0312756 0.0276142,0.0393583 0.00715748,-0.0125906 0.0180472,0.0422362 0.052563,0.0118465 0.0338898,-0.00123228 0.0667717,0.0354331 0.0208583,-0.0143465 0.0238228,-0.0102205 0.041122,-0.0334488 0.0397559,-0.000334646 0.0557323,0.000299213 0.0931575,0.00530709l0.0948543 0.0234724 0.121039 0.0108307 -0.0234291 0.10074c0.0335276,-0.0178504 -0.00159449,0.0265984 0.0412598,-0.0314606 0.0216102,-0.0292756 0.00906299,-0.00507087 0.0211929,-0.0557205 0.0116417,-0.146378 0.0180984,-0.0387795 0.0598228,-0.12911 0.006,-0.296445 0.00969291,-0.249976 -0.0645079,-0.516177l-0.00977165 0.00226378 -0.0333504 0.00846457c0.104126,0.105709 0.0938819,0.34274 0.0741496,0.498126l-0.15963 -0.010315zm-1.0798 0.784323l0.00706299 0.045311c0.00249606,0.107472 -0.0148307,0.0280354 -0.0518268,0.0977283l-0.15498 0.0232283 -0.0336693 0.0858661c0.0389567,0.0149055 0.0978701,0.0237244 0.0791339,0.0492992 0.0232126,0.0160512 0.0335157,0.028311 0.0786142,0.031811 0.044811,0.00347244 0.0333425,0.00333858 0.0656535,-0.014063 0.0401142,-0.0216063 0.0590551,-0.0663701 0.102189,-0.0971929 0.0142677,-0.109339 0.0839488,-0.234728 0.0884173,-0.351358l0.018626 -0.0453898 -0.0825472 -0.0224764c0.0012874,0.0434055 0.00275197,0.129098 -0.000732283,0.165945 -0.00384646,0.0405866 -0.0227244,0.0520669 -0.0347717,0.0884055l-0.0811693 -0.0571142zm0.863764 -1.17879c-0.00800787,-0.051311 -0.00092126,-0.0183504 -0.0199094,-0.0619409l-0.0395827 -0.0838898 0.217413 -0.0138661 0.0214961 -0.000637795c0.0559882,-0.0370079 -0.072815,-0.0306811 0.0710945,-0.0311417l-0.0437795 -0.0317087c-0.00246063,-0.00216142 -0.00566929,-0.00637402 -0.00802756,-0.00850394 -0.0226299,-0.0204488 -0.00898031,-0.0186614 -0.0464134,-0.0329213l-0.293181 0.0583425 -0.0107126 -0.0494567c-0.000307087,-0.000968504 0.0295236,0.00526772 -0.00718898,-0.00323622 -0.0255039,-0.0060315 -0.0565748,-0.0122244 -0.078,-0.0183346 -0.0217913,-0.0062126 -0.00742913,-0.00612205 -0.0510394,-0.0165866l0.0142874 0.021315 -0.102843 0.0258622 0.0432598 0.11022 0.25115 -0.0016811c0.0101339,0.019252 0.0227953,0.0453346 0.0329961,0.0652402l0.0489803 0.0729252zm0.409925 0.831421c0.0115,0.0592598 -0.0396929,0.0195512 0.0466063,0.0536693 -0.0402441,0.00637402 -0.0888661,0.00807087 -0.1205,0.0391575 -0.0408425,0.0401457 0.00429921,-0.0387205 -0.0230866,0.0413031 0.0189016,0.00912992 0.0123189,0.00940551 0.044811,0.0163189 0.00192913,0.000409449 0.0478701,0.0059685 0.0594882,0.00625591l0.00148425 0.0425118c0.0200197,0.00584252 0.0776969,0.0170669 0.0985512,0.0225354l0.0951102 0.0118543 0.00807087 -0.0384409 0.022126 -0.045126c0.00270866,0.00318504 0.00664173,0.0042126 0.00809843,0.00958661 0.00148425,0.00548819 0.00702362,0.00750787 0.00904724,0.0090748 0.0193819,0.0149921 -0.0114921,-0.00205512 0.0345866,0.0230276l-0.00720472 -0.0291063 0.0624646 -0.020689 0 -0.0355354 -0.119622 0.0146102 -0.00933465 -0.0466732c0.0324843,-0.0110039 0.0120669,-0.00524016 0.0284291,-0.0283937 -0.00352362,-0.00317717 -0.00766535,-0.00795669 -0.00966535,-0.0104488l-0.0437244 -0.0698937c-0.0186417,-0.039374 -0.0176969,-0.0318583 -0.027248,-0.0660827 -0.010815,0.0541299 -0.00666535,0.0477244 0.00261417,0.0954488l0.0167283 0.057252c0.000653543,-0.00227953 0.00319291,0.00822047 0.00468898,0.0123661 -0.0999134,-0.006 -0.0985276,-0.0148071 -0.145764,-0.073563l-0.0367559 0.00898031zm-1.77594 -1.1008c-0.0131535,0.0704213 0.0225433,0.052626 0.10215,0.0437598 0.0773386,-0.00861024 0.0737953,-0.0191811 0.117575,-0.00317717l0.0890394 -0.150154c-0.0548976,-0.0447283 -0.031374,-0.0280591 -0.0462756,-0.0129803 -0.00637402,-0.0449961 -0.0036378,-0.0276024 0.0158583,-0.0330354l-0.0549567 -0.030689c-0.000519685,-0.0103543 -0.0546417,-0.00211024 0.021189,-0.0227638 0,-0.0449173 0.00973228,-0.0293228 -0.0411772,-0.0357165 -0.0266417,0.014185 -0.00515748,-0.00069685 -0.0383504,0.0276102 -0.00162205,0.00138189 -0.022874,0.0218346 -0.0269685,0.0258425 -0.0235354,0.0230236 -0.0312835,0.0307953 -0.053689,0.0533583 -0.0476417,0.0479685 -0.0784843,0.0771024 -0.0843937,0.137945zm0.13978 0.626669c-0.0332598,-0.164748 -0.0160787,-0.30478 0.0176496,-0.46489 -0.0524252,0.0133189 -0.0459488,0.00449606 -0.0806181,0.0532874l-0.0636772 0.0748701 0 0.109201c0.0085315,-0.00791339 0.0457598,0.0011811 -0.00566142,-0.053315l-0.0579961 -0.0379764 0.0458386 0.267177c0.00441732,0.00183858 0.0124055,-0.00355512 0.0142913,0.0013937 0.00174409,0.0045748 0.0109685,0.00103543 0.0132205,0.00125197 0.118937,0.0115551 -0.0217402,0.0250512 0.116953,0.049zm-0.210248 -0.108524c-0.00379921,0.096563 0.0494173,0.160925 0.101886,0.165142l0.0342126 -0.00303937 0.0741496 -0.0535787c-0.138693,-0.0239488 0.00198425,-0.0374449 -0.116953,-0.049 -0.00225197,-0.000216535 -0.0114764,0.00332283 -0.0132205,-0.00125197 -0.00188583,-0.00494882 -0.00987402,0.000444882 -0.0142913,-0.0013937l-0.0458386 -0.267177 0.0579961 0.0379764c0.0514213,0.0544961 0.0141929,0.0454016 0.00566142,0.053315l0 -0.109201 0.0636772 -0.0748701c0.0346693,-0.0487913 0.0281929,-0.0399685 0.0806181,-0.0532874l0.00966929 -0.0499252c-0.0244803,-0.0616339 0.0122126,0.0149724 -0.0208622,-0.00383465 -0.000929134,-0.000531496 -0.00452362,-0.00350394 -0.00564961,-0.0042126 -0.0530866,-0.033248 0.0372283,-0.0123425 -0.0552677,-0.0276575 -0.0276181,-0.00457087 -0.0463622,0.000645669 -0.0722756,0.00303937l-0.0643189 0.173193 -0.00349213 0.0232087c-0.0246024,0.108134 -0.0155945,0.105209 -0.0157008,0.242555zm1.43774 0.239276c0.0250039,0.056626 -0.030378,0.0491378 0.0259724,0.0491378 -0.0672087,-0.00340945 0.00855118,0.0257323 -0.096685,0.0724213l0.00431496 0.054063 0.00864173 1.9685e-005 0.020748 -0.0445591c0.00639764,0.016311 0.0356417,-0.0202244 -0.010626,0.0804449 0.0924449,0.0142874 0.0501929,-0.018248 0.106815,0.0392559 -0.0120787,0.0570118 -0.0135039,0.0121378 0.033315,0.0299803 0.0183583,-0.0167283 0.0112087,-0.00648425 0.0144055,-0.0274528 0,0.0590827 -0.00676378,0.00241339 0.0353386,0.0155276l0.093748 -0.0487874 0.0133661 0.00726378 0.00440157 -0.0442559 -0.0587874 0.0190945c-0.0419724,-0.0880945 -0.0780787,-0.134469 -0.00695669,-0.173374l-0.0948543 -0.0234724c-0.0374252,-0.00500787 -0.0534016,-0.00564173 -0.0931575,-0.00530709zm0.365512 0.22674c0.00450787,0.0109843 0.0340394,0.0279331 0.00838583,0.0539094 -0.0347165,0.0351535 0.0111063,-0.0026811 -0.0360669,0.00755906 -0.00284252,0.00061811 -0.00906693,0.00161024 -0.0117638,0.00224409l-0.0242795 0.00822047c0.0418661,0.062252 0.0218268,0.0392283 0.0565906,0.059689l0.0502992 -0.0149843 0.0367559 -0.00898031c0.0472362,0.0587559 0.0458504,0.067563 0.145764,0.073563 -0.00149606,-0.00414567 -0.00403543,-0.0146457 -0.00468898,-0.0123661l-0.0167283 -0.057252c-0.00927953,-0.0477244 -0.0134291,-0.0413189 -0.00261417,-0.0954488 -0.0425,-0.0472717 -0.0457756,-0.0634961 -0.0734094,-0.0977244l0.0389094 -0.0865669 -0.0457953 0.0151299 -0.0950669 -0.0261693c0.0378937,0.0338031 0.0385512,0.0376929 0.041374,0.126386 -0.0396181,0.013126 -0.0320157,0.0200315 -0.0809961,-0.0120827l0.0133307 0.064874zm-0.72861 -1.32837l-0.0233898 0.098563 0.0159213 0.0333346 0.157846 0.0602323c0.0817677,-0.193484 0.0867362,-0.166925 0.0470315,-0.198323l0.0376063 0.00829921c-0.0287047,-0.0346142 -0.00407087,-0.0139724 -0.0514331,-0.0445276 -0.0105315,-0.00679134 -0.0315709,-0.0169094 -0.0462717,-0.0245669 -0.0350866,-0.0182677 -0.0657362,-0.0323504 -0.0955315,-0.0569961 -0.0192795,0.0677992 -0.0302717,0.0663504 -0.0417795,0.123984zm-0.84674 0.505988c-0.0337283,0.16011 -0.0509094,0.300142 -0.0176496,0.46489l-0.0741496 0.0535787 -0.0342126 0.00303937c-0.0524685,-0.00421654 -0.105685,-0.0685787 -0.101886,-0.165142l-0.0153622 0.0304961c-0.013685,0.127587 0.0336299,0.188689 0.0591811,0.302 0.032122,-0.0340157 0.0318898,-0.0842677 0.0456732,-0.128122l0.075689 -0.00309843c0.00464567,0.00108661 0.0618189,0.026122 0.0730984,0.030752 0.0253189,0.0285984 0.00801969,0.010122 0.0327323,0.0461535l0.0292165 0.0394567 -0.00659449 -0.0390236 -0.0580945 -0.207744c-0.0161102,-0.218354 0.00364173,-0.269224 0.0307008,-0.470055l-0.0286732 -0.0071063 -0.00966929 0.0499252zm1.37885 0.332807c-0.144469,-0.154622 -0.0535827,-0.063622 -0.100524,-0.209622l-0.0575472 -0.136264 0.0961063 -0.0102244 0.00382677 0.115228c0.0305394,0.0775945 0.116185,0.0173819 0.0581378,0.240882zm-0.170256 -0.225209c0.00332677,0.00420866 0.0184724,-0.0241575 0.0339961,0.0625276 0.0120276,0.0671732 0.0083189,0.0479488 -0.0173346,0.0687126l-0.00149606 0.145268 0.0345709 -0.00320866 -0.0128583 -0.127618c0.114402,0.0985866 -0.0509409,0.0401299 0.142453,0.17365 0.00352756,-0.115689 -0.0221063,-0.164374 0.0345945,-0.227409l-0.0560039 -0.251618 -0.217413 0.0138661 0.0395827 0.0838898c0.0189882,0.0435906 0.0119016,0.0106299 0.0199094,0.0619409zm0.731768 2.86555l0.0916339 0.290902 0.0993228 0 -0.237378 -0.697445c-0.0252323,0.0572205 -0.0199567,0.0661535 0.0291772,0.212736 0.0917835,0.273835 0.0825472,0.158862 0.0172441,0.193807zm-2.12444 -2.28428l-0.0210669 0.0171772c0.0892402,-0.0124213 0.0786063,0.0288071 0.0957756,0.0611063 0.0295039,-0.0285827 -0.0386732,-0.0275827 0.0363858,-0.0185591 0.0430315,0.00516929 0.0164803,-0.0177126 0.0712283,0.0775039 -0.0106772,0.0304331 -0.0235276,0.032622 -0.0235984,0.0326811l0.0184567 0.0533583c-0.00306693,0.00124803 -0.00898031,-0.00308661 -0.00990157,0.000744094 -0.0181142,0.0753543 0.0146732,-0.0577874 -0.0322835,0.0348937 0.0363465,0.00998425 0.0509291,-0.0227283 0.0678071,0.0861063 0.00905906,0.0584331 0.0127913,0.0113386 -0.00236614,0.0431024 0.0247638,0.034563 0.00385433,0.0163346 0.0365748,0.0212795l-0.00951575 -0.0539843c0.0417638,-0.0245748 0.00303937,0.0342047 0.0390906,-0.0607795 -0.0531024,-0.0582244 -0.062752,-0.110283 0.0137323,-0.154406l0.0189055 -0.0415866 -0.060622 -0.000192913c-0.00224409,0.000251969 -0.014126,0.00727559 -0.0179803,0.00954724l-0.033622 0.0261024c0.00235827,-0.0659843 0.0253543,-0.0540945 -0.0581339,-0.106909 0.00583858,-0.0208976 0.00393307,-0.0431614 0.0178189,-0.0533622 0.00565748,-0.131811 -0.0203031,-0.054622 0.0477756,-0.0742913 -0.0112795,-0.00462992 -0.0684528,-0.0296654 -0.0730984,-0.030752l-0.075689 0.00309843c-0.0137835,0.0438543 -0.0135512,0.0941063 -0.0456732,0.128122zm1.32246 0.373327l-0.014378 0.117205 0.263913 0.0533661c0.0269567,-0.0804252 0.0142126,-0.13574 -0.094189,-0.150197l-0.0573386 -0.00145276c0.0385827,-0.0143386 0.00862992,0.0270906 0.0801693,-0.0797992 -0.140756,0.0287953 -0.0272638,0.0266693 -0.178177,0.060878zm0.0259961 -1.32506c-0.000287402,0.000464567 -0.0257756,-0.00857087 -0.0259055,0.0470039 -0.0431535,-0.00656299 -0.0437165,0.00608268 -0.019815,-0.0275315 -0.170398,-0.0168543 -0.110937,-0.039378 -0.29039,-0.0122165l0.025622 0.0186732c0.0023189,0.00140945 0.0083189,0.00449606 0.0104646,0.00573228 0.0153543,0.00884252 0.0204606,-0.0121457 0.012622,0.0101417 0.0159606,0.0315118 -0.0132638,0.0225551 0.0437795,0.0347835 0.0436102,0.0104646 0.029248,0.010374 0.0510394,0.0165866 0.0214252,0.00611024 0.0524961,0.0123031 0.078,0.0183346 0.0866614,-0.0405472 0.180457,-0.00158268 0.257823,-0.0564606l-0.0338858 -0.0380984c-0.0267638,-0.0624449 -0.00449213,0.0618898 0.0260787,-0.0191102l-0.000980315 -0.0176142c-0.0521496,0.0301772 -0.0611535,0.0204567 -0.134453,0.0197756zm0.294811 1.08583l-0.0133661 -0.00726378 -0.0889803 0.0608819 0.0496535 0.217193c0.0022126,-0.000791339 -0.0159606,0.0318976 0.0550748,-0.0213504 0.046437,-0.0348031 0.0114213,-0.0356181 0.0197677,-0.0774134 0.00505118,-0.0252717 0.0157953,-0.00042126 -0.00988189,-0.0516772 0.0519724,0.00947244 -0.0503386,0.0474567 0.0738898,0.019937 0.0191732,-0.00424409 -0.0077874,0.0252677 0.0228661,-0.00925984 -0.0347638,-0.0204606 -0.0147244,0.00256299 -0.0565906,-0.059689l0.0242795 -0.00822047c0.00269685,-0.000633858 0.00892126,-0.00162598 0.0117638,-0.00224409 0.0471732,-0.0102402 0.00135039,0.0275945 0.0360669,-0.00755906 0.0256535,-0.0259764 -0.00387795,-0.0429252 -0.00838583,-0.0539094 -0.0419882,-0.0173976 -0.0271063,0.0195394 -0.0364016,-0.0177087 -0.0404331,0.0398346 -0.0223661,0.0281811 -0.0782677,0.0436535l-0.00148819 -0.0253701zm-1.60416 0.0812598c0.0457205,0.0595669 0.111575,0.126614 0.161327,0.17276 0.0151575,-0.0317638 0.0114252,0.0153307 0.00236614,-0.0431024 -0.016878,-0.108835 -0.0314606,-0.076122 -0.0678071,-0.0861063 0.0469567,-0.0926811 0.0141693,0.0404606 0.0322835,-0.0348937 0.00092126,-0.00383071 0.00683465,0.000503937 0.00990157,-0.000744094l-0.0184567 -0.0533583 -0.0905354 -0.069874 0.00651969 -0.021752c-0.0171693,-0.0322992 -0.00653543,-0.0735276 -0.0957756,-0.0611063 -0.0452402,0.13165 0.0180669,0.126047 0.0601772,0.198177zm-0.0982913 -0.517354l0.0153622 -0.0304961c0.000106299,-0.137346 -0.00890157,-0.134421 0.0157008,-0.242555l0.00349213 -0.0232087 0.0643189 -0.173193c0.0259134,-0.0023937 0.0446575,-0.00761024 0.0722756,-0.00303937 0.0924961,0.015315 0.0021811,-0.00559055 0.0552677,0.0276575 0.00112598,0.000708661 0.00472047,0.0036811 0.00564961,0.0042126 0.0330748,0.0188071 -0.00361811,-0.0577992 0.0208622,0.00383465l0.0286732 0.0071063 0.0239528 -0.078378c-0.0437795,-0.0160039 -0.0402362,-0.00543307 -0.117575,0.00317717 -0.0796063,0.00886614 -0.115303,0.0266614 -0.10215,-0.0437598 -0.0159882,0.0149961 -0.0128504,0.0100591 -0.0295512,0.0322402 -0.0729409,0.0968976 -0.115638,0.44065 -0.0562795,0.516402zm1.99703 -0.285925c-0.0109961,0.0716693 -0.0625433,0.0668189 -0.0629528,0.0669291l-0.00873622 -0.0774252c-0.028126,0.0367874 -0.00907087,-0.0217874 -0.0237283,0.0558346 -0.00404724,0.0214134 -0.0033622,0.0654606 -0.00326378,0.0882795 0.000251969,0.0555591 0.0015748,0.109988 0.000996063,0.165724l0.0499764 -0.0102953c0.0345197,0.102252 -0.00440157,0.0459567 0.0522638,0.0665354 0.0168071,-0.134465 -0.0108976,-0.24087 0.0416811,-0.310961 -0.00811811,-0.0531417 0.000692913,-0.0417047 -0.0359724,-0.090185l-0.0102638 0.045563zm0.544563 1.1009c0.0201496,0.0347953 0.0229016,-0.0385827 0.0157205,0.0565354 0.0180748,0.0583858 0.0178819,0.0205866 0.0895551,0.0226378l0.0921772 -0.0127205 0.0506299 -0.00161417c0.0114882,-0.0190079 -0.0162677,-0.0353898 0.0335315,0.00108661 0.044437,0.0325433 0.0248937,0.00359843 0.0196535,0.0462598 0.082811,-0.0018189 0.0645827,0.0175157 0.0857126,-0.0204803l-0.0443976 -0.00647638c0.027685,-0.0539409 0.00329134,-0.0593386 -0.0434213,-0.082l0.0895709 -0.0152756 -0.265819 -0.00764173c-0.087063,-0.010748 -0.147291,-0.0174803 -0.219961,0.0124331l0.0970472 0.00725591zm-2.2326 -0.566854l0.00659449 0.0390236c0.00346457,0.00442126 0.00832283,0.00554331 0.00997638,0.0135945l0.0486929 0.0819764 0.0207362 0.000429134 0.0259016 -0.0530906 0.0248346 0.0315669c0.0237323,0.0388425 -0.00529921,0.00300787 -0.00824016,0.00329134l0.00135039 -0.0714449c0.063437,-0.0271772 0.0595433,-0.0351339 0.105469,-0.0355472l0.0457126 0.0993425c0.0177559,0.0322402 0.0101575,-0.000677165 0.0162638,0.0394134 0.0254291,-0.015374 0.0463386,0.00743307 0.0730984,0.0537598 0.0623268,-0.00983071 0.0250827,0.000598425 0.0481299,-0.0119488 -0.0359882,-0.0745591 -0.125461,-0.0794173 -0.144307,-0.214791l-0.0178898 -0.0368701c-0.0395236,0.0216575 -0.0342717,0.012815 -0.0566417,0.0417598l-0.0687323 -0.00766535 -0.0615827 0.00600787c-0.00572441,-0.0399764 -0.00141732,-0.022 -0.0316535,-3.93701e-005l-0.018126 -0.0427283 -0.0195866 0.0639606zm0.086 0.135024c0.00558268,0.011126 0.0175276,0.0321969 0.0194567,0.040874 0.00774409,0.034815 0.00459449,0.015315 0.00297638,0.0477992 0.0417638,0.0067126 0.0274567,0.003 0.0561142,0.0180394 0.00476378,0.0025 0.0183819,0.0114449 0.0226654,0.0145276 0.0229843,0.0165472 0.0155197,0.010563 0.0297717,0.0280433 0.000700787,-0.00200394 0.00423228,-0.00621654 0.0045315,-0.00447638l0.0151969 -0.0224291 -0.00934252 -0.0850472 0.0697717 0.0248976c-0.0543031,0.0212638 -0.0296063,-0.0234685 0.000149606,-0.0486969 -0.0061063,-0.0400906 0.00149213,-0.00717323 -0.0162638,-0.0394134l-0.0457126 -0.0993425c-0.0459252,0.000413386 -0.0420315,0.00837008 -0.105469,0.0355472l-0.00135039 0.0714449c0.00294094,-0.000283465 0.0319724,0.0355512 0.00824016,-0.00329134l-0.0248346 -0.0315669 -0.0259016 0.0530906zm-0.280299 0.635138c0.00308268,0.00362205 0.00762598,0.00448819 0.00951575,0.0106299l0.0489016 0.0307126c0.125114,0.0376732 0.15472,-0.0499921 0.185988,-0.121209 -0.0198189,-0.0511654 -0.0117677,-0.0745945 -0.0529961,-0.0747008 -0.0589016,0.0749803 -0.0263937,0.025248 -0.121417,0.0540669 -0.126543,0.038374 -0.00273228,0.0182165 -0.0699921,0.1005zm0.211071 -0.42165c0.0610512,0.0543465 0.0216535,0.0642835 0.101244,0.111358 0.0147008,-0.0443583 0.00538189,-0.0381457 0.010437,-0.0594764l0.0338346 -0.0876063c-0.0171614,-0.0204252 -0.0253307,-0.00184252 -0.0490276,-0.0595669 -0.0422283,-0.102858 -0.0113386,0.0771732 -0.00482677,-0.0295236l-0.0480945 -0.0235709c-0.034248,-0.0142244 -0.015622,-0.00672441 -0.0298346,-0.00601969 -0.0764843,0.044122 -0.0668346,0.0961811 -0.0137323,0.154406zm1.69911 0.24963c-0.0627953,0.0445472 -0.0572913,-0.0119528 -0.00180315,0.0887244 -0.0537441,-0.0422992 -0.0501024,0.0609921 -0.0530748,-0.0780394l0.054878 -0.010685zm-0.131898 0.0199173l-0.00868898 0.0556969 0.0405118 0.110791 0.0449094 -0.0816929c0.00967717,0.0110551 0.00433858,0.0960197 0.0956181,-0.0336299 -0.00498031,0.0564134 -0.0175394,0.0612165 -0.0127402,0.114736l0.0424252 -0.0591732 0.0166457 -0.0733819 -0.032374 -0.0237362c-0.0527362,-0.0457323 0.0216732,0.0266181 -0.0252047,-0.0310669 -0.00147244,-0.00181102 -0.00882283,-0.00409055 -0.0100039,-0.0102874 -0.00138976,-0.00728346 -0.0076378,-0.00826772 -0.0117441,-0.0121181 -0.057878,-0.0284961 -0.0955827,0.0131378 -0.139354,0.0438622zm-0.391398 -0.872142l-0.0108661 0.0857953c0.0441378,0.0310984 0.116756,0.0319291 0.177165,0.0353701l-0.00211024 -0.302543c-0.0567008,0.0630354 -0.0310669,0.11172 -0.0345945,0.227409 -0.193394,-0.13352 -0.0280512,-0.075063 -0.142453,-0.17365l0.0128583 0.127618zm-0.48826 -0.72815c-0.0496378,-0.0171575 -0.0367795,-0.023122 -0.0278543,0.0298858l0.027815 0.0434449 0.0128346 0.0100945c-0.022874,0.0282087 -0.0153386,0.0189764 -0.0703819,0.0408937l0.027752 0.0100433 0.136748 -0.00817717c0.00783858,-0.0222874 0.00273228,-0.00129921 -0.012622,-0.0101417 -0.00214567,-0.00123622 -0.00814567,-0.00432283 -0.0104646,-0.00573228l-0.025622 -0.0186732c0.179453,-0.0271614 0.119992,-0.0046378 0.29039,0.0122165 0.0279331,-0.043748 0.0216535,-0.0262205 -0.0255039,-0.0136772 -0.0558858,-0.00955118 0.00178346,0.0112598 -0.0352047,-0.00866929 -0.0403465,-0.0217441 -0.0126142,-0.0125236 -0.0225591,-0.0268189l-0.0382756 -0.0212953 -0.157846 -0.0602323c-0.00662205,0.013126 0.0216969,0.063622 -0.0692047,0.0268386zm0.382016 1.11854l-0.0174843 0.0560315c0.00203543,0.0277559 0.00203937,-0.0204409 0.00875197,0.025878l8.66142e-005 0.031185c-0.00451969,0.0303898 -0.0231929,0.0538858 -0.0829291,0.0657087l0.0454843 0.0386457c0.0017874,-0.00181102 0.00644882,-0.00804331 0.00861024,-0.00996063 0.0402362,-0.035622 0.0945748,-0.00635039 0.201961,0.00906299l-0.0178189 -0.0922087c-0.00592126,0.00543307 -0.0147677,0.00558268 -0.0179606,0.0160709l-0.0391575 0.0273898c0.00179921,-0.0156299 0.0235551,-0.0298189 0.019626,-0.045878 -0.000893701,-0.00365354 -0.00359055,-0.00943307 -0.00523228,-0.0130236l0.013 -0.0337598c-0.056622,-0.0575039 -0.0143701,-0.0249685 -0.106815,-0.0392559 0.0462677,-0.100669 0.0170236,-0.0641339 0.010626,-0.0804449l-0.020748 0.0445591zm0.0686929 -0.784362l0.0575472 0.136264c0.0469409,0.146 -0.0439449,0.055 0.100524,0.209622 0.0580472,-0.2235 -0.0275984,-0.163287 -0.0581378,-0.240882l-0.00382677 -0.115228 -0.0961063 0.0102244zm-1.16784 1.11133c0.0310945,0.0703819 0.027122,0.0728307 0.00459843,0.145516l0.00531496 0.00680315c0.0412283,0.000106299 0.0331772,0.0235354 0.0529961,0.0747008l0.014189 0c-0.00117323,-0.0627205 0.0270039,-0.153177 0.0632441,-0.195165 -0.0144016,-0.0277165 -0.00722835,-0.0188504 -0.00952362,-0.0352598 -0.0795906,-0.0470748 -0.0401929,-0.0570118 -0.101244,-0.111358 -0.0360512,0.0949843 0.00267323,0.0362047 -0.0390906,0.0607795l0.00951575 0.0539843zm0.475126 -1.36308c-0.0760039,0.0174961 -0.0848937,0.0420945 -0.13578,0.11572l0.0925236 -0.00448031c0.0951378,0.00456299 0.129469,-0.00928346 0.204346,-0.0283543l-0.0287756 -0.0355669 -0.0180472 -0.0743937c-0.0654331,0.0285315 -0.0298189,0.0228583 -0.114268,0.0270748zm1.32958 1.24979c-0.0163622,0.0231535 0.00405512,0.0173898 -0.0284291,0.0283937l0.232512 -0.0166417c-0.0215906,0.0290197 0.0171417,0.00879528 -0.0342047,0.0329961 -0.0300748,0.0141772 -0.0320315,0.00864173 -0.0693504,0.0157087l0 0.0355354c0.0949724,0.000429134 0.183937,0.00296457 0.239291,-0.025126l-0.00662205 -0.0368819c-0.000692913,-0.045 0.0151614,-0.0673346 -0.0308346,-0.0673346 -0.0336457,0.0415866 0.00151575,0.0369724 -0.0405984,0.0335 -0.101787,-0.00837795 -0.0195945,0.00199213 -0.0541299,-0.0445157 -0.0380118,0.0413386 -0.147197,0.037874 -0.207634,0.0443661zm-1.40826 -0.102882l0.10111 0.0614567c-0.0167835,0.0227835 0.0655669,0.0154252 -0.0374803,0.0238858l-0.043815 -0.0207244 -0.0257953 0.111413c0.0176339,-0.0195236 -0.0325669,-0.029563 0.0482008,-0.00369685l0.0302677 0.0150827 0.0342677 0.0276654 0.0477205 -0.22287c-0.0581102,-0.0198937 -0.0637992,-0.0303268 -0.119606,-0.0489449 -0.0230472,0.0125472 0.0141969,0.00211811 -0.0481299,0.0119488l0.0132598 0.0447835zm0.548669 0.0286535c0.0102953,-0.0411378 -0.00358268,-0.0341496 0.0308937,-0.0341496 0.00944094,0.0847087 0.0109882,0.0614724 0.0315591,0.0735039 0.0597362,-0.0118228 0.0784094,-0.0353189 0.0829291,-0.0657087l-8.66142e-005 -0.031185c-0.0067126,-0.0463189 -0.00671654,0.00187795 -0.00875197,-0.025878l0.0174843 -0.0560315 -0.00864173 -1.9685e-005 -0.036622 0.0233228c-0.00515748,-0.051189 0.00635039,-0.0267087 -0.0365394,-0.0375472 -0.0348307,0.0127677 -0.0869134,0.0388189 -0.109594,0.0838228l0.0373701 0.0698701zm-0.882909 -0.123232c0.0237087,0.0212283 0.00912205,0.018378 0.0158543,-0.0179252l-0.0486929 -0.0819764c-0.00165354,-0.00805118 -0.00651181,-0.00917323 -0.00997638,-0.0135945l-0.0292165 -0.0394567c-0.0247126,-0.0360315 -0.00741339,-0.0175551 -0.0327323,-0.0461535 -0.0680787,0.0196693 -0.0421181,-0.0575197 -0.0477756,0.0742913 -0.0138858,0.0102008 -0.0119803,0.0324646 -0.0178189,0.0533622 0.0834882,0.052815 0.0604921,0.0409252 0.0581339,0.106909l0.033622 -0.0261024c0.00385433,-0.00227165 0.0157362,-0.00929528 0.0179803,-0.00954724l0.060622 0.000192913zm1.4142 -1.01783c0.0224685,0.0297402 0.022685,0.0250512 0.0341496,0.0734094l-0.015 0.0110276c-0.000413386,-0.00255512 -0.00367717,0.00455118 -0.00555906,0.00678346l0.0230709 0.0485984c-0.035689,0.0172638 -0.00430315,-0.00742126 -0.0316811,0.0561457l0.00912992 0.0401496 0.00977165 -0.00226378 0.00495276 -0.0199291 0.0346496 0.055811c0.0496299,0.0317992 0.0795039,0.0048937 0.0890787,-0.0354055 0.0150669,-0.0634213 0.000874016,-0.0272559 -0.0507835,-0.0980236 -9.05512e-005,-0.000129921 -0.0375866,-0.137024 -0.10178,-0.136303zm-0.0572559 1.69716l0.0129252 0.0510079 0.0596732 -0.122843c0.0174055,0.0940039 0.0119567,0.017189 0.0340157,0.107874 0.0529606,-0.0129567 0.0490394,-0.0118898 0.058748,-0.0391535 -0.0152913,-0.0329646 0.00799606,-0.0154606 -0.0253307,-0.0728583 0.0387638,0.0268465 0.0270433,0.023315 0.0694252,0.0286693l-0.0405118 -0.110791 -0.0209843 0.0387244 -0.142256 -0.0140472 0.00791732 0.0970787c-0.00522835,0.0442441 0.00466535,0.00709843 -0.013622,0.0363386zm-1.34201 -1.91579l0.193594 -0.00487008 -0.00212205 0.000570866c0.0880512,-0.0302953 0.0756811,-0.061378 0.161181,-0.0768858 0.0737756,-0.0133819 0.033122,0.00840945 0.0668386,-0.0109449 0.00345669,-0.00198031 0.0376575,-0.028122 0.0509921,-0.0506575l-0.366252 0.082811c-0.123776,0.0347913 -0.0907953,0.041311 -0.104232,0.0599764zm0.232949 1.2325c-0.0297559,0.0252283 -0.0544528,0.0699606 -0.000149606,0.0486969l-0.0697717 -0.0248976 0.00934252 0.0850472 -0.0151969 0.0224291c-0.000299213,-0.00174016 -0.00383071,0.00247244 -0.0045315,0.00447638 0.0266614,0.0398583 0.018126,0.0519921 0.0646929,0.0732756l0.0321063 0.00835039 0.0316575 -0.142142c0.0354331,0.0204882 0.0129685,0.00171654 0.0382087,0.0233071l-0.0132598 -0.0447835c-0.0267598,-0.0463268 -0.0476693,-0.0691339 -0.0730984,-0.0537598zm1.46602 0.35065l0.138815 0.0452087c-0.0042126,0.00206693 -0.0110709,-4.33071e-005 -0.0131496,0.00500787 -0.0191063,0.0463543 0.0235197,-0.000291339 -0.0746496,0.0112244 0.0271063,0.0185276 0.0156535,0.0119016 0.0200827,0.063689l0.0568858 -0.0169882 0.112669 -0.016689 0.00775197 -0.0236811c0.116969,0.0502598 0.0980748,0.00956693 0.220878,-0.000122047l-0.0970472 -0.00725591c-0.154346,-0.000169291 -0.17463,-0.0525945 -0.298378,-0.0638307 -0.0460787,-0.0250827 -0.0152047,-0.00803543 -0.0345866,-0.0230276 -0.00202362,-0.00156693 -0.00756299,-0.00358661 -0.00904724,-0.0090748 -0.00145669,-0.00537402 -0.00538976,-0.00640157 -0.00809843,-0.00958661l-0.022126 0.045126zm0.240654 0.0914528c-0.0115,0.0841496 -0.0172244,0.0623071 -0.100937,0.0710079l-0.0105984 0.030248c0.102039,0.0153622 0.222185,0.0102795 0.339421,-0.00448425 0.00314567,-0.0752795 0.0096811,-0.0234606 -0.0301496,-0.0452047l-0.14826 0.0106417c-0.0396535,-0.00514567 -0.0148858,-0.00166142 -0.0440945,-0.0193622 0.0584016,-0.0424252 0.0321535,-0.0329764 0.114331,-0.0390512 0.100555,-0.00744094 0.0790984,-0.00414961 0.108917,-0.0275984 -0.122803,0.00968898 -0.103909,0.0503819 -0.220878,0.000122047l-0.00775197 0.0236811zm-0.574244 -0.489646c-0.00712598,0.0278425 0.000771654,0.0104449 -0.0140512,0.0327441 -0.000909449,0.00137008 -0.0076063,0.00822835 -0.00835433,0.00579528 -0.000759843,-0.00247244 -0.00635827,0.00266535 -0.00946063,0.00416929l-0.00440157 0.0442559 0.00148819 0.0253701c0.0559016,-0.0154724 0.0378346,-0.0038189 0.0782677,-0.0436535 0.00929528,0.037248 -0.00558661,0.000311024 0.0364016,0.0177087l-0.0133307 -0.064874c0.0489803,0.0321142 0.041378,0.0252087 0.0809961,0.0120827 -0.00282283,-0.0886929 -0.00348031,-0.0925827 -0.041374,-0.126386l-0.0437283 0.0056063c-0.0121299,0.0506496 0.000417323,0.0264449 -0.0211929,0.0557205 -0.0428543,0.0580591 -0.00773228,0.0136102 -0.0412598,0.0314606zm-0.187839 -0.943815c0.00415354,0.00438189 0.0101417,0.00512598 0.0123346,0.0132717 0.00203543,0.00755118 0.00899606,0.00968504 0.0116102,0.0121299 0.00277165,0.00259055 0.0246575,0.0217362 0.029315,0.0254094 0.0374331,0.0142598 0.0237835,0.0124724 0.0464134,0.0329213 0.00235827,0.00212992 0.00556693,0.00634252 0.00802756,0.00850394l0.0437795 0.0317087c-0.143909,0.00046063 -0.0151063,-0.00586614 -0.0710945,0.0311417l0.071185 -0.00477165c0.0185866,0.0167835 0.0132362,0.00692913 0.029622,0.0313661 0.0042126,0.00628346 0.0166732,0.0315 0.0212913,0.0403937l0.0333504 -0.00846457 -0.00912992 -0.0401496 -0.0307205 -0.0389291 0.0267677 -0.0212717 -0.0708976 -0.0626693 0.00775197 -0.0743661c-0.0684016,0.0309291 -0.0722638,0.0355315 -0.159606,0.0237756zm-1.0295 0.728059c-0.00156299,0.0488071 -0.0166496,0.0428583 0.025878,0.0362244l0.018063 0.0172244 0.0178898 0.0368701 0.0672756 -0.000346457 -0.0191969 -0.0391378 -0.0144606 -0.0491181 0.0633031 -0.00644094c0.00305118,-0.00509055 0.010063,-0.018248 0.0120512,-0.0219291 0.00174803,-0.00323622 0.0056063,-0.0104882 0.00738976,-0.0137992 0.00196457,-0.00363386 0.00526772,-0.0101811 0.00809843,-0.0151614l-0.208146 -0.0219094c0.0290984,0.0988425 0.0426969,-0.000114173 0.0218543,0.0775236zm1.1293 0.586929l0.0602953 0.217654c0.0239173,-0.0468622 0.0144961,-0.0520748 0.0260787,-0.0945945 0.0201299,-0.0739016 0.01,-0.0195827 0.0383622,-0.0813622l0.016122 -0.039622c0.0353898,0.00954331 0.0311535,0.0119094 0.0388386,0.0147913l0.0402008 0.0142047 -0.00148425 -0.0425118c-0.0116181,-0.000287402 -0.0575591,-0.00584646 -0.0594882,-0.00625591 -0.0324921,-0.00691339 -0.0259094,-0.00718898 -0.044811,-0.0163189 -0.0664803,0.0268898 -0.027,0.0628346 -0.114114,0.0340157zm-1.39978 -0.679929l0.0580945 0.207744 0.0195866 -0.0639606c0.00241339,-0.00334252 0.00476772,-0.0136299 0.00562598,-0.0110236 0.0179606,0.0544843 -0.0125197,-0.00659449 0.0414252,-0.0593228l0.0501063 -0.0439449c-0.0527087,-0.0421102 0.00879921,-0.0390906 -0.109236,-0.00794488 -0.0078937,-0.0671969 -0.00948031,-0.0194961 -0.0394528,-0.0710866l-0.0261496 0.0495394zm-0.153472 0.816988l-0.0510591 0.0598898c0.00919291,0.0584213 0.0133504,0.0835394 0.0683268,0.101028 0.0672598,-0.0822835 -0.0565512,-0.062126 0.0699921,-0.1005 0.0950236,-0.0288189 0.0625157,0.0209134 0.121417,-0.0540669l-0.00531496 -0.00680315c-0.057315,0.0103228 -0.121366,0.0284961 -0.203362,0.000452756zm0.328311 -0.787496l-0.0501063 0.0439449c-0.0539449,0.0527283 -0.0234646,0.113807 -0.0414252,0.0593228 -0.000858268,-0.0026063 -0.0032126,0.0076811 -0.00562598,0.0110236l0.018126 0.0427283c0.0302362,-0.0219606 0.0259291,-0.039937 0.0316535,3.93701e-005l0.0615827 -0.00600787 -0.0100787 -0.0695945c0.0372126,-0.020315 -0.0238543,-0.00712205 0.0596811,-0.0204764 0.00453937,-0.000724409 0.0259016,0.00229134 0.0318307,0.00252756 0.0208425,-0.0776378 0.00724409,0.0213189 -0.0218543,-0.0775236l-0.0124764 -0.0533307 -0.0256181 0.0826063 -0.035689 -0.0152598zm-0.11652 -0.804783l0.0549567 0.030689c-0.0194961,0.00543307 -0.0222323,-0.0119606 -0.0158583,0.0330354 0.0149016,-0.0150787 -0.00862205,-0.031748 0.0462756,0.0129803 0.0339134,-0.0277638 0.0736063,-0.0942165 0.10915,-0.131201 -0.0184449,-0.00842126 0.00561024,0.00212205 -0.0422992,-0.00702756 -0.0272992,-0.0052126 -0.0148583,-0.0121496 -0.0532913,-0.0099252 -0.0106772,0.00061811 -0.0493031,0.0152441 -0.0618386,0.0244409 -0.0585039,0.0429567 -0.0119409,-0.000267717 -0.0370945,0.0470079zm1.49195 0.996866l0.0437283 -0.0056063 0.0950669 0.0261693 -0.0142717 -0.0439685 0.0305433 -0.093311 -0.0952441 -0.0123937c-0.0417244,0.0903307 -0.0481811,-0.0172677 -0.0598228,0.12911zm-0.508114 -0.800173c0.0367126,0.00850394 0.00688189,0.00226772 0.00718898,0.00323622l0.0107126 0.0494567 0.293181 -0.0583425c-0.00465748,-0.00367323 -0.0265433,-0.0228189 -0.029315,-0.0254094 -0.00261417,-0.00244488 -0.0095748,-0.00457874 -0.0116102,-0.0121299 -0.00219291,-0.00814567 -0.0081811,-0.00888976 -0.0123346,-0.0132717 -0.0773661,0.054878 -0.171161,0.0159134 -0.257823,0.0564606zm0.356701 1.24513l0.00092126 0.0133976c0.0871142,0.0288189 0.0476339,-0.00712598 0.114114,-0.0340157 0.0273858,-0.0800236 -0.0177559,-0.00115748 0.0230866,-0.0413031 0.0316339,-0.0310866 0.0802559,-0.0327835 0.1205,-0.0391575 -0.0862992,-0.0341181 -0.0351063,0.00559055 -0.0466063,-0.0536693l-0.0502992 0.0149843c-0.0306535,0.0345276 -0.00369291,0.00501575 -0.0228661,0.00925984 -0.124228,0.0275197 -0.0219173,-0.0104646 -0.0738898,-0.019937 0.0256772,0.0512559 0.0149331,0.0264055 0.00988189,0.0516772 -0.00834646,0.0417953 0.0266693,0.0426102 -0.0197677,0.0774134 -0.0710354,0.053248 -0.0528622,0.0205591 -0.0550748,0.0213504zm0.41448 0.0788583c0.030748,0.0284724 0.0492362,0.0628268 0.0474252,0.11376l-0.0166457 0.0733819 0.069815 -0.00252362c-0.0216654,-0.0453543 -0.0153504,-0.0297047 -0.0214252,-0.0979291 -0.00442913,-0.0517874 0.00702362,-0.0451614 -0.0200827,-0.063689 0.0981693,-0.0115157 0.0555433,0.0351299 0.0746496,-0.0112244 0.00207874,-0.00505118 0.00893701,-0.00294094 0.0131496,-0.00500787l-0.138815 -0.0452087 -0.00807087 0.0384409zm0.446461 0.104579l0.0466142 -0.0188346c0.0071811,-0.0951181 0.00442913,-0.0217402 -0.0157205,-0.0565354 -0.0298189,0.0234488 -0.0083622,0.0201575 -0.108917,0.0275984 -0.0821772,0.0060748 -0.0559291,-0.00337402 -0.114331,0.0390512 0.0292087,0.0177008 0.00444094,0.0142165 0.0440945,0.0193622l0.14826 -0.0106417zm-1.89503 -1.4111l0.112394 -0.019689 -0.0925236 0.00448031c0.0508858,-0.073626 0.0597756,-0.0982244 0.13578,-0.11572l0 -0.0196614 -0.0350512 -0.00106693 0.00750787 -0.0264449c-0.0504724,0.00900787 -0.0204921,-0.00076378 -0.0663819,0.0222323l-0.0567992 0.0300236 -0.0049252 0.125846zm0.662984 -0.158665c0.00994488,0.0142953 -0.0177874,0.0050748 0.0225591,0.0268189 0.0369882,0.0199291 -0.0206811,-0.00088189 0.0352047,0.00866929 0.0326811,-0.0510197 0.0141575,0.00383858 0.0284331,-0.0780118 -0.0429724,-0.0159803 -0.0258307,0.00737008 -0.0535039,-0.0463346l-0.000877953 -0.0799252c-0.0720039,0.0429646 -0.0414764,0.0971299 -0.0335118,0.150827 0.000665354,0.00451181 0.00152362,0.0119449 0.00169685,0.0179567zm0.619878 1.48538l-0.00554724 0.0602205c0.0437717,-0.0307244 0.0814764,-0.0723583 0.139354,-0.0438622 0.0041063,0.00385039 0.0103543,0.00483465 0.0117441,0.0121181 0.0011811,0.00619685 0.0085315,0.00847638 0.0100039,0.0102874 0.046878,0.057685 -0.0275315,-0.0146654 0.0252047,0.0310669l0.032374 0.0237362c0.00181102,-0.0509331 -0.0166772,-0.0852874 -0.0474252,-0.11376l-0.0951102 -0.0118543c-0.0640512,0.0105236 -0.0171496,-0.0147362 -0.0705984,0.0320472zm-0.124898 -1.28738l0.0356339 0.00405512 -0.0230709 -0.0485984c0.00188189,-0.00223228 0.00514567,-0.00933858 0.00555906,-0.00678346l0.015 -0.0110276c-0.0114646,-0.0483583 -0.0116811,-0.0436693 -0.0341496,-0.0734094 -0.0218661,-0.006 -0.016685,0.0126378 -0.0167874,-0.0316457 -0.0102205,0 -0.0256575,-0.000137795 -0.0279528,0.0125669 -0.0018622,0.0103071 -0.011,0.0125039 -0.017378,0.0178071l-0.00775197 0.0743661 0.0708976 0.0626693zm-1.0935 0.610075l0.0260945 0.0574055 -0.074937 -0.00184646 0.0191969 0.0391378 0.0326063 0.028626c0.031126,-0.0188031 0.0678504,-0.0358425 0.0995984,-0.0502874l-0.0750197 -0.123925c-0.00283071,0.00498031 -0.00613386,0.0115276 -0.00809843,0.0151614 -0.00178346,0.00331102 -0.00564173,0.010563 -0.00738976,0.0137992 -0.00198819,0.0036811 -0.009,0.0168386 -0.0120512,0.0219291zm1.24468 0.904016c-0.0423819,-0.00535433 -0.0306614,-0.00182283 -0.0694252,-0.0286693 0.0333268,0.0573976 0.0100394,0.0398937 0.0253307,0.0728583 0.0881969,-0.0530472 0.0718228,-0.0124409 0.171882,-0.0447756 -0.00479921,-0.0535197 0.00775984,-0.0583228 0.0127402,-0.114736 -0.0912795,0.12965 -0.0859409,0.044685 -0.0956181,0.0336299l-0.0449094 0.0816929zm-1.491 0.168291c0.0187362,-0.0255748 -0.0401772,-0.0343937 -0.0791339,-0.0492992l0.0336693 -0.0858661 0.15498 -0.0232283c-0.046748,0.00442913 -0.0394843,0.0182953 -0.0394843,-0.0203307l-0.170031 0.0170157c-0.0249134,0.111799 0.0156378,0.148724 0.1,0.161709zm0.978169 -0.958728c-0.0499331,0.0281732 -0.0734449,0.0792717 -0.098437,0.127949 0.0428898,0.0108386 0.0313819,-0.0136417 0.0365394,0.0375472l0.036622 -0.0233228 -0.00431496 -0.054063c0.105236,-0.046689 0.0294764,-0.0758307 0.096685,-0.0724213 -0.0563504,0 -0.000968504,0.00748819 -0.0259724,-0.0491378 -0.0172992,0.0232283 -0.0202638,0.0191024 -0.041122,0.0334488zm-1.12274 -1.03563c0.0509094,0.0063937 0.0411772,-0.00920079 0.0411772,0.0357165 -0.0758307,0.0206535 -0.0217087,0.0124094 -0.021189,0.0227638 0.0251535,-0.0472756 -0.0214094,-0.00405118 0.0370945,-0.0470079 0.0125354,-0.00919685 0.0511614,-0.0238228 0.0618386,-0.0244409 0.0384331,-0.00222441 0.0259921,0.0047126 0.0532913,0.0099252 0.0479094,0.00914961 0.0238543,-0.0013937 0.0422992,0.00702756 0.0268228,-0.015874 0.0172047,-0.00608661 0.0376929,-0.0235276 0.0294094,-0.0250394 0.00957874,-0.00920079 0.0254961,-0.027752l-0.193594 0.00487008c-0.0344646,0.00520472 -0.0197677,-0.00320472 -0.0537323,0.0146969 -0.0174134,0.00916929 -0.0200118,0.0179803 -0.030374,0.0277283zm1.48619 1.5554l0.0245984 0.0772402c0.0630709,-0.0305236 0.0397598,0.0269961 0.0551575,-0.0494606l0.0476614 0.0022874 -0.00430315 0.0138898c0.0534488,-0.0467835 0.00654724,-0.0215236 0.0705984,-0.0320472 -0.0208543,-0.0054685 -0.0785315,-0.0166929 -0.0985512,-0.0225354l-0.0402008 -0.0142047c-0.00768504,-0.00288189 -0.00344882,-0.00524803 -0.0388386,-0.0147913l-0.016122 0.039622zm-0.312594 0.226882c0.0625276,-0.0186457 0.0749331,-0.025874 0.11248,-0.0657756 -0.0152598,-0.0159409 0.0299843,-0.0406457 -0.13148,-0.0340394 -0.000464567,0.00411811 -0.00120079,0.00647244 -0.000980315,0.0124094l0.0048937 0.0374488c0.0135039,0.0562205 0.00165354,-0.0112362 0.0150866,0.0499567zm0.538764 -0.919224c-0.0566654,-0.0205787 -0.0177441,0.0357165 -0.0522638,-0.0665354l-0.0499764 0.0102953 -0.00709449 0.112748 0.0952953 -0.00623228 0.0140394 -0.0502756zm0.0708858 0.556835l0.00933465 0.0466732 0.119622 -0.0146102c0.0373189,-0.00706693 0.0392756,-0.0015315 0.0693504,-0.0157087 0.0513465,-0.0242008 0.0126142,-0.00397638 0.0342047,-0.0329961l-0.232512 0.0166417zm-1.63253 -0.405575l0.0687323 0.00766535c0.0223701,-0.0289449 0.0171181,-0.0201024 0.0566417,-0.0417598l-0.018063 -0.0172244c-0.0425276,0.00663386 -0.0274409,0.0125827 -0.025878,-0.0362244 -0.00592913,-0.00023622 -0.0272913,-0.00325197 -0.0318307,-0.00252756 -0.0835354,0.0133543 -0.0224685,0.000161417 -0.0596811,0.0204764l0.0100787 0.0695945zm0.468217 -0.915106c-0.0358425,0.00205906 -0.0418228,-0.0247087 -0.0225748,0.0154252l0.0180472 0.0743937c0.0458189,-0.0337283 0.0509803,-0.0078937 0.0663228,-0.0692087l-0.000248031 0.000377953 0.0435787 0.0124173 -0.027815 -0.0434449c-0.0278425,-0.0208071 -0.0447717,0.0129724 -0.0136299,-0.0288307l-0.0636811 0.0388701zm0.128484 -0.183445l0.0533543 -0.0152165c0.0115079,-0.0576339 0.0225,-0.056185 0.0417795,-0.123984l-0.0692126 0.00248819 -0.0259213 0.136713zm-0.902756 1.25792l-0.00651969 0.021752 0.0905354 0.069874c7.08661e-005,-5.90551e-005 0.0129213,-0.00224803 0.0235984,-0.0326811 -0.054748,-0.0952165 -0.0281969,-0.0723346 -0.0712283,-0.0775039 -0.0750591,-0.00902362 -0.00688189,-0.0100236 -0.0363858,0.0185591zm1.21131 -0.173488c-0.0108898,-0.0548268 0.00956693,-0.00287795 -0.0180472,-0.0422362 -0.0390787,-0.0557008 -0.000271654,0.0194606 -0.0287362,-0.0312756 0.0423031,-0.0385669 0.00721654,-0.00674803 0.0297717,-0.0549882l-0.0662677 0.00261811 -0.0081811 0.0879094c0.0321102,0.0227402 0.00275197,0.00799606 0.0499843,0.0265866 0.00720866,0.00283858 0.0312913,0.00822835 0.0414764,0.0113858zm-0.791051 0.655197c0.0193622,0.0128819 0.0173071,0.00707087 0.0429646,0.0311732 0.0334724,-0.0682953 -0.0741457,-0.101673 -0.105295,-0.151579 -0.0566811,-0.0147165 -0.00803937,-0.00507087 -0.0312008,0.0120118 0.0183622,0.0271614 0.0203071,0.0291969 0.0489646,0.0570039 0.00559055,0.0054252 0.0243268,0.0219921 0.026815,0.0247953 0.0188189,0.0212441 0.00989764,0.0121024 0.017752,0.0265945zm0.757193 -1.63028c0.0276732,0.0537047 0.0105315,0.0303543 0.0535039,0.0463346l0.0347047 -0.0362362c0.000393701,0.00189764 0.000799213,0.00325197 0.00102362,0.00573228l0.0512953 0.0287441 0.0120984 -0.0161575c-0.00815748,-0.00616929 -0.021374,-0.0102323 -0.027248,-0.0140945 -0.0044252,-0.00290157 -0.0193071,-0.00866142 -0.0193543,-0.0279331l-0.0197913 -0.0114252 -0.0477165 -0.010378c-0.00335433,0.0048937 -0.0266614,0.0282165 -0.0385157,0.0354134zm0.888949 1.62375c0.000775591,0.0063937 0.00153937,0.00983071 0.00222047,0.0191929 0.000570866,0.00782677 0.00190551,0.012937 0.00268898,0.0159331 0.000570866,0.0021811 0.0026063,0.00926772 0.00318898,0.0113189 0.000437008,0.00151181 0.00212598,0.00540551 0.00363386,0.00787402 0.0837126,-0.00870079 0.089437,0.0131417 0.100937,-0.0710079l-0.112669 0.016689zm-0.959917 -1.55619l0.0382756 0.0212953c-0.000173228,-0.00601181 -0.0010315,-0.0134449 -0.00169685,-0.0179567 -0.00796457,-0.0536969 -0.0384921,-0.107862 0.0335118,-0.150827l0.000877953 0.0799252c0.0118543,-0.00719685 0.0351614,-0.0305197 0.0385157,-0.0354134l0.0209528 -0.0662598c0.000464567,-0.000582677 0.00340157,-0.00395669 0.00379528,-0.00448425 0.000271654,-0.000370079 0.00162992,-0.0034252 0.0018189,-0.0037126 0.000161417,-0.000244094 0.000633858,-0.00224803 0.000897638,-0.00338583 -0.0553937,-0.0182126 -0.0033189,-0.00527559 -0.052311,-0.00920472l-0.0376063 -0.00829921c0.0397047,0.0313976 0.0347362,0.00483858 -0.0470315,0.198323zm-0.227051 -0.0333937c0.0909016,0.0367835 0.0625827,-0.0137126 0.0692047,-0.0268386l-0.0159213 -0.0333346 -0.0408543 -0.0693858 -0.0124291 0.129559zm0.323091 0.0901772c0.0471575,-0.0125433 0.053437,-0.0300709 0.0255039,0.0136772 -0.0239016,0.0336142 -0.0233386,0.0209685 0.019815,0.0275315 0.000129921,-0.0555748 0.0256181,-0.0465394 0.0259055,-0.0470039l0.0618858 -0.0427717c-0.0432638,-0.00739764 -0.0849528,-0.00676772 -0.104677,-0.0294449 -0.0142756,0.0818504 0.00424803,0.0269921 -0.0284331,0.0780118zm0.223406 1.24491l0.0278189 0.0105079c-0.000161417,-0.000720472 -0.016374,-0.0661378 -0.0162402,-0.0685591 0.00490945,-0.0853307 -0.0209685,-0.0331024 0.0287047,-0.0532087l-0.00476772 -0.0120945c-0.0421024,-0.0131142 -0.0353386,0.0435551 -0.0353386,-0.0155276 -0.00319685,0.0209685 0.00395276,0.0107244 -0.0144055,0.0274528 -0.0468189,-0.0178425 -0.0453937,0.0270315 -0.033315,-0.0299803l-0.013 0.0337598c0.00164173,0.00359055 0.00433858,0.00937008 0.00523228,0.0130236 0.00392913,0.0160591 -0.0178268,0.030248 -0.019626,0.045878l0.0391575 -0.0273898c0.00319291,-0.0104882 0.0120394,-0.0106378 0.0179606,-0.0160709l0.0178189 0.0922087zm0.583587 0.27148c0.0060748,0.0682244 -0.000240157,0.0525748 0.0214252,0.0979291l0.0365945 -0.0303504 0.0105984 -0.030248c-0.00150787,-0.0024685 -0.00319685,-0.0063622 -0.00363386,-0.00787402 -0.000582677,-0.00205118 -0.00261811,-0.0091378 -0.00318898,-0.0113189 -0.000783465,-0.00299606 -0.00211811,-0.0081063 -0.00268898,-0.0159331 -0.000681102,-0.0093622 -0.00144488,-0.0127992 -0.00222047,-0.0191929l-0.0568858 0.0169882zm-1.23978 -1.47682l0.0287756 0.0355669 0.0510827 -0.0309488 -0.027752 -0.0100433c0.0550433,-0.0219173 0.0475079,-0.012685 0.0703819,-0.0408937l-0.0128346 -0.0100945 -0.0435787 -0.0124173 0.000248031 -0.000377953c-0.0153425,0.061315 -0.0205039,0.0354803 -0.0663228,0.0692087zm1.02206 0.842913l0.0142717 0.0439685 0.0457953 -0.0151299 0.0107205 -0.0700591c-0.000374016,-0.0368189 0.000858268,-0.0184213 -0.00895276,-0.0384685 -0.0307441,0.0468504 -0.0284764,0.0519252 -0.0618346,0.079689zm1.00288 0.668134l0.00175197 -0.103752 -0.0895709 0.0152756c0.0467126,0.0226614 0.0711063,0.0280591 0.0434213,0.082l0.0443976 0.00647638zm-0.387724 0.0288701l0.10602 -0.00772835 0 -0.0336732c-0.0716732,-0.00205118 -0.0714803,0.035748 -0.0895551,-0.0226378l-0.0466142 0.0188346c0.0398307,0.0217441 0.0332953,-0.0300748 0.0301496,0.0452047zm-1.76953 -1.6069l0 0.0196614c0.0844488,-0.00421654 0.0488346,0.00145669 0.114268,-0.0270748 -0.019248,-0.0401339 -0.0132677,-0.0133661 0.0225748,-0.0154252 -0.0295236,-0.0245118 0.0370394,-0.051374 -0.0703071,-0.00346457 -0.0485669,0.0216772 -0.0187992,0.0147638 -0.0665354,0.0263031zm1.53722 1.22508c0.0345354,0.0465079 -0.0476575,0.0361378 0.0541299,0.0445157 0.0421142,0.00347244 0.00695276,0.00808661 0.0405984,-0.0335 -0.0248976,-0.034878 -0.0427402,-0.0202165 -0.0947283,-0.0110157zm-1.95013 -0.153094l-0.0189055 0.0415866c0.0142126,-0.000704724 -0.00441339,-0.00820472 0.0298346,0.00601969l0.0480945 0.0235709c0.00161811,-0.0324843 0.00476772,-0.0129843 -0.00297638,-0.0477992 -0.00192913,-0.00867717 -0.013874,-0.029748 -0.0194567,-0.040874l-0.0207362 -0.000429134c-0.00673228,0.0363031 0.00785433,0.0391535 -0.0158543,0.0179252zm1.63863 -0.686563l-0.071689 -0.0104961 0.00873622 0.0774252c0.000409449,-0.000110236 0.0519567,0.00474016 0.0629528,-0.0669291zm-1.36574 0.470134l0.074937 0.00184646 -0.0260945 -0.0574055 -0.0633031 0.00644094 0.0144606 0.0491181zm0.832685 -0.924075l-0.0120984 0.0161575c0.0247126,-0.00807874 0.0458465,0.0512992 0.0362402,-0.0503661 -0.00925591,-0.0979528 -0.0130984,-0.0373898 -0.0473071,-0.0491142l0.0231654 0.0833228zm1.27571 1.65172c0.0263819,0.0212283 -0.031622,0.0126535 0.0342283,0.0186772 0.0448622,0.00410236 0.0408622,-0.00796457 0.0495827,-0.0128622l0.0193701 0.00948425c0.00524016,-0.0426614 0.0247835,-0.0137165 -0.0196535,-0.0462598 -0.0497992,-0.0364764 -0.0220433,-0.0200945 -0.0335315,-0.00108661l0.0048189 0.0261929 -0.054815 0.00585433zm-1.37483 -1.63381c0.0197244,0.0226772 0.0614134,0.0220472 0.104677,0.0294449l-0.0176535 -0.0312047 -0.0512953 -0.0287441c-0.000224409,-0.00248031 -0.000629921,-0.00383465 -0.00102362,-0.00573228l-0.0347047 0.0362362zm0.099122 -0.0179173l-0.0231654 -0.0833228c-0.047752,-0.0337874 -0.000472441,-0.00405906 -0.0418976,-0.00414961l-0.00133071 0.0340197 0.0197913 0.0114252c4.72441e-005,0.0192717 0.0149291,0.0250315 0.0193543,0.0279331 0.00587402,0.0038622 0.0190906,0.0079252 0.027248,0.0140945zm-0.759213 1.44215l0.0825472 0.0224764 -0.018626 0.0453898 0.0290433 -0.0311614 0.00167717 -0.0286929 -0.0342677 -0.0276654 -0.0654213 -0.00415354 0.00504724 0.0238071zm0.331886 -1.57992l-0.0108898 0.0139606 0.0408543 0.0693858 0.0233898 -0.098563 -0.0533543 0.0152165zm0.431866 0.72961c0.0256535,-0.0207638 0.0293622,-0.00153937 0.0173346,-0.0687126 -0.0155236,-0.086685 -0.0306693,-0.0583189 -0.0339961,-0.0625276l0.0166614 0.13124zm1.17836 1.07584l0.092811 -0.0159606 -0.000633858 -0.0304331 -0.0921772 0.0127205 0 0.0336732zm-2.14303 0.0944134c0,0.038626 -0.00726378,0.0247598 0.0394843,0.0203307 0.0369961,-0.0696929 0.0543228,0.00974409 0.0518268,-0.0977283 -0.0602008,0.0745079 -0.0129961,0.0531063 -0.091311,0.0773976zm1.46617 -0.165287c0.00297244,0.139031 -0.000669291,0.0357402 0.0530748,0.0780394 -0.0554882,-0.100677 -0.0609921,-0.0441772 0.00180315,-0.0887244l-0.054878 0.010685zm-0.192417 -1.27817c0.027378,-0.0635669 -0.00400787,-0.0388819 0.0316811,-0.0561457l-0.0356339 -0.00405512 -0.0267677 0.0212717 0.0307205 0.0389291zm0.962094 1.33308l0.054815 -0.00585433 -0.0048189 -0.0261929 -0.0506299 0.00161417 0.000633858 0.0304331zm-1.03283 -0.52002c0.00310236,-0.00150394 0.00870079,-0.00664173 0.00946063,-0.00416929 0.000748031,0.00243307 0.00744488,-0.0044252 0.00835433,-0.00579528 0.0148228,-0.0222992 0.0069252,-0.00490157 0.0140512,-0.0327441 -0.0171654,0.0101299 -0.0192913,-0.0467008 -0.0318661,0.0427087zm-0.111516 0.0857795l0.00476772 0.0120945 0.0889803 -0.0608819 -0.093748 0.0487874z"/>
 </g>
</svg>
