<?xml version="1.0" encoding="UTF-8"?>
<!DOCTYPE svg PUBLIC "-//W3C//DTD SVG 1.1//EN" "http://www.w3.org/Graphics/SVG/1.1/DTD/svg11.dtd">
<!-- Creator: CorelDRAW -->
<svg xmlns="http://www.w3.org/2000/svg" xml:space="preserve" width="2.64632in" height="1.83169in" style="shape-rendering:geometricPrecision; text-rendering:geometricPrecision; image-rendering:optimizeQuality; fill-rule:evenodd; clip-rule:evenodd"
viewBox="0 0 2.64632 1.83169"
 xmlns:xlink="http://www.w3.org/1999/xlink">
 <defs>
  <style type="text/css">
   <![CDATA[
    .str0 {stroke:#373435;stroke-width:0.00694489}
    .fil0 {fill:#373435}
   ]]>
  </style>
 </defs>
 <g id="Layer_x0020_1">
  <metadata id="CorelCorpID_0Corel-Layer"/>
  <g id="_294597448">
   <path id="_294598144" class="fil0" d="M2.60607 1.14832l-1.80836 0 0 -0.851556 -0.380347 0 -0.417363 0.360146 0 0.737119c0,0 0.0235709,0.121173 0.164929,0.114441l0.0337796 -0.126063c0,0 0.0705552,-0.166772 0.31963,-0.156673 0,0 0.201957,0.0101063 0.259174,0.269272l1.11409 0c0,0 0.0504843,-0.249075 0.323123,-0.272638 0,0 0.245701,0.0134725 0.275996,0.282737 0,0 0.168296,0.0269134 0.154831,-0.0976143l-0.0370276 -0.0100945 -0.00245276 -0.249075zm-2.5051 -0.252437l0 -0.225508 0.319752 -0.302934 0.29956 0 0 0.525076 -0.619312 0.00336615z"/>
   <path id="_294598384" class="fil0 str0" d="M0.472902 1.27286c0.153351,0 0.277674,0.124323 0.277674,0.277678 0,0.153351 -0.124323,0.277674 -0.277674,0.277674 -0.153355,0 -0.277678,-0.124323 -0.277678,-0.277674 0,-0.153355 0.124323,-0.277678 0.277678,-0.277678zm0 0.117973c0.0882009,0 0.159705,0.0715001 0.159705,0.159705 0,0.0882009 -0.071504,0.159705 -0.159705,0.159705 -0.0882049,0 -0.159705,-0.071504 -0.159705,-0.159705 0,-0.0882049 0.0715001,-0.159705 0.159705,-0.159705z"/>
   <path id="_294598312" class="fil0 str0" d="M2.20295 1.27286c0.153355,0 0.277678,0.124323 0.277678,0.277678 0,0.153351 -0.124323,0.277674 -0.277678,0.277674 -0.153351,0 -0.277674,-0.124323 -0.277674,-0.277674 0,-0.153355 0.124323,-0.277678 0.277674,-0.277678zm0 0.117973c0.0882009,0 0.159705,0.0715001 0.159705,0.159705 0,0.0882009 -0.071504,0.159705 -0.159705,0.159705 -0.0882009,0 -0.159705,-0.071504 -0.159705,-0.159705 0,-0.0882049 0.071504,-0.159705 0.159705,-0.159705z"/>
   <path id="_294598288" class="fil0" d="M1.57446 0l0 1.0951 -0.257941 0c0,0 -0.371099,-0.0724017 -0.444949,-0.222477l0 -0.664206c0,0 0.128973,-0.183788 0.415934,-0.206355l0.286957 -0.00206693z"/>
   <path id="_294597904" class="fil0" d="M1.88511 0l0 1.0951 0.257941 0c0,0 0.371099,-0.0724017 0.444949,-0.222477l0 -0.664206c0,0 -0.128973,-0.183788 -0.415934,-0.206355l-0.286957 -0.00206693z"/>
   <rect id="_294598024" class="fil0" transform="matrix(1.3039 -1.42802 1.42802 1.3039 1.56683 0.0955692)" width="0.0610946" height="0.178048" rx="0.966879" ry="0.966879"/>
   <rect id="_294597712" class="fil0" transform="matrix(1.3039 -1.42802 1.42802 1.3039 1.5607 0.311233)" width="0.0610946" height="0.178048" rx="0.966879" ry="0.966879"/>
   <rect id="_294597304" class="fil0" transform="matrix(1.3039 -1.42802 1.42802 1.3039 1.56377 0.510432)" width="0.0610946" height="0.178048" rx="0.966879" ry="0.966879"/>
   <rect id="_294597472" class="fil0" transform="matrix(1.3039 -1.42802 1.42802 1.3039 1.56683 0.7035)" width="0.0610946" height="0.178048" rx="0.966879" ry="0.966879"/>
   <rect id="_294597184" class="fil0" transform="matrix(1.3039 -1.42802 1.42802 1.3039 1.56377 0.908823)" width="0.0610946" height="0.178048" rx="0.966879" ry="0.966879"/>
  </g>
 </g>
</svg>
