<?xml version="1.0" encoding="UTF-8"?>
<!DOCTYPE svg PUBLIC "-//W3C//DTD SVG 1.1//EN" "http://www.w3.org/Graphics/SVG/1.1/DTD/svg11.dtd">
<!-- Creator: CorelDRAW -->
<svg xmlns="http://www.w3.org/2000/svg" xml:space="preserve" width="4.463in" height="0.829937in" style="shape-rendering:geometricPrecision; text-rendering:geometricPrecision; image-rendering:optimizeQuality; fill-rule:evenodd; clip-rule:evenodd"
viewBox="0 0 4.46301 0.829938"
 xmlns:xlink="http://www.w3.org/1999/xlink">
 <defs>
  <style type="text/css">
   <![CDATA[
    .str0 {stroke:#373435;stroke-width:0.00694489}
    .fil3 {fill:none}
    .fil5 {fill:#3D6DA6}
    .fil2 {fill:#5EB45A}
    .fil0 {fill:#3D6DA6;fill-rule:nonzero}
    .fil1 {fill:#5EB45A;fill-rule:nonzero}
    .fil4 {fill:#606062;fill-rule:nonzero}
   ]]>
  </style>
 </defs>
 <g id="Layer_x0020_1">
  <metadata id="CorelCorpID_0Corel-Layer"/>
  <g id="_258239432">
   <path id="_258239744" class="fil0" d="M0.5828 0.794725l-0.0603938 0c-0.00689371,0 -0.0124606,-0.00177953 -0.0166851,-0.00522835 -0.00422441,-0.00344488 -0.00779528,-0.00753938 -0.00967717,-0.0127913l-0.14713 -0.410237 -0.206878 0 -0.0400394 0.106106c-0.00177953,0.00444882 -0.00489371,0.00856694 -0.00934253,0.0123465 -0.00444882,0.00378347 -0.0100118,0.00567323 -0.0166851,0.00567323l-0.0603938 0 0.190528 -0.480489 0.0790788 0 0.297618 0.784619zm-0.419741 -0.484315l0.164835 0 -0.0660709 -0.175512c-0.00266929,-0.00644882 -0.00533859,-0.014126 -0.00811812,-0.0230236 -0.00277953,-0.00889765 -0.00555906,-0.0184606 -0.00822835,-0.0286929 -0.00266929,0.0104528 -0.00533859,0.0200197 -0.00812205,0.0288071 -0.00277953,0.00878347 -0.00544882,0.0165709 -0.00789764,0.0232441l-0.0663977 0.175177zm0.689036 0.0730749c0.00422441,0 0.00789764,0.00166929 0.0110118,0.00500788l0.0310315 0.0337008c-0.0195788,0.0235788 -0.0436024,0.0417087 -0.0720749,0.0545 -0.0284725,0.0127874 -0.0625079,0.0192402 -0.102102,0.0192402 -0.0351496,0 -0.0668465,-0.00611812 -0.0952087,-0.0182402 -0.0283622,-0.0121221 -0.0526103,-0.0290315 -0.07263,-0.0507205 -0.0200197,-0.021689 -0.0353701,-0.0474922 -0.0461575,-0.0775237 -0.0107913,-0.0300276 -0.0162402,-0.063063 -0.0162402,-0.0990985 0,-0.0360355 0.00578347,-0.0691812 0.0172402,-0.0993229 0.0114567,-0.0301418 0.0275827,-0.0560591 0.0483819,-0.0777481 0.0207992,-0.021689 0.0457126,-0.0384843 0.0747442,-0.0504961 0.0290276,-0.0120118 0.0609489,-0.0180158 0.0958741,-0.0180158 0.0347008,0 0.0654016,0.00555906 0.0919843,0.0167953 0.0265827,0.0112323 0.0496063,0.0262481 0.0691812,0.0449331l-0.0256929 0.0363701c-0.00177953,0.00244882 -0.0038937,0.00455906 -0.00633859,0.00633859 -0.00244882,0.00177953 -0.00578741,0.00266929 -0.0100118,0.00266929 -0.00444882,0 -0.00945276,-0.00211024 -0.015126,-0.00622835 -0.00567323,-0.00411418 -0.0129016,-0.00867324 -0.021689,-0.0136811 -0.00878741,-0.00500394 -0.0197992,-0.009563 -0.0330355,-0.0136772 -0.0132362,-0.00411811 -0.0298071,-0.00611812 -0.0496063,-0.00611812 -0.0229095,0 -0.0439331,0.00400394 -0.063063,0.0120118 -0.0191299,0.00800788 -0.0355906,0.0196851 -0.0493819,0.0350355 -0.0137953,0.0153504 -0.0244725,0.0340355 -0.0321457,0.0560552 -0.00767324,0.0220236 -0.0115669,0.0470512 -0.0115669,0.0750788 0,0.028252 0.00400394,0.0533859 0.0120118,0.0755198 0.00800788,0.0221339 0.0190197,0.0408189 0.0330355,0.0560591 0.0140118,0.0152362 0.0304725,0.0269173 0.0493819,0.0349252 0.0189095,0.00800788 0.0392638,0.0120118 0.061063,0.0120118 0.0133465,0 0.0253583,-0.000779528 0.0359252,-0.00222441 0.0105669,-0.00144882 0.0202441,-0.00378347 0.0291418,-0.00700788 0.00889765,-0.00322441 0.0173504,-0.00722835 0.0252481,-0.0121221 0.00789371,-0.00489764 0.0156811,-0.0109016 0.0234685,-0.0180197 0.00444882,-0.00400394 0.00889765,-0.00600788 0.0133465,-0.00600788zm0.440449 -0.373378l0 0.065067 -0.149819 0 0 0.415422 -0.0777481 0 0 -0.415422 -0.15015 0 0 -0.065067 0.377717 0zm0.14515 0.480489l-0.0784135 0 0 -0.480489 0.0784135 0 0 0.480489zm0.0560552 -0.480489l0.0623977 0c0.00689371,0 0.0124567,0.00166536 0.0166811,0.00511418 0.00422835,0.00344882 0.00745276,0.00778741 0.00967717,0.0129016l0.123791 0.313319c0.00311418,0.00867717 0.00634253,0.0181299 0.00956694,0.0283622 0.00322441,0.0102362 0.00611812,0.0210236 0.00878741,0.0323662 0.00244488,-0.0113425 0.00511418,-0.0221299 0.00789764,-0.0323662 0.00277953,-0.0102323 0.00578347,-0.0196851 0.00911812,-0.0283622l0.123461 -0.313319c0.00177953,-0.00444882 0.00489371,-0.008563 0.00934253,-0.0123465 0.00444882,-0.00377953 0.0100118,-0.0056693 0.0166851,-0.0056693l0.0627284 0 -0.194866 0.480489 -0.0704056 0 -0.194862 -0.480489zm0.815831 0l0 0.063063 -0.221225 0 0 0.144815 0.176847 0 0 0.061063 -0.176847 0 0 0.148484 0.221559 0 -0.000334646 0.063063 -0.299638 0 0 -0.480489 0.299638 0z"/>
   <path id="_258240008" class="fil1" d="M2.47241 0.316752l0 0.173843 -0.0780788 0 0 -0.480489 0.149484 0c0.0313662,0 0.0586142,0.00366929 0.0816379,0.0110118 0.0230236,0.00733859 0.0420433,0.0175709 0.0570591,0.0308071 0.0150158,0.0132362 0.0261378,0.0291418 0.0334803,0.0477166 0.00733859,0.0185748 0.0110118,0.0391496 0.0110118,0.0616182 0,0.0229095 -0.0038937,0.0438229 -0.0116811,0.0628426 -0.00778347,0.0190197 -0.0193543,0.0353662 -0.0347008,0.0490473 -0.0153504,0.0136811 -0.0343701,0.0243583 -0.0571693,0.0320355 -0.0228032,0.00767324 -0.0493859,0.0115669 -0.0796379,0.0115669l-0.0714056 0zm0 -0.0617323l0.0714056 0c0.0173504,0 0.0327008,-0.00222441 0.045937,-0.00667323 0.0132362,-0.00444882 0.0242441,-0.0107874 0.0330315,-0.0189055 0.00878741,-0.00812205 0.0153504,-0.0179095 0.0197992,-0.0294764 0.00444882,-0.0115669 0.00667323,-0.0244685 0.00667323,-0.0387048 0,-0.0140158 -0.00211418,-0.0265827 -0.00645276,-0.0377048 -0.00433465,-0.0111221 -0.0108976,-0.0205788 -0.0195748,-0.0283622 -0.00867324,-0.00778741 -0.0195748,-0.0137914 -0.0328111,-0.0179095 -0.0132362,-0.00411418 -0.0288071,-0.00611812 -0.0466024,-0.00611812l-0.0714056 0 0 0.183854zm0.407414 0.170173l0.199536 0 0 0.0654016 -0.277614 0 0 -0.480489 0.0780788 0 0 0.415087zm0.668682 0.0654016l-0.0603938 0c-0.00689764,0 -0.0124567,-0.00177953 -0.0166851,-0.00522835 -0.00422441,-0.00344882 -0.00745276,-0.00767324 -0.00967717,-0.0127913l-0.0400394 -0.106106 -0.0210197 -0.0560591 -0.0660709 -0.175512c-0.00266929,-0.00644882 -0.00533859,-0.014126 -0.00811812,-0.0230236 -0.00277953,-0.00889765 -0.00555906,-0.0184606 -0.00822835,-0.0286929 -0.00266929,0.0104528 -0.00533859,0.0200197 -0.00812205,0.0288071 -0.00277953,0.00878347 -0.00544882,0.0165709 -0.00789764,0.0232441l-0.0663977 0.175177 -0.0210236 0.0560591 -0.0400394 0.106106c-0.00177953,0.00444882 -0.00489371,0.00856694 -0.00934253,0.0123465 -0.00444882,0.00378347 -0.0100118,0.00567323 -0.0166851,0.00567323l-0.0603938 0 0.190528 -0.480489 0.0790788 0 0.190528 0.480489zm0.0967678 -0.480489c0.00333465,0 0.00622835,0.000110236 0.008563,0.000444882 0.00233465,0.000330709 0.00444882,0.001 0.00645276,0.00188977 0.002,0.000889765 0.00388977,0.00222441 0.0056693,0.00400394 0.00177953,0.00177953 0.00367323,0.00400394 0.00567323,0.00667323l0.264268 0.339347c-0.000665355,-0.00689764 -0.00111024,-0.0136811 -0.00144488,-0.0203543 -0.000334646,-0.00667323 -0.000555119,-0.0129016 -0.000555119,-0.0186851l0 -0.313319 0.0684016 0 0 0.480489 -0.0397048 0c-0.00600788,0 -0.0111221,-0.00111417 -0.0153504,-0.00322441 -0.00422441,-0.00211418 -0.00822835,-0.005563 -0.0120118,-0.0104567l-0.263937 -0.339012c0.000669292,0.00645276 0.00122441,0.0127913 0.00155906,0.0191299 0.000334646,0.00634253 0.000444882,0.0122362 0.000444882,0.0175748l0 0.315988 -0.0687363 0 0 -0.480489 0.0407087 0zm0.80215 0l0 0.065067 -0.149819 0 0 0.415422 -0.0777481 0 0 -0.415422 -0.15015 0 0 -0.065067 0.377717 0z"/>
   <polygon id="_258240344" class="fil2" points="1.65226,0.00476772 1.72412,0.187941 1.79504,0.0050315 "/>
   <rect id="_258239888" class="fil3 str0" x="0.658997" y="0.585607" width="3.78159" height="0.228898"/>
   <path id="_258239864" class="fil4" d="M0.972969 0.641756l0 0.0192362c-0.00590158,-0.00562599 -0.0113898,-0.00968898 -0.0164921,-0.012189 -0.00833465,-0.00413386 -0.0168425,-0.00621654 -0.0255236,-0.00621654 -0.00805513,0 -0.0158307,0.00180709 -0.0233307,0.00538189 -0.00750001,0.00361418 -0.0139252,0.00864568 -0.0192717,0.0151732 -0.00896064,0.0107638 -0.013437,0.0231969 -0.013437,0.0373268 0,0.0172244 0.00638583,0.0313229 0.0191299,0.0422953 0.0110433,0.00961812 0.0234055,0.014441 0.0370158,0.014441 0.0102441,0 0.0201024,-0.00284646 0.0296181,-0.00853938 0.00343701,-0.00204725 0.00753544,-0.0052441 0.0122913,-0.00965355l0 0.0192362c-0.0131614,0.00899213 -0.0270827,0.0135079 -0.0418071,0.0135079 -0.0101732,0 -0.0199646,-0.00215355 -0.0294095,-0.0064252 -0.00940946,-0.00427166 -0.0175354,-0.0102087 -0.0244095,-0.0178819 -0.0120473,-0.0135748 -0.0180906,-0.0292717 -0.0180906,-0.0470827 0,-0.00996458 0.00204725,-0.0195827 0.00614567,-0.0288544 0.00409843,-0.00923623 0.00986221,-0.0173268 0.0172559,-0.0242362 0.0138228,-0.012811 0.0302796,-0.0192362 0.0493071,-0.0192362 0.0100709,0 0.0195158,0.00204725 0.0284016,0.00611024 0.00350788,0.00166536 0.00770867,0.00423622 0.0126063,0.00760631z"/>
   <path id="_2582398641" class="fil4" d="M1.24052 0.62804c0.00961812,0 0.0189921,0.00208268 0.028126,0.00624804 0.00912993,0.0041693 0.0171496,0.0100354 0.0240591,0.0175354 0.0125354,0.0137165 0.0188229,0.0297599 0.0188229,0.048126 0,0.0100354 -0.00208662,0.0196536 -0.00621654,0.0288898 -0.00413386,0.0092008 -0.00996458,0.0172559 -0.0175,0.0240984 -0.0138898,0.0125315 -0.0301063,0.0188189 -0.0486103,0.0188189 -0.0101772,0 -0.0200355,-0.00215355 -0.0295512,-0.0064252 -0.00951182,-0.00427166 -0.0177441,-0.0102087 -0.0246536,-0.0178819 -0.0120118,-0.0132992 -0.0180197,-0.0292008 -0.0180197,-0.0477087 0,-0.0202756 0.00760631,-0.0375709 0.0227795,-0.0518741 0.014063,-0.0132284 0.0309725,-0.0198268 0.0507638,-0.0198268zm-0.00211811 0.0145473c-0.0078819,0 -0.0154882,0.00173622 -0.0228465,0.00517323 -0.00736221,0.00347244 -0.0137165,0.00837009 -0.0190984,0.0146536 -0.0092008,0.0106614 -0.0138189,0.0232284 -0.0138189,0.0377441 0,0.0163898 0.00590158,0.0301733 0.0177087,0.0412835 0.0111772,0.0105236 0.0241654,0.0157638 0.0389567,0.0157638 0.0079882,0 0.0157638,-0.00173622 0.0232992,-0.00517323 0.00753544,-0.00347244 0.0139921,-0.00829922 0.0194449,-0.0144449 0.0092008,-0.0105906 0.0138189,-0.0232638 0.0138189,-0.0380552 0,-0.015937 -0.00576378,-0.0295827 -0.0172914,-0.0409725 -0.0108701,-0.0106575 -0.0242362,-0.0159725 -0.0401733,-0.0159725z"/>
   <polygon id="_25823986412" class="fil4" points="1.51534,0.769221 1.51534,0.624567 1.62357,0.737902 1.62357,0.630367 1.63912,0.630367 1.63912,0.77554 1.53089,0.662205 1.53089,0.769221 "/>
   <path id="_258239864123" class="fil4" d="M1.9246 0.649705l-0.012189 0.00802363c-0.0026378,-0.00420473 -0.00506693,-0.00725985 -0.00722048,-0.00913387 -0.00440945,-0.00399213 -0.00993308,-0.00600788 -0.0165984,-0.00600788 -0.00711812,0 -0.012811,0.00229134 -0.0170827,0.00690945 -0.0039252,0.00413386 -0.00590158,0.00899607 -0.00590158,0.0145512 0,0.00603938 0.00288189,0.0110079 0.00864568,0.0149646 0.00340158,0.00222047 0.00701182,0.00420079 0.0109016,0.00590158l0.0132284 0.00576378c0.0113189,0.00503544 0.0192362,0.0103504 0.0237874,0.0159725 0.00510237,0.00625197 0.0076378,0.0137165 0.0076378,0.0223977 0,0.0128819 -0.00486221,0.0235394 -0.0145473,0.0320118 -0.00819686,0.00711812 -0.0180906,0.0106969 -0.0296221,0.0106969 -0.0145827,0 -0.0260748,-0.00559056 -0.0344764,-0.0167717 -0.00371654,-0.00496457 -0.00649607,-0.0113189 -0.00833465,-0.0191339l0.0150354 -0.00416536c0.00135433,0.0063189 0.00322835,0.0110787 0.00562599,0.0143425 0.0025,0.00343701 0.00576378,0.00617717 0.00979135,0.00819292 0.004063,0.00198032 0.00836615,0.00298425 0.0129843,0.00298425 0.00802363,0 0.0147244,-0.00281103 0.0201418,-0.00843702 0.00517323,-0.0052756 0.00774016,-0.0115945 0.00774016,-0.0189213 0,-0.00833465 -0.0038189,-0.0149331 -0.0114921,-0.0197244 -0.00354331,-0.00225591 -0.0117362,-0.00624804 -0.0246181,-0.0120118 -0.0102441,-0.00461811 -0.0174291,-0.00955119 -0.021563,-0.0148268 -0.00433859,-0.00552363 -0.00652756,-0.0119803 -0.00652756,-0.0194449 0,-0.0117362 0.00461811,-0.0209725 0.0138189,-0.0277796 0.00732678,-0.00534646 0.0157284,-0.00801969 0.0251418,-0.00801969 0.0155197,0 0.0274292,0.00722048 0.0356929,0.0216654z"/>
   <polygon id="_2582398641234" class="fil4" points="2.16715,0.644812 2.16715,0.769221 2.1516,0.769221 2.1516,0.644812 2.11802,0.644812 2.11802,0.630367 2.20094,0.630367 2.20094,0.644812 "/>
   <path id="_25823986412345" class="fil4" d="M2.43332 0.707103l0.0441339 0.0621182 -0.0189252 0 -0.0419095 -0.0609016 -0.00396063 0 0 0.0609016 -0.0155551 0 0 -0.138854 0.0224685 0c0.00794883,0 0.0144764,0.000590552 0.0195827,0.00173622 0.0051378,0.00114567 0.00968505,0.00309055 0.0137126,0.00579922 0.005,0.00340158 0.00882284,0.00791339 0.0114961,0.0136457 0.00256693,0.00555512 0.00385433,0.0114921 0.00385433,0.0177756 0,0.0136457 -0.00503544,0.0239252 -0.0150709,0.0308701 -0.00576378,0.00392126 -0.0123622,0.00621654 -0.0198268,0.00690945zm-0.0206614 -0.0124291l0.00965355 0c0.00944489,0 0.0166339,-0.00187795 0.0215984,-0.00559056 0.00604331,-0.00461811 0.009063,-0.0112165 0.009063,-0.0197599 0,-0.0090945 -0.00337008,-0.0157638 -0.0100709,-0.0200355 -0.00482678,-0.00298425 -0.0118032,-0.00447638 -0.0209725,-0.00447638l-0.00927166 0 0 0.0498622z"/>
   <path id="_258239864123456" class="fil4" d="M2.6907 0.630367l0 0.0850355c0,0.00874804 0.000523623,0.0151024 0.0015315,0.0190276 0.00176772,0.00690945 0.00579528,0.0124646 0.0121181,0.0166654 0.00614567,0.004063 0.0129134,0.00611024 0.0202402,0.00611024 0.00854331,0 0.0161457,-0.0026378 0.0228819,-0.00791339 0.00548819,-0.00440945 0.00888977,-0.0102795 0.0101732,-0.0176063 0.000590552,-0.00353937 0.000905513,-0.0089567 0.000905513,-0.0162835l0 -0.0850355 0.0155551 0 0 0.0893072c0,0.0075315 -0.000692914,0.0138189 -0.00208268,0.0188858 -0.00138977,0.00503544 -0.00371654,0.00968898 -0.00698032,0.0139606 -0.00472048,0.00618111 -0.0108662,0.0110079 -0.0184016,0.0144449 -0.00698032,0.00319292 -0.0143071,0.00479134 -0.0219803,0.00479134 -0.0111102,0 -0.0212166,-0.00316142 -0.0302796,-0.00944489 -0.00861024,-0.00604331 -0.0142677,-0.013752 -0.0170118,-0.0230906 -0.00149213,-0.00503544 -0.00222441,-0.0115276 -0.00222441,-0.0195473l0 -0.0893072 0.0155551 0z"/>
   <path id="_2582398641234567" class="fil4" d="M3.09163 0.641756l0 0.0192362c-0.00590158,-0.00562599 -0.0113898,-0.00968898 -0.0164921,-0.012189 -0.00833465,-0.00413386 -0.0168425,-0.00621654 -0.0255236,-0.00621654 -0.00805513,0 -0.0158307,0.00180709 -0.0233307,0.00538189 -0.00750001,0.00361418 -0.0139252,0.00864568 -0.0192717,0.0151732 -0.00896064,0.0107638 -0.013437,0.0231969 -0.013437,0.0373268 0,0.0172244 0.00638583,0.0313229 0.0191299,0.0422953 0.0110433,0.00961812 0.0234055,0.014441 0.0370158,0.014441 0.0102441,0 0.0201024,-0.00284646 0.0296181,-0.00853938 0.00343701,-0.00204725 0.00753544,-0.0052441 0.0122913,-0.00965355l0 0.0192362c-0.0131614,0.00899213 -0.0270827,0.0135079 -0.0418071,0.0135079 -0.0101732,0 -0.0199646,-0.00215355 -0.0294095,-0.0064252 -0.00940946,-0.00427166 -0.0175354,-0.0102087 -0.0244095,-0.0178819 -0.0120473,-0.0135748 -0.0180906,-0.0292717 -0.0180906,-0.0470827 0,-0.00996458 0.00204725,-0.0195827 0.00614567,-0.0288544 0.00409843,-0.00923623 0.00986221,-0.0173268 0.0172559,-0.0242362 0.0138228,-0.012811 0.0302796,-0.0192362 0.0493071,-0.0192362 0.0100709,0 0.0195158,0.00204725 0.0284016,0.00611024 0.00350788,0.00166536 0.00770867,0.00423622 0.0126063,0.00760631z"/>
   <polygon id="_25823986412345678" class="fil4" points="3.32929,0.644812 3.32929,0.769221 3.31374,0.769221 3.31374,0.644812 3.28016,0.644812 3.28016,0.630367 3.36308,0.630367 3.36308,0.644812 "/>
   <polygon id="_258239864123456789" class="fil4" points="3.5748,0.630367 3.5748,0.769221 3.55924,0.769221 3.55924,0.630367 "/>
   <path id="_25823986412345678910" class="fil4" d="M3.85211 0.62804c0.00961812,0 0.0189921,0.00208268 0.028126,0.00624804 0.00912993,0.0041693 0.0171496,0.0100354 0.0240591,0.0175354 0.0125354,0.0137165 0.0188229,0.0297599 0.0188229,0.048126 0,0.0100354 -0.00208662,0.0196536 -0.00621654,0.0288898 -0.00413386,0.0092008 -0.00996458,0.0172559 -0.0175,0.0240984 -0.0138898,0.0125315 -0.0301063,0.0188189 -0.0486103,0.0188189 -0.0101772,0 -0.0200355,-0.00215355 -0.0295512,-0.0064252 -0.00951182,-0.00427166 -0.0177441,-0.0102087 -0.0246536,-0.0178819 -0.0120118,-0.0132992 -0.0180197,-0.0292008 -0.0180197,-0.0477087 0,-0.0202756 0.00760631,-0.0375709 0.0227795,-0.0518741 0.014063,-0.0132284 0.0309725,-0.0198268 0.0507638,-0.0198268zm-0.00211811 0.0145473c-0.0078819,0 -0.0154882,0.00173622 -0.0228465,0.00517323 -0.00736221,0.00347244 -0.0137165,0.00837009 -0.0190984,0.0146536 -0.0092008,0.0106614 -0.0138189,0.0232284 -0.0138189,0.0377441 0,0.0163898 0.00590158,0.0301733 0.0177087,0.0412835 0.0111772,0.0105236 0.0241654,0.0157638 0.0389567,0.0157638 0.0079882,0 0.0157638,-0.00173622 0.0232992,-0.00517323 0.00753544,-0.00347244 0.0139921,-0.00829922 0.0194449,-0.0144449 0.0092008,-0.0105906 0.0138189,-0.0232638 0.0138189,-0.0380552 0,-0.015937 -0.00576378,-0.0295827 -0.0172914,-0.0409725 -0.0108701,-0.0106575 -0.0242362,-0.0159725 -0.0401733,-0.0159725z"/>
   <polygon id="_2582398641234567891011" class="fil4" points="4.12692,0.769221 4.12692,0.624567 4.23516,0.737902 4.23516,0.630367 4.25071,0.630367 4.25071,0.77554 4.14248,0.662205 4.14248,0.769221 "/>
   <polygon id="_258239480" class="fil5" points="3.24688,0.490595 3.31875,0.307422 3.38967,0.490331 "/>
  </g>
  <rect class="fil3" width="4.46301" height="0.829938"/>
 </g>
</svg>
