<?xml version="1.0" encoding="UTF-8"?>
<!DOCTYPE svg PUBLIC "-//W3C//DTD SVG 1.1//EN" "http://www.w3.org/Graphics/SVG/1.1/DTD/svg11.dtd">
<!-- Creator: CorelDRAW -->
<svg xmlns="http://www.w3.org/2000/svg" xml:space="preserve" width="4.463in" height="0.819276in" style="shape-rendering:geometricPrecision; text-rendering:geometricPrecision; image-rendering:optimizeQuality; fill-rule:evenodd; clip-rule:evenodd"
viewBox="0 0 4.46653 0.819923"
 xmlns:xlink="http://www.w3.org/1999/xlink">
 <defs>
  <style type="text/css">
   <![CDATA[
    .fil4 {fill:none}
    .fil3 {fill:#3D6DA6}
    .fil2 {fill:#5EB45A}
    .fil0 {fill:#3D6DA6;fill-rule:nonzero}
    .fil1 {fill:#5EB45A;fill-rule:nonzero}
   ]]>
  </style>
 </defs>
 <g id="Layer_x0020_1">
  <metadata id="CorelCorpID_0Corel-Layer"/>
  <g id="_258237704">
   <path id="_258238280" class="fil0" d="M0.581502 0.80456l-0.0604414 0c-0.00689915,0 -0.0124705,-0.00178093 -0.0166982,-0.00523248 -0.00422775,-0.0034476 -0.00780143,-0.00754533 -0.00968481,-0.0128014l-0.147246 -0.41056 -0.207041 0 -0.040071 0.10619c-0.00178093,0.00445233 -0.00489757,0.0085737 -0.0093499,0.0123562 -0.00445233,0.00378645 -0.0100197,0.00567771 -0.0166982,0.00567771l-0.0604414 0 0.190678 -0.480868 0.0791412 0 0.297853 0.785238zm-0.420072 -0.484698l0.164965 0 -0.0661231 -0.17565c-0.0026714,-0.00645391 -0.0053428,-0.0141371 -0.00812452,-0.0230418 -0.00278172,-0.00890467 -0.00556345,-0.0184752 -0.00823485,-0.0287156 -0.0026714,0.010461 -0.0053428,0.0200355 -0.00812846,0.0288298 -0.00278172,0.0087904 -0.00545312,0.016584 -0.00790388,0.0232625l-0.0664501 0.175316zm0.68958 0.0731325c0.00422775,0 0.00790388,0.00167061 0.0110205,0.00501183l0.031056 0.0337274c-0.0195942,0.0235974 -0.0436368,0.0417416 -0.0721318,0.0545431 -0.0284949,0.0127975 -0.0625573,0.0192554 -0.102183,0.0192554 -0.0351774,0 -0.0668993,-0.00612294 -0.0952839,-0.0182546 -0.0283846,-0.0121316 -0.0526518,-0.0290544 -0.0726873,-0.0507605 -0.0200355,-0.0217061 -0.035398,-0.0475297 -0.046194,-0.0775849 -0.0107999,-0.0300513 -0.016253,-0.0631128 -0.016253,-0.0991767 0,-0.0360639 0.00578803,-0.0692358 0.0172538,-0.0994013 0.0114657,-0.0301655 0.0276045,-0.0561033 0.0484201,-0.0778095 0.0208156,-0.0217061 0.0457487,-0.0385147 0.0748032,-0.050536 0.0290505,-0.0120213 0.060997,-0.01803 0.0959498,-0.01803 0.0347282,0 0.0654533,0.00556345 0.0920569,0.0168085 0.0266037,0.0112412 0.0496455,0.0262688 0.0692358,0.0449686l-0.0257132 0.0363988c-0.00178093,0.00245075 -0.00389678,0.00456266 -0.00634359,0.00634359 -0.00245075,0.00178093 -0.00579197,0.0026714 -0.0100197,0.0026714 -0.00445233,0 -0.00946022,-0.0021119 -0.0151379,-0.00623327 -0.00567771,-0.00411742 -0.0129118,-0.00868008 -0.0217061,-0.0136919 -0.00879434,-0.00500789 -0.0198149,-0.00957055 -0.0330615,-0.013688 -0.0132467,-0.00412136 -0.0298306,-0.00612294 -0.0496455,-0.00612294 -0.0229276,0 -0.0439678,0.0040071 -0.0631128,0.0120213 -0.019145,0.0080142 -0.0356187,0.0197006 -0.0494209,0.0350631 -0.0138062,0.0153625 -0.0244918,0.0340623 -0.0321711,0.0560994 -0.00767929,0.022041 -0.0115761,0.0470884 -0.0115761,0.0751381 0,0.0282743 0.0040071,0.053428 0.0120213,0.0755794 0.0080142,0.0221513 0.0190347,0.0408512 0.0330615,0.0561033 0.0140229,0.0152483 0.0304965,0.0269386 0.0494209,0.0349528 0.0189244,0.0080142 0.0392948,0.0120213 0.0611112,0.0120213 0.013357,0 0.0253783,-0.000780143 0.0359536,-0.00222617 0.0105753,-0.00144996 0.0202601,-0.00378645 0.0291648,-0.00701341 0.00890467,-0.00322696 0.0173641,-0.00723406 0.025268,-0.0121316 0.00789994,-0.00490151 0.0156935,-0.0109102 0.023487,-0.0180339 0.00445233,-0.0040071 0.00890467,-0.00601262 0.013357,-0.00601262zm0.440797 -0.373673l0 0.0651183 -0.149937 0 0 0.41575 -0.0778095 0 0 -0.41575 -0.150268 0 0 -0.0651183 0.378015 0zm0.145264 0.480868l-0.0784753 0 0 -0.480868 0.0784753 0 0 0.480868zm0.0560994 -0.480868l0.0624469 0c0.00689915,0 0.0124665,0.00166667 0.0166943,0.00511821 0.00423169,0.00345154 0.00745864,0.00779355 0.00968481,0.0129118l0.123889 0.313566c0.00311663,0.00868402 0.00634753,0.0181442 0.00957449,0.0283846 0.00322696,0.0102443 0.00612294,0.0210402 0.00879434,0.0323917 0.00244681,-0.0113515 0.00511821,-0.0221474 0.00790388,-0.0323917 0.00278172,-0.0102404 0.00578803,-0.0197006 0.00912531,-0.0283846l0.123558 -0.313566c0.00178093,-0.00445233 0.00489757,-0.00856976 0.0093499,-0.0123562 0.00445233,-0.00378251 0.0100197,-0.00567377 0.0166982,-0.00567377l0.0627779 0 -0.19502 0.480868 -0.0704611 0 -0.195016 -0.480868zm0.816475 0l0 0.0631128 -0.221399 0 0 0.144929 0.176986 0 0 0.0611112 -0.176986 0 0 0.148602 0.221734 0 -0.00033491 0.0631128 -0.299875 0 0 -0.480868 0.299875 0z"/>
   <path id="_258238496" class="fil1" d="M2.47261 0.32621l0 0.17398 -0.0781404 0 0 -0.480868 0.149602 0c0.0313909,0 0.0586605,0.00367219 0.0817023,0.0110205 0.0230418,0.00734438 0.0420765,0.0175847 0.0571041,0.0308314 0.0150276,0.0132467 0.0261584,0.0291648 0.0335068,0.0477542 0.00734438,0.0185895 0.0110205,0.0391805 0.0110205,0.0616668 0,0.0229276 -0.00389678,0.0438575 -0.0116903,0.0628922 -0.00778961,0.0190347 -0.0193696,0.0353941 -0.0347282,0.049086 -0.0153625,0.0136919 -0.0343972,0.0243775 -0.0572145,0.0320607 -0.0228212,0.00767929 -0.0494248,0.0115761 -0.0797007,0.0115761l-0.0714619 0zm0 -0.0617811l0.0714619 0c0.0173641,0 0.0327266,-0.00222617 0.0459733,-0.0066785 0.0132467,-0.00445233 0.0242633,-0.0107959 0.0330576,-0.0189204 0.00879434,-0.00812846 0.0153625,-0.0179236 0.0198149,-0.0294997 0.00445233,-0.0115761 0.0066785,-0.0244878 0.0066785,-0.0387353 0,-0.0140268 -0.00211584,-0.0266037 -0.00645785,-0.0377345 -0.00433807,-0.0111308 -0.0109062,-0.020595 -0.0195903,-0.0283846 -0.00868008,-0.00779355 -0.0195903,-0.0138022 -0.0328369,-0.0179236 -0.0132467,-0.00411742 -0.0288298,-0.00612294 -0.0466392,-0.00612294l-0.0714619 0 0 0.184zm0.407735 0.170308l0.199693 0 0 0.0654533 -0.277834 0 0 -0.480868 0.0781404 0 0 0.415415zm0.669209 0.0654533l-0.0604414 0c-0.00690309,0 -0.0124665,-0.00178093 -0.0166982,-0.00523248 -0.00422775,-0.00345154 -0.00745864,-0.00767929 -0.00968481,-0.0128014l-0.040071 -0.10619 -0.0210363 -0.0561033 -0.0661231 -0.17565c-0.0026714,-0.00645391 -0.0053428,-0.0141371 -0.00812452,-0.0230418 -0.00278172,-0.00890467 -0.00556345,-0.0184752 -0.00823485,-0.0287156 -0.0026714,0.010461 -0.0053428,0.0200355 -0.00812846,0.0288298 -0.00278172,0.0087904 -0.00545312,0.016584 -0.00790388,0.0232625l-0.0664501 0.175316 -0.0210402 0.0561033 -0.040071 0.10619c-0.00178093,0.00445233 -0.00489757,0.0085737 -0.0093499,0.0123562 -0.00445233,0.00378645 -0.0100197,0.00567771 -0.0166982,0.00567771l-0.0604414 0 0.190678 -0.480868 0.0791412 0 0.190678 0.480868zm0.0968442 -0.480868c0.00333728,0 0.00623327,0.000110323 0.00856976,0.000445233 0.00233649,0.00033097 0.00445233,0.00100079 0.00645785,0.00189126 0.00200158,0.000890467 0.00389284,0.00222617 0.00567377,0.0040071 0.00178093,0.00178093 0.00367613,0.0040071 0.00567771,0.0066785l0.264477 0.339615c-0.00066588,-0.00690309 -0.00111111,-0.0136919 -0.00144602,-0.0203704 -0.00033491,-0.0066785 -0.000555557,-0.0129118 -0.000555557,-0.0186998l0 -0.313566 0.0684556 0 0 0.480868 -0.0397361 0c-0.00601262,0 -0.0111308,-0.00111505 -0.0153625,-0.00322696 -0.00422775,-0.00211584 -0.00823485,-0.00556739 -0.0120213,-0.010465l-0.264146 -0.33928c0.00066982,0.00645785 0.00122538,0.0128014 0.00156029,0.019145 0.00033491,0.00634753 0.000445233,0.0122459 0.000445233,0.0175887l0 0.316238 -0.0687905 0 0 -0.480868 0.0407408 0zm0.802783 0l0 0.0651183 -0.149937 0 0 0.41575 -0.0778095 0 0 -0.41575 -0.150268 0 0 -0.0651183 0.378015 0z"/>
   <polygon id="_258238448" class="fil2" points="1.6518,0.0139795 1.72373,0.197298 1.7947,0.0142435 "/>
   <polygon id="_258237728" class="fil3" points="3.24769,0.50019 3.31961,0.316872 3.39059,0.499926 "/>
  </g>
  <rect class="fil4" width="4.46653" height="0.819923"/>
 </g>
</svg>
