<?xml version="1.0" encoding="UTF-8"?>
<!DOCTYPE svg PUBLIC "-//W3C//DTD SVG 1.1//EN" "http://www.w3.org/Graphics/SVG/1.1/DTD/svg11.dtd">
<!-- Creator: CorelDRAW -->
<svg xmlns="http://www.w3.org/2000/svg" xml:space="preserve" width="5.125in" height="1.65in" style="shape-rendering:geometricPrecision; text-rendering:geometricPrecision; image-rendering:optimizeQuality; fill-rule:evenodd; clip-rule:evenodd"
viewBox="0 0 512500 165000">
 <defs>
  <style type="text/css">
   <![CDATA[
    .str0 {stroke:white;stroke-width:300}
    .fil2 {fill:none;fill-rule:nonzero}
    .fil3 {fill:white;fill-rule:nonzero}
    .fil0 {fill:#18488F;fill-rule:nonzero}
    .fil1 {fill:#25A937;fill-rule:nonzero}
   ]]>
  </style>
 </defs>
 <g id="Layer_x0020_1">
  <metadata id="CorelCorpID_0Corel-Layer"/>
  <g id="_317412136">
   <path id="_317413720" class="fil0" d="M504531 159911c0,0 -154830,0 -154830,0 0,0 0,-154821 0,-154821 0,0 154830,0 154830,0 0,0 0,154821 0,154821z"/>
   <path id="_317413048" class="fil1" d="M335427 159911c0,0 -327458,0 -327458,0 0,0 0,-154821 0,-154821 0,0 327458,0 327458,0 0,0 0,154821 0,154821z"/>
   <g>
    <path id="_317412784" class="fil2 str0" d="M70821.7 81380.7c9779.13,0 14547.6,-3809.84 14547.6,-11674.4 0,-7877.17 -4889.37,-11452 -15509.8,-11452 0,0 -5359.45,0 -5359.45,0 0,0 0,23126.4 0,23126.4 0,0 6321.65,0 6321.65,0zm-6321.65 42931.9c0,0 -15509.8,0 -15509.8,0 0,0 0,-79536.2 0,-79536.2 0,0 23253.9,0 23253.9,0 10379.1,0 15979.5,1663.78 20989.8,6083.46 5131.1,4527.56 8115.35,11559.8 8115.35,18846.5 0,16084.6 -9658.27,25152.4 -26831.9,25152.4 0,0 -10017.3,0 -10017.3,0 0,0 0,29453.9 0,29453.9z"/>
    <path id="_317412784" class="fil3" d="M70821.7 81380.7c9779.13,0 14547.6,-3809.84 14547.6,-11674.4 0,-7877.17 -4889.37,-11452 -15509.8,-11452 0,0 -5359.45,0 -5359.45,0 0,0 0,23126.4 0,23126.4 0,0 6321.65,0 6321.65,0zm-6321.65 42931.9c0,0 -15509.8,0 -15509.8,0 0,0 0,-79536.2 0,-79536.2 0,0 23253.9,0 23253.9,0 10379.1,0 15979.5,1663.78 20989.8,6083.46 5131.1,4527.56 8115.35,11559.8 8115.35,18846.5 0,16084.6 -9658.27,25152.4 -26831.9,25152.4 0,0 -10017.3,0 -10017.3,0 0,0 0,29453.9 0,29453.9z"/>
   </g>
   <g>
    <path class="fil2 str0" d="M143135 91635.8c-1555.51,-6676.77 -5854.72,-10255.1 -12163.4,-10255.1 -6553.15,0 -10852,3698.82 -12176,10255.1 0,0 24339.4,0 24339.4,0zm-24929.9 9188.58c371.26,8940.55 4768.9,13823.6 12766.5,13823.6 5368.9,0 8934.65,-2022.44 12163.4,-6911.81 0,0 13354.3,2143.31 13354.3,2143.31 -4286.22,10496.5 -13125.6,16103.1 -25159.1,16103.1 -16932.3,0 -27914.6,-10731.1 -27914.6,-27428.3 0,-16697.2 10611,-27546.1 27073.2,-27546.1 16342.1,0 26470.1,10613.8 26470.1,27666.5 0,0 0,2149.61 0,2149.61 0,0 -38753.9,0 -38753.9,0z"/>
    <path class="fil3" d="M143135 91635.8c-1555.51,-6676.77 -5854.72,-10255.1 -12163.4,-10255.1 -6553.15,0 -10852,3698.82 -12176,10255.1 0,0 24339.4,0 24339.4,0zm-24929.9 9188.58c371.26,8940.55 4768.9,13823.6 12766.5,13823.6 5368.9,0 8934.65,-2022.44 12163.4,-6911.81 0,0 13354.3,2143.31 13354.3,2143.31 -4286.22,10496.5 -13125.6,16103.1 -25159.1,16103.1 -16932.3,0 -27914.6,-10731.1 -27914.6,-27428.3 0,-16697.2 10611,-27546.1 27073.2,-27546.1 16342.1,0 26470.1,10613.8 26470.1,27666.5 0,0 0,2149.61 0,2149.61 0,0 -38753.9,0 -38753.9,0z"/>
   </g>
   <g>
    <path class="fil2 str0" d="M181439 124313c0,0 -14427.2,0 -14427.2,0 0,0 0,-39112.2 0,-39112.2 0,0 -5708.66,0 -5708.66,0 0,0 0,-12518.9 0,-12518.9 0,0 5708.66,0 5708.66,0 0,0 0,-17650 0,-17650 0,0 14427.2,0 14427.2,0 0,0 0,17650 0,17650 0,0 10261.4,0 10261.4,0 0,0 0,12518.9 0,12518.9 0,0 -10261.4,0 -10261.4,0 0,0 0,39112.2 0,39112.2z"/>
    <path class="fil3" d="M181439 124313c0,0 -14427.2,0 -14427.2,0 0,0 0,-39112.2 0,-39112.2 0,0 -5708.66,0 -5708.66,0 0,0 0,-12518.9 0,-12518.9 0,0 5708.66,0 5708.66,0 0,0 0,-17650 0,-17650 0,0 14427.2,0 14427.2,0 0,0 0,17650 0,17650 0,0 10261.4,0 10261.4,0 0,0 0,12518.9 0,12518.9 0,0 -10261.4,0 -10261.4,0 0,0 0,39112.2 0,39112.2z"/>
   </g>
   <g>
    <path class="fil2 str0" d="M214922 72681.5c0,0 0,7867.32 0,7867.32 3695.67,-6556.3 8464.57,-9540.55 15027.6,-9540.55 2276.38,0 3698.82,238.189 6324.41,1311.02 0,0 -2025.59,13471.7 -2025.59,13471.7 -2505.12,-1308.27 -4165.75,-1784.25 -6791.34,-1784.25 -8467.72,0 -12535,5009.84 -12535,15503.1 0,0 0,24802.8 0,24802.8 0,0 -14417.7,0 -14417.7,0 0,0 0,-51631.1 0,-51631.1 0,0 14417.7,0 14417.7,0z"/>
    <path class="fil3" d="M214922 72681.5c0,0 0,7867.32 0,7867.32 3695.67,-6556.3 8464.57,-9540.55 15027.6,-9540.55 2276.38,0 3698.82,238.189 6324.41,1311.02 0,0 -2025.59,13471.7 -2025.59,13471.7 -2505.12,-1308.27 -4165.75,-1784.25 -6791.34,-1784.25 -8467.72,0 -12535,5009.84 -12535,15503.1 0,0 0,24802.8 0,24802.8 0,0 -14417.7,0 -14417.7,0 0,0 0,-51631.1 0,-51631.1 0,0 14417.7,0 14417.7,0z"/>
   </g>
   <g>
    <path class="fil2 str0" d="M253785 98554.3c0,7870.47 6553.15,14427.2 14668.5,14427.2 7994.88,0 14548,-6435.83 14548,-14427.2 0,-8112.2 -6553.15,-14547.6 -14548,-14547.6 -8115.35,0 -14668.5,6556.3 -14668.5,14547.6zm44113.8 -120.866c0,16214.6 -12150.8,27549.2 -29565.7,27549.2 -17294.5,0 -29457.9,-11334.6 -29457.9,-27428.3 0,-16214.6 12163.4,-27546.1 29578.3,-27546.1 17415,0 29445.3,11210.6 29445.3,27425.2z"/>
    <path class="fil3" d="M253785 98554.3c0,7870.47 6553.15,14427.2 14668.5,14427.2 7994.88,0 14548,-6435.83 14548,-14427.2 0,-8112.2 -6553.15,-14547.6 -14548,-14547.6 -8115.35,0 -14668.5,6556.3 -14668.5,14547.6zm44113.8 -120.866c0,16214.6 -12150.8,27549.2 -29565.7,27549.2 -17294.5,0 -29457.9,-11334.6 -29457.9,-27428.3 0,-16214.6 12163.4,-27546.1 29578.3,-27546.1 17415,0 29445.3,11210.6 29445.3,27425.2z"/>
   </g>
   <g>
    <path class="fil2 str0" d="M407674 124313c0,0 -15500.4,0 -15500.4,0 0,0 0,-76719.7 0,-76719.7 0,0 15500.4,0 15500.4,0 0,0 0,76719.7 0,76719.7z"/>
    <path class="fil3" d="M407674 124313c0,0 -15500.4,0 -15500.4,0 0,0 0,-76719.7 0,-76719.7 0,0 15500.4,0 15500.4,0 0,0 0,76719.7 0,76719.7z"/>
   </g>
   <g>
    <path class="fil2 str0" d="M435326 124313c0,0 0,-63242.1 0,-63242.1 0,0 -17761,0 -17761,0 0,0 0,-13477.6 0,-13477.6 0,0 51168.1,0 51168.1,0 0,0 0,13477.6 0,13477.6 0,0 -17894.1,0 -17894.1,0 0,0 0,63242.1 0,63242.1 0,0 -15513,0 -15513,0z"/>
    <path class="fil3" d="M435326 124313c0,0 0,-63242.1 0,-63242.1 0,0 -17761,0 -17761,0 0,0 0,-13477.6 0,-13477.6 0,0 51168.1,0 51168.1,0 0,0 0,13477.6 0,13477.6 0,0 -17894.1,0 -17894.1,0 0,0 0,63242.1 0,63242.1 0,0 -15513,0 -15513,0z"/>
   </g>
  </g>
 </g>
</svg>
