<?xml version="1.0" encoding="UTF-8"?>
<!DOCTYPE svg PUBLIC "-//W3C//DTD SVG 1.1//EN" "http://www.w3.org/Graphics/SVG/1.1/DTD/svg11.dtd">
<!-- Creator: CorelDRAW -->
<svg xmlns="http://www.w3.org/2000/svg" xml:space="preserve" width="2.43211in" height="0.887547in" style="shape-rendering:geometricPrecision; text-rendering:geometricPrecision; image-rendering:optimizeQuality; fill-rule:evenodd; clip-rule:evenodd"
viewBox="0 0 2.20467 0.804546"
 xmlns:xlink="http://www.w3.org/1999/xlink">
 <defs>
  <style type="text/css">
   <![CDATA[
    .fil7 {fill:none}
    .fil9 {fill:#FEFEFE}
    .fil0 {fill:#3EB7A8}
    .fil4 {fill:#E1E1E1}
    .fil5 {fill:#EEEEEE}
    .fil3 {fill:#FAFBFB}
    .fil6 {fill:white}
    .fil8 {fill:#4B4B4D;fill-rule:nonzero}
    .fil10 {fill:#FEFEFE;fill-rule:nonzero}
    .fil2 {fill:#89D0C2;fill-opacity:0.419608}
    .fil1 {fill:url(#id1)}
   ]]>
  </style>
   <clipPath id="id0">
    <path d="M0.283897 0.0673831l0.117586 0.066912 0.117586 0.0669084 0 0.13382 0 0.13382 -0.117586 0.066912 -0.117586 0.0669084 -0.117582 -0.0669084 -0.117586 -0.066912 0 -0.13382 0 -0.13382 0.117586 -0.0669084 0.117582 -0.066912z"/>
   </clipPath>
  <linearGradient id="id1" gradientUnits="userSpaceOnUse" x1="0.0487217" y1="0.335024" x2="0.519072" y2="0.335024">
   <stop offset="0" style="stop-color:#2BAEBE"/>
   <stop offset="0.309804" style="stop-color:#2BAEBE"/>
   <stop offset="1" style="stop-color:#43BC9F"/>
  </linearGradient>
 </defs>
 <g id="Layer_x0020_1">
  <metadata id="CorelCorpID_0Corel-Layer"/>
  <path class="fil0" d="M0.287912 0.0559878l1.70782 0c0.0568229,0 0.103318,0.0462235 0.103318,0.102718l0 0.352636c0,0.0564946 -0.0464947,0.102718 -0.103318,0.102718l-1.70782 0 0 -7.49454e-005 0.122575 -0.0697492 0.122575 -0.0697492 0 -0.139502 0 -0.139498 -0.122575 -0.0697492 -0.122575 -0.0697492z"/>
  <polygon class="fil1" points="0.283897,0.0673831 0.401483,0.134295 0.519068,0.201203 0.519068,0.335024 0.519068,0.468844 0.401483,0.535756 0.283897,0.602665 0.166315,0.535756 0.0487288,0.468844 0.0487288,0.335024 0.0487288,0.201203 0.166315,0.134295 "/>
  <g style="clip-path:url(#id0)">
   <g id="_330312984">
    <polygon id="_3303137761" class="fil2" points="-0.546923,0.482234 -0.471353,0.352354 -0.193609,0.352354 -0.100894,0.489818 -0.119798,0.541059 -0.184744,0.589981 -0.335977,0.611419 -0.484686,0.587654 -0.556884,0.50728 "/>
    <g>
     <polygon id="_330312384" class="fil3" points="-0.329621,0.402428 -0.300246,0.352504 -0.280724,0.315413 -0.332461,0.141504 -0.342597,0.296434 -0.337758,0.350106 "/>
     <polygon id="_330312888" class="fil4" points="-0.329621,0.402428 -0.364674,0.352504 -0.375919,0.337847 -0.332461,0.141504 "/>
     <polygon id="_330312648" class="fil5" points="-0.332461,0.141504 -0.19413,0.352504 -0.300246,0.352504 "/>
     <polygon id="_330313056" class="fil6" points="-0.332461,0.141504 -0.470793,0.352504 -0.364674,0.352504 "/>
    </g>
   </g>
  </g>
  <polygon class="fil7" points="0.283897,0.0673831 0.401483,0.134295 0.519068,0.201203 0.519068,0.335024 0.519068,0.468844 0.401483,0.535756 0.283897,0.602665 0.166315,0.535756 0.0487288,0.468844 0.0487288,0.335024 0.0487288,0.201203 0.166315,0.134295 "/>
  <g id="_330314616">
   <path id="_341850448" class="fil8" d="M0.387296 0.664545l0 0.0886497 0.0116415 0 0 -0.0886497 -0.0116415 0zm0.0346355 0.0886497l0.0116415 0 0 -0.0382757c0,-0.00100641 6.78078e-005,-0.00196999 0.000199854,-0.00289075 0.000132047,-0.000942171 0.000331901,-0.00177728 0.000595994,-0.00250175 0.000724472,-0.00216985 0.00182724,-0.00416482 0.0033083,-0.00593853 0.00149891,-0.00177728 0.00328332,-0.00320124 0.00537823,-0.00425404 0.0020949,-0.00107422 0.00438609,-0.00162025 0.00692353,-0.00164166 0.00273372,2.1413e-005 0.00504989,0.000503205 0.00694494,0.0014882 0.00189505,0.000988566 0.00341537,0.00234829 0.00458595,0.00405776 0.00114559,0.00173088 0.00198427,0.00372586 0.00251246,0.00598136 0.000528187,0.00228048 0.000795849,0.00469301 0.000774436,0.00728041l0 0.0366947 0.0116415 0 0 -0.0378796c-2.49818e-005,-0.00436111 -0.000528187,-0.00808697 -0.00149891,-0.0112026 -0.000970722,-0.00311202 -0.00227334,-0.00569942 -0.0039043,-0.00775863 -0.00163095,-0.00205921 -0.00344035,-0.00370444 -0.00542462,-0.0048893 -0.00198427,-0.00118128 -0.00398995,-0.00201639 -0.00604203,-0.00251959 -0.00202709,-0.000503205 -0.00394356,-0.000745885 -0.00575295,-0.000724472 -0.00352957,4.28259e-005 -0.00670226,0.000613839 -0.00948238,0.00175586 -0.00279796,0.00113846 -0.00517837,0.00258383 -0.00714123,0.00438252 -0.00196286,0.00179869 -0.00348675,0.00368303 -0.00454312,0.00569942l-0.000264093 0 -0.000660233 -0.0105209 -0.0103211 0c0.000196286,0.00260881 0.000331901,0.00528187 0.000421122,0.00806555 6.42389e-005,0.00278369 0.000107065,0.00583147 0.000107065,0.00916475l0 0.0464269zm0.0775007 -0.075495l0 0.0118378 -0.00992134 0 0 0.00881144 0.00992134 0 0 0.0348104c0,0.00370444 0.000353314,0.00696992 0.00105994,0.00975361 0.000728041,0.00278369 0.00187364,0.00508558 0.00343678,0.00686286 0.00141326,0.0015346 0.00317626,0.00271588 0.00529614,0.0035724 0.00211275,0.000856519 0.00453955,0.0012705 0.00727684,0.00129192 0.00224479,-2.1413e-005 0.00425048,-0.000174873 0.00599206,-0.000503205 0.00174516,-0.000306919 0.00320124,-0.000656665 0.00432185,-0.00107422l-0.000528187 -0.00881144c-0.000838675,0.000264093 -0.00178441,0.000460379 -0.00281937,0.000592426 -0.00105994,0.000132047 -0.00236256,0.000196286 -0.00392571,0.000196286 -0.0021413,0 -0.00386147,-0.000481792 -0.00513911,-0.00144538 -0.00127764,-0.000967153 -0.00220197,-0.0023697 -0.00277655,-0.00421122 -0.0005496,-0.00184152 -0.000838675,-0.0040756 -0.000817262,-0.00670583l0 -0.0343286 0.0166664 0 0 -0.00881144 -0.0166664 0 0 -0.0152567 -0.0113774 0.00341894zm0.0937746 0.0457702c0.000128478,-0.000656665 0.00024268,-0.00142396 0.000310488,-0.00230189 6.42389e-005,-0.000877932 8.56519e-005,-0.00190575 8.56519e-005,-0.00309061 2.1413e-005,-0.00236613 -0.000221267,-0.00491071 -0.000728041,-0.00760517 -0.000506774,-0.00269803 -0.00134545,-0.00534967 -0.00253387,-0.00795849 -0.00116701,-0.00263023 -0.00278012,-0.00499993 -0.0047858,-0.0071448 -0.00203066,-0.00214844 -0.00456453,-0.00388289 -0.00758733,-0.0051748 -0.00301566,-0.0012705 -0.00663445,-0.00195215 -0.0108243,-0.00197356 -0.00467517,2.1413e-005 -0.00886497,0.000899345 -0.0125694,0.00265164 -0.00370444,0.00173445 -0.00683431,0.00414341 -0.00943598,0.00723402 -0.00260168,0.00311559 -0.00458238,0.00673081 -0.00595281,0.0108742 -0.00136686,0.004122 -0.00204851,0.00861515 -0.00207349,0.0134366 2.49818e-005,0.00482149 0.000728041,0.00920758 0.0021413,0.0131297 0.00143467,0.00394712 0.00350459,0.00734465 0.0062169,0.0101712 0.00271231,0.00285149 0.00601705,0.00504276 0.00989993,0.00657735 0.00387932,0.00155601 0.00829039,0.00232331 0.0132296,0.00234472 0.00339753,-2.1413e-005 0.00645958,-0.000239112 0.00917189,-0.000656665 0.00271231,-0.000417553 0.00509272,-0.000920758 0.0071448,-0.0015346 0.00204851,-0.000635252 0.00374727,-0.00124909 0.00511413,-0.00188434l-0.00211632 -0.00828682c-0.00139184,0.000613839 -0.00293358,0.00118485 -0.00463234,0.00166664 -0.00167378,0.000503205 -0.00359381,0.000899345 -0.00573154,0.00118485 -0.00213773,0.000281937 -0.00460736,0.000435397 -0.00736249,0.000435397 -0.00295499,0 -0.00575652,-0.000413984 -0.0083582,-0.00124909 -0.00262309,-0.000831537 -0.00491785,-0.00214844 -0.00694494,-0.00392214 -0.00200568,-0.00177728 -0.00359381,-0.00407917 -0.00476439,-0.00686286 -0.00118842,-0.0028051 -0.00180583,-0.0061598 -0.00189505,-0.0100605l0.0449815 0zm-0.0448495 -0.00828682c0.000221267,-0.0020378 0.00073161,-0.00414341 0.00150248,-0.00631326 0.00079228,-0.00214844 0.00189505,-0.00416482 0.00330474,-0.00602775 0.0014311,-0.00188434 0.00321908,-0.00339753 0.00538179,-0.00453598 0.00213773,-0.00116344 0.00469658,-0.00177728 0.00766941,-0.00179869 0.00260525,2.1413e-005 0.00485361,0.000438966 0.00672724,0.00124909 0.00187364,0.000810124 0.00341894,0.00188434 0.00465375,0.00324407 0.00123481,0.00133831 0.00220197,0.00285149 0.00291216,0.00447174 0.000703059,0.00164523 0.00120983,0.00331187 0.00147393,0.00499993 0.000285506,0.00166307 0.000421122,0.00324407 0.000378296,0.00471085l-0.0340038 0zm0.061623 0.0380116l0.0116415 0 0 -0.093382 -0.0116415 0 0 0.093382zm0.033183 0l0.0116415 0 0 -0.093382 -0.0116415 0 0 0.093382zm0.0448245 0l0 -0.0636572 -0.0116415 0 0 0.0636572 0.0116415 0zm-0.00581719 -0.0886497c-0.00145608,2.49818e-005 -0.00273729,0.000353314 -0.00384006,0.000988566 -0.00107779,0.000656665 -0.00191646,0.0015346 -0.00251246,0.00260881 -0.000617407,0.00109563 -0.000924327,0.00230189 -0.000924327,0.00363664 0,0.00133831 0.000306919,0.00252316 0.000881501,0.00359738 0.000571013,0.00107422 0.00139184,0.00190575 0.00242323,0.00254101 0.00105994,0.000635252 0.00229476,0.000942171 0.00370444,0.000963584 0.0015453,-2.1413e-005 0.00286934,-0.000328332 0.00397211,-0.000963584 0.0010992,-0.000635252 0.00195929,-0.00146679 0.00255528,-0.00254101 0.000574581,-0.00107422 0.000881501,-0.00225907 0.000881501,-0.00359738 0,-0.00138114 -0.000306919,-0.00260881 -0.000902914,-0.00368303 -0.000595994,-0.00109563 -0.00143467,-0.00194858 -0.00251246,-0.00258383 -0.00105994,-0.000635252 -0.00231617,-0.000942171 -0.00372586,-0.000967153zm0.0818654 0.0423513c0,-0.0037901 4.28259e-005,-0.00708056 0.000110634,-0.00986424 8.56519e-005,-0.0028051 0.000217699,-0.00530328 0.000417553,-0.00749454l-0.0103175 0 -0.000399709 0.00960015 -0.000264093 0c-0.000724472,-0.00133831 -0.00165237,-0.00265164 -0.00278012,-0.00392214 -0.00114559,-0.00129548 -0.00251246,-0.00245535 -0.004122,-0.00350816 -0.00163095,-0.0010528 -0.00350459,-0.00188434 -0.0056673,-0.00252316 -0.00215914,-0.000635252 -0.00462877,-0.000942171 -0.00740889,-0.000963584 -0.00374727,0 -0.00734108,0.000745885 -0.0107779,0.00223766 -0.00344035,0.00146679 -0.00652739,0.00363664 -0.00926111,0.00650954 -0.00273729,0.00287291 -0.00489643,0.0063775 -0.00648456,0.0105673 -0.00158456,0.00416482 -0.00240182,0.0089649 -0.00244822,0.0143574 2.49818e-005,0.00442535 0.000706628,0.00852593 0.00203066,0.0122732 0.00132404,0.00377225 0.00321908,0.00705914 0.00564589,0.00984283 0.0024268,0.00280867 0.00531042,0.00499993 0.00862229,0.00655594 0.00332615,0.00155601 0.00696635,0.00234472 0.0109527,0.00236613 0.00331187,-2.1413e-005 0.00628828,-0.000503205 0.00893278,-0.00144538 0.0026445,-0.000942171 0.00491785,-0.00221267 0.00683431,-0.00381508 0.00192003,-0.00159884 0.00346176,-0.00339753 0.00461093,-0.0053925l0.000264093 0 0 0.00696992c-2.49818e-005,0.00537109 -0.000927896,0.00968937 -0.00271231,0.0129798 -0.001763,0.0033083 -0.00418981,0.00569942 -0.00727684,0.00718762 -0.00308704,0.00149177 -0.00663802,0.00221624 -0.010653,0.00219483 -0.0026445,0 -0.00513555,-0.00024268 -0.00745172,-0.000724472 -0.0023126,-0.000460379 -0.00442892,-0.00107422 -0.00634895,-0.00184152 -0.00189505,-0.000767298 -0.0035724,-0.00162382 -0.00498209,-0.00256599l-0.00291216 0.00894349c0.00174516,0.00114203 0.00379367,0.00210561 0.00610984,0.00289432 0.00233758,0.000767298 0.00480721,0.00135972 0.00740889,0.00175586 0.00259811,0.000413984 0.00520335,0.00061027 0.00778362,0.00061027 0.00270874,0 0.00546745,-0.000239112 0.008244,-0.000720903 0.00278012,-0.000481792 0.00546745,-0.00129548 0.00806912,-0.00241253 0.00260525,-0.00111704 0.00496067,-0.00260881 0.00710197,-0.00449316 0.00202709,-0.00186293 0.00372586,-0.00414341 0.00507131,-0.00681646 0.00134188,-0.00267662 0.002359,-0.00583147 0.00304064,-0.0095145 0.000685215,-0.00368303 0.00101712,-0.0079799 0.00101712,-0.0128692l0 -0.0369588zm-0.0116415 0.0192039c0,0.000984997 -6.78078e-005,0.00201639 -0.000224836,0.00309061 -0.000132047,0.0010528 -0.000371158,0.0020842 -0.000703059,0.00309061 -0.000813693,0.00245535 -0.00202709,0.00458238 -0.00361879,0.00633467 -0.00160597,0.00177728 -0.00347961,0.003137 -0.00562091,0.00407917 -0.00215914,0.000942171 -0.0044539,0.00142396 -0.00689855,0.00142396 -0.00310845,-2.1413e-005 -0.00584217,-0.000635252 -0.00820117,-0.0018201 -0.00236256,-0.00118128 -0.00432185,-0.00282651 -0.00593496,-0.00493212 -0.00158813,-0.00210204 -0.00277655,-0.00453598 -0.0035724,-0.00727684 -0.000813693,-0.00276227 -0.0012134,-0.00572083 -0.0012134,-0.00885783 2.49818e-005,-0.00493212 0.000863657,-0.00920401 0.00246963,-0.01278 0.00161311,-0.00359381 0.00386147,-0.0063775 0.00670583,-0.00832965 0.00284436,-0.00194858 0.00614909,-0.00293715 0.00987495,-0.00295856 0.00286934,2.1413e-005 0.00540321,0.000592426 0.00756592,0.00168806 0.00218055,0.00109563 0.00401136,0.00256599 0.00546745,0.00442892 0.00145608,0.00186293 0.00253744,0.00394712 0.0032405,0.00624545 0.000264093,0.000724472 0.000438966,0.00151318 0.000531756,0.0023697 8.56519e-005,0.00085295 0.000132047,0.00177371 0.000132047,0.00276227l0 0.0114417zm0.0842458 -0.00263023c0.000128478,-0.000656665 0.000239112,-0.00142396 0.000306919,-0.00230189 6.42389e-005,-0.000877932 8.56519e-005,-0.00190575 8.56519e-005,-0.00309061 2.1413e-005,-0.00236613 -0.000217699,-0.00491071 -0.000728041,-0.00760517 -0.000506774,-0.00269803 -0.00134188,-0.00534967 -0.00253387,-0.00795849 -0.00116701,-0.00263023 -0.00278012,-0.00499993 -0.0047858,-0.0071448 -0.00202709,-0.00214844 -0.00456096,-0.00388289 -0.00758376,-0.0051748 -0.00301923,-0.0012705 -0.00663802,-0.00195215 -0.0108278,-0.00197356 -0.0046716,2.1413e-005 -0.0088614,0.000899345 -0.0125658,0.00265164 -0.00370444,0.00173445 -0.00683431,0.00414341 -0.00943598,0.00723402 -0.00260525,0.00311559 -0.00458595,0.00673081 -0.00595281,0.0108742 -0.00136686,0.004122 -0.00204851,0.00861515 -0.00207706,0.0134366 2.85506e-005,0.00482149 0.00073161,0.00920758 0.0021413,0.0131297 0.00143467,0.00394712 0.00350816,0.00734465 0.0062169,0.0101712 0.00271231,0.00285149 0.00602061,0.00504276 0.00989993,0.00657735 0.00387932,0.00155601 0.00829396,0.00232331 0.0132332,0.00234472 0.00339396,-2.1413e-005 0.00645601,-0.000239112 0.00917189,-0.000656665 0.00270874,-0.000417553 0.00509272,-0.000920758 0.00714123,-0.0015346 0.00204851,-0.000635252 0.00374727,-0.00124909 0.00511413,-0.00188434l-0.00211632 -0.00828682c-0.00138827,0.000613839 -0.00293358,0.00118485 -0.00463234,0.00166664 -0.00167021,0.000503205 -0.00359024,0.000899345 -0.00573154,0.00118485 -0.00213416,0.000281937 -0.00460379,0.000435397 -0.00736249,0.000435397 -0.00295499,0 -0.00575295,-0.000413984 -0.00835463,-0.00124909 -0.00262666,-0.000831537 -0.00491785,-0.00214844 -0.00694851,-0.00392214 -0.00200568,-0.00177728 -0.00359024,-0.00407917 -0.00476082,-0.00686286 -0.00118842,-0.0028051 -0.00180583,-0.0061598 -0.00189505,-0.0100605l0.0449815 0zm-0.0448495 -0.00828682c0.000217699,-0.0020378 0.000728041,-0.00414341 0.00149891,-0.00631326 0.00079228,-0.00214844 0.00189505,-0.00416482 0.0033083,-0.00602775 0.0014311,-0.00188434 0.00321908,-0.00339753 0.00537823,-0.00453598 0.0021413,-0.00116344 0.00469658,-0.00177728 0.00767298,-0.00179869 0.00260168,2.1413e-005 0.00485361,0.000438966 0.00672724,0.00124909 0.00187364,0.000810124 0.00341537,0.00188434 0.00465018,0.00324407 0.00123481,0.00133831 0.00220554,0.00285149 0.00291216,0.00447174 0.000703059,0.00164523 0.00120983,0.00331187 0.00147393,0.00499993 0.000289075,0.00166307 0.000421122,0.00324407 0.000378296,0.00471085l-0.0340002 0zm0.061623 0.0380116l0.0116415 0 0 -0.0382757c0,-0.00100641 6.78078e-005,-0.00196999 0.000199854,-0.00289075 0.000132047,-0.000942171 0.000331901,-0.00177728 0.000595994,-0.00250175 0.000724472,-0.00216985 0.00182724,-0.00416482 0.00330474,-0.00593853 0.00150248,-0.00177728 0.00328689,-0.00320124 0.00538179,-0.00425404 0.0020949,-0.00107422 0.00438609,-0.00162025 0.00691996,-0.00164166 0.00273729,2.1413e-005 0.00505346,0.000503205 0.00694851,0.0014882 0.00189505,0.000988566 0.00341537,0.00234829 0.00458595,0.00405776 0.00114559,0.00173088 0.00198427,0.00372586 0.00251246,0.00598136 0.000528187,0.00228048 0.00079228,0.00469301 0.000770867,0.00728041l0 0.0366947 0.0116415 0 0 -0.0378796c-2.1413e-005,-0.00436111 -0.000524618,-0.00808697 -0.00149534,-0.0112026 -0.00097429,-0.00311202 -0.00227334,-0.00569942 -0.0039043,-0.00775863 -0.00163095,-0.00205921 -0.00344035,-0.00370444 -0.00542462,-0.0048893 -0.00198427,-0.00118128 -0.00398995,-0.00201639 -0.00604203,-0.00251959 -0.00202709,-0.000503205 -0.00394356,-0.000745885 -0.00575295,-0.000724472 -0.00352957,4.28259e-005 -0.00670226,0.000613839 -0.00948238,0.00175586 -0.00279796,0.00113846 -0.00517837,0.00258383 -0.00714123,0.00438252 -0.00196642,0.00179869 -0.00348675,0.00368303 -0.00454312,0.00569942l-0.000264093 0 -0.000660233 -0.0105209 -0.0103211 0c0.000196286,0.00260881 0.000331901,0.00528187 0.000421122,0.00806555 6.42389e-005,0.00278369 0.000107065,0.00583147 0.000107065,0.00916475l0 0.0464269zm0.0775007 -0.075495l0 0.0118378 -0.00992134 0 0 0.00881144 0.00992134 0 0 0.0348104c0,0.00370444 0.000353314,0.00696992 0.00105637,0.00975361 0.00073161,0.00278369 0.00187364,0.00508558 0.00344035,0.00686286 0.00141326,0.0015346 0.00317626,0.00271588 0.00529614,0.0035724 0.00211275,0.000856519 0.00453955,0.0012705 0.00727327,0.00129192 0.00224836,-2.1413e-005 0.00425404,-0.000174873 0.00599563,-0.000503205 0.00174516,-0.000306919 0.00319767,-0.000656665 0.00432185,-0.00107422l-0.000528187 -0.00881144c-0.000838675,0.000264093 -0.00178798,0.000460379 -0.00281937,0.000592426 -0.00105994,0.000132047 -0.00236256,0.000196286 -0.00392928,0.000196286 -0.00213773,0 -0.0038579,-0.000481792 -0.00513555,-0.00144538 -0.00127764,-0.000967153 -0.00220554,-0.0023697 -0.00277655,-0.00421122 -0.0005496,-0.00184152 -0.000838675,-0.0040756 -0.000817262,-0.00670583l0 -0.0343286 0.0166664 0 0 -0.00881144 -0.0166664 0 0 -0.0152567 -0.0113774 0.00341894zm0.0715479 0.075495l0.0115095 0 0 -0.0355134c0.00132404,0.000331901 0.00277655,0.000528187 0.00432185,0.00063882 0.00156315,0.000107065 0.00321908,0.00015346 0.00493926,0.00015346 0.00376868,0 0.00731967,-0.000374727 0.0106922,-0.0010992 0.00335113,-0.000720903 0.00644174,-0.00179512 0.0092397,-0.00324407 0.00280153,-0.00144538 0.00524975,-0.00324407 0.00731967,-0.0053925 0.00224836,-0.00230189 0.00396854,-0.00503919 0.00513555,-0.0081976 0.00114559,-0.00315484 0.00174159,-0.00673081 0.00174159,-0.0107422 -2.1413e-005,-0.00396497 -0.000724472,-0.00751595 -0.00211275,-0.010653 -0.00139184,-0.00313343 -0.00329046,-0.00576366 -0.00569228,-0.00789068 -0.0026445,-0.00239112 -0.00603846,-0.00420765 -0.0102069,-0.00545674 -0.00416839,-0.00127407 -0.00910765,-0.00190932 -0.0147928,-0.00190932 -0.00463234,2.1413e-005 -0.00877575,0.000174873 -0.0124374,0.000503205 -0.00365805,0.000331901 -0.0068807,0.000724472 -0.00965725,0.00120626l0 0.0875969zm0.0115095 -0.0793101c0.00101355,-0.000264093 0.0024268,-0.000481792 0.00427903,-0.000656665 0.00185222,-0.000174873 0.00403278,-0.000264093 0.00656665,-0.000264093 0.00421122,0 0.00789425,0.000635252 0.0110491,0.00190575 0.00312986,0.00127407 0.00557808,0.00320124 0.00731967,0.00578864 0.001763,0.0025874 0.0026445,0.00585288 0.00266592,0.0098 -2.1413e-005,0.00398995 -0.000924327,0.00738748 -0.00270874,0.0101926 -0.00178798,0.0028051 -0.00434683,0.00493212 -0.00767298,0.00639891 -0.00333329,0.00147036 -0.00731967,0.00221624 -0.0119734,0.00221624 -0.00192003,0 -0.00368303,-6.78078e-005 -0.00526759,-0.000221267 -0.0015917,-0.000132047 -0.00300139,-0.000371158 -0.00425761,-0.00069949l0 -0.0344606zm0.0597707 0.0793101l0.0116415 0 0 -0.093382 -0.0116415 0 0 0.093382zm0.0781645 -0.0390644c2.1413e-005,-0.00319767 -0.000331901,-0.00631326 -0.00105994,-0.00938245 -0.000728041,-0.00304421 -0.00198427,-0.0058279 -0.00376868,-0.00830823 -0.00178798,-0.00247677 -0.00427903,-0.00447174 -0.00745528,-0.00593853 -0.00317269,-0.00149177 -0.00718762,-0.00223766 -0.0120591,-0.00228048 -0.00271231,0 -0.00533897,0.00024268 -0.00789425,0.000703059 -0.00255885,0.000460379 -0.00498565,0.00109563 -0.00723045,0.00192717 -0.00225193,0.000835106 -0.00425761,0.00179869 -0.00604203,0.00289432l0.0026445 0.00775863c0.00152389,-0.00100641 0.00317626,-0.00186293 0.0050035,-0.00256242 0.00183081,-0.000724472 0.00372586,-0.00124909 0.00573154,-0.00162382 0.00200925,-0.000371158 0.00403635,-0.000546031 0.00606344,-0.000546031 0.00260525,0 0.0047858,0.000306919 0.00655237,0.000963584 0.00174159,0.000656665 0.00317269,0.0015346 0.00423263,0.00263023 0.00108136,0.00109563 0.00187364,0.00230189 0.0024268,0.00361522 0.0005496,0.00129548 0.000902914,0.0025874 0.00110277,0.00388289 0.000174873,0.00129192 0.000264093,0.00245535 0.000239112,0.00350459l0 0.0013169c-0.00826541,-4.28259e-005 -0.0152567,0.000856519 -0.0209669,0.00265164 -0.00573154,0.0018201 -0.0100748,0.00449316 -0.0130512,0.00802273 -0.00295499,0.00352957 -0.00445747,0.00786927 -0.00447888,0.0130012 0,0.00232331 0.000421122,0.00457881 0.00123481,0.00675222 0.000817262,0.00214487 0.00205208,0.00409702 0.00370444,0.0058279 0.00163095,0.00175586 0.00365805,0.00311559 0.00610627,0.00414341 0.00244822,0.00100998 0.00529257,0.0015346 0.00853307,0.00155601 0.00304421,-2.1413e-005 0.00582433,-0.000481792 0.00833678,-0.00133474 0.00251246,-0.000877932 0.00471799,-0.00204137 0.00661661,-0.00346533 0.00189505,-0.00142396 0.00343678,-0.00297997 0.00462877,-0.00466803l0.00039614 0 0.000924327 0.00802273 0.0104531 0c-0.000328332,-0.00219126 -0.000574581,-0.00458238 -0.000706628,-0.00719119 -0.00015346,-0.00258383 -0.000217699,-0.00528187 -0.000217699,-0.00806555l0 -0.0238077zm-0.0112489 0.0176264c0,0.000524618 -4.28259e-005,0.00111704 -0.000110634,0.00173088 -8.56519e-005,0.000635252 -0.000217699,0.00129192 -0.000413984,0.00195215 -0.000617407,0.0018201 -0.00163452,0.00355098 -0.0030228,0.00514982 -0.00139184,0.00162382 -0.00315128,0.00293715 -0.00529257,0.00394712 -0.00211632,0.00100641 -0.00460736,0.0015346 -0.0074303,0.00155601 -0.00196286,0 -0.00376868,-0.00039614 -0.00540321,-0.00116344 -0.00162739,-0.000788711 -0.00293358,-0.00199498 -0.00392214,-0.00363664 -0.000995703,-0.00162382 -0.00150248,-0.00370444 -0.00152389,-0.00624902 2.1413e-005,-0.00245535 0.000553169,-0.00455739 0.00160954,-0.00627043 0.00103853,-0.00170947 0.00246963,-0.00311202 0.00427903,-0.00418624 0.0018094,-0.00109563 0.00387932,-0.00192717 0.00619549,-0.00251959 0.00231617,-0.000571013 0.00476439,-0.000963584 0.00734108,-0.00116344 0.00258026,-0.000196286 0.00513911,-0.000260525 0.0076944,-0.000196286l0 0.0110491zm0.031991 0.021438l0.0116415 0 0 -0.0382757c0,-0.00100641 6.78078e-005,-0.00196999 0.000203423,-0.00289075 0.000132047,-0.000942171 0.000328332,-0.00177728 0.000595994,-0.00250175 0.000724472,-0.00216985 0.00182724,-0.00416482 0.00330474,-0.00593853 0.00149891,-0.00177728 0.00328332,-0.00320124 0.00538179,-0.00425404 0.00209133,-0.00107422 0.00438609,-0.00162025 0.00691996,-0.00164166 0.00273372,2.1413e-005 0.00504989,0.000503205 0.00694494,0.0014882 0.00189505,0.000988566 0.00341894,0.00234829 0.00458951,0.00405776 0.00114559,0.00173088 0.00198427,0.00372586 0.00251246,0.00598136 0.000528187,0.00228048 0.00079228,0.00469301 0.000770867,0.00728041l0 0.0366947 0.0116415 0 0 -0.0378796c-2.1413e-005,-0.00436111 -0.000528187,-0.00808697 -0.00149891,-0.0112026 -0.000970722,-0.00311202 -0.00226978,-0.00569942 -0.0039043,-0.00775863 -0.00163095,-0.00205921 -0.00343678,-0.00370444 -0.00542462,-0.0048893 -0.00198427,-0.00118128 -0.00398638,-0.00201639 -0.00603846,-0.00251959 -0.00203066,-0.000503205 -0.00394712,-0.000745885 -0.00575652,-0.000724472 -0.00352957,4.28259e-005 -0.00670226,0.000613839 -0.00947881,0.00175586 -0.00280153,0.00113846 -0.00518194,0.00258383 -0.0071448,0.00438252 -0.00196286,0.00179869 -0.00348675,0.00368303 -0.00453955,0.00569942l-0.000267662 0 -0.000660233 -0.0105209 -0.0103175 0c0.000196286,0.00260881 0.000328332,0.00528187 0.000417553,0.00806555 6.42389e-005,0.00278369 0.000107065,0.00583147 0.000107065,0.00916475l0 0.0464269zm0.0775007 -0.075495l0 0.0118378 -0.00992134 0 0 0.00881144 0.00992134 0 0 0.0348104c0,0.00370444 0.000356883,0.00696992 0.00105994,0.00975361 0.000728041,0.00278369 0.00187364,0.00508558 0.00344035,0.00686286 0.00141326,0.0015346 0.00317626,0.00271588 0.00529257,0.0035724 0.00211632,0.000856519 0.00454312,0.0012705 0.00727684,0.00129192 0.00224836,-2.1413e-005 0.00425404,-0.000174873 0.00599563,-0.000503205 0.00174516,-0.000306919 0.00319767,-0.000656665 0.00432185,-0.00107422l-0.000528187 -0.00881144c-0.000838675,0.000264093 -0.00178798,0.000460379 -0.00282294,0.000592426 -0.00105637,0.000132047 -0.00236256,0.000196286 -0.00392571,0.000196286 -0.0021413,0 -0.0038579,-0.000481792 -0.00513555,-0.00144538 -0.00127764,-0.000967153 -0.00220554,-0.0023697 -0.00278012,-0.00421122 -0.0005496,-0.00184152 -0.000835106,-0.0040756 -0.000813693,-0.00670583l0 -0.0343286 0.0166664 0 0 -0.00881144 -0.0166664 0 0 -0.0152567 -0.011381 0.00341894zm0.131479 0.0635252c-0.00156672,0.000745885 -0.0033547,0.00140255 -0.00538179,0.00195215 -0.00202709,0.0005496 -0.00418981,0.000963584 -0.00648099,0.0012705 -0.00231617,0.000306919 -0.00465375,0.000460379 -0.00705558,0.000460379 -0.0072126,-4.28259e-005 -0.0133653,-0.0014882 -0.018433,-0.00438252 -0.00507131,-0.00289432 -0.00895062,-0.0069949 -0.0116415,-0.0123196 -0.0026909,-0.00530685 -0.00403635,-0.0116201 -0.00405776,-0.0189398 2.1413e-005,-0.00583147 0.000860088,-0.0110063 0.00249104,-0.0155423 0.00165237,-0.00451457 0.00401136,-0.00835106 0.00705558,-0.0114666 0.00306562,-0.00313343 0.00672367,-0.00549957 0.0109813,-0.00712338 0.00427546,-0.00162025 0.00901843,-0.00243394 0.0142646,-0.00243394 0.00372586,2.1413e-005 0.00710197,0.000374727 0.0101212,0.0010528 0.0030228,0.000681646 0.00559949,0.00155601 0.00773722,0.00263023l0.00291216 -0.00933606c-0.00101712,-0.0005496 -0.00249104,-0.00112061 -0.0044075,-0.00173445 -0.00192003,-0.000588857 -0.00427903,-0.00111704 -0.00705914,-0.0015346 -0.00279796,-0.000435397 -0.00604203,-0.000656665 -0.00970008,-0.000678078 -0.00694494,2.1413e-005 -0.0132511,0.00113846 -0.0189398,0.0033547 -0.00568871,0.00221267 -0.0105816,0.00537109 -0.0147071,0.0094681 -0.004122,0.00410058 -0.00729826,0.00901129 -0.0095252,0.0146893 -0.00224836,0.00569942 -0.00337254,0.0120555 -0.00339396,0.0190468 4.28259e-005,0.00730182 0.00114559,0.0137471 0.00332615,0.0193573 0.00218412,0.00558879 0.00524975,0.0102818 0.00921829,0.0140719 0.00394712,0.00381508 0.0085759,0.00668799 0.0139149,0.00863657 0.00531042,0.00193074 0.0111312,0.00291573 0.0174587,0.00291573 0.00364021,-2.1413e-005 0.00696992,-0.000217699 0.0100106,-0.000613839 0.00304421,-0.000413984 0.00573511,-0.000942171 0.00802987,-0.00157742 0.00229119,-0.000635252 0.00411843,-0.00129192 0.0055067,-0.00201639l-0.00224479 -0.00920758zm0.0440251 -0.0530042c-0.00442892,0 -0.00855448,0.000767298 -0.012391,0.00228048 -0.00381151,0.00151318 -0.00718405,0.00372586 -0.0100748,0.00662018 -0.0029086,0.00289432 -0.00516053,0.00642389 -0.00678791,0.0105673 -0.00163452,0.00416482 -0.00246963,0.00889709 -0.00249461,0.0142039 2.49818e-005,0.00503919 0.000817262,0.00957874 0.00238398,0.0136115 0.00156315,0.00401136 0.00372586,0.00745528 0.00652382,0.0103032 0.00278012,0.00285149 0.00602061,0.00504276 0.00972506,0.00655594 0.00372586,0.00150961 0.00774079,0.0022555 0.0120626,0.00227691 0.00308704,0 0.00617051,-0.000413984 0.00921472,-0.00124909 0.00304421,-0.00085295 0.00592783,-0.00212702 0.0086437,-0.00387932 0.00270874,-0.00173088 0.00511413,-0.00392214 0.00723045,-0.00659876 0.0020949,-0.00267305 0.00374727,-0.00585288 0.00493569,-0.0095145 0.0012134,-0.00365805 0.00183081,-0.00784429 0.00185222,-0.0125587 -2.1413e-005,-0.00484647 -0.000745885,-0.00927182 -0.00222338,-0.0132618 -0.00148106,-0.00396854 -0.0035724,-0.00740889 -0.00628471,-0.0103032 -0.00273372,-0.00289432 -0.00597422,-0.00510699 -0.0097429,-0.00668799 -0.00377225,-0.00155601 -0.00796206,-0.00234472 -0.012573,-0.00236613zm-0.000260525 0.00867939c0.00275157,2.49818e-005 0.00517837,0.000528187 0.00727684,0.00149177 0.00211275,0.000988566 0.00392214,0.00230189 0.00542462,0.00396854 0.00149534,0.00166664 0.00273015,0.00355098 0.00370444,0.00565659 0.00094574,0.00208063 0.0016488,0.00427189 0.00211275,0.00655237 0.000442535,0.00225907 0.000663802,0.00449316 0.000663802,0.006663 -2.49818e-005,0.00359738 -0.000510343,0.00690568 -0.0014775,0.00991064 -0.000970722,0.00300139 -0.00231617,0.0056102 -0.00407917,0.00782644 -0.00174516,0.00221267 -0.00379367,0.00392214 -0.00615266,0.00514982 -0.002359,0.00120626 -0.00493926,0.0018201 -0.00774079,0.00184152 -0.00284079,-2.1413e-005 -0.00546388,-0.000635252 -0.00782644,-0.00186293 -0.00233758,-0.00122768 -0.00438609,-0.00293715 -0.00610627,-0.00512841 -0.00169876,-0.00221624 -0.00301923,-0.00480364 -0.00397211,-0.0077622 -0.000924327,-0.00297997 -0.00140969,-0.00620262 -0.00140969,-0.00971078 0,-0.0030228 0.000378296,-0.00598493 0.00114916,-0.00890066 0.000770867,-0.00289075 0.00193787,-0.00552098 0.003526,-0.00789068 0.00158813,-0.00236613 0.00364021,-0.00422906 0.00610984,-0.00565659 0.00246963,-0.00140255 0.00539964,-0.00212345 0.00879716,-0.00214844zm0.0477295 0.0562947l0.0116415 0 0 -0.0382757c0,-0.00100641 6.78078e-005,-0.00196999 0.000203423,-0.00289075 0.000132047,-0.000942171 0.000328332,-0.00177728 0.000595994,-0.00250175 0.000724472,-0.00216985 0.00182724,-0.00416482 0.00330474,-0.00593853 0.00149891,-0.00177728 0.00328332,-0.00320124 0.00538179,-0.00425404 0.00209133,-0.00107422 0.00438609,-0.00162025 0.00691996,-0.00164166 0.00273372,2.1413e-005 0.00504989,0.000503205 0.00694494,0.0014882 0.00189505,0.000988566 0.00341894,0.00234829 0.00458951,0.00405776 0.00114559,0.00173088 0.00198427,0.00372586 0.00251246,0.00598136 0.000528187,0.00228048 0.00079228,0.00469301 0.000770867,0.00728041l0 0.0366947 0.0116415 0 0 -0.0378796c-2.1413e-005,-0.00436111 -0.000528187,-0.00808697 -0.00149534,-0.0112026 -0.00097429,-0.00311202 -0.00227334,-0.00569942 -0.00390787,-0.00775863 -0.00162739,-0.00205921 -0.00343678,-0.00370444 -0.00542462,-0.0048893 -0.00198427,-0.00118128 -0.00398638,-0.00201639 -0.00603846,-0.00251959 -0.00203066,-0.000503205 -0.00394712,-0.000745885 -0.00575652,-0.000724472 -0.00352957,4.28259e-005 -0.00670226,0.000613839 -0.00947881,0.00175586 -0.00280153,0.00113846 -0.00518194,0.00258383 -0.0071448,0.00438252 -0.00196286,0.00179869 -0.00348318,0.00368303 -0.00453955,0.00569942l-0.000267662 0 -0.000660233 -0.0105209 -0.0103175 0c0.000196286,0.00260881 0.000328332,0.00528187 0.000417553,0.00806555 6.42389e-005,0.00278369 0.000107065,0.00583147 0.000107065,0.00916475l0 0.0464269zm0.0710197 -0.00302637c0.00226978,0.00133831 0.00496067,0.00241253 0.00804771,0.00322265 0.00308704,0.000813693 0.00641675,0.00122768 0.00994276,0.00124909 0.00500707,-2.1413e-005 0.00928252,-0.00085295 0.0128121,-0.00245535 0.00355098,-0.00162025 0.00625973,-0.00387932 0.00815834,-0.00674866 0.00187364,-0.00287291 0.00282294,-0.00620619 0.00284436,-0.00999629 0,-0.003137 -0.00063882,-0.00589927 -0.00191646,-0.008244 -0.00128478,-0.00236613 -0.00315841,-0.00442892 -0.00564946,-0.00618121 -0.00249104,-0.0017523 -0.00557808,-0.0033083 -0.00923613,-0.00464662 -0.00277655,-0.00107422 -0.00504989,-0.00210561 -0.00683788,-0.00313343 -0.001763,-0.00100998 -0.00308347,-0.00212702 -0.00392214,-0.0033547 -0.000856519,-0.00122768 -0.00127764,-0.00269803 -0.00127764,-0.00442892 0,-0.00159884 0.000392571,-0.00304778 0.0012134,-0.00436111 0.000813693,-0.00129548 0.00200568,-0.00234829 0.0035724,-0.00311559 0.00156315,-0.000788711 0.00350102,-0.00118128 0.00579578,-0.0012027 0.00198427,2.1413e-005 0.00381508,0.000217699 0.00549243,0.000635252 0.00165237,0.000413984 0.00312986,0.000899345 0.0044075,0.0014882 0.00129905,0.000571013 0.002359,0.00114203 0.00319767,0.00168806l0.00278012 -0.0084153c-0.00174516,-0.00114203 -0.00397211,-0.0020842 -0.00665944,-0.0028051 -0.0026909,-0.000745885 -0.00568871,-0.00112061 -0.00895419,-0.00114203 -0.00341537,2.1413e-005 -0.00648099,0.000503205 -0.00918973,0.00147036 -0.00273729,0.000963584 -0.00505346,0.00230189 -0.00696992,0.00401136 -0.00192003,0.00170947 -0.00337254,0.00370444 -0.00438966,0.00593853 -0.00101355,0.00225907 -0.00154173,0.0046716 -0.00154173,0.00725543 -2.1413e-005,0.00381508 0.00136686,0.007259 0.00416482,0.0102818 0.00280153,0.00304778 0.00710197,0.00561377 0.0128977,0.00773722 0.00282651,0.00103139 0.00509629,0.0020842 0.00681289,0.00317983 0.00174516,0.00107422 0.00300139,0.00230189 0.00379723,0.00364021 0.00079228,0.00135616 0.00118842,0.00293715 0.00116344,0.00475725 0,0.00181653 -0.000435397,0.00344035 -0.00134188,0.0048429 -0.000881501,0.00142396 -0.00224836,0.00254458 -0.00405419,0.00337611 -0.00183081,0.000810124 -0.00412557,0.00122768 -0.00690568,0.00124909 -0.00196286,-2.1413e-005 -0.00390073,-0.00024268 -0.00579578,-0.000703059 -0.00192003,-0.000435397 -0.00370444,-0.000984997 -0.00538179,-0.00166307 -0.00165237,-0.000681646 -0.00308704,-0.00138114 -0.00430044,-0.00210561l-0.00277655 0.00867939zm0.0613553 -0.0724686l0 0.0118378 -0.00992134 0 0 0.00881144 0.00992134 0 0 0.0348104c0,0.00370444 0.000356883,0.00696992 0.00105994,0.00975361 0.000728041,0.00278369 0.00187364,0.00508558 0.00344035,0.00686286 0.00141326,0.0015346 0.00317626,0.00271588 0.00529257,0.0035724 0.00211632,0.000856519 0.00454312,0.0012705 0.00727684,0.00129192 0.00224836,-2.1413e-005 0.00425404,-0.000174873 0.00599563,-0.000503205 0.00174516,-0.000306919 0.00319767,-0.000656665 0.00432185,-0.00107422l-0.000528187 -0.00881144c-0.000838675,0.000264093 -0.00178798,0.000460379 -0.00282294,0.000592426 -0.00105637,0.000132047 -0.002359,0.000196286 -0.00392571,0.000196286 -0.00213773,0 -0.0038579,-0.000481792 -0.00513555,-0.00144538 -0.00127764,-0.000967153 -0.00220554,-0.0023697 -0.00278012,-0.00421122 -0.0005496,-0.00184152 -0.000835106,-0.0040756 -0.000813693,-0.00670583l0 -0.0343286 0.0166664 0 0 -0.00881144 -0.0166664 0 0 -0.0152567 -0.011381 0.00341894zm0.0431043 0.075495l0.0116415 0 0 -0.0339324c0,-0.000942171 2.49818e-005,-0.00186293 9.27896e-005,-0.00280867 6.42389e-005,-0.000920758 0.000174873,-0.00179512 0.000306919,-0.00258383 0.000528187,-0.00291573 0.00152032,-0.00548172 0.00293358,-0.00767298 0.00140969,-0.00221624 0.00319767,-0.00392571 0.00533183,-0.0051748 0.0021413,-0.00122768 0.00458951,-0.00186293 0.00734465,-0.00188434 0.000795849,0 0.00150248,0 0.0021413,2.1413e-005 0.00063882,4.28259e-005 0.00123481,0.000110634 0.00182724,0.00024268l0 -0.010917c-0.000528187,-6.78078e-005 -0.00103496,-0.000132047 -0.0015453,-0.000174873 -0.000506774,-6.78078e-005 -0.00103139,-8.92207e-005 -0.00162739,-8.92207e-005 -0.00262666,2.1413e-005 -0.0051177,0.000592426 -0.00745172,0.00170947 -0.00233758,0.00114203 -0.00441464,0.00274086 -0.00622047,0.00482506 -0.00180583,0.00208063 -0.00319767,0.00453598 -0.00418624,0.00740889l-0.000399709 0 -0.000528187 -0.0126265 -0.0101854 0c0.000196286,0.00293715 0.000328332,0.00604917 0.000417553,0.00933606 6.42389e-005,0.00326905 0.000107065,0.00677364 0.000107065,0.0105245l0 0.0437967zm0.0987995 -0.0636572l-0.0116415 0 0 0.0389288c0,0.00112061 -8.92207e-005,0.00219483 -0.000285506,0.00320124 -0.000178441,0.00100998 -0.000442535,0.00193074 -0.000774436,0.00271945 -0.000703059,0.00179869 -0.001763,0.00348675 -0.00317269,0.00510699 -0.00140969,0.00159884 -0.00315484,0.00291573 -0.00518194,0.00394712 -0.00205208,0.00102782 -0.00438609,0.00155601 -0.00699134,0.00159884 -0.0034582,-2.1413e-005 -0.00623831,-0.000899345 -0.00835463,-0.0025874 -0.0020949,-0.00170947 -0.00361522,-0.0040756 -0.00454312,-0.0071448 -0.00094574,-0.00304778 -0.00140969,-0.00659876 -0.00138827,-0.010653l0 -0.0351173 -0.0116415 0 0 0.0372193c4.28259e-005,0.00552455 0.000724472,0.0101069 0.00203066,0.0137471 0.00132047,0.00361522 0.00308704,0.00646672 0.00524618,0.00852593 0.00216271,0.00208063 0.00453955,0.00352957 0.00712338,0.00438252 0.00257669,0.000856519 0.00513555,0.00125266 0.00769083,0.00122768 0.00284793,-2.1413e-005 0.00540321,-0.000392571 0.00769796,-0.00113846 0.00229119,-0.000724472 0.00432185,-0.00166664 0.00606344,-0.00285149 0.001763,-0.00118128 0.0032405,-0.00245179 0.00447531,-0.00383292 0.00123481,-0.00135972 0.00220197,-0.00269803 0.00293358,-0.00401136l0.000264093 0 0.000660233 0.0103889 0.0103211 0c-0.000203423,-0.00249818 -0.00033547,-0.00519622 -0.000421122,-0.00811195 -6.78078e-005,-0.00289075 -0.000110634,-0.00602775 -0.000110634,-0.00938245l0 -0.0461628zm0.0649313 0.0527402c-0.00162739,0.000767298 -0.00359024,0.00144894 -0.00590641,0.00205921 -0.00229476,0.000613839 -0.00509272,0.000920758 -0.00837961,0.000967153 -0.00319767,0 -0.00613125,-0.0005496 -0.00883999,-0.00164523 -0.00269447,-0.00109563 -0.00502848,-0.00267305 -0.00703773,-0.00473584 -0.00200568,-0.00205921 -0.00354385,-0.00455739 -0.0046716,-0.00749454 -0.00110277,-0.00293715 -0.00165237,-0.00624902 -0.00167735,-0.00993205 0,-0.0033083 0.00048893,-0.00642389 0.00148106,-0.00931464 0.000967153,-0.00289432 0.00240182,-0.0054389 0.00432185,-0.00765157 0.00191646,-0.00221267 0.00427546,-0.00394712 0.0070984,-0.00519622 0.00280153,-0.00124909 0.00604203,-0.00188434 0.00972149,-0.00190575 0.00317626,2.1413e-005 0.00586359,0.000349745 0.0080941,0.000963584 0.00222695,0.000613839 0.00401493,0.00129548 0.00540321,0.00206278l0.0026445 -0.00881501c-0.00108136,-0.000592426 -0.0024268,-0.00113846 -0.00406133,-0.00164166 -0.0016488,-0.000528187 -0.00350102,-0.000942171 -0.0055531,-0.00127407 -0.00205208,-0.000328332 -0.00421122,-0.000503205 -0.00652739,-0.000503205 -0.00524618,2.1413e-005 -0.00996417,0.000877932 -0.0141968,0.00254458 -0.00421122,0.00166307 -0.00783001,0.00403278 -0.0108278,0.00708056 -0.0030228,0.0030228 -0.0053354,0.00662018 -0.00694494,0.0107386 -0.00158813,0.004122 -0.00240182,0.00863657 -0.0024268,0.0135687 2.49818e-005,0.0048893 0.000770867,0.00931821 0.00227334,0.0132868 0.00149891,0.00398995 0.00364021,0.00738748 0.00643817,0.0102568 0.00278012,0.00287291 0.00612768,0.00506417 0.0100284,0.00659876 0.00392928,0.00155601 0.00829396,0.00232331 0.013144,0.00234472 0.00286577,-2.1413e-005 0.00551384,-0.000239112 0.00791566,-0.000635252 0.00240539,-0.000392571 0.00447531,-0.000874363 0.00626329,-0.00144538 0.00178441,-0.000571013 0.00317269,-0.00109563 0.00421122,-0.0016024l-0.00198784 -0.00867939zm0.0219376 -0.064578l0 0.0118378 -0.00992134 0 0 0.00881144 0.00992134 0 0 0.0348104c0,0.00370444 0.000356883,0.00696992 0.00105994,0.00975361 0.000728041,0.00278369 0.00187364,0.00508558 0.00343678,0.00686286 0.00141683,0.0015346 0.00317983,0.00271588 0.00529614,0.0035724 0.00211275,0.000856519 0.00453955,0.0012705 0.00727684,0.00129192 0.00224479,-2.1413e-005 0.00425404,-0.000174873 0.00599563,-0.000503205 0.00174159,-0.000306919 0.00319767,-0.000656665 0.00432185,-0.00107422l-0.000528187 -0.00881144c-0.000842244,0.000264093 -0.00178798,0.000460379 -0.00282294,0.000592426 -0.00105994,0.000132047 -0.00236256,0.000196286 -0.00392571,0.000196286 -0.0021413,0 -0.00386147,-0.000481792 -0.00513911,-0.00144538 -0.00127764,-0.000967153 -0.00220197,-0.0023697 -0.00277655,-0.00421122 -0.0005496,-0.00184152 -0.000838675,-0.0040756 -0.000813693,-0.00670583l0 -0.0343286 0.0166664 0 0 -0.00881144 -0.0166664 0 0 -0.0152567 -0.011381 0.00341894zm0.0547458 0.075495l0 -0.0636572 -0.0116415 0 0 0.0636572 0.0116415 0zm-0.00581719 -0.0886497c-0.00145608,2.49818e-005 -0.00273729,0.000353314 -0.00384006,0.000988566 -0.00107779,0.000656665 -0.00191646,0.0015346 -0.00251246,0.00260881 -0.000617407,0.00109563 -0.000924327,0.00230189 -0.000924327,0.00363664 0,0.00133831 0.000306919,0.00252316 0.000881501,0.00359738 0.000571013,0.00107422 0.00138827,0.00190575 0.00242323,0.00254101 0.00105994,0.000635252 0.00229476,0.000942171 0.00370444,0.000963584 0.0015453,-2.1413e-005 0.00286934,-0.000328332 0.00397211,-0.000963584 0.0010992,-0.000635252 0.00195929,-0.00146679 0.00255528,-0.00254101 0.000574581,-0.00107422 0.000881501,-0.00225907 0.000881501,-0.00359738 0,-0.00138114 -0.000306919,-0.00260881 -0.000902914,-0.00368303 -0.000595994,-0.00109563 -0.00143467,-0.00194858 -0.00251246,-0.00258383 -0.00105994,-0.000635252 -0.00231617,-0.000942171 -0.00372586,-0.000967153z"/>
   <path id="_341850520" class="fil8" d="M1.93741 0.68822c-0.00443249,0 -0.00855448,0.000767298 -0.0123945,0.00228048 -0.00381151,0.00151318 -0.00718405,0.00372586 -0.0100748,0.00662018 -0.0029086,0.00289432 -0.00515696,0.00642389 -0.00678791,0.0105673 -0.00163452,0.00416482 -0.00246963,0.00889709 -0.00249461,0.0142039 2.49818e-005,0.00503919 0.000817262,0.00957874 0.00238398,0.0136115 0.00156315,0.00401136 0.00372586,0.00745528 0.00652382,0.0103032 0.00278012,0.00285149 0.00602061,0.00504276 0.00972506,0.00655594 0.00372586,0.00150961 0.00774079,0.0022555 0.0120626,0.00227691 0.00308704,0 0.00617051,-0.000413984 0.00921472,-0.00124909 0.00304421,-0.00085295 0.00592783,-0.00212702 0.0086437,-0.00387932 0.00270874,-0.00173088 0.00511413,-0.00392214 0.00723402,-0.00659876 0.00209133,-0.00267305 0.00374727,-0.00585288 0.00493569,-0.0095145 0.0012134,-0.00365805 0.00183081,-0.00784429 0.00185222,-0.0125587 -2.1413e-005,-0.00484647 -0.000749454,-0.00927182 -0.00222695,-0.0132618 -0.0014775,-0.00396854 -0.0035724,-0.00740889 -0.00628471,-0.0103032 -0.00273372,-0.00289432 -0.00597422,-0.00510699 -0.0097429,-0.00668799 -0.00377225,-0.00155601 -0.00796206,-0.00234472 -0.0125694,-0.00236613zm-0.000264093 0.00867939c0.00275514,2.49818e-005 0.00518194,0.000528187 0.00727684,0.00149177 0.00211275,0.000988566 0.00392214,0.00230189 0.00542462,0.00396854 0.00149534,0.00166664 0.00273015,0.00355098 0.00370444,0.00565659 0.00094574,0.00208063 0.0016488,0.00427189 0.00211275,0.00655237 0.000442535,0.00225907 0.000663802,0.00449316 0.000663802,0.006663 -2.49818e-005,0.00359738 -0.000510343,0.00690568 -0.0014775,0.00991064 -0.000970722,0.00300139 -0.00231617,0.0056102 -0.00407917,0.00782644 -0.00174516,0.00221267 -0.00379367,0.00392214 -0.00615266,0.00514982 -0.002359,0.00120626 -0.00493926,0.0018201 -0.00773722,0.00184152 -0.00284436,-2.1413e-005 -0.00546745,-0.000635252 -0.00783001,-0.00186293 -0.00233758,-0.00122768 -0.00438609,-0.00293715 -0.00610627,-0.00512841 -0.00169876,-0.00221624 -0.00301923,-0.00480364 -0.00396854,-0.0077622 -0.000927896,-0.00297997 -0.00141326,-0.00620262 -0.00141326,-0.00971078 0,-0.0030228 0.000378296,-0.00598493 0.00114916,-0.00890066 0.000770867,-0.00289075 0.00193787,-0.00552098 0.003526,-0.00789068 0.0015917,-0.00236613 0.00364021,-0.00422906 0.00610984,-0.00565659 0.00246963,-0.00140255 0.00540321,-0.00212345 0.00879716,-0.00214844zm0.0477331 0.0562947l0.0116415 0 0 -0.0382757c0,-0.00100641 6.78078e-005,-0.00196999 0.000199854,-0.00289075 0.000132047,-0.000942171 0.000328332,-0.00177728 0.000595994,-0.00250175 0.000724472,-0.00216985 0.00182724,-0.00416482 0.00330474,-0.00593853 0.00150248,-0.00177728 0.00328689,-0.00320124 0.00538179,-0.00425404 0.00209133,-0.00107422 0.00438609,-0.00162025 0.00691996,-0.00164166 0.00273729,2.1413e-005 0.00504989,0.000503205 0.00694851,0.0014882 0.00189505,0.000988566 0.00341537,0.00234829 0.00458595,0.00405776 0.00114559,0.00173088 0.00198427,0.00372586 0.00251246,0.00598136 0.000528187,0.00228048 0.00079228,0.00469301 0.000770867,0.00728041l0 0.0366947 0.0116415 0 0 -0.0378796c-2.1413e-005,-0.00436111 -0.000528187,-0.00808697 -0.00149534,-0.0112026 -0.00097429,-0.00311202 -0.00227334,-0.00569942 -0.00390787,-0.00775863 -0.00162739,-0.00205921 -0.00343678,-0.00370444 -0.00542105,-0.0048893 -0.00198784,-0.00118128 -0.00398995,-0.00201639 -0.00604203,-0.00251959 -0.00202709,-0.000503205 -0.00394712,-0.000745885 -0.00575652,-0.000724472 -0.003526,4.28259e-005 -0.00669869,0.000613839 -0.00947881,0.00175586 -0.00279796,0.00113846 -0.00517837,0.00258383 -0.0071448,0.00438252 -0.00196286,0.00179869 -0.00348318,0.00368303 -0.00453955,0.00569942l-0.000264093 0 -0.000660233 -0.0105209 -0.0103211 0c0.000196286,0.00260881 0.000328332,0.00528187 0.000421122,0.00806555 6.42389e-005,0.00278369 0.000107065,0.00583147 0.000107065,0.00916475l0 0.0464269z"/>
  </g>
  <path class="fil9" d="M0.2839 0.295888c0.0667799,0.0231617 0.13356,0.0463234 0.20034,0.0694851 -0.0694708,-0.00286577 -0.139241,-0.0373407 -0.199712,0.00878646 -0.0740139,-0.0402421 -0.130387,-0.0109599 -0.200968,-0.00878646l0.20034 -0.0694851z"/>
  <polygon class="fil7" points="-0,0 2.20467,0 2.20467,0.804546 -0,0.804546 "/>
  <path class="fil10" d="M0.973701 0.386918l0.0802094 0c-0.00170947,0.00741603 -0.00411843,0.0141397 -0.00722688,0.0200889 -0.0030335,0.00595281 -0.00645244,0.0112061 -0.010264,0.0157671 -0.00380794,0.00455739 -0.00776934,0.00834392 -0.0118878,0.0114345 -0.0058279,0.00432899 -0.0121269,0.00780503 -0.0189683,0.0105887 -0.00675936,0.0027016 -0.0138328,0.00471085 -0.0209847,0.00602418 -0.00723045,0.0013169 -0.0142218,0.00193431 -0.0211382,0.00193431 -0.0110384,-7.85142e-005 -0.0208313,-0.00139184 -0.0295356,-0.00386504 -0.00862943,-0.0024732 -0.0161668,-0.00571726 -0.0226978,-0.00973577 -0.00653096,-0.0040185 -0.0121269,-0.00826898 -0.0167878,-0.0128264 -0.00334399,-0.00309061 -0.00676293,-0.00703416 -0.0103389,-0.0117486 -0.00357597,-0.00471085 -0.00683788,-0.0101997 -0.00994633,-0.0166914 -0.00310845,-0.00641319 -0.00559592,-0.0137543 -0.00753737,-0.0220197 -0.00194858,-0.00826898 -0.00287648,-0.0176193 -0.00295499,-0.0278975 7.85142e-005,-0.0116701 0.00147393,-0.0225657 0.00419694,-0.0327654 0.00264093,-0.0102747 0.00637393,-0.01955 0.0110348,-0.027819 0.00474297,-0.00826541 0.0100284,-0.0152996 0.0160133,-0.0210168 0.00644887,-0.00618121 0.0136793,-0.0112811 0.0216093,-0.0153781 0.00800488,-0.0040185 0.0162417,-0.00703059 0.0248676,-0.00903984 0.00855091,-0.00193431 0.0170233,-0.00293715 0.0253387,-0.00293715 0.00730539,0 0.0148463,0.000770867 0.0224658,0.00239468 0.00761588,0.00162382 0.0147678,0.00409702 0.0213701,0.00734108 0.00334399,0.00162382 0.00715193,0.0040185 0.0114274,0.00710911 0.00427546,0.00309061 0.00855091,0.00703416 0.0129013,0.011902 0.00443249,0.00478937 0.00839745,0.0106637 0.0120448,0.0176157l0.0527009 -0.0282794c-0.00544246,-0.00927539 -0.0114274,-0.0175408 -0.0178763,-0.0248069 -0.00644887,-0.00718762 -0.0131333,-0.0134438 -0.0199747,-0.0187756 -0.00691996,-0.00525689 -0.0136829,-0.00958231 -0.0204458,-0.0129834 -0.0118878,-0.00618121 -0.0239361,-0.0104317 -0.0360594,-0.0128264 -0.0121269,-0.00239825 -0.0240182,-0.00347961 -0.0357525,-0.00340109 -0.0150034,7.85142e-005 -0.0287612,0.00139184 -0.0412735,0.00409702 -0.0124374,0.00262666 -0.0237862,0.00618121 -0.033886,0.0106637 -0.0101069,0.00447888 -0.0190433,0.00958231 -0.0269732,0.0151425 -0.00785142,0.00564232 -0.0146893,0.0114381 -0.0205208,0.0173873 -0.0047394,0.00463591 -0.0097893,0.0104317 -0.0149998,0.0173873 -0.00528187,0.00695565 -0.0101783,0.0151461 -0.0148463,0.0246499 -0.00466446,0.00942885 -0.00839389,0.020246 -0.0113453,0.03238 -0.00287648,0.0121304 -0.00443249,0.0256527 -0.004511,0.0405669 7.85142e-005,0.0139113 0.00132047,0.0265842 0.00380794,0.0380973 0.00240896,0.0114345 0.00552098,0.0217128 0.00933249,0.0308311 0.00388289,0.00904341 0.0079228,0.0170019 0.0121197,0.0237256 0.00427546,0.00672011 0.00824043,0.0122839 0.0119734,0.0166914 0.00372943,0.00440394 0.00668442,0.007648 0.00893635,0.00981071 0.0114274,0.0112061 0.0233187,0.019782 0.0357525,0.0258883 0.0125159,0.00602775 0.0252602,0.0101997 0.03824,0.0125195 0.0129834,0.00231617 0.0258811,0.00339753 0.0388645,0.00332258 0.0129798,7.49454e-005 0.0258847,-0.00108136 0.038704,-0.00347961 0.0128264,-0.00239468 0.0253423,-0.00656665 0.0374656,-0.0125159 0.0121269,-0.00595281 0.0235507,-0.0142182 0.0343535,-0.0248069 0.00855091,-0.00850095 0.0156208,-0.0176943 0.0212203,-0.0275085 0.00567444,-0.00981428 0.0101034,-0.0197035 0.0134438,-0.0297498 0.00326905,-0.0100463 0.00575295,-0.0196286 0.00730539,-0.0288254 0.00163452,-0.00911836 0.00264807,-0.0173838 0.00311202,-0.0246499 0.000463948,-0.00718762 0.000695922,-0.0129798 0.000620976,-0.0172303l0 -0.00371158 -0.1427 0 0 0.05193zm0.190269 -0.224404l0 0.337997 0.0568943 0 0 -0.337997 -0.0568943 0zm0.110991 0.137239l0 0.200757 0.0568943 0 0 -0.200757 -0.0568943 0zm-0.00559592 -0.0848489c7.85142e-005,0.00625973 0.00163095,0.011902 0.00466089,0.0170019 0.0030335,0.00509986 0.00715193,0.00911836 0.0122803,0.012209 0.00513198,0.00301209 0.0108064,0.00456096 0.0171018,0.00463591 0.00629541,-7.49454e-005 0.0119699,-0.00162382 0.0170983,-0.00463591 0.00512841,-0.00309061 0.0092504,-0.00710911 0.0122839,-0.012209 0.00302994,-0.00509986 0.00458238,-0.0107422 0.00466089,-0.0170019 -7.85142e-005,-0.00625616 -0.00163095,-0.0118985 -0.00466089,-0.0169983 -0.0030335,-0.00509986 -0.0071555,-0.00919687 -0.0122839,-0.012209 -0.00512841,-0.00301566 -0.0108028,-0.00456096 -0.0170983,-0.00463591 -0.00629541,7.49454e-005 -0.0119699,0.00162025 -0.0171018,0.00463591 -0.00512841,0.00301209 -0.00924684,0.00710911 -0.0122803,0.012209 -0.00302994,0.00509986 -0.00458238,0.0107422 -0.00466089,0.0169983zm0.271417 0.110812c-0.00482149,-0.00734108 -0.0101854,-0.0132154 -0.0160133,-0.0176193 -0.00583147,-0.00432542 -0.0118164,-0.00757306 -0.0177978,-0.00973577 -0.00598493,-0.00216271 -0.0117379,-0.00355455 -0.0171018,-0.00417196 -0.00536395,-0.000695922 -0.0100248,-0.00100641 -0.0139113,-0.000927896 -0.0149998,7.85142e-005 -0.0286006,0.00285863 -0.0408845,0.00834392 -0.0122018,0.00541034 -0.0227727,0.0129834 -0.0316305,0.0227192 -0.00886497,0.00973933 -0.0157028,0.0210204 -0.0204458,0.0338468 -0.00481435,0.0129049 -0.00722331,0.0268162 -0.00730539,0.0417267 8.20831e-005,0.0148392 0.00249104,0.028672 0.00738391,0.0415733 0.00489643,0.0129049 0.0118164,0.0242645 0.0209062,0.0340787 0.00901843,0.00981428 0.0198998,0.0174658 0.0324906,0.0230297 0.0126729,0.00548529 0.0267412,0.00834392 0.0422835,0.00842244 0.00365448,7.49454e-005 0.00800488,-0.000231974 0.0129013,-0.00100641 0.00497495,-0.000695922 0.010264,-0.0020842 0.0158599,-0.00425048 0.00559592,-0.00216271 0.0112668,-0.00548529 0.0169412,-0.00981071 0.00574938,-0.00432899 0.0111133,-0.0101248 0.0163238,-0.0173873l0 0.0259632 0.0568907 0 0 -0.337997 -0.0568907 0 0 0.163203zm-0.0503669 0.0176193c0.0109599,7.49454e-005 0.0206742,0.00262666 0.0289896,0.00757306 0.00839745,0.00486788 0.0149998,0.0115916 0.0197428,0.0200889 0.00474297,0.00850095 0.00715193,0.0181618 0.00723045,0.0289004 -7.85142e-005,0.0107422 -0.00248747,0.0204779 -0.00723045,0.0289789 -0.00474297,0.00857947 -0.0113453,0.0153781 -0.0197428,0.0203994 -0.00831537,0.0049464 -0.0180297,0.00757306 -0.0289896,0.00765157 -0.0109599,-7.85142e-005 -0.0206778,-0.00270517 -0.0289896,-0.00765157 -0.00839745,-0.00502134 -0.0150034,-0.01182 -0.0197428,-0.0203994 -0.00474297,-0.00850095 -0.00715193,-0.0182367 -0.00723045,-0.0289789 7.85142e-005,-0.0107386 0.00248747,-0.0203994 0.00723045,-0.0289004 0.0047394,-0.00849738 0.0113453,-0.0152211 0.0197428,-0.0200889 0.0083118,-0.0049464 0.0180297,-0.00749811 0.0289896,-0.00757306zm0.307323 0.0927289c-0.00466446,0.00819046 -0.0110348,0.0146036 -0.0189648,0.0193181 -0.00800488,0.00463591 -0.0173302,0.00703059 -0.0281366,0.00710911 -0.00730182,-7.85142e-005 -0.0136008,-0.00108136 -0.0188862,-0.00309061 -0.00536395,-0.00193074 -0.00979287,-0.00440394 -0.0133688,-0.00726257 -0.00349745,-0.00293715 -0.00629541,-0.00579578 -0.00831537,-0.00865798 -0.00326548,-0.00447888 -0.00575295,-0.00973577 -0.00738391,-0.015685 -0.00163095,-0.00594924 -0.00240896,-0.0120555 -0.00240896,-0.0181582l0.151097 0 0 -0.00463591c7.49454e-005,-0.00734108 -0.000392571,-0.0155351 -0.00155244,-0.0244215 -0.00108849,-0.00896133 -0.00334399,-0.0181582 -0.00684501,-0.0275085 -0.00349388,-0.00935033 -0.00878289,-0.0183152 -0.0158527,-0.0268911 -0.00458595,-0.00564232 -0.0104924,-0.0109741 -0.0174908,-0.0159955 -0.00706985,-0.0049464 -0.0156993,-0.0089649 -0.0257241,-0.012134 -0.0101069,-0.00309061 -0.0219947,-0.00471085 -0.0355991,-0.00478937 -0.00816191,-7.85142e-005 -0.0165558,0.000617407 -0.0251817,0.00216271 -0.00870437,0.0015453 -0.0173302,0.00440394 -0.0259597,0.00850095 -0.00862586,0.00409702 -0.0168663,0.00996774 -0.0248747,0.0176193 -0.00489643,0.00471442 -0.00971435,0.0107422 -0.0143752,0.0179262 -0.00466803,0.00726614 -0.00855091,0.015842 -0.0116594,0.0258883 -0.0030335,0.0101212 -0.00458951,0.0217128 -0.00474297,0.0350031 -7.85142e-005,0.0157635 0.00240896,0.0301388 0.00746242,0.0431971 0.00505346,0.0129834 0.0131369,0.0247284 0.0242502,0.0351601 0.0099499,0.00950379 0.0212952,0.0166129 0.0339645,0.0212488 0.0127479,0.00471442 0.0272052,0.00703416 0.0434469,0.00703416 0.0140683,-7.85142e-005 0.0263487,-0.00177728 0.0367661,-0.00509986 0.0104924,-0.00324763 0.0194323,-0.00749811 0.0268911,-0.0126729 0.00738391,-0.00517837 0.0135259,-0.0105887 0.0183438,-0.0163845 0.0049,-0.00571726 0.00870794,-0.0112026 0.0114238,-0.0162275 0.00280153,-0.00509986 0.00474297,-0.00911836 0.00590998,-0.012209l-0.0522334 -0.00834392zm-0.0955982 -0.0625937c0.00163095,-0.00896133 0.00489643,-0.0164594 0.00971078,-0.0224087 0.00482149,-0.00594924 0.0105744,-0.0104317 0.0172589,-0.0134438 0.0066059,-0.00301566 0.0135223,-0.00448245 0.0205957,-0.00448245 0.00715193,0 0.0140683,0.00146679 0.0207527,0.00440394 0.00668799,0.00285863 0.0125123,0.00734108 0.0174123,0.0132903 0.00489643,0.00602775 0.00823686,0.0135223 0.00986781,0.0226407l-0.0955982 0z"/>
 </g>
</svg>
